<svg width="48" height="48" viewBox="0 0 48 48" fill="none" xmlns="http://www.w3.org/2000/svg">
<path d="M38.4002 21.6002H26.4002V9.6002C26.4002 8.27476 25.3256 7.2002 24.0002 7.2002C22.6749 7.2002 21.6002 8.27476 21.6002 9.6002V21.6002H9.6002C8.27476 21.6002 7.2002 22.6749 7.2002 24.0002C7.2002 25.3256 8.27476 26.4002 9.6002 26.4002H21.6002V38.4002C21.6002 39.7255 22.6749 40.8002 24.0002 40.8002C25.3256 40.8002 26.4002 39.7255 26.4002 38.4002V26.4002H38.4002C39.7255 26.4002 40.8002 25.3256 40.8002 24.0002C40.8002 22.6749 39.7255 21.6002 38.4002 21.6002Z" fill="white"/>
</svg>
