<svg width="48" height="48" viewBox="0 0 48 48" fill="none" xmlns="http://www.w3.org/2000/svg">
<path fill-rule="evenodd" clip-rule="evenodd" d="M0 12.75C0 7.57231 4.19731 3.375 9.375 3.375H23.625C28.8027 3.375 33 7.57231 33 12.75V35.25C33 38.6669 36.0426 41.3727 39.5835 40.7967C42.2316 40.3658 44.25 37.806 44.25 34.8488V12.75C44.25 11.7145 45.0895 10.875 46.125 10.875C47.1605 10.875 48 11.7145 48 12.75V34.8488C48 39.3636 44.9126 43.729 40.1856 44.498L40.1856 44.498C39.6166 44.5906 39.0549 44.6316 38.5046 44.625H9.375C4.19731 44.625 0 40.4277 0 35.25V12.75ZM31.1248 40.875H9.375C6.26838 40.875 3.75 38.3566 3.75 35.25V12.75C3.75 9.64338 6.26838 7.125 9.375 7.125H23.625C26.7316 7.125 29.25 9.64338 29.25 12.75V35.25C29.25 37.3605 29.948 39.3081 31.1248 40.875Z" fill="white"/>
<path fill-rule="evenodd" clip-rule="evenodd" d="M38.625 10.875C39.6605 10.875 40.5 11.7145 40.5 12.75V35.25C40.5 36.2855 39.6605 37.125 38.625 37.125C37.5895 37.125 36.75 36.2855 36.75 35.25V12.75C36.75 11.7145 37.5895 10.875 38.625 10.875Z" fill="white"/>
<path fill-rule="evenodd" clip-rule="evenodd" d="M7.5 16.5C7.5 15.4645 8.33947 14.625 9.375 14.625H23.625C24.6605 14.625 25.5 15.4645 25.5 16.5C25.5 17.5355 24.6605 18.375 23.625 18.375H9.375C8.33947 18.375 7.5 17.5355 7.5 16.5Z" fill="white"/>
<path fill-rule="evenodd" clip-rule="evenodd" d="M7.5 24C7.5 22.9645 8.33947 22.125 9.375 22.125H23.625C24.6605 22.125 25.5 22.9645 25.5 24C25.5 25.0355 24.6605 25.875 23.625 25.875H9.375C8.33947 25.875 7.5 25.0355 7.5 24Z" fill="white"/>
<path fill-rule="evenodd" clip-rule="evenodd" d="M7.5 31.5C7.5 30.4645 8.33947 29.625 9.375 29.625H23.625C24.6605 29.625 25.5 30.4645 25.5 31.5C25.5 32.5355 24.6605 33.375 23.625 33.375H9.375C8.33947 33.375 7.5 32.5355 7.5 31.5Z" fill="white"/>
</svg>
