<svg width="48" height="48" viewBox="0 0 48 48" fill="none" xmlns="http://www.w3.org/2000/svg">
<g clip-path="url(#clip0_1119_3837)">
<path d="M46.1255 7.5H43.1521L47.4513 3.20081C47.9876 2.66456 48.148 1.85812 47.8577 1.15744C47.5676 0.456844 46.8839 0 46.1255 0H38.6255C37.59 0 36.7505 0.839438 36.7505 1.875C36.7505 2.91056 37.59 3.75 38.6255 3.75H41.5989L37.2997 8.04919C36.7635 8.58544 36.603 9.39187 36.8933 10.0926C37.1835 10.7932 37.8672 11.25 38.6255 11.25H46.1255C47.1611 11.25 48.0005 10.4106 48.0005 9.375C48.0005 8.33944 47.1611 7.5 46.1255 7.5Z" fill="white"/>
<path d="M23.3239 18.0926C23.6141 18.7932 24.2979 19.25 25.0562 19.25H32.5562C33.5918 19.25 34.4312 18.4106 34.4312 17.375C34.4312 16.3394 33.5918 15.5 32.5562 15.5H29.5828L33.882 11.2008C34.4183 10.6646 34.5787 9.85812 34.2884 9.15744C33.9983 8.45684 33.3146 8 32.5562 8H25.0562C24.0206 8 23.1812 8.83944 23.1812 9.875C23.1812 10.9106 24.0206 11.75 25.0562 11.75H28.0296L23.7304 16.0492C23.1941 16.5854 23.0337 17.392 23.3239 18.0926Z" fill="white"/>
<path d="M21.2461 47.9999H29.1149C30.2014 47.9999 31.0821 47.1192 31.0821 46.0327C31.0821 44.9462 30.2014 44.0655 29.1149 44.0655H21.2461C20.1596 44.0655 19.2789 44.9462 19.2789 46.0327C19.2789 47.1192 20.1596 47.9999 21.2461 47.9999Z" fill="white"/>
<path d="M27.9082 1.84608C27.6571 1.79542 27.4035 1.75161 27.1477 1.71486C25.9813 1.71475 25.8787 1.71473 25.7762 1.71472C25.7035 1.71472 25.6309 1.71473 25.1805 1.71473L23.2133 1.71481C16.5489 2.67225 11.41 8.41902 11.41 15.3442V27.4382C11.41 28.1315 11.0977 28.7622 10.6331 29.0077C8.68542 30.036 7.47559 32.0369 7.47559 34.2294C7.47559 37.4836 10.1231 40.1311 13.3772 40.1311H36.9838C40.2379 40.1311 42.8854 37.4836 42.8854 34.2294C42.8854 32.0369 41.6756 30.036 39.7279 29.0077C39.2632 28.7623 38.951 28.1316 38.951 27.4382V20.7206C38.9073 20.721 38.8636 20.7213 38.8198 20.7213C37.4943 20.7213 36.2165 20.5164 35.0166 20.1366V27.4382C35.0166 29.6161 36.1179 31.5506 37.8909 32.4868C38.5448 32.832 38.951 33.4998 38.951 34.2294C38.951 35.3142 38.0685 36.1967 36.9838 36.1967H13.3772C12.2925 36.1967 11.41 35.3142 11.41 34.2294C11.41 33.4998 11.8162 32.832 12.4701 32.4868C14.2431 31.5506 15.3444 29.6161 15.3444 27.4382V15.3442C15.3444 9.92059 19.7569 5.50813 25.1805 5.50813C25.6228 5.50813 26.0584 5.53748 26.4853 5.59432C26.7593 4.25521 27.2459 2.99352 27.9082 1.84608Z" fill="white"/>
</g>
<defs>
<clipPath id="clip0_1119_3837">
<rect width="48" height="48" fill="white"/>
</clipPath>
</defs>
</svg>
