<svg width="48" height="48" viewBox="0 0 48 48" fill="none" xmlns="http://www.w3.org/2000/svg">
<path d="M20.25 48H27.75C28.7856 48 29.625 47.1606 29.625 46.125C29.625 45.0894 28.7856 44.25 27.75 44.25H20.25C19.2144 44.25 18.375 45.0894 18.375 46.125C18.375 47.1606 19.2144 48 20.25 48Z" fill="white"/>
<path fill-rule="evenodd" clip-rule="evenodd" d="M42.1993 5.78967C42.9233 6.50762 42.9282 7.67652 42.2102 8.4005L8.41143 42.4833C7.69348 43.2073 6.52457 43.2122 5.80059 42.4943C5.07662 41.7763 5.07172 40.6074 5.78967 39.8834L39.5885 5.80059C40.3064 5.07662 41.4753 5.07172 42.1993 5.78967Z" fill="white"/>
<path fill-rule="evenodd" clip-rule="evenodd" d="M22.125 1.875C22.125 0.839438 22.9644 0 24 0C25.0356 0 25.875 0.839438 25.875 1.875V3.88453C29.1715 4.35812 32.0763 6.06111 34.1082 8.51249L31.4417 11.1791C29.7266 8.9437 27.0287 7.5 24 7.5C18.8306 7.5 14.625 11.7056 14.625 16.875V27.9957L7.15572 35.465C7.13541 35.2711 7.125 35.0742 7.125 34.875C7.125 32.7852 8.27812 30.8782 10.1345 29.898C10.5773 29.664 10.875 29.0629 10.875 28.4021V16.875C10.875 10.2744 15.773 4.79709 22.125 3.88453V1.875ZM13.3963 40.5H35.25C38.3516 40.5 40.875 37.9766 40.875 34.875C40.875 32.7852 39.7219 30.8782 37.8655 29.898C37.4226 29.6641 37.125 29.063 37.125 28.4021V16.875C37.125 16.8405 37.1249 16.8061 37.1246 16.7717L33.375 20.5213V28.4021C33.375 30.4779 34.4247 32.3217 36.1146 33.214C36.7378 33.5431 37.125 34.1796 37.125 34.875C37.125 35.9089 36.2839 36.75 35.25 36.75H17.1463L13.3963 40.5Z" fill="white"/>
</svg>
