<svg width="48" height="48" viewBox="0 0 48 48" fill="none" xmlns="http://www.w3.org/2000/svg">
<path d="M24 4C12.9717 4 4 12.9726 4 24C4 35.0273 12.9717 43.9999 24 43.9999C35.0283 43.9999 43.9999 35.0273 43.9999 24C43.9999 12.9726 35.0283 4 24 4ZM24 40C15.1781 40 7.99994 32.8218 7.99994 24C7.99994 15.1781 15.1781 7.99994 24 7.99994C32.8218 7.99994 40 15.1781 40 24C40 32.8218 32.8218 40 24 40ZM25.9999 16C25.9999 16.3956 25.8826 16.7822 25.6628 17.1111C25.4431 17.44 25.1307 17.6963 24.7653 17.8477C24.3998 17.999 23.9977 18.0386 23.6097 17.9614C23.2218 17.8843 22.8654 17.6938 22.5857 17.4141C22.3061 17.1344 22.1156 16.778 22.0384 16.39C21.9613 16.0021 22.0009 15.6 22.1522 15.2345C22.3036 14.8691 22.56 14.5567 22.8889 14.337C23.2177 14.1172 23.6044 13.9999 24 13.9999C24.2626 13.9999 24.5227 14.0517 24.7653 14.1522C25.008 14.2527 25.2285 14.4 25.4142 14.5857C25.5999 14.7715 25.7472 14.992 25.8477 15.2346C25.9482 15.4773 26 15.7374 25.9999 16ZM25.9999 24V31.9999C25.9999 32.5304 25.7892 33.0391 25.4142 33.4141C25.0391 33.7892 24.5304 33.9999 24 33.9999C23.4695 33.9999 22.9608 33.7892 22.5858 33.4141C22.2107 33.0391 22 32.5304 22 31.9999V24C22 23.4695 22.2107 22.9608 22.5858 22.5858C22.9608 22.2107 23.4695 22 24 22C24.5304 22 25.0391 22.2107 25.4142 22.5858C25.7892 22.9608 25.9999 23.4695 25.9999 24Z" fill="white"/>
</svg>
