<svg width="48" height="48" viewBox="0 0 48 48" fill="none" xmlns="http://www.w3.org/2000/svg">
<path d="M33.4141 18.5859C33.5998 18.7716 33.7472 18.992 33.8477 19.2347C33.9482 19.4773 34 19.7374 34 20C34 20.2626 33.9482 20.5227 33.8477 20.7653C33.7472 21.0079 33.5998 21.2284 33.4141 21.4141L23.414 31.414C23.2284 31.5998 23.0079 31.7471 22.7653 31.8477C22.5227 31.9482 22.2626 31.9999 22 31.9999C21.7373 31.9999 21.4773 31.9482 21.2346 31.8477C20.992 31.7471 20.7715 31.5998 20.5859 31.414L14.5859 25.414C14.3994 25.2285 14.2514 25.008 14.1503 24.7652C14.0492 24.5223 13.997 24.262 13.9967 23.9989C13.9964 23.7359 14.048 23.4754 14.1485 23.2323C14.249 22.9893 14.3965 22.7684 14.5825 22.5824C14.7685 22.3965 14.9893 22.249 15.2324 22.1485C15.4754 22.048 15.736 21.9964 15.999 21.9967C16.262 21.9971 16.5224 22.0493 16.7652 22.1504C17.008 22.2515 17.2285 22.3995 17.414 22.5859L22 27.1718L30.5859 18.5859C30.7716 18.4002 30.992 18.2528 31.2347 18.1523C31.4773 18.0518 31.7374 18 32 18C32.2626 18 32.5227 18.0518 32.7653 18.1523C33.0079 18.2528 33.2284 18.4002 33.4141 18.5859ZM43.9999 24C43.9999 35.0273 35.0281 43.9999 24 43.9999C12.9719 43.9999 4 35.0273 4 24C4 12.9726 12.9717 4 24 4C35.0283 4 43.9999 12.9726 43.9999 24ZM40 24C40 15.1781 32.8218 7.99994 24 7.99994C15.1781 7.99994 7.99994 15.1781 7.99994 24C7.99994 32.8218 15.1781 40 24 40C32.8218 40 40 32.8218 40 24Z" fill="white"/>
</svg>
