<svg width="48" height="48" viewBox="0 0 48 48" fill="none" xmlns="http://www.w3.org/2000/svg">
<path d="M24 4C12.9717 4 4 12.9726 4 24C4 35.0273 12.9717 43.9999 24 43.9999C35.0283 43.9999 43.9999 35.0273 43.9999 24C43.9999 12.9726 35.0283 4 24 4ZM24 40C15.1781 40 7.99994 32.8218 7.99994 24C7.99994 15.1781 15.1781 7.99994 24 7.99994C32.8218 7.99994 40 15.1781 40 24C40 32.8218 32.8218 40 24 40ZM25.9999 31.9999C25.9999 32.3955 25.8826 32.7822 25.6629 33.1111C25.4431 33.44 25.1308 33.6963 24.7653 33.8477C24.3999 33.999 23.9978 34.0386 23.6098 33.9615C23.2218 33.8843 22.8655 33.6938 22.5858 33.4141C22.3061 33.1344 22.1156 32.7781 22.0384 32.3901C21.9613 32.0022 22.0009 31.6 22.1522 31.2346C22.3036 30.8691 22.56 30.5568 22.8888 30.337C23.2177 30.1173 23.6044 30 24 30C24.5304 30 25.0391 30.2107 25.4142 30.5857C25.7892 30.9608 25.9999 31.4695 25.9999 31.9999ZM25.9999 16V24C25.9999 24.5304 25.7892 25.0391 25.4142 25.4142C25.0391 25.7892 24.5304 25.9999 24 25.9999C23.4695 25.9999 22.9608 25.7892 22.5858 25.4142C22.2107 25.0391 22 24.5304 22 24V16C22 15.4696 22.2107 14.9609 22.5858 14.5858C22.9608 14.2107 23.4695 14 24 14C24.5304 14 25.0391 14.2107 25.4142 14.5858C25.7892 14.9609 25.9999 15.4696 25.9999 16Z" fill="white"/>
</svg>
