<svg width="48" height="48" viewBox="0 0 48 48" fill="none" xmlns="http://www.w3.org/2000/svg">
<g clip-path="url(#clip0_347_7174)">
<path d="M-1.04907e-06 24C-7.68856e-07 17.5894 2.49647 11.5625 7.02938 7.02937C11.5625 2.49647 17.5894 -1.32929e-06 24 -1.04907e-06C30.4106 -7.68856e-07 36.4375 2.49647 40.9706 7.02938C45.5035 11.5625 48 17.5894 48 24C48 30.4106 45.5035 36.4375 40.9706 40.9706C36.4375 45.5035 30.4106 48 24 48C17.5894 48 11.5625 45.5035 7.02937 40.9706C2.49647 36.4375 -1.32929e-06 30.4106 -1.04907e-06 24V24ZM44.25 24C44.25 12.8341 35.1659 3.75 24 3.75C12.8341 3.75 3.75 12.8341 3.75 24C3.75 35.1659 12.8341 44.25 24 44.25C35.1659 44.25 44.25 35.1659 44.25 24Z" fill="white"/>
<path d="M13.1952 21.2343C13.1952 20.7596 13.3742 20.2849 13.7332 19.9198L19.9363 13.6115C19.9393 13.6084 19.9423 13.6054 19.9454 13.6023C21.0056 12.5389 22.4156 11.9531 23.9157 11.9531C25.4158 11.9531 26.8259 12.5388 27.8862 13.6022C27.8917 13.6076 27.8969 13.6131 27.9023 13.6185L34.0393 19.9268C34.7613 20.6691 34.7451 21.8562 34.0027 22.5783C33.2604 23.3003 32.0734 23.284 31.3513 22.5418L25.2237 16.2429C24.873 15.8947 24.4089 15.703 23.9158 15.703C23.4213 15.703 22.9559 15.8959 22.6049 16.2461L16.4074 22.5488C15.6814 23.2872 14.4942 23.2972 13.7558 22.5712C13.3823 22.2043 13.1952 21.7194 13.1952 21.2343V21.2343ZM22.1952 34.7344L22.1952 21.2344C22.1952 20.1988 23.0347 19.3594 24.0702 19.3594C25.1058 19.3594 25.9452 20.1988 25.9452 21.2344L25.9452 34.7344C25.9452 35.7699 25.1058 36.6094 24.0702 36.6094C23.0347 36.6094 22.1952 35.7699 22.1952 34.7344Z" fill="white"/>
</g>
<defs>
<clipPath id="clip0_347_7174">
<rect width="48" height="48" fill="white"/>
</clipPath>
</defs>
</svg>
