<svg width="48" height="48" viewBox="0 0 48 48" fill="none" xmlns="http://www.w3.org/2000/svg">
<path fill-rule="evenodd" clip-rule="evenodd" d="M19.9814 23.6589L21.8519 21.8798L20.7567 20.7283L18.312 23.0537C18.312 23.0537 18.312 23.0537 18.312 23.0537C17.9593 23.3892 17.9626 23.9527 18.3193 24.284L20.7636 26.5542L21.845 25.3899L19.9814 23.6589Z" fill="white"/>
<path fill-rule="evenodd" clip-rule="evenodd" d="M27.9904 23.6589L26.12 21.8798L27.2152 20.7283L29.6599 23.0537C29.6599 23.0537 29.6599 23.0537 29.6599 23.0537C30.0126 23.3892 30.0092 23.9527 29.6526 24.284L27.2083 26.5542L26.1268 25.3899L27.9904 23.6589Z" fill="white"/>
<path fill-rule="evenodd" clip-rule="evenodd" d="M15.7809 7.0609C16.3408 6.79806 16.9839 7.2066 16.9839 7.82509V40.4029C16.9839 40.9837 16.4111 41.391 15.8625 41.2003L6.6754 38.0064C6.33593 37.8884 6.1084 37.5684 6.1084 37.209V12.1382C6.1084 11.8109 6.29758 11.5131 6.59384 11.374L15.7809 7.0609ZM15.3948 8.99771L7.69751 12.6114V36.6793L15.3948 39.3553V8.99771Z" fill="white"/>
<path fill-rule="evenodd" clip-rule="evenodd" d="M32.2406 7.0609C31.6808 6.79806 31.0376 7.2066 31.0376 7.82509V40.4029C31.0376 40.9837 31.6105 41.391 32.1591 41.2003L41.3461 38.0064C41.6856 37.8884 41.9131 37.5684 41.9131 37.209V12.1382C41.9131 11.8109 41.7239 11.5131 41.4277 11.374L32.2406 7.0609ZM32.6267 8.99771L40.324 12.6114V36.6793L32.6267 39.3553V8.99771Z" fill="white"/>
<path d="M16.9342 15.3945H18.3247V16.8843H16.9342V15.3945Z" fill="white"/>
<path fill-rule="evenodd" clip-rule="evenodd" d="M16.9342 16.8843H18.3247V15.3945H16.9342V16.8843Z" fill="white"/>
<path d="M20.4601 15.3945H22.5955V16.8843H20.4601V15.3945Z" fill="white"/>
<path fill-rule="evenodd" clip-rule="evenodd" d="M22.5955 15.3945H20.4601V16.8843H22.5955V15.3945Z" fill="white"/>
<path d="M24.7805 15.3945H26.9159V16.8843H24.7805V15.3945Z" fill="white"/>
<path fill-rule="evenodd" clip-rule="evenodd" d="M26.9159 15.3945H24.7805V16.8843H26.9159V15.3945Z" fill="white"/>
<path d="M28.9519 15.3945H31.0873V16.8843H28.9519V15.3945Z" fill="white"/>
<path fill-rule="evenodd" clip-rule="evenodd" d="M31.0873 15.3945H28.9519V16.8843H31.0873V15.3945Z" fill="white"/>
<path d="M16.9342 31.0374H18.3247V32.5272H16.9342V31.0374Z" fill="white"/>
<path fill-rule="evenodd" clip-rule="evenodd" d="M16.9342 32.5272H18.3247V31.0374H16.9342V32.5272Z" fill="white"/>
<path d="M20.4601 31.0374H22.5955V32.5272H20.4601V31.0374Z" fill="white"/>
<path fill-rule="evenodd" clip-rule="evenodd" d="M22.5955 31.0374H20.4601V32.5272H22.5955V31.0374Z" fill="white"/>
<path d="M24.7805 31.0374H26.9159V32.5272H24.7805V31.0374Z" fill="white"/>
<path fill-rule="evenodd" clip-rule="evenodd" d="M26.9159 31.0374H24.7805V32.5272H26.9159V31.0374Z" fill="white"/>
<path d="M28.9519 31.0374H31.0873V32.5272H28.9519V31.0374Z" fill="white"/>
<path fill-rule="evenodd" clip-rule="evenodd" d="M31.0873 31.0374H28.9519V32.5272H31.0873V31.0374Z" fill="white"/>
<path d="M24.7323 19.4876L26.1433 19.9636L23.2818 28.4451L21.8708 27.969L24.7323 19.4876Z" fill="white"/>
<path fill-rule="evenodd" clip-rule="evenodd" d="M24.7323 19.4876L26.1433 19.9636L23.2818 28.4451L21.8708 27.969L24.7323 19.4876Z" fill="white"/>
</svg>
