<svg width="48" height="48" viewBox="0 0 48 48" fill="none" xmlns="http://www.w3.org/2000/svg">
<path fill-rule="evenodd" clip-rule="evenodd" d="M20.3951 12.872C16.5091 13.9275 13.2091 17.6295 13.194 22.8533C13.1929 23.2297 12.9424 23.5604 12.5809 23.6637C9.61113 24.5122 9.01051 26.0204 8.92918 26.5426L7.359 26.298C7.54312 25.1158 8.57972 23.3223 11.6173 22.2994C11.8579 16.6424 15.5452 12.5426 19.9786 11.3385C24.3944 10.1391 29.4207 11.8391 32.418 17.3877C32.7704 17.1762 33.1775 16.9917 33.598 16.8473C34.4486 16.5553 35.4929 16.3786 36.5285 16.5211C37.5801 16.6659 38.6342 17.1445 39.4142 18.1618C40.0898 19.0428 40.5085 20.2608 40.6064 21.8634C43.8979 22.2566 46.2229 25.1456 46.5414 28.7388C46.6961 30.4836 46.4212 32.5564 45.2264 34.2156C44.003 35.9145 41.9119 37.0463 38.727 37.0463V35.4572C41.5018 35.4572 43.0666 34.4955 43.9368 33.2869C44.8358 32.0386 45.0924 30.3901 44.9585 28.8791C44.6706 25.6308 42.5268 23.43 39.8771 23.4071C39.3856 23.4028 39.0412 22.9964 39.0394 22.564C39.0323 20.8327 38.6448 19.7699 38.1532 19.1288C37.6717 18.5008 37.0264 18.1938 36.3118 18.0954C35.5811 17.9948 34.7924 18.1174 34.114 18.3503C33.4076 18.5929 32.9541 18.9074 32.8142 19.0751C32.3653 19.6132 31.6262 19.3743 31.3981 18.8914C28.7737 13.336 24.2293 11.8306 20.3951 12.872Z" fill="white"/>
<path fill-rule="evenodd" clip-rule="evenodd" d="M11.9679 29.8953H4.86654L4.86654 28.3061H11.9679V29.8953Z" fill="white"/>
<path fill-rule="evenodd" clip-rule="evenodd" d="M11.074 33.4211H3.02913L3.02913 31.832H11.074V33.4211Z" fill="white"/>
<path fill-rule="evenodd" clip-rule="evenodd" d="M3.92301 37.0463H2.13525L2.13525 35.4572H3.92301L3.92301 37.0463Z" fill="white"/>
<path fill-rule="evenodd" clip-rule="evenodd" d="M11.9679 37.0463H5.71076V35.4572H11.9679V37.0463Z" fill="white"/>
<path fill-rule="evenodd" clip-rule="evenodd" d="M19.0693 37.0463H13.6563V35.4572H19.0693V37.0463Z" fill="white"/>
<path fill-rule="evenodd" clip-rule="evenodd" d="M38.7345 37.0463H20.8073V35.4572L38.7345 35.4572V37.0463Z" fill="white"/>
<path fill-rule="evenodd" clip-rule="evenodd" d="M15.5931 33.4211H12.8618V31.832H15.5931V33.4211Z" fill="white"/>
<path fill-rule="evenodd" clip-rule="evenodd" d="M28.008 33.4211L17.2318 33.4211V31.832L28.008 31.832V33.4211Z" fill="white"/>
<path fill-rule="evenodd" clip-rule="evenodd" d="M19.0693 29.8953H13.6563V28.3061H19.0693V29.8953Z" fill="white"/>
</svg>
