<svg width="48" height="48" viewBox="0 0 48 48" fill="none" xmlns="http://www.w3.org/2000/svg">
<g clip-path="url(#clip0_60_3988)">
<path d="M24 48.0001C37.2548 48.0001 48 37.255 48 24.0001C48 10.7453 37.2548 0.00012207 24 0.00012207C19.9556 0.00012207 16.1448 1.00053 12.8017 2.76739C11.512 3.44899 11.356 5.17071 12.3875 6.20218L18.3836 12.1982C19.0551 12.8698 20.0616 13.0455 20.9787 12.7988C21.942 12.5396 22.9548 12.4013 24 12.4013C30.4058 12.4013 35.5988 17.5943 35.5988 24.0001C35.5988 30.4059 30.4058 35.5989 24 35.5989C22.9511 35.5989 21.9348 35.4597 20.9685 35.1987C20.0507 34.9509 19.043 35.1263 18.3708 35.7985L12.3769 41.7924C11.3457 42.8235 11.5012 44.5446 12.7901 45.2267C16.136 46.9974 19.9509 48.0001 24 48.0001Z" fill="white"/>
<path d="M4.47342 37.9573C5.25658 39.051 6.82261 39.0935 7.77381 38.1423L13.3688 32.5473C14.1998 31.7163 14.2584 30.4069 13.7141 29.3654C12.8754 27.761 12.4012 25.9359 12.4012 24.0001C12.4012 22.0609 12.8771 20.2329 13.7185 18.6264C14.2641 17.5846 14.206 16.2739 13.3745 15.4423L7.78062 9.84847C6.82974 8.89758 5.26432 8.93969 4.48084 10.0326C1.66036 13.9672 0 18.7897 0 24.0001C0 29.2059 1.65745 34.0246 4.47342 37.9573Z" fill="white"/>
<path d="M24 18.2372C27.1828 18.2372 29.7629 20.8174 29.7629 24.0001C29.7629 27.1829 27.1828 29.763 24 29.763C20.8172 29.763 18.2371 27.1829 18.2371 24.0001C18.2371 20.8174 20.8172 18.2372 24 18.2372Z" fill="white"/>
</g>
<defs>
<clipPath id="clip0_60_3988">
<rect width="48" height="48" fill="white"/>
</clipPath>
</defs>
</svg>
