<svg width="48" height="48" viewBox="0 0 48 48" fill="none" xmlns="http://www.w3.org/2000/svg">
<g clip-path="url(#clip0_1754_3990)">
<path d="M27.75 40.5C26.7144 40.5 25.875 41.3394 25.875 42.375C25.875 43.4089 25.0339 44.25 24 44.25C22.9661 44.25 22.125 43.4089 22.125 42.375C22.125 41.3394 21.2856 40.5 20.25 40.5C19.2144 40.5 18.375 41.3394 18.375 42.375C18.375 45.4766 20.8984 48 24 48C27.1016 48 29.625 45.4766 29.625 42.375C29.625 41.3394 28.7855 40.5 27.75 40.5Z" fill="white"/>
<path d="M5.25239 14.9623C6.26029 15.1679 7.25601 14.5206 7.46404 13.4995C8.28661 9.46396 10.5682 5.86809 13.8885 3.37425C14.7165 2.75231 14.8835 1.57697 14.2616 0.748966C13.6396 -0.0789408 12.4643 -0.246097 11.6364 0.37584C7.58226 3.42093 4.79554 7.81575 3.78961 12.7506C3.58279 13.7653 4.23773 14.7555 5.25239 14.9623Z" fill="white"/>
<path d="M33.7387 0.749074C33.1168 1.57707 33.2838 2.75242 34.1118 3.37435C37.4321 5.8682 39.7137 9.46407 40.5363 13.4996C40.7433 14.5157 41.7343 15.1688 42.7479 14.9624C43.7626 14.7556 44.4175 13.7653 44.2107 12.7507C43.2048 7.81576 40.4181 3.42095 36.3638 0.375855C35.536 -0.245989 34.3604 -0.0789263 33.7387 0.749074Z" fill="white"/>
<path d="M22.125 3.88459C15.773 4.79725 10.875 10.2745 10.875 16.8751V24.6482C10.875 25.31 10.5769 25.9115 10.1332 26.145C8.27766 27.1213 7.125 29.0296 7.125 31.1252C7.125 34.2268 9.64838 36.7502 12.75 36.7502H35.25C38.3516 36.7502 40.875 34.2268 40.875 31.1252C40.875 29.0296 39.7223 27.1213 37.8667 26.1451C37.4231 25.9116 37.125 25.31 37.125 24.6482V16.8752C37.125 10.2746 32.227 4.79725 25.875 3.88469V1.87506C25.875 0.839499 25.0356 6.10352e-05 24 6.10352e-05C22.9644 6.10352e-05 22.125 0.839499 22.125 1.87506V3.88459ZM33.375 16.8751V24.6482C33.375 26.7273 34.4271 28.5725 36.1207 29.4636C36.7402 29.7896 37.125 30.4262 37.125 31.1251C37.125 32.1589 36.2839 33.0001 35.25 33.0001H12.75C11.7161 33.0001 10.875 32.1589 10.875 31.1251C10.875 30.4262 11.2597 29.7895 11.8793 29.4635C13.5729 28.5724 14.625 26.7272 14.625 24.6481V16.875C14.625 11.7056 18.8305 7.49997 24 7.49997C29.1695 7.49997 33.375 11.7057 33.375 16.8751Z" fill="white"/>
</g>
<defs>
<clipPath id="clip0_1754_3990">
<rect width="48" height="48" fill="white"/>
</clipPath>
</defs>
</svg>
