<svg width="48" height="48" viewBox="0 0 48 48" fill="none" xmlns="http://www.w3.org/2000/svg">
<g clip-path="url(#clip0_1807_4183)">
<path d="M27.75 7.5C26.7144 7.5 25.875 8.33944 25.875 9.375V11.25H22.125V9.375C22.125 8.33944 21.2856 7.5 20.25 7.5C19.2144 7.5 18.375 8.33944 18.375 9.375V13.125C18.375 14.1606 19.2144 15 20.25 15H27.75C28.7856 15 29.625 14.1606 29.625 13.125V9.375C29.625 8.33944 28.7856 7.5 27.75 7.5Z" fill="white"/>
<path d="M20.625 21.75H5.625C2.52338 21.75 0 24.2734 0 27.375V42.375C0 45.4766 2.52338 48 5.625 48H20.625C23.7266 48 26.25 45.4766 26.25 42.375V27.375C26.25 24.2734 23.7266 21.75 20.625 21.75ZM22.5 42.375C22.5 43.4089 21.6589 44.25 20.625 44.25H5.625C4.59113 44.25 3.75 43.4089 3.75 42.375V27.375C3.75 26.3411 4.59113 25.5 5.625 25.5H20.625C21.6589 25.5 22.5 26.3411 22.5 27.375V42.375Z" fill="white"/>
<path d="M35.25 18.75C36.2856 18.75 37.125 17.9106 37.125 16.875V5.625C37.125 2.52338 34.6016 0 31.5 0H16.5C13.3984 0 10.875 2.52338 10.875 5.625V16.875C10.875 17.9106 11.7144 18.75 12.75 18.75C13.7856 18.75 14.625 17.9106 14.625 16.875V5.625C14.625 4.59113 15.4661 3.75 16.5 3.75H31.5C32.5339 3.75 33.375 4.59113 33.375 5.625V16.875C33.375 17.9106 34.2144 18.75 35.25 18.75Z" fill="white"/>
<path d="M16.875 29.25C15.8394 29.25 15 30.0894 15 31.125V33H11.25V31.125C11.25 30.0894 10.4106 29.25 9.375 29.25C8.33944 29.25 7.5 30.0894 7.5 31.125V34.875C7.5 35.9106 8.33944 36.75 9.375 36.75H16.875C17.9106 36.75 18.75 35.9106 18.75 34.875V31.125C18.75 30.0894 17.9106 29.25 16.875 29.25Z" fill="white"/>
<path d="M42.375 21.75H30.4824C29.4469 21.75 28.6074 22.5894 28.6074 23.625C28.6074 24.6606 29.4469 25.5 30.4824 25.5H42.375C43.4089 25.5 44.25 26.3411 44.25 27.375V42.375C44.25 43.4089 43.4089 44.25 42.375 44.25H30.4824C29.4469 44.25 28.6074 45.0894 28.6074 46.125C28.6074 47.1606 29.4469 48 30.4824 48H42.375C45.4766 48 48 45.4766 48 42.375V27.375C48 24.2734 45.4766 21.75 42.375 21.75Z" fill="white"/>
<path d="M31.125 29.25C30.0894 29.25 29.25 30.0894 29.25 31.125V34.875C29.25 35.9106 30.0894 36.75 31.125 36.75H38.625C39.6606 36.75 40.5 35.9106 40.5 34.875V31.125C40.5 30.0894 39.6606 29.25 38.625 29.25C37.5894 29.25 36.75 30.0894 36.75 31.125V33H33V31.125C33 30.0894 32.1606 29.25 31.125 29.25Z" fill="white"/>
</g>
<defs>
<clipPath id="clip0_1807_4183">
<rect width="48" height="48" fill="white"/>
</clipPath>
</defs>
</svg>
