<svg width="48" height="48" viewBox="0 0 48 48" fill="none" xmlns="http://www.w3.org/2000/svg">
<g clip-path="url(#clip0_10263_283402)">
<path d="M1.87539 31.4995H10.8752V33.3744C10.8752 34.0493 10.9265 34.7124 11.0253 35.3601C6.5674 35.928 2.74603 38.6905 0.59432 42.9939L0.198421 43.7857C-0.264696 44.7118 0.110673 45.8381 1.03681 46.3012C1.96295 46.7643 3.08924 46.389 3.55236 45.4628L3.94835 44.671C5.65495 41.2579 8.62255 39.2243 12.1521 39.018C14.2661 43.4383 18.7822 46.4992 24.0001 46.4992C29.2179 46.4992 33.734 43.4383 35.848 39.018C39.3775 39.2243 42.3451 41.2578 44.0517 44.6709L44.4476 45.4627C44.9107 46.3889 46.037 46.7643 46.9632 46.3013C47.8894 45.8383 48.2648 44.712 47.8018 43.7858L47.4059 42.994C45.2542 38.6905 41.4327 35.928 36.9748 35.3601C37.0735 34.7124 37.1249 34.0493 37.1249 33.3744V31.4995H46.1247C47.1602 31.4995 47.9997 30.66 47.9997 29.6245C47.9997 28.589 47.1602 27.7495 46.1247 27.7495L35.2499 27.7496C34.2144 27.7496 33.3749 28.5891 33.3749 29.6246V33.3744C33.3749 38.5437 29.1695 42.7493 24.0001 42.7493C18.8307 42.7493 14.6253 38.5437 14.6253 33.3744V20.2497C14.6253 18.182 16.3075 16.4997 18.3752 16.4997H29.625C31.6927 16.4997 33.3749 18.182 33.3749 20.2497V22.1246C33.3749 23.1601 34.2144 23.9996 35.2499 23.9996C40.4368 23.9996 44.9811 21.1045 47.4059 16.2551L47.8018 15.4633C48.2648 14.537 47.8894 13.4108 46.9632 12.9477C46.037 12.4847 44.9108 12.8601 44.4476 13.7863L44.0517 14.578C42.5549 17.5717 40.0881 19.505 37.1228 20.0742C37.0603 17.3599 35.5474 14.9991 33.3317 13.7338C33.0477 10.7718 31.3571 8.04607 28.676 6.49735C29.2748 5.60346 29.6249 4.52938 29.6249 3.37497C29.6249 2.33942 28.7855 1.5 27.7499 1.5C26.7144 1.5 25.875 2.33942 25.875 3.37497C25.875 4.40882 25.0339 5.24993 24 5.24993C22.9661 5.24993 22.125 4.40882 22.125 3.37497C22.125 2.33942 21.2856 1.5 20.2501 1.5C19.2145 1.5 18.3751 2.33942 18.3751 3.37497C18.3751 4.5111 18.7148 5.56887 19.2963 6.45423C16.7055 7.91089 14.9592 10.6359 14.6694 13.7333C12.4537 14.9983 10.9428 17.3592 10.8796 20.0732C7.91344 19.5046 5.44542 17.5724 3.94826 14.5781L3.55236 13.7863C3.08924 12.8601 1.96305 12.4847 1.03681 12.9478C0.110673 13.4109 -0.26479 14.5372 0.198421 15.4633L0.59432 16.2551C2.72185 20.5102 6.48153 23.2601 10.8753 23.8703V27.7495H1.87549C0.839941 27.7495 0.000518223 28.589 0.000518223 29.6245C0.000518223 30.66 0.839941 31.4995 1.87539 31.4995ZM29.2998 12.7498H18.6821C19.9489 8.96077 23.6419 8.99771 24.0942 9.0054C27.1518 9.05705 28.7791 11.2816 29.2998 12.7498Z" fill="white"/>
<path d="M24 20.2495C22.9644 20.2495 22.125 21.0889 22.125 22.1245V37.1242C22.125 38.1598 22.9644 38.9992 24 38.9992C25.0355 38.9992 25.8749 38.1598 25.8749 37.1242V22.1245C25.8749 21.089 25.0355 20.2495 24 20.2495Z" fill="white"/>
</g>
<defs>
<clipPath id="clip0_10263_283402">
<rect width="48" height="48" fill="white"/>
</clipPath>
</defs>
</svg>
