<svg width="48" height="48" viewBox="0 0 48 48" fill="none" xmlns="http://www.w3.org/2000/svg">
<g clip-path="url(#clip0_10263_283344)">
<path d="M23.3438 48H11.25C5.04675 48 0 42.9533 0 36.75V21.375C0 15.1718 5.04675 10.125 11.25 10.125H36.75C42.9532 10.125 48 15.1718 48 21.375V28.875C48 29.9106 47.1606 30.75 46.125 30.75C45.0894 30.75 44.25 29.9106 44.25 28.875V21.375C44.25 17.2395 40.8855 13.875 36.75 13.875H11.25C7.1145 13.875 3.75 17.2395 3.75 21.375V36.75C3.75 40.8855 7.1145 44.25 11.25 44.25H23.3438C24.3793 44.25 25.2188 45.0894 25.2188 46.125C25.2188 47.1606 24.3793 48 23.3438 48ZM12.2812 18.9375C10.9868 18.9375 9.9375 19.9868 9.9375 21.2812C9.9375 22.5757 10.9868 23.625 12.2812 23.625C13.5757 23.625 14.625 22.5757 14.625 21.2812C14.625 19.9868 13.5757 18.9375 12.2812 18.9375ZM20.3438 18.9375C19.0493 18.9375 18 19.9868 18 21.2812C18 22.5757 19.0493 23.625 20.3438 23.625C21.6382 23.625 22.6875 22.5757 22.6875 21.2812C22.6875 19.9868 21.6382 18.9375 20.3438 18.9375ZM28.4062 18.9375C27.1118 18.9375 26.0625 19.9868 26.0625 21.2812C26.0625 22.5757 27.1118 23.625 28.4062 23.625C29.7007 23.625 30.75 22.5757 30.75 21.2812C30.75 19.9868 29.7007 18.9375 28.4062 18.9375ZM12.2812 27C10.9868 27 9.9375 28.0493 9.9375 29.3438C9.9375 30.6382 10.9868 31.6875 12.2812 31.6875C13.5757 31.6875 14.625 30.6382 14.625 29.3438C14.625 28.0493 13.5757 27 12.2812 27ZM12.2812 35.0625C10.9868 35.0625 9.9375 36.1118 9.9375 37.4062C9.9375 38.7007 10.9868 39.75 12.2812 39.75C13.5757 39.75 14.625 38.7007 14.625 37.4062C14.625 36.1118 13.5757 35.0625 12.2812 35.0625ZM20.3438 27C19.0493 27 18 28.0493 18 29.3438C18 30.6382 19.0493 31.6875 20.3438 31.6875C21.6382 31.6875 22.6875 30.6382 22.6875 29.3438C22.6875 28.0493 21.6382 27 20.3438 27ZM20.3438 35.0625C19.0493 35.0625 18 36.1118 18 37.4062C18 38.7007 19.0493 39.75 20.3438 39.75C21.6382 39.75 22.6875 38.7007 22.6875 37.4062C22.6875 36.1118 21.6382 35.0625 20.3438 35.0625ZM28.4062 27C27.1118 27 26.0625 28.0493 26.0625 29.3438C26.0625 30.6382 27.1118 31.6875 28.4062 31.6875C29.7007 31.6875 30.75 30.6382 30.75 29.3438C30.75 28.0493 29.7007 27 28.4062 27ZM36.4688 27C35.1743 27 34.125 28.0493 34.125 29.3438C34.125 30.6382 35.1743 31.6875 36.4688 31.6875C37.7632 31.6875 38.8125 30.6382 38.8125 29.3438C38.8125 28.0493 37.7632 27 36.4688 27Z" fill="white"/>
<path d="M17.0625 7.5C16.0269 7.5 15.1875 6.66056 15.1875 5.625C15.1875 4.59113 14.3464 3.75 13.3125 3.75C12.2786 3.75 11.4375 4.59113 11.4375 5.625C11.4375 6.66056 10.5981 7.5 9.5625 7.5C8.52694 7.5 7.6875 6.66056 7.6875 5.625C7.6875 2.52338 10.2109 0 13.3125 0C16.4141 0 18.9375 2.52338 18.9375 5.625C18.9375 6.66056 18.0981 7.5 17.0625 7.5ZM40.5 5.625C40.5 2.52338 37.9766 0 34.875 0C31.7734 0 29.25 2.52338 29.25 5.625C29.25 6.66056 30.0894 7.5 31.125 7.5C32.1606 7.5 33 6.66056 33 5.625C33 4.59113 33.8411 3.75 34.875 3.75C35.9089 3.75 36.75 4.59113 36.75 5.625C36.75 6.66056 37.5894 7.5 38.625 7.5C39.6606 7.5 40.5 6.66056 40.5 5.625ZM36.4688 18.9375C35.1743 18.9375 34.125 19.9868 34.125 21.2812C34.125 22.5757 35.1743 23.625 36.4688 23.625C37.7632 23.625 38.8125 22.5757 38.8125 21.2812C38.8125 19.9868 37.7632 18.9375 36.4688 18.9375ZM38.9197 46.2784L47.4545 37.6972C48.1847 36.9629 48.1815 35.7758 47.4473 35.0455C46.713 34.3152 45.5258 34.3186 44.7955 35.0527L36.2587 43.636C35.8662 44.0319 35.3455 44.2499 34.7927 44.2499C34.2398 44.2499 33.7192 44.0318 33.3255 43.6348L28.7991 39.0774C28.0693 38.3427 26.8822 38.3387 26.1474 39.0683C25.4127 39.7981 25.4087 40.9853 26.1383 41.72L30.6636 46.2762C31.7656 47.3878 33.232 48 34.7927 48C36.3533 48 37.8198 47.3878 38.9197 46.2784Z" fill="white"/>
</g>
<defs>
<clipPath id="clip0_10263_283344">
<rect width="48" height="48" fill="white"/>
</clipPath>
</defs>
</svg>
