<svg width="48" height="48" viewBox="0 0 48 48" fill="none" xmlns="http://www.w3.org/2000/svg">
<path d="M8.08011 39.1193C7.92069 39.1386 7.75953 39.1386 7.60011 39.1193C7.32913 39.064 7.07256 38.9531 6.84662 38.7936C6.62067 38.6341 6.43026 38.4295 6.28742 38.1927C6.14457 37.9559 6.0524 37.692 6.01672 37.4178C5.98103 37.1435 6.00262 36.8648 6.08011 36.5993C6.88011 33.6793 10.8601 19.1193 18.0801 19.1193C22.4201 19.1193 23.3801 23.1193 24.0801 26.0193C24.9601 29.6393 25.5601 31.1193 28.0801 31.1193C33.0401 31.1193 36.4201 24.2993 38.0801 10.8793C38.1438 10.3489 38.4155 9.86548 38.8356 9.53542C39.2557 9.20535 39.7897 9.05568 40.3201 9.11934C40.8505 9.18299 41.334 9.45475 41.664 9.87483C41.9941 10.2949 42.1438 10.8289 42.0801 11.3593C40.0801 27.3593 35.5001 35.1193 28.0801 35.1193C22.2201 35.1193 21.0201 30.2193 20.2201 26.9593C19.4201 23.6993 19.0801 23.1193 18.0801 23.1193C15.2001 23.1193 11.5801 31.4993 10.0801 37.5593C9.97851 38.0105 9.72369 38.4125 9.35904 38.6969C8.99439 38.9814 8.54244 39.1306 8.08011 39.1193Z" fill="white"/>
<path fill-rule="evenodd" clip-rule="evenodd" d="M8.05706 38.6386L8.09184 38.6395C8.44321 38.6481 8.78669 38.5346 9.06383 38.3185C9.34096 38.1023 9.53462 37.7968 9.61184 37.4539L9.61407 37.444C10.3715 34.3838 11.6635 30.7387 13.1349 27.849C13.8696 26.4061 14.6598 25.1303 15.4643 24.2079C16.2481 23.3093 17.1378 22.6393 18.0801 22.6393C18.3747 22.6393 18.6765 22.6816 18.9613 22.8438C19.2463 23.006 19.462 23.2582 19.6437 23.582C19.9919 24.2025 20.2903 25.2314 20.6863 26.8449C21.09 28.4899 21.5735 30.4407 22.647 31.9882C23.6945 33.4982 25.3155 34.6393 28.0801 34.6393C31.5801 34.6393 34.4404 32.8273 36.6991 28.9956C38.9717 25.1402 40.6065 19.2779 41.6037 11.3008C41.6518 10.8972 41.5377 10.491 41.2866 10.1714C41.0352 9.8514 40.667 9.6444 40.2629 9.59592C39.8589 9.54743 39.4521 9.66144 39.1322 9.91285C38.8122 10.1643 38.6052 10.5325 38.5567 10.9365L38.5565 10.9383C37.7242 17.6668 36.456 22.79 34.7479 26.2446C33.0418 29.6951 30.8294 31.5993 28.0801 31.5993C27.4051 31.5993 26.8212 31.5005 26.3151 31.2676C25.8031 31.0319 25.4011 30.6731 25.0717 30.2019C24.4356 29.2919 24.0489 27.9228 23.6137 26.1327C23.2597 24.6661 22.8596 23.0229 22.0406 21.7402C21.2456 20.4952 20.0633 19.5993 18.0801 19.5993C16.4487 19.5993 14.9615 20.4197 13.6123 21.7782C12.2623 23.1375 11.0899 24.9982 10.1022 26.9786C8.13063 30.9315 6.94645 35.2538 6.54482 36.7197L6.54095 36.7338C6.48206 36.9356 6.46559 37.1474 6.4927 37.3558C6.51982 37.5643 6.58988 37.7648 6.69844 37.9448C6.807 38.1248 6.95171 38.2803 7.12343 38.4015C7.28985 38.519 7.47813 38.6018 7.67705 38.645C7.79189 38.6574 7.9078 38.6567 8.02251 38.6428L8.05706 38.6386ZM7.60011 39.1193C7.32913 39.064 7.07256 38.9531 6.84662 38.7936C6.62067 38.6341 6.43026 38.4295 6.28742 38.1927C6.14457 37.9559 6.0524 37.692 6.01672 37.4178C5.98103 37.1435 6.00262 36.8648 6.08011 36.5993L6.08311 36.5884C6.89001 33.6432 10.8691 19.1193 18.0801 19.1193C22.4146 19.1193 23.3777 23.1092 24.0775 26.0083L24.0801 26.0193C24.9601 29.6393 25.5601 31.1193 28.0801 31.1193C33.0401 31.1193 36.4201 24.2993 38.0801 10.8793C38.1438 10.3489 38.4155 9.86548 38.8356 9.53542C39.2557 9.20535 39.7897 9.05568 40.3201 9.11934C40.8505 9.18299 41.334 9.45475 41.664 9.87483C41.9941 10.2949 42.1438 10.8289 42.0801 11.3593C40.0801 27.3593 35.5001 35.1193 28.0801 35.1193C22.2226 35.1193 21.0211 30.2234 20.2211 26.9634L20.2201 26.9593C19.4201 23.6993 19.0801 23.1193 18.0801 23.1193C15.2001 23.1193 11.5801 31.4993 10.0801 37.5593C9.97851 38.0105 9.72369 38.4125 9.35904 38.6969C8.99439 38.9814 8.54244 39.1306 8.08011 39.1193C7.92069 39.1386 7.75953 39.1386 7.60011 39.1193Z" fill="white"/>
</svg>
