<svg width="48" height="48" viewBox="0 0 48 48" fill="none" xmlns="http://www.w3.org/2000/svg">
<path d="M38.4 40.8012C37.7634 40.8012 37.153 40.5483 36.7029 40.0982C36.2528 39.6481 36 39.0377 36 38.4012V14.4012C36 13.7647 36.2528 13.1542 36.7029 12.7041C37.153 12.254 37.7634 12.0012 38.4 12.0012C39.0365 12.0012 39.6469 12.254 40.097 12.7041C40.5471 13.1542 40.8 13.7647 40.8 14.4012V38.4012C40.8 39.0377 40.5471 39.6481 40.097 40.0982C39.6469 40.5483 39.0365 40.8012 38.4 40.8012ZM28.8 40.8012C28.1634 40.8012 27.553 40.5483 27.1029 40.0982C26.6528 39.6481 26.4 39.0377 26.4 38.4012V19.2012C26.4 18.5647 26.6528 17.9542 27.1029 17.5041C27.553 17.054 28.1634 16.8012 28.8 16.8012C29.4365 16.8012 30.0469 17.054 30.497 17.5041C30.9471 17.9542 31.2 18.5647 31.2 19.2012V38.4012C31.2 39.0377 30.9471 39.6481 30.497 40.0982C30.0469 40.5483 29.4365 40.8012 28.8 40.8012ZM19.2 40.8012C18.5634 40.8012 17.953 40.5483 17.5029 40.0982C17.0528 39.6481 16.8 39.0377 16.8 38.4012V9.60117C16.8 8.96465 17.0528 8.3542 17.5029 7.90412C17.953 7.45403 18.5634 7.20117 19.2 7.20117C19.8365 7.20117 20.4469 7.45403 20.897 7.90412C21.3471 8.3542 21.6 8.96465 21.6 9.60117V38.4012C21.6 39.0377 21.3471 39.6481 20.897 40.0982C20.4469 40.5483 19.8365 40.8012 19.2 40.8012ZM9.59995 40.8012C8.96343 40.8012 8.35298 40.5483 7.90289 40.0982C7.45281 39.6481 7.19995 39.0377 7.19995 38.4012V24.0012C7.19995 23.3647 7.45281 22.7542 7.90289 22.3041C8.35298 21.854 8.96343 21.6012 9.59995 21.6012C10.2365 21.6012 10.8469 21.854 11.297 22.3041C11.7471 22.7542 12 23.3647 12 24.0012V38.4012C12 39.0377 11.7471 39.6481 11.297 40.0982C10.8469 40.5483 10.2365 40.8012 9.59995 40.8012Z" fill="white"/>
</svg>
