<svg width="48" height="48" viewBox="0 0 48 48" fill="none" xmlns="http://www.w3.org/2000/svg">
<g clip-path="url(#clip0_2457_5853)">
<path fill-rule="evenodd" clip-rule="evenodd" d="M17.097 8.17618C15.1038 8.24071 13.0593 8.33247 10.9198 8.45136C7.02916 8.66756 3.96304 11.708 3.76305 15.4517C3.55032 19.434 3.54578 23.0352 3.76182 27.029C3.95925 30.6787 6.90766 33.6564 10.6899 33.9363C20.2061 34.6406 27.818 34.6567 37.335 33.9462C41.0839 33.6663 44.0096 30.7211 44.2206 27.1014C44.4566 23.0541 44.4564 19.4076 44.2272 15.3751C44.0169 11.6735 40.9732 8.6682 37.1058 8.45204C34.8754 8.32738 32.7484 8.23266 30.6756 8.16776C30.52 9.68061 29.3956 10.9484 27.8629 11.153C25.0721 11.5255 22.7793 11.4976 19.9132 11.1216C18.3905 10.9218 17.2581 9.67598 17.097 8.17618ZM10.72 4.85527C5.06864 5.16931 0.468465 9.6076 0.166538 15.2596C-0.0528895 19.3672 -0.0577504 23.0975 0.165442 27.2236C0.464404 32.7504 4.90428 37.1197 10.4241 37.5282C16.2897 37.9622 21.4596 38.1397 26.7787 38.0515C29.2841 40.7741 31.3064 42.248 34.0839 43.4772C34.7031 43.7512 35.279 43.0107 34.9595 42.4137C34.0781 40.767 33.907 39.3626 34.4546 37.7507C35.4843 37.6887 36.5321 37.6178 37.6031 37.5379C43.0849 37.1286 47.4962 32.7988 47.8162 27.3111C48.0603 23.1243 48.06 19.3395 47.8231 15.1708C47.5041 9.55737 42.9205 5.16978 37.3068 4.85602C27.8367 4.32671 20.1799 4.32959 10.72 4.85527ZM21.1831 19.5489C21.1831 21.8401 19.3258 23.6975 17.0346 23.6975C14.7434 23.6975 12.886 21.8401 12.886 19.5489C12.886 17.2577 14.7434 15.4003 17.0346 15.4003C19.3258 15.4003 21.1831 17.2577 21.1831 19.5489ZM30.6246 23.6975C32.9158 23.6975 34.7732 21.8401 34.7732 19.5489C34.7732 17.2577 32.9158 15.4003 30.6246 15.4003C28.3334 15.4003 26.4761 17.2577 26.4761 19.5489C26.4761 21.8401 28.3334 23.6975 30.6246 23.6975Z" fill="white"/>
</g>
<defs>
<clipPath id="clip0_2457_5853">
<rect width="48" height="48" fill="white"/>
</clipPath>
</defs>
</svg>
