<svg width="48" height="48" viewBox="0 0 48 48" fill="none" xmlns="http://www.w3.org/2000/svg">
<path d="M24.0004 32.0004C23.7372 32.0019 23.4762 31.9514 23.2326 31.8519C22.9889 31.7524 22.7673 31.6057 22.5804 31.4204L10.5804 19.4204C10.2038 19.0438 9.99219 18.533 9.99219 18.0004C9.99219 17.4678 10.2038 16.957 10.5804 16.5804C10.957 16.2038 11.4678 15.9922 12.0004 15.9922C12.533 15.9922 13.0438 16.2038 13.4204 16.5804L24.0004 27.1804L34.5804 16.6004C34.963 16.2727 35.4551 16.1015 35.9585 16.1209C36.4618 16.1404 36.9393 16.3491 37.2955 16.7052C37.6517 17.0614 37.8603 17.5389 37.8798 18.0423C37.8992 18.5456 37.728 19.0378 37.4004 19.4204L25.4004 31.4204C25.0278 31.7899 24.5251 31.9982 24.0004 32.0004Z" fill="white"/>
</svg>
