<svg width="48" height="48" viewBox="0 0 48 48" fill="none" xmlns="http://www.w3.org/2000/svg">
<path d="M23.8727 15.9918C24.1359 15.9903 24.3968 16.0407 24.6405 16.1403C24.8842 16.2398 25.1058 16.3865 25.2927 16.5718L37.2927 28.5718C37.6693 28.9484 37.8809 29.4592 37.8809 29.9918C37.8809 30.5244 37.6693 31.0352 37.2927 31.4118C36.9161 31.7884 36.4053 32 35.8727 32C35.3401 32 34.8293 31.7884 34.4527 31.4118L23.8727 20.8118L13.2927 31.3918C12.9101 31.7195 12.4179 31.8907 11.9146 31.8712C11.4112 31.8518 10.9337 31.6431 10.5775 31.2869C10.2214 30.9308 10.0127 30.4533 9.99326 29.9499C9.97381 29.4466 10.145 28.9544 10.4727 28.5718L22.4727 16.5718C22.8452 16.2023 23.348 15.994 23.8727 15.9918Z" fill="white"/>
</svg>
