<svg width="48" height="48" viewBox="0 0 48 48" fill="none" xmlns="http://www.w3.org/2000/svg">
<g clip-path="url(#clip0_1877_4407)">
<path d="M39.5956 19.8013L28.1571 8.39569C25.4929 5.6184 20.7027 5.60125 18.0188 8.35774C14.4 11.6065 10.9538 13.8433 6.96521 16.432C6.34326 16.8357 5.03619 17.6876 5.0256 17.6948C1.36481 20.1981 -0.430215 23.7035 0.100935 27.3123C1.19088 34.7178 4.4222 40.2849 9.70502 43.8589C10.4973 44.3948 11.5661 44.2482 12.1848 43.5187C14.223 41.1148 16.2441 39.137 18.0078 37.5832C17.0061 39.9604 15.9768 42.5611 15.3173 44.65C15.1651 45.1321 15.2142 45.6552 15.4532 46.1006C15.6923 46.5459 16.1011 46.8758 16.5869 47.0156C18.3129 47.4828 20.286 47.9639 22.1426 48.0001C25.3954 47.9999 28.1383 46.3092 30.3109 42.9584C33.0123 39.1221 37.972 31.9326 39.6597 29.9069C42.3996 27.099 42.379 22.5854 39.5956 19.8013ZM36.9468 27.3195C36.9093 27.3569 32.0985 33.8692 29.1624 38.066C28.4692 39.0569 27.1959 40.8724 27.1823 40.8935C25.484 43.5256 23.6414 44.5394 21.2084 44.18C20.6422 44.0964 20.0851 43.9978 19.5403 43.8848C21.321 38.9935 24.3413 32.5538 24.3757 32.4805C24.7257 31.7359 24.5492 30.85 23.9404 30.2964C23.3315 29.7429 22.4329 29.6511 21.7248 30.0703C21.4902 30.2092 16.2477 33.3495 10.4852 39.7659C9.43982 38.9016 8.50947 37.9209 7.69419 36.8249C8.41351 36.0422 10.6848 33.6535 13.6132 31.3839C14.4313 30.7499 14.5806 29.5726 13.9465 28.7544C13.3124 27.9363 12.1352 27.787 11.317 28.4211C8.86341 30.3227 6.86822 32.2667 5.71549 33.4589C4.81156 31.4823 4.1749 29.2491 3.80943 26.7663C3.38061 23.8524 5.69581 21.7808 7.1263 20.7992C7.76737 20.3798 8.39308 19.9738 9.00604 19.576C11.8745 17.7142 14.4719 16.0284 17.0795 14.014L30.266 27.0199C31.003 27.7468 32.1897 27.7384 32.9165 27.0016C33.6433 26.2646 33.6352 25.078 32.8982 24.3511L19.9899 11.6196C20.179 11.4538 20.608 11.0691 20.6315 11.0456C21.9161 9.70745 24.2233 9.70792 25.5083 11.0477L36.9468 22.4532C38.288 23.7951 38.288 25.9779 36.9468 27.3195ZM39.0996 11.6352L47.4398 3.20124C49.121 1.37014 46.5848 -1.13521 44.7746 0.565541L36.4344 8.99947C35.2609 10.1678 36.133 12.2094 37.7669 12.1915C38.25 12.1915 38.7331 12.0058 39.0996 11.6352Z" fill="white"/>
</g>
<defs>
<clipPath id="clip0_1877_4407">
<rect width="48" height="48" fill="white"/>
</clipPath>
</defs>
</svg>
