<svg width="48" height="48" viewBox="0 0 48 48" fill="none" xmlns="http://www.w3.org/2000/svg">
<path d="M10.8501 48H37.1001C41.2356 48 44.6001 44.6355 44.6001 40.5V11.25C44.6001 7.1145 41.2356 3.75 37.1001 3.75H33.0276C32.2535 1.56769 30.1694 0 27.7251 0H20.2251C17.7808 0 15.6967 1.56769 14.9226 3.75H10.8501C6.7146 3.75 3.3501 7.1145 3.3501 11.25V40.5C3.3501 44.6355 6.7146 48 10.8501 48ZM20.2251 3.75H27.7251C28.759 3.75 29.6001 4.59113 29.6001 5.625C29.6001 6.65887 28.759 7.5 27.7251 7.5H20.2251C19.1912 7.5 18.3501 6.65887 18.3501 5.625C18.3501 4.59113 19.1912 3.75 20.2251 3.75ZM7.1001 11.25C7.1001 9.18225 8.78235 7.5 10.8501 7.5H14.9226C15.6966 9.68231 17.7808 11.25 20.2251 11.25H27.7251C30.1694 11.25 32.2535 9.68231 33.0276 7.5H37.1001C39.1678 7.5 40.8501 9.18225 40.8501 11.25V40.5C40.8501 42.5677 39.1678 44.25 37.1001 44.25H10.8501C8.78235 44.25 7.1001 42.5677 7.1001 40.5V11.25Z" fill="white"/>
</svg>
