<svg width="48" height="48" viewBox="0 0 48 48" fill="none" xmlns="http://www.w3.org/2000/svg">
<g clip-path="url(#clip0_2216_5079)">
<path d="M32.7348 32.6128C34.0162 29.584 32.2688 28.1861 30.5214 28.1861L13.2808 27.9531C12.8148 27.9531 12.8148 27.2542 13.3973 27.1377L30.8709 26.9047C32.8513 26.7882 35.1811 25.1574 35.88 23.0605C35.88 23.0605 37.0449 20.6142 36.9284 20.2647C36.4241 17.8316 35.1319 15.6325 33.2516 14.0079C31.3714 12.3833 29.0081 11.4237 26.5275 11.2778C24.0469 11.1319 21.5874 11.8077 19.5296 13.2007C17.4719 14.5937 15.9307 16.6261 15.1446 18.9834C10.718 16.0711 6.05836 20.0318 7.10678 24.3419C1.51522 24.6914 -0.465128 29.7005 0.117326 32.7293C0.117326 32.8458 0.233817 32.9623 0.466799 32.9623H32.3853C32.5018 32.9623 32.7348 32.8458 32.7348 32.6128Z" fill="#F38020"/>
<path d="M38.559 20.7308C38.0931 20.7308 37.8601 20.6143 37.7436 20.8473L37.1612 23.2936C36.5787 25.1574 37.5106 26.7883 39.491 26.9048L43.2187 27.1378C43.6846 27.1378 43.6846 27.8367 43.1022 27.9532L39.258 28.0697C35.0643 28.5357 33.8994 32.6128 33.8994 32.6128C33.8994 32.8458 33.8994 32.9623 34.1324 32.9623H47.2959L47.6453 32.7293C48.0414 31.3258 48.1068 29.8496 47.8363 28.4166C47.5659 26.9835 46.9669 25.6327 46.0865 24.4701C45.2061 23.3075 44.0682 22.3648 42.7621 21.716C41.4561 21.0672 40.0174 20.73 38.559 20.7308Z" fill="#FAAE40"/>
</g>
<defs>
<clipPath id="clip0_2216_5079">
<rect width="48" height="48" fill="white"/>
</clipPath>
</defs>
</svg>
