<svg width="48" height="48" viewBox="0 0 48 48" fill="none" xmlns="http://www.w3.org/2000/svg">
<path d="M12.3414 2.97485L17.9965 13.1771L12.8031 22.5252C12.5544 22.9717 12.424 23.4742 12.424 23.9852C12.424 24.4961 12.5544 24.9987 12.8031 25.4451L17.9965 34.8163L12.3414 45.0185C11.2773 44.491 10.3937 43.6596 9.80241 42.6296L0.800467 26.9916C0.275993 26.0785 0 25.0439 0 23.9909C0 22.9379 0.275993 21.9034 0.800467 20.9903L9.80241 5.35229C10.3955 4.32654 11.2789 3.49931 12.3414 2.97485Z" fill="url(#paint0_linear_2251_5274)"/>
<path opacity="0.7" d="M12.8027 22.5366C12.5561 22.9816 12.4268 23.482 12.4268 23.9908C12.4268 24.4995 12.5561 24.9999 12.8027 25.4449L17.9961 34.8162L12.3411 45.0184C11.277 44.4909 10.3933 43.6594 9.80205 42.6294L0.800106 26.9914C0.0845671 25.7565 4.08928 24.2793 12.8027 22.5482V22.5366Z" fill="url(#paint1_linear_2251_5274)"/>
<path opacity="0.5" d="M12.9186 4.002L17.9967 13.1771L17.1542 14.6428L12.6763 7.06035C11.3837 4.94836 9.41019 6.04475 6.94043 10.3149L7.30974 9.68015L9.80259 5.35229C10.3895 4.3299 11.2646 3.50302 12.3185 2.97485L12.9071 4.002H12.9186Z" fill="url(#paint2_linear_2251_5274)"/>
<path d="M38.1929 5.35221L47.1949 20.9902C48.2682 22.8368 48.2682 25.1449 47.1949 26.9915L38.1929 42.6295C37.6665 43.5412 36.9095 44.2985 35.998 44.8251C35.0864 45.3518 34.0523 45.6295 32.9995 45.6301H23.9976L35.1923 25.445C35.4388 25 35.5682 24.4996 35.5682 23.9908C35.5682 23.4821 35.4388 22.9817 35.1923 22.5367L23.9976 2.35156H32.9995C34.0523 2.35224 35.0864 2.62985 35.998 3.15654C36.9095 3.68323 37.6665 4.44046 38.1929 5.35221Z" fill="url(#paint3_linear_2251_5274)"/>
<path d="M38.1929 5.35221L47.1949 20.9902C48.2682 22.8368 48.2682 25.1449 47.1949 26.9915L38.1929 42.6295C37.6665 43.5412 36.9095 44.2985 35.998 44.8251C35.0864 45.3518 34.0523 45.6295 32.9995 45.6301H23.9976L35.1923 25.445C35.4388 25 35.5682 24.4996 35.5682 23.9908C35.5682 23.4821 35.4388 22.9817 35.1923 22.5367L23.9976 2.35156H32.9995C34.0523 2.35224 35.0864 2.62985 35.998 3.15654C36.9095 3.68323 37.6665 4.44046 38.1929 5.35221Z" fill="url(#paint4_linear_2251_5274)"/>
<path d="M32.5379 45.5609L23.6514 45.6417L34.4075 25.3527C34.648 24.9015 34.7738 24.3982 34.7738 23.887C34.7738 23.3758 34.648 22.8724 34.4075 22.4213L23.6514 2.35156H25.6826L36.9696 22.3289C37.2371 22.8009 37.3767 23.3345 37.3747 23.877C37.3727 24.4194 37.2291 24.952 36.9581 25.4219C34.5289 29.6438 32.1168 33.8755 29.7219 38.117C27.5291 41.9716 28.4755 44.453 32.5379 45.5609Z" fill="url(#paint5_linear_2251_5274)"/>
<path d="M14.9957 45.6301C14.0725 45.6301 13.1492 45.4109 12.3413 45.0185L23.4437 24.9949C23.7899 24.3717 23.7899 23.61 23.4437 22.9868L12.3413 2.97477C13.1666 2.56613 14.0748 2.35289 14.9957 2.35156H23.9977L35.1924 22.5367C35.4389 22.9817 35.5683 23.4821 35.5683 23.9908C35.5683 24.4996 35.4389 25 35.1924 25.445L23.9977 45.6301H14.9957Z" fill="url(#paint6_linear_2251_5274)"/>
<path opacity="0.6" d="M34.4076 22.9868L22.959 2.35156H23.9977L35.1924 22.5367C35.4389 22.9817 35.5683 23.4821 35.5683 23.9908C35.5683 24.4996 35.4389 25 35.1924 25.445L23.9977 45.6301H22.959L34.4076 24.9949C34.7538 24.3717 34.7538 23.61 34.4076 22.9868Z" fill="url(#paint7_linear_2251_5274)"/>
<path opacity="0.6" d="M23.4437 22.9867L12.3413 2.97469C12.6875 2.79003 13.103 2.65154 13.4954 2.53613C15.9421 6.93323 19.5544 13.6039 24.3439 22.5366C24.5904 22.9816 24.7198 23.482 24.7198 23.9908C24.7198 24.4995 24.5904 24.9999 24.3439 25.4449L13.3223 45.3992C12.9299 45.2838 12.7222 45.203 12.3528 45.0299L23.4322 25.0064C23.7784 24.3832 23.7784 23.6214 23.4322 22.9982L23.4437 22.9867Z" fill="url(#paint8_linear_2251_5274)"/>
<defs>
<linearGradient id="paint0_linear_2251_5274" x1="8.99824" y1="2.97485" x2="8.99824" y2="45.0185" gradientUnits="userSpaceOnUse">
<stop stop-color="#F9B13E"/>
<stop offset="1" stop-color="#DE6805"/>
</linearGradient>
<linearGradient id="paint1_linear_2251_5274" x1="1400.19" y1="1904.26" x2="451.122" y2="928.178" gradientUnits="userSpaceOnUse">
<stop stop-color="#D96504"/>
<stop offset="1" stop-color="#D96504" stop-opacity="0"/>
</linearGradient>
<linearGradient id="paint2_linear_2251_5274" x1="12.4685" y1="2.97485" x2="12.4685" y2="14.6428" gradientUnits="userSpaceOnUse">
<stop stop-color="#E77B00"/>
<stop offset="1" stop-color="#F49D2D"/>
</linearGradient>
<linearGradient id="paint3_linear_2251_5274" x1="1224.11" y1="4330.21" x2="-426.363" y2="891.04" gradientUnits="userSpaceOnUse">
<stop stop-color="#EE6F05"/>
<stop offset="1" stop-color="#FAB743"/>
</linearGradient>
<linearGradient id="paint4_linear_2251_5274" x1="35.9987" y1="2.35156" x2="35.9987" y2="45.6301" gradientUnits="userSpaceOnUse">
<stop stop-color="#FAB743"/>
<stop offset="1" stop-color="#EF7208"/>
</linearGradient>
<linearGradient id="paint5_linear_2251_5274" x1="30.513" y1="2.35156" x2="30.513" y2="45.6417" gradientUnits="userSpaceOnUse">
<stop stop-color="#F7AB38"/>
<stop offset="0.510417" stop-color="#F59526"/>
<stop offset="1" stop-color="#E46B00"/>
</linearGradient>
<linearGradient id="paint6_linear_2251_5274" x1="23.9548" y1="2.35156" x2="23.9548" y2="45.6301" gradientUnits="userSpaceOnUse">
<stop stop-color="#FFEFD2"/>
<stop offset="1" stop-color="#FFB16B"/>
</linearGradient>
<linearGradient id="paint7_linear_2251_5274" x1="29.2636" y1="2.35156" x2="29.2636" y2="45.6301" gradientUnits="userSpaceOnUse">
<stop stop-color="#FFF8ED"/>
<stop offset="1" stop-color="#FBBE8B"/>
</linearGradient>
<linearGradient id="paint8_linear_2251_5274" x1="18.5306" y1="2.53613" x2="18.5306" y2="45.3992" gradientUnits="userSpaceOnUse">
<stop stop-color="#FFEFD2"/>
<stop offset="1" stop-color="#FFC694"/>
</linearGradient>
</defs>
</svg>
