<svg width="48" height="48" viewBox="0 0 48 48" fill="none" xmlns="http://www.w3.org/2000/svg">
<path fill-rule="evenodd" clip-rule="evenodd" d="M12.1291 14.0586C12.8478 14.7926 12.8353 15.9702 12.1013 16.6889L4.56859 24.0639L12.1112 31.5606C12.8398 32.2847 12.8434 33.4624 12.1193 34.191C11.3951 34.9196 10.2175 34.9232 9.48887 34.199L0.953987 25.7162C0.0285198 24.7964 0.0341581 23.2973 0.966511 22.3845L9.49882 14.0307C10.2328 13.3121 11.4105 13.3245 12.1291 14.0586Z" fill="white"/>
<path fill-rule="evenodd" clip-rule="evenodd" d="M35.6135 14.0764C34.9047 14.8199 34.9329 15.9973 35.6764 16.7061L43.3948 24.064L35.6663 31.5432C34.9282 32.2576 34.9089 33.4351 35.6232 34.1733C36.3376 34.9115 37.5151 34.9308 38.2533 34.2164L47.0142 25.7381C47.9694 24.8136 47.9637 23.2801 47.0015 22.3628L38.2432 14.0135C37.4997 13.3047 36.3224 13.3329 35.6135 14.0764Z" fill="white"/>
<path fill-rule="evenodd" clip-rule="evenodd" d="M29.0781 6.37344C30.0646 6.65962 30.6324 7.6914 30.3462 8.67798L21.2262 40.118C20.9401 41.1046 19.9083 41.6723 18.9217 41.3862C17.9351 41.1 17.3673 40.0682 17.6535 39.0816L26.7735 7.64162C27.0597 6.65504 28.0915 6.08725 29.0781 6.37344Z" fill="white"/>
</svg>
