<svg width="48" height="48" viewBox="0 0 48 48" fill="none" xmlns="http://www.w3.org/2000/svg">
<path fill-rule="evenodd" clip-rule="evenodd" d="M27.4142 35.4142C26.6332 36.1952 25.3668 36.1952 24.5858 35.4142C23.8048 34.6332 23.8048 33.3668 24.5858 32.5858L33.1716 24L24.5858 15.4142C23.8048 14.6332 23.8048 13.3668 24.5858 12.5858C25.3668 11.8047 26.6332 11.8047 27.4142 12.5858L37.4142 22.5858C38.1953 23.3668 38.1953 24.6332 37.4142 25.4142L27.4142 35.4142ZM13.4142 35.4142C12.6332 36.1952 11.3668 36.1952 10.5858 35.4142C9.8048 34.6332 9.8048 33.3668 10.5858 32.5858L19.1716 24L10.5858 15.4142C9.8048 14.6332 9.8048 13.3668 10.5858 12.5858C11.3668 11.8047 12.6332 11.8047 13.4142 12.5858L23.4142 22.5858C24.1952 23.3668 24.1952 24.6332 23.4142 25.4142L13.4142 35.4142Z" fill="white"/>
</svg>
