<svg width="48" height="48" viewBox="0 0 48 48" fill="none" xmlns="http://www.w3.org/2000/svg">
<g clip-path="url(#clip0_10263_283359)">
<path d="M25.7493 15.8085C29.5224 12.4285 28.038 6.07789 23.208 4.67399V1.86646C23.109 -0.621788 19.5555 -0.619913 19.4573 1.86646V4.67117C14.6052 6.07442 13.1284 12.4537 16.927 15.8277L2.85058 45.3174C2.40443 46.2521 2.80051 47.3715 3.73519 47.8177C4.64887 48.2599 5.78798 47.8773 6.23553 46.9331L20.3104 17.4466C20.9798 17.5534 21.7043 17.5515 22.3727 17.4416L28.419 29.9683C28.8706 30.9106 30.0111 31.2881 30.9231 30.842C31.8559 30.3918 32.2471 29.2706 31.7969 28.3378L25.7493 15.8085ZM18.5145 10.962C18.5145 9.4109 19.7765 8.14896 21.3276 8.14896C25.0595 8.30349 25.0585 13.6211 21.3276 13.7751C19.7765 13.7751 18.5145 12.5131 18.5145 10.962ZM39.115 47.8141C38.203 48.2603 37.0626 47.8826 36.6108 46.9404L34.3026 42.1582C33.3102 39.8742 36.5112 38.3313 37.6804 40.5278L39.9886 45.31C40.4389 46.2428 40.0477 47.364 39.115 47.8141ZM21.3276 39.5615C19.6484 39.5615 17.8953 39.3716 15.8104 38.964C14.794 38.7652 14.131 37.7801 14.3297 36.7636C14.5285 35.7471 15.5136 35.0842 16.5301 35.2829C26.3239 37.3433 36.3954 33.1195 41.9059 25.0045C42.488 24.148 43.6544 23.9254 44.5112 24.5077C45.3677 25.0899 45.5903 26.2563 45.008 27.1129C39.7105 34.9077 30.858 39.5615 21.3276 39.5615Z" fill="white"/>
</g>
<defs>
<clipPath id="clip0_10263_283359">
<rect width="48" height="48" fill="white" transform="translate(0 0.000976562)"/>
</clipPath>
</defs>
</svg>
