<svg width="48" height="48" viewBox="0 0 48 48" fill="none" xmlns="http://www.w3.org/2000/svg">
<path d="M41.2031 46.4766H17.2969C14.3888 46.4766 12.0234 44.1112 12.0234 41.2031V17.2969C12.0234 14.3888 14.3888 12.0234 17.2969 12.0234H41.2031C44.1112 12.0234 46.4766 14.3888 46.4766 17.2969V41.2031C46.4766 44.1112 44.1112 46.4766 41.2031 46.4766ZM17.2969 15.5391C16.3276 15.5391 15.5391 16.3276 15.5391 17.2969V41.2031C15.5391 42.1724 16.3276 42.9609 17.2969 42.9609H41.2031C42.1724 42.9609 42.9609 42.1724 42.9609 41.2031V17.2969C42.9609 16.3276 42.1724 15.5391 41.2031 15.5391H17.2969ZM8.50781 32.4141H6.75C5.78073 32.4141 4.99219 31.6255 4.99219 30.6563V6.75C4.99219 5.78073 5.78073 4.99219 6.75 4.99219H30.6563C31.6255 4.99219 32.4141 5.78073 32.4141 6.75V8.41992H35.9297V6.75C35.9297 3.84192 33.5643 1.47656 30.6563 1.47656H6.75C3.84192 1.47656 1.47656 3.84192 1.47656 6.75V30.6563C1.47656 33.5643 3.84192 35.9297 6.75 35.9297H8.50781V32.4141Z" fill="white"/>
</svg>
