<svg width="48" height="48" viewBox="0 0 48 48" fill="none" xmlns="http://www.w3.org/2000/svg">
<path d="M38.625 16.5H9.375C8.33944 16.5 7.5 15.6606 7.5 14.625C7.5 13.5894 8.33944 12.75 9.375 12.75H38.625C39.6606 12.75 40.5 13.5894 40.5 14.625C40.5 15.6606 39.6606 16.5 38.625 16.5Z" fill="white"/>
<path d="M38.625 42.75H9.375C4.20563 42.75 0 38.5444 0 33.375V14.625C0 9.45563 4.20563 5.25 9.375 5.25H38.625C43.7945 5.25 48 9.45563 48 14.625V33.375C48 38.5444 43.7945 42.75 38.625 42.75ZM9.375 9C6.27338 9 3.75 11.5234 3.75 14.625V33.375C3.75 36.4766 6.27338 39 9.375 39H38.625C41.7266 39 44.25 36.4766 44.25 33.375V14.625C44.25 11.5234 41.7266 9 38.625 9H9.375Z" fill="white"/>
<path d="M13.125 35.25C10.0234 35.25 7.5 32.7266 7.5 29.625C7.5 26.5234 10.0234 24 13.125 24C16.2266 24 18.75 26.5234 18.75 29.625C18.75 32.7266 16.2266 35.25 13.125 35.25ZM13.125 27.75C12.0911 27.75 11.25 28.5911 11.25 29.625C11.25 30.6589 12.0911 31.5 13.125 31.5C14.1589 31.5 15 30.6589 15 29.625C15 28.5911 14.1589 27.75 13.125 27.75Z" fill="white"/>
<path d="M38.625 35.25H34.875C33.8394 35.25 33 34.4106 33 33.375C33 32.3394 33.8394 31.5 34.875 31.5H38.625C39.6606 31.5 40.5 32.3394 40.5 33.375C40.5 34.4106 39.6606 35.25 38.625 35.25Z" fill="white"/>
</svg>
