<svg width="48" height="48" viewBox="0 0 48 48" fill="none" xmlns="http://www.w3.org/2000/svg">
<path d="M16.3382 16.3392C15.8873 16.7901 15.8873 17.5212 16.3382 17.9721L22.367 24.001L16.3382 30.0298C15.8873 30.4807 15.8873 31.2118 16.3382 31.6628C16.7891 32.1137 17.5202 32.1137 17.9712 31.6628L24 25.6339L30.0288 31.6628C30.4798 32.1137 31.2109 32.1137 31.6618 31.6628C32.1127 31.2118 32.1127 30.4807 31.6618 30.0298L25.633 24.001L31.6618 17.9721C32.1127 17.5212 32.1127 16.7901 31.6618 16.3392C31.2109 15.8882 30.4798 15.8882 30.0288 16.3392L24 22.368L17.9712 16.3392C17.5202 15.8882 16.7891 15.8882 16.3382 16.3392Z" fill="white"/>
</svg>
