<svg width="48" height="48" viewBox="0 0 48 48" fill="none" xmlns="http://www.w3.org/2000/svg">
<path d="M42.75 7.5H5.25C4.21444 7.5 3.375 8.33944 3.375 9.375C3.375 10.4106 4.21444 11.25 5.25 11.25H7.125V38.625C7.125 43.7944 11.3306 48 16.5 48H31.5C36.6694 48 40.875 43.7944 40.875 38.625V11.25H42.75C43.7856 11.25 44.625 10.4106 44.625 9.375C44.625 8.33944 43.7856 7.5 42.75 7.5ZM37.125 38.625C37.125 41.7266 34.6016 44.25 31.5 44.25H16.5C13.3984 44.25 10.875 41.7266 10.875 38.625V11.25H37.125V38.625Z" fill="white"/>
<path d="M27.75 3.75H20.25C19.2144 3.75 18.375 2.91056 18.375 1.875C18.375 0.839438 19.2144 0 20.25 0H27.75C28.7856 0 29.625 0.839438 29.625 1.875C29.625 2.91056 28.7856 3.75 27.75 3.75Z" fill="white"/>
<path d="M24 36.75C22.9644 36.75 22.125 35.9106 22.125 34.875V20.625C22.125 19.5894 22.9644 18.75 24 18.75C25.0356 18.75 25.875 19.5894 25.875 20.625V34.875C25.875 35.9106 25.0356 36.75 24 36.75Z" fill="white"/>
<path d="M31.5 36.75C30.4644 36.75 29.625 35.9106 29.625 34.875V20.625C29.625 19.5894 30.4644 18.75 31.5 18.75C32.5356 18.75 33.375 19.5894 33.375 20.625V34.875C33.375 35.9106 32.5356 36.75 31.5 36.75Z" fill="white"/>
<path d="M16.5 36.75C15.4644 36.75 14.625 35.9106 14.625 34.875V20.625C14.625 19.5894 15.4644 18.75 16.5 18.75C17.5356 18.75 18.375 19.5894 18.375 20.625V34.875C18.375 35.9106 17.5356 36.75 16.5 36.75Z" fill="white"/>
</svg>
