<svg width="48" height="48" viewBox="0 0 48 48" fill="none" xmlns="http://www.w3.org/2000/svg">
<path d="M3.375 42.375C3.375 45.4766 5.89838 48 9 48C12.1016 48 14.625 45.4766 14.625 42.375C14.625 39.2734 12.1016 36.75 9 36.75C5.89838 36.75 3.375 39.2734 3.375 42.375ZM9 40.5C10.0339 40.5 10.875 41.3411 10.875 42.375C10.875 43.4089 10.0339 44.25 9 44.25C7.96613 44.25 7.125 43.4089 7.125 42.375C7.125 41.3411 7.96613 40.5 9 40.5Z" fill="white"/>
<path d="M33.375 42.375C33.375 45.4766 35.8984 48 39 48C42.1016 48 44.625 45.4766 44.625 42.375C44.625 39.2734 42.1016 36.75 39 36.75C35.8984 36.75 33.375 39.2734 33.375 42.375ZM40.875 42.375C40.875 43.4089 40.0339 44.25 39 44.25C37.9661 44.25 37.125 43.4089 37.125 42.375C37.125 41.3411 37.9661 40.5 39 40.5C40.0339 40.5 40.875 41.3411 40.875 42.375Z" fill="white"/>
<path d="M12.75 22.5C9.64838 22.5 7.125 25.0234 7.125 28.125V31.875C7.125 32.9106 7.96444 33.75 9 33.75C10.0356 33.75 10.875 32.9106 10.875 31.875V28.125C10.875 27.0911 11.7161 26.25 12.75 26.25H22.125V31.875C22.125 32.9106 22.9644 33.75 24 33.75C25.0356 33.75 25.875 32.9106 25.875 31.875V26.25H35.25C36.2839 26.25 37.125 27.0911 37.125 28.125V31.875C37.125 32.9106 37.9644 33.75 39 33.75C40.0356 33.75 40.875 32.9106 40.875 31.875V28.125C40.875 25.0234 38.3516 22.5 35.25 22.5H25.875V18.5615C30.1491 17.6904 33.375 13.9024 33.375 9.375C33.375 4.20563 29.1695 0 24 0C18.8305 0 14.625 4.20563 14.625 9.375C14.625 13.9025 17.8509 17.6904 22.125 18.5615V22.5H12.75ZM18.375 9.375C18.375 6.27338 20.8984 3.75 24 3.75C27.1016 3.75 29.625 6.27338 29.625 9.375C29.625 12.4766 27.1016 15 24 15C20.8984 15 18.375 12.4766 18.375 9.375Z" fill="white"/>
<path d="M24 48C27.1016 48 29.625 45.4766 29.625 42.375C29.625 39.2734 27.1016 36.75 24 36.75C20.8984 36.75 18.375 39.2734 18.375 42.375C18.375 45.4766 20.8984 48 24 48ZM24 40.5C25.0339 40.5 25.875 41.3411 25.875 42.375C25.875 43.4089 25.0339 44.25 24 44.25C22.9661 44.25 22.125 43.4089 22.125 42.375C22.125 41.3411 22.9661 40.5 24 40.5Z" fill="white"/>
</svg>
