<svg width="48" height="48" viewBox="0 0 48 48" fill="none" xmlns="http://www.w3.org/2000/svg">
<g clip-path="url(#clip0_2063_6037)">
<path d="M48 24C48 22.9644 47.1606 22.125 46.125 22.125H44.5388C43.6443 12.2456 35.7544 4.35572 25.875 3.46106V1.875C25.875 0.839438 25.0356 0 24 0C22.9644 0 22.125 0.839438 22.125 1.875V3.46106C12.2456 4.35572 4.35572 12.2456 3.46116 22.125H1.875C0.839438 22.125 0 22.9644 0 24C0 25.0356 0.839438 25.875 1.875 25.875H3.46116C4.35572 35.7544 12.2456 43.6443 22.125 44.5389V46.125C22.125 47.1606 22.9644 48 24 48C25.0356 48 25.875 47.1606 25.875 46.125V44.5389C35.7544 43.6443 43.6443 35.7544 44.5388 25.875H46.125C47.1606 25.875 48 25.0356 48 24ZM24 40.875C14.6951 40.875 7.125 33.3049 7.125 24C7.125 14.6951 14.6951 7.125 24 7.125C33.3049 7.125 40.875 14.6951 40.875 24C40.875 33.3049 33.3049 40.875 24 40.875Z" fill="white"/>
<path d="M23.9999 37.125C25.0355 37.125 25.8749 36.2856 25.8749 35.25V33.0525C28.0572 32.2785 29.6249 30.1943 29.6249 27.75C29.6249 24.6484 27.1015 22.125 23.9999 22.125C22.966 22.125 22.1249 21.2839 22.1249 20.25C22.1249 19.2161 22.966 18.375 23.9999 18.375C24.5953 18.375 25.1423 18.6487 25.5009 19.1259C26.1229 19.954 27.2983 20.1207 28.1262 19.4989C28.9542 18.8769 29.1211 17.7015 28.4992 16.8736C27.8288 15.9813 26.9076 15.318 25.875 14.951V12.75C25.875 11.7144 25.0356 10.875 24 10.875C22.9644 10.875 22.125 11.7144 22.125 12.75V14.9475C19.9427 15.7215 18.375 17.8057 18.375 20.25C18.375 23.3516 20.8984 25.875 24 25.875C25.0339 25.875 25.875 26.7161 25.875 27.75C25.875 28.7839 25.0339 29.625 24 29.625C23.4046 29.625 22.8575 29.3513 22.499 28.8741C21.877 28.0461 20.7016 27.8792 19.8737 28.5011C19.0457 29.1231 18.8788 30.2985 19.5007 31.1264C20.1711 32.0187 21.0924 32.682 22.125 33.049V35.25C22.1249 36.2856 22.9643 37.125 23.9999 37.125Z" fill="white"/>
</g>
<defs>
<clipPath id="clip0_2063_6037">
<rect width="48" height="48" fill="white"/>
</clipPath>
</defs>
</svg>
