<svg width="48" height="48" viewBox="0 0 48 48" fill="none" xmlns="http://www.w3.org/2000/svg">
<g clip-path="url(#clip0_290_6901)">
<path d="M38.625 33.3884H31.5C30.4644 33.3884 29.625 32.549 29.625 31.5134C29.625 30.4779 30.4644 29.6384 31.5 29.6384H38.625C41.7266 29.6384 44.25 27.1151 44.25 24.0134C44.25 20.8066 41.993 18.3884 39 18.3884C37.9644 18.3884 37.125 17.549 37.125 16.5134C37.125 13.4118 34.6016 10.8884 31.5 10.8884C30.8919 10.8884 30.2717 11.0055 29.6038 11.2464C28.8519 11.5176 28.0111 11.2825 27.509 10.6607C25.701 8.42233 23.0552 7.13843 20.25 7.13843C15.0805 7.13843 10.875 11.3441 10.875 16.5134C10.875 17.549 10.0356 18.3884 9 18.3884C6.00703 18.3884 3.75 20.8066 3.75 24.0134C3.75 27.1151 6.27338 29.6384 9.375 29.6384H16.5C17.5356 29.6384 18.375 30.4779 18.375 31.5134C18.375 32.549 17.5356 33.3884 16.5 33.3884H9.375C4.20553 33.3884 0 29.1828 0 24.0134C0 21.5096 0.892125 19.1725 2.51184 17.4325C3.78647 16.0633 5.42316 15.1616 7.23534 14.8075C8.07441 8.37368 13.5911 3.38843 20.25 3.38843C23.7746 3.38843 27.1118 4.81971 29.5828 7.35415C30.2291 7.21071 30.8703 7.13843 31.5 7.13843C36.0838 7.13843 39.9098 10.4452 40.7178 14.7986C42.5486 15.1462 44.2026 16.0516 45.4882 17.4326C47.1079 19.1725 48 21.5096 48 24.0134C48 29.1828 43.7945 33.3884 38.625 33.3884Z" fill="white"/>
<path d="M38.625 33.3884H31.5C30.4644 33.3884 29.625 32.549 29.625 31.5134C29.625 30.4779 30.4644 29.6384 31.5 29.6384H38.625C41.7266 29.6384 44.25 27.1151 44.25 24.0134C44.25 20.8066 41.993 18.3884 39 18.3884C37.9644 18.3884 37.125 17.549 37.125 16.5134C37.125 13.4118 34.6016 10.8884 31.5 10.8884C30.8919 10.8884 30.2717 11.0055 29.6038 11.2464C28.8519 11.5176 28.0111 11.2825 27.509 10.6607C25.701 8.42233 23.0552 7.13843 20.25 7.13843C15.0805 7.13843 10.875 11.3441 10.875 16.5134C10.875 17.549 10.0356 18.3884 9 18.3884C6.00703 18.3884 3.75 20.8066 3.75 24.0134C3.75 27.1151 6.27338 29.6384 9.375 29.6384H16.5C17.5356 29.6384 18.375 30.4779 18.375 31.5134C18.375 32.549 17.5356 33.3884 16.5 33.3884H9.375C4.20553 33.3884 0 29.1828 0 24.0134C0 21.5096 0.892125 19.1725 2.51184 17.4325C3.78647 16.0633 5.42316 15.1616 7.23534 14.8075C8.07441 8.37368 13.5911 3.38843 20.25 3.38843C23.7746 3.38843 27.1118 4.81971 29.5828 7.35415C30.2291 7.21071 30.8703 7.13843 31.5 7.13843C36.0838 7.13843 39.9098 10.4452 40.7178 14.7986C42.5486 15.1462 44.2026 16.0516 45.4882 17.4326C47.1079 19.1725 48 21.5096 48 24.0134C48 29.1828 43.7945 33.3884 38.625 33.3884Z" fill="white"/>
<path d="M30.9508 36.5626C30.2185 35.8303 29.0313 35.8303 28.2991 36.5626L25.8749 38.9868V20.2634C25.8749 19.2279 25.0355 18.3884 23.9999 18.3884C22.9644 18.3884 22.1249 19.2279 22.1249 20.2634V38.9868L19.7008 36.5626C18.9686 35.8303 17.7814 35.8304 17.0492 36.5626C16.317 37.2948 16.3168 38.4821 17.0491 39.2142L21.3482 43.5134C22.0667 44.2319 23.0066 44.5964 23.9503 44.6089C23.9669 44.6094 23.9832 44.6114 24 44.6114C24.0169 44.6114 24.0331 44.6094 24.0498 44.6089C24.9935 44.5965 25.9333 44.2319 26.6518 43.5134L30.9509 39.2142C31.683 38.4821 31.6829 37.2948 30.9508 36.5626Z" fill="white"/>
</g>
<defs>
<clipPath id="clip0_290_6901">
<rect width="48" height="48" fill="white"/>
</clipPath>
</defs>
</svg>
