<svg width="48" height="48" viewBox="0 0 48 48" fill="none" xmlns="http://www.w3.org/2000/svg">
<g clip-path="url(#clip0_1728_3959)">
<path d="M4.61202 48.0001C3.66239 48.0001 2.70619 47.9069 1.7545 47.7165C1.01216 47.5681 0.432011 46.9879 0.283599 46.2456C-0.669969 41.4785 0.81312 36.5799 4.25088 33.1421L28.5703 8.82265C28.9219 8.47098 29.3988 8.27344 29.8962 8.27344C30.3935 8.27344 30.8704 8.47098 31.2221 8.82265L39.1774 16.7779C39.9096 17.5102 39.9096 18.6974 39.1773 19.4297L14.8579 43.7491C12.1066 46.5005 8.4187 48.0001 4.61202 48.0001ZM3.7823 44.2176C6.89239 44.4568 9.96713 43.3363 12.2061 41.0973L35.1996 18.1039L29.8962 12.8003L6.9027 35.7938C4.66358 38.0328 3.54276 41.1073 3.7823 44.2176Z" fill="white"/>
<path d="M41.8291 14.1262C41.0968 13.3939 41.0969 12.2067 41.8292 11.4744L43.1551 10.1486C44.6172 8.6864 44.6172 6.30731 43.155 4.84512C41.6929 3.38294 39.3138 3.38294 37.8515 4.84512L36.5257 6.17089C35.7934 6.9032 34.6062 6.9032 33.874 6.17099C33.1417 5.43877 33.1416 4.25148 33.8739 3.51926L35.1998 2.1934C38.1242 -0.730969 42.8825 -0.730969 45.8069 2.1934C48.7311 5.11785 48.7311 9.87604 45.807 12.8004L44.4809 14.1264C43.7489 14.8582 42.5617 14.8587 41.8291 14.1262Z" fill="white"/>
</g>
<defs>
<clipPath id="clip0_1728_3959">
<rect width="48" height="48" fill="white"/>
</clipPath>
</defs>
</svg>
