<svg width="48" height="48" viewBox="0 0 48 48" fill="none" xmlns="http://www.w3.org/2000/svg">
<path d="M27.0938 44.25H13.3125C9.177 44.25 5.8125 40.8855 5.8125 36.75V11.25C5.8125 7.1145 9.177 3.75 13.3125 3.75H30.5625C34.698 3.75 38.0625 7.1145 38.0625 11.25V25.0312C38.0625 26.0668 38.9019 26.9062 39.9375 26.9062C40.9731 26.9062 41.8125 26.0668 41.8125 25.0312V11.25C41.8125 5.04675 36.7658 0 30.5625 0H13.3125C7.10925 0 2.0625 5.04675 2.0625 11.25V36.75C2.0625 42.9533 7.10925 48 13.3125 48H27.0938C28.1293 48 28.9688 47.1606 28.9688 46.125C28.9688 45.0894 28.1293 44.25 27.0938 44.25Z" fill="white"/>
<path d="M43.933 36.317L37.3603 29.7443C35.4607 27.8448 33.0642 26.5623 30.4298 26.0357L25.1175 24.9738C24.503 24.8511 23.8674 25.0434 23.4242 25.4867C22.9809 25.9299 22.7886 26.5653 22.9114 27.18L23.9732 32.4922C24.4997 35.1266 25.7821 37.5231 27.6818 39.4228L34.2545 45.9955C35.5471 47.2882 37.2657 48.0001 39.0938 48.0001C40.9217 48.0001 42.6403 47.2882 43.9329 45.9956C45.2256 44.703 45.9375 42.9843 45.9375 41.1563C45.9375 39.3283 45.2256 37.6097 43.933 36.317ZM41.2814 43.3439C40.6971 43.9282 39.9201 44.2501 39.0938 44.2501C38.2674 44.2501 37.4904 43.9282 36.9062 43.3439L30.3334 36.7711C28.9591 35.3968 28.0313 33.6631 27.6505 31.7573L27.1398 29.2023L29.6948 29.713C31.6007 30.094 33.3344 31.0218 34.7086 32.396L41.2814 38.9688C41.8657 39.553 42.1875 40.33 42.1875 41.1563C42.1875 41.9826 41.8657 42.7596 41.2814 43.3439Z" fill="white"/>
</svg>
