<svg width="48" height="48" viewBox="0 0 48 48" fill="none" xmlns="http://www.w3.org/2000/svg">
<g clip-path="url(#clip0_1085_3828)">
<path fill-rule="evenodd" clip-rule="evenodd" d="M-0.0131836 36.75C-0.0131836 42.9632 5.02356 48 11.2368 48H36.7368C42.9501 48 47.9868 42.9632 47.9868 36.75V11.25C47.9868 5.03675 42.9501 0 36.7368 0H11.2368C5.02356 0 -0.0131836 5.03675 -0.0131836 11.25V36.75ZM11.2368 44.25C7.09463 44.25 3.73682 40.8922 3.73682 36.75V11.25C3.73682 7.10781 7.09463 3.75 11.2368 3.75H36.7368C40.879 3.75 44.2368 7.10781 44.2368 11.25V36.75C44.2368 40.8922 40.879 44.25 36.7368 44.25H11.2368Z" fill="white"/>
<path fill-rule="evenodd" clip-rule="evenodd" d="M35.7964 10.611C36.5635 11.327 36.605 12.5293 35.889 13.2964L14.889 35.7964C14.173 36.5635 12.9707 36.605 12.2036 35.889C11.4365 35.173 11.395 33.9707 12.111 33.2036L33.111 10.7036C33.827 9.93646 35.0293 9.895 35.7964 10.611Z" fill="white"/>
</g>
<defs>
<clipPath id="clip0_1085_3828">
<rect width="48" height="48" fill="white"/>
</clipPath>
</defs>
</svg>
