<svg width="48" height="48" viewBox="0 0 48 48" fill="none" xmlns="http://www.w3.org/2000/svg">
<g clip-path="url(#clip0_941_3988)">
<path d="M21 48H11.25C5.04675 48 0 42.9532 0 36.75V11.25C0 5.04675 5.04675 0 11.25 0H36.75C42.9532 0 48 5.04675 48 11.25V20.625C47.901 23.1127 44.3482 23.1109 44.25 20.625V11.25C44.25 7.1145 40.8855 3.75 36.75 3.75H11.25C7.1145 3.75 3.75 7.1145 3.75 11.25V36.75C3.75 40.8855 7.1145 44.25 11.25 44.25H21C23.4877 44.349 23.4859 47.9018 21 48ZM30.6562 10.3125C30.6562 9.27694 29.8168 8.4375 28.7812 8.4375H19.2188C16.731 8.5365 16.7329 12.0893 19.2188 12.1875H28.7812C29.8168 12.1875 30.6562 11.3481 30.6562 10.3125ZM48 35.3438C48 28.3651 42.3224 22.6875 35.3438 22.6875C18.5527 23.3828 18.5592 47.3078 35.3438 48C42.3224 48 48 42.3224 48 35.3438ZM44.25 35.3438C44.25 40.2547 40.2547 44.25 35.3438 44.25C23.5279 43.7606 23.5325 26.9246 35.3438 26.4375C40.2547 26.4375 44.25 30.4328 44.25 35.3438ZM37.9955 35.3438L39.4822 33.8571C40.2143 33.1248 40.2143 31.9376 39.4822 31.2054C38.7499 30.4732 37.5626 30.4732 36.8304 31.2054L35.3438 32.692L33.8572 31.2054C33.1249 30.4732 31.9376 30.4732 31.2054 31.2054C30.4733 31.9377 30.4733 33.1249 31.2054 33.8571L32.692 35.3438L31.2053 36.8304C30.4732 37.5627 30.4732 38.7499 31.2053 39.4821C31.9376 40.2143 33.1248 40.2143 33.8571 39.4821L35.3438 37.9955L36.8303 39.4821C37.5626 40.2143 38.7498 40.2143 39.4821 39.4821C40.2142 38.7498 40.2142 37.5626 39.4821 36.8304L37.9955 35.3438Z" fill="white"/>
</g>
<defs>
<clipPath id="clip0_941_3988">
<rect width="48" height="48" fill="white"/>
</clipPath>
</defs>
</svg>
