<svg width="48" height="48" viewBox="0 0 48 48" fill="none" xmlns="http://www.w3.org/2000/svg">
<path d="M38.8425 44.7379L44.6719 38.9567C46.787 36.8591 48 33.9476 48 30.9689V11.25C48 5.04675 42.9533 0 36.75 0H17.0793C14.092 0 11.2786 1.15847 9.15745 3.26215L3.32805 9.04327C1.21305 11.1408 0 14.0523 0 17.0311V36.75C0 42.9533 5.04675 48 11.25 48H30.9207C33.9082 48 36.7214 46.8415 38.8425 44.7379ZM36.75 3.74999C40.8855 3.74999 44.25 7.11446 44.25 11.25V30.9689C44.25 32.9548 43.4413 34.8958 42.0313 36.2943L36.202 42.0753C34.7879 43.4777 32.9123 44.25 30.9207 44.25H11.25C7.11446 44.25 3.74999 40.8855 3.74999 36.75V17.0311C3.74999 15.0452 4.55872 13.1042 5.96867 11.7057L11.798 5.9247C13.2121 4.52231 15.0877 3.74999 17.0793 3.74999H36.75Z" fill="white"/>
<path fill-rule="evenodd" clip-rule="evenodd" d="M34.6797 13.3117C35.1045 13.7298 35.1074 14.4106 34.6861 14.8322L14.8528 34.6818C14.4315 35.1035 13.7455 35.1063 13.3207 34.6882C12.8959 34.2701 12.893 33.5893 13.3143 33.1677L33.1476 13.3181C33.5689 12.8964 34.2548 12.8936 34.6797 13.3117Z" fill="white"/>
<path fill-rule="evenodd" clip-rule="evenodd" d="M13.3143 33.1677L33.1476 13.3181C33.5689 12.8964 34.2548 12.8936 34.6797 13.3117C35.1045 13.7298 35.1074 14.4106 34.6861 14.8322L14.8528 34.6818C14.4315 35.1035 13.7455 35.1063 13.3207 34.6882C12.8959 34.2701 12.893 33.5893 13.3143 33.1677ZM35.2408 12.7415C35.9822 13.4712 35.9873 14.6618 35.252 15.3977L15.4187 35.2473C14.6867 35.9799 13.4976 35.9847 12.7595 35.2584C12.0182 34.5287 12.0131 33.3381 12.7484 32.6022L32.5817 12.7526C33.3137 12.02 34.5028 12.0152 35.2408 12.7415Z" fill="white"/>
</svg>
