<svg width="48" height="48" viewBox="0 0 48 48" fill="none" xmlns="http://www.w3.org/2000/svg">
<g clip-path="url(#clip0_1096_4575)">
<path fill-rule="evenodd" clip-rule="evenodd" d="M0 36.7493C0 42.9625 5.03675 47.9993 11.25 47.9993H29.0625C30.098 47.9993 30.9375 47.1598 30.9375 46.1243C30.9375 45.0887 30.098 44.2493 29.0625 44.2493H11.25C7.10781 44.2493 3.75 40.8914 3.75 36.7493V11.2493C3.75 7.10708 7.10781 3.74927 11.25 3.74927H36.75C40.8922 3.74927 44.25 7.10708 44.25 11.2493V29.2024C44.25 30.2379 45.0895 31.0774 46.125 31.0774C47.1605 31.0774 48 30.2379 48 29.2024V11.2493C48 5.03601 42.9632 -0.000732422 36.75 -0.000732422H11.25C5.03675 -0.000732422 0 5.03601 0 11.2493V36.7493Z" fill="white"/>
<path fill-rule="evenodd" clip-rule="evenodd" d="M9.52441 11.8125C9.52441 12.848 10.3639 13.6875 11.3994 13.6875H28.5557C29.5912 13.6875 30.4307 12.848 30.4307 11.8125C30.4307 10.777 29.5912 9.93749 28.5557 9.93749H11.3994C10.3639 9.93749 9.52441 10.777 9.52441 11.8125Z" fill="white"/>
<path fill-rule="evenodd" clip-rule="evenodd" d="M9.375 20.8125C9.375 21.848 10.2145 22.6875 11.25 22.6875H18C19.0355 22.6875 19.875 21.848 19.875 20.8125C19.875 19.777 19.0355 18.9375 18 18.9375H11.25C10.2145 18.9375 9.375 19.777 9.375 20.8125Z" fill="white"/>
<path fill-rule="evenodd" clip-rule="evenodd" d="M43.3439 43.3438C42.1357 44.552 40.1769 44.552 38.9687 43.3438L32.396 36.7712V36.7712C31.0262 35.4013 30.0926 33.6566 29.7129 31.7573V31.7573L29.2023 29.2022L31.7572 29.713C33.6568 30.0926 35.4014 31.0261 36.7711 32.3959L43.3439 38.9686C44.5521 40.1769 44.5521 42.1356 43.3439 43.3438ZM36.317 45.9955C38.9897 48.6682 43.3229 48.6682 45.9955 45.9955C48.6682 43.3228 48.6682 38.9897 45.9955 36.317L39.4229 29.7443V29.7443C37.5295 27.8509 35.118 26.5605 32.4923 26.0357V26.0357L27.18 24.9738C26.5654 24.8509 25.9299 25.0434 25.4867 25.4866C25.0434 25.9298 24.851 26.5653 24.9739 27.1799L26.0357 32.4923C26.5605 35.1179 27.851 37.5294 29.7443 39.4227L36.317 45.9955Z" fill="white"/>
</g>
<defs>
<clipPath id="clip0_1096_4575">
<rect width="48" height="48" fill="white"/>
</clipPath>
</defs>
</svg>
