<svg width="48" height="48" viewBox="0 0 48 48" fill="none" xmlns="http://www.w3.org/2000/svg">
<g clip-path="url(#clip0_10263_283290)">
<path d="M31.2716 48.001H16.7286C12.5971 48.001 8.80875 45.7476 6.84187 42.1203C1.36055 32.3553 5.91599 19.2143 16.2975 14.9721C16.9901 14.6754 17.4376 13.9986 17.4376 13.2479V4.50325C17.4376 4.08878 17.1004 3.75128 16.686 3.751C14.1982 3.65003 14.2029 0.0972584 16.6888 0.000976562C19.1694 0.00285157 21.1877 2.02252 21.1877 4.50325V13.2479C21.1877 15.5008 19.8479 17.5306 17.7745 18.4191C9.39432 21.8427 5.71658 32.4524 10.1386 40.3328C11.449 42.7496 13.9741 44.251 16.7286 44.251H31.2717C34.0262 44.251 36.5513 42.7495 37.8619 40.3327C42.284 32.4523 38.6056 21.842 30.2258 18.4191C28.1524 17.5306 26.8126 15.5009 26.8126 13.2479V4.50325C26.8126 2.02261 28.8308 0.00285157 31.3115 0.000976563C33.799 0.0978209 33.8005 3.65087 31.3143 3.751C30.8999 3.75128 30.5626 4.08878 30.5626 4.50325V13.2479C30.5626 13.9986 31.0101 14.6754 31.7027 14.9721C42.0849 19.2142 46.6393 32.3565 41.1584 42.1203C39.1915 45.7476 35.4031 48.001 31.2716 48.001ZM32.4766 32.4765C32.694 32.2596 33.1472 32.0917 33.6046 32.0585C34.6374 31.9836 35.4139 31.0857 35.339 30.0527C35.264 29.02 34.3662 28.244 33.3332 28.3182C31.9638 28.4176 30.6862 28.9655 29.8281 29.8215C29.2112 30.4558 28.1748 30.4149 27.5509 29.7753C25.5664 27.7477 21.9815 27.685 19.9804 29.7753C19.3565 30.415 18.3201 30.4558 17.7032 29.8215C16.8451 28.9655 15.5676 28.4175 14.1981 28.3182C13.1643 28.2444 12.2673 29.0199 12.1923 30.0527C12.1174 31.0856 12.8939 31.9835 13.9268 32.0585C14.3841 32.0917 14.8374 32.2596 15.0547 32.4765C17.0672 34.5617 20.6088 34.5204 22.629 32.4302C23.2205 31.7894 24.3262 31.8562 24.9023 32.4302C25.9228 33.4483 27.3116 34.0321 28.7126 34.0321C30.1343 34.0321 31.471 33.4797 32.4766 32.4765Z" fill="white"/>
</g>
<defs>
<clipPath id="clip0_10263_283290">
<rect width="48" height="48" fill="white" transform="translate(0 0.000976562)"/>
</clipPath>
</defs>
</svg>
