<svg width="48" height="48" viewBox="0 0 48 48" fill="none" xmlns="http://www.w3.org/2000/svg">
<g clip-path="url(#clip0_10263_283367)">
<path d="M0.594133 36.2016C-0.138148 35.4693 -0.138148 34.2822 0.594133 33.55L4.17107 29.973C4.90335 29.2408 6.09051 29.2408 6.8227 29.973C7.55488 30.7053 7.55498 31.8925 6.8227 32.6247L3.24576 36.2016C2.51357 36.9339 1.32641 36.9339 0.594133 36.2016Z" fill="white"/>
<path d="M11.8441 47.4516C11.1119 46.7193 11.1119 45.5322 11.8441 44.8L15.4211 41.223C16.1534 40.4908 17.3405 40.4908 18.0727 41.223C18.8049 41.9553 18.805 43.1425 18.0727 43.8747L14.4958 47.4516C13.7636 48.1839 12.5764 48.1839 11.8441 47.4516Z" fill="white"/>
<path d="M0.594133 47.4519C-0.138148 46.7197 -0.138148 45.5324 0.594133 44.8002L5.7606 39.6337C6.49288 38.9014 7.68004 38.9014 8.41223 39.6337C9.14451 40.3659 9.14451 41.5531 8.41223 42.2853L3.24576 47.4519C2.51357 48.1842 1.32641 48.1842 0.594133 47.4519Z" fill="white"/>
<path d="M46.2625 20.6089C45.2312 20.5079 44.3147 21.2617 44.2137 22.2923C43.7915 26.6056 41.7922 30.3908 38.8155 33.1064L35.3662 28.3588C35.6677 27.919 35.9069 27.4357 36.0751 26.9179L38.1203 20.6232C38.287 20.1103 38.3775 19.5839 38.3934 19.0559L45.8434 16.6353C46.8272 16.3156 47.3663 15.2595 47.0481 14.2753C44.3644 5.97473 36.5987 0.0133516 27.448 0.00125781C27.4461 0.00125781 27.4443 0.000976562 27.4425 0.000976562C27.4413 0.000976562 27.4401 0.00116406 27.4389 0.00116406C27.4325 0.00116406 27.4262 0.000976562 27.4199 0.000976562C16.0203 0.000976562 6.79492 9.22635 6.79492 20.626C6.79492 32.0256 16.0203 41.251 27.4199 41.251C38.0169 41.251 46.9136 33.2042 47.946 22.6576C48.047 21.627 47.2932 20.7098 46.2625 20.6089ZM23.0115 26.6936C22.6888 26.4592 22.4536 26.136 22.3311 25.7591L20.2857 19.4642C20.1633 19.0874 20.1638 18.6876 20.287 18.3082C20.4102 17.9289 20.6449 17.6053 20.9655 17.3724L26.3202 13.4819C26.6409 13.249 27.0212 13.1259 27.4199 13.1259C27.8188 13.1259 28.1991 13.249 28.5196 13.4819L33.8743 17.3724C34.1949 17.6053 34.4295 17.929 34.5527 18.3083C34.676 18.6876 34.6764 19.0874 34.5539 19.4642L32.5087 25.7592C32.3862 26.1359 32.151 26.459 31.8282 26.6935C31.5055 26.9279 31.1255 27.0519 30.7292 27.0519H24.1105C23.7143 27.052 23.3342 26.928 23.0115 26.6936ZM42.8064 13.6791L37.2497 15.4845C36.9205 15.0512 36.5281 14.6653 36.0786 14.3386L30.7239 10.4482C30.2875 10.1311 29.8148 9.88241 29.3175 9.7042V3.85645C35.2437 4.51748 40.3623 8.24404 42.8064 13.6791ZM25.5675 3.85307V9.68854C25.0538 9.8677 24.5655 10.1217 24.116 10.4482L18.7613 14.3386C18.3158 14.6624 17.9263 15.0442 17.599 15.4728L12.0467 13.6688C14.4584 8.36085 19.5408 4.5142 25.5675 3.85307ZM10.5449 20.626C10.5449 19.4649 10.6629 18.3308 10.8873 17.235L16.446 19.0412C16.4606 19.5741 16.5511 20.1055 16.7193 20.6232L18.7646 26.9179C18.937 27.4483 19.1838 27.9423 19.4957 28.3904L16.071 33.1041C12.6779 30.0153 10.5449 25.5651 10.5449 20.626ZM19.1063 35.3064L22.541 30.5789C23.0464 30.7259 23.5732 30.8019 24.1105 30.8019H30.7293C31.2798 30.8019 31.8191 30.7218 32.3358 30.5676L35.7802 35.3084C33.3127 36.7077 30.4578 37.501 27.4199 37.501C24.3992 37.501 21.5617 36.7024 19.1063 35.3064Z" fill="white"/>
</g>
<defs>
<clipPath id="clip0_10263_283367">
<rect width="48" height="48" fill="white" transform="translate(0 0.000976562)"/>
</clipPath>
</defs>
</svg>
