<svg width="48" height="48" viewBox="0 0 48 48" fill="none" xmlns="http://www.w3.org/2000/svg">
<path d="M24.0004 0C10.7402 0 0 11.0191 0 24.6094C0 35.4846 6.87611 44.7068 16.4103 47.9583C17.6103 48.19 18.0503 47.4282 18.0503 46.775C18.0503 46.1907 18.0303 44.6421 18.0203 42.5907C11.3442 44.0745 9.93616 39.2891 9.93616 39.2891C8.84414 36.4487 7.26612 35.6891 7.26612 35.6891C5.09208 34.1635 7.43412 34.1948 7.43412 34.1948C9.84416 34.366 11.1102 36.7305 11.1102 36.7305C13.2502 40.4933 16.7283 39.406 18.1003 38.7778C18.3163 37.1854 18.9343 36.1023 19.6203 35.4867C14.2902 34.871 8.68814 32.7548 8.68814 23.3259C8.68814 20.64 9.61816 18.4445 11.1582 16.7228C10.8882 16.1009 10.0782 13.5986 11.3682 10.2094C11.3682 10.2094 13.3782 9.54992 17.9683 12.7325C19.8883 12.1858 21.9284 11.9144 23.9684 11.9019C26.0084 11.9144 28.0485 12.1858 29.9685 12.7325C34.5286 9.54992 36.5386 10.2094 36.5386 10.2094C37.8286 13.5986 37.0186 16.1009 36.7786 16.7228C38.3086 18.4445 39.2386 20.64 39.2386 23.3259C39.2386 32.7799 33.6285 34.8606 28.2885 35.4658C29.1285 36.2046 29.9085 37.7134 29.9085 40.0195C29.9085 43.3128 29.8785 45.959 29.8785 46.7583C29.8785 47.4032 30.2985 48.1733 31.5285 47.927C41.1307 44.6964 48.0008 35.4679 48.0008 24.6094C48.0008 11.0191 37.2546 0 24.0004 0V0Z" fill="white"/>
</svg>
