<svg width="48" height="48" viewBox="0 0 48 48" fill="none" xmlns="http://www.w3.org/2000/svg"><path d="M24 0C10.74 0 0 11.019 0 24.609c0 10.875 6.876 20.0971 16.41 23.3485 1.2.2317 1.64-.53 1.64-1.1832 0-.5844-.02-2.1329-.03-4.1843-6.676 1.4838-8.084-3.3015-8.084-3.3015-1.092-2.8403-2.67-3.6-2.67-3.6-2.174-1.5255.168-1.4942.168-1.4942 2.41.1711 3.676 2.5356 3.676 2.5356 2.14 3.7627 5.618 2.6754 6.99 2.0473.216-1.5924.834-2.6755 1.52-3.2911-5.33-.6157-10.932-2.7318-10.932-12.1605 0-2.6859.93-4.8814 2.47-6.6031-.27-.6219-1.08-3.1241.21-6.5133 0 0 2.01-.65943 6.6 2.5231 1.92-.5467 3.96-.818 6-.8306 2.04.0126 4.08.2839 6 .8306 4.56-3.18253 6.57-2.5231 6.57-2.5231 1.29 3.3892.48 5.8914.24 6.5133 1.53 1.7217 2.46 3.9172 2.46 6.6031 0 9.4537-5.61 11.5344-10.95 12.1396.84.7388 1.62 2.2476 1.62 4.5537 0 3.2931-.03 5.9394-.03 6.7387 0 .6448.42 1.4149 1.65 1.1686C41.13 44.6957 48 35.4673 48 24.609 48 11.019 37.254 0 24 0z" fill="#F7F6F3"/></svg>