<svg width="48" height="48" viewBox="0 0 48 48" fill="none" xmlns="http://www.w3.org/2000/svg"><g clip-path="url(#clip0_868_4202)"><path d="M47.4898 24.54c0-1.58-.14-3.08-.38-4.54h-22.6v9.02h12.94c-.58 2.96-2.28 5.46-4.8 7.16v6h7.72c4.52-4.18 7.12-10.34 7.12-17.64z" fill="#4285F4"/><path d="M24.5098 48.0001c6.48 0 11.9-2.16 15.86-5.82l-7.72-6c-2.16 1.44-4.9 2.32-8.14 2.32-6.26 0-11.56-4.22-13.46-9.92H3.08984v6.18c3.94 7.84 12.03996 13.24 21.41996 13.24z" fill="#34A853"/><path d="M11.0498 28.58c-.5-1.44-.76-2.98-.76-4.58s.28-3.14.76-4.58v-6.18H3.08976C1.44976 16.48.509766 20.12.509766 24s.939994 7.52 2.579994 10.76l7.96004-6.18z" fill="#FBBC05"/><path d="M24.5098 9.5c3.54 0 6.7 1.22 9.2 3.6l6.84-6.84c-4.14-3.88-9.56-6.26-16.04-6.26-9.38 0-17.47996 5.4-21.41996 13.24l7.95996 6.18c1.9-5.7 7.2-9.92 13.46-9.92z" fill="#EA4335"/></g><defs><clipPath id="clip0_868_4202"><path fill="#fff" d="M0 0h48v48H0z"/></clipPath></defs></svg>