<svg width="48" height="48" viewBox="0 0 48 48" fill="none" xmlns="http://www.w3.org/2000/svg">
<g clip-path="url(#clip0_1089_3835)">
<path fill-rule="evenodd" clip-rule="evenodd" d="M18.2245 4.56631C18.7197 1.96582 21.0053 0 23.75 0C23.7918 0 23.8334 0.000455379 23.875 0.00136149C23.9166 0.000455379 23.9582 0 24 0C26.7447 0 29.0303 1.96582 29.5255 4.56631C36.3154 6.51493 41.3921 11.6551 43.2578 18.4891C45.8214 19.0133 47.75 21.2814 47.75 24C47.75 26.7186 45.8214 28.9867 43.2578 29.5109C41.3921 36.3449 36.3154 41.4851 29.5255 43.4337C29.0303 46.0342 26.7447 48 24 48C23.9582 48 23.9166 47.9995 23.875 47.9986C23.8334 47.9995 23.7918 48 23.75 48C21.0053 48 18.7197 46.0342 18.2245 43.4337C11.4346 41.4851 6.35793 36.3449 4.49222 29.5109C1.92858 28.9867 0 26.7186 0 24C0 21.2814 1.92857 19.0133 4.49222 18.4891C6.35793 11.6551 11.4346 6.51493 18.2245 4.56631ZM18.8048 8.30792C13.6531 9.94078 9.81171 13.8316 8.24148 19.0193C10.0303 19.9609 11.25 21.838 11.25 24C11.25 26.162 10.0303 28.0391 8.24148 28.9807C9.81171 34.1685 13.6531 38.0592 18.8048 39.6921C19.7576 37.9396 21.6149 36.75 23.75 36.75C23.7918 36.75 23.8334 36.7505 23.875 36.7514C23.9166 36.7505 23.9582 36.75 24 36.75C26.1351 36.75 27.9924 37.9396 28.9452 39.6921C34.0969 38.0592 37.9383 34.1684 39.5085 28.9807C37.7197 28.0391 36.5 26.162 36.5 24C36.5 21.838 37.7197 19.9609 39.5085 19.0193C37.9383 13.8316 34.0969 9.94078 28.9452 8.30792C27.9923 10.0604 26.1351 11.25 24 11.25C23.9582 11.25 23.9166 11.2495 23.875 11.2486C23.8334 11.2495 23.7918 11.25 23.75 11.25C21.6149 11.25 19.7577 10.0604 18.8048 8.30792ZM23.875 7.4959C22.8977 7.43158 22.125 6.61853 22.125 5.625C22.125 4.63147 22.8977 3.81842 23.875 3.7541C24.8523 3.81842 25.625 4.63147 25.625 5.625C25.625 6.61853 24.8523 7.43158 23.875 7.4959ZM23.875 44.2459C22.8977 44.1816 22.125 43.3685 22.125 42.375C22.125 41.3815 22.8977 40.5684 23.875 40.5041C24.8522 40.5684 25.625 41.3815 25.625 42.375C25.625 43.3685 24.8522 44.1816 23.875 44.2459ZM5.625 22.125C4.58947 22.125 3.75 22.9645 3.75 24C3.75 25.0355 4.58947 25.875 5.625 25.875C6.66053 25.875 7.5 25.0355 7.5 24C7.5 22.9645 6.66053 22.125 5.625 22.125ZM42.125 22.125C41.0895 22.125 40.25 22.9645 40.25 24C40.25 25.0355 41.0895 25.875 42.125 25.875C43.1605 25.875 44 25.0355 44 24C44 22.9645 43.1605 22.125 42.125 22.125Z" fill="white"/>
</g>
<defs>
<clipPath id="clip0_1089_3835">
<rect width="48" height="48" fill="white"/>
</clipPath>
</defs>
</svg>
