<svg width="48" height="48" viewBox="0 0 48 48" fill="none" xmlns="http://www.w3.org/2000/svg">
<g clip-path="url(#clip0_10263_283369)">
<path d="M12.75 48.001H35.25C36.2856 48.001 37.125 47.1615 37.125 46.126C37.125 45.0904 36.2856 44.251 35.25 44.251H12.75C11.7144 44.251 10.875 45.0904 10.875 46.126C10.875 47.1615 11.7144 48.001 12.75 48.001Z" fill="white"/>
<path d="M12.75 18.001C9.64838 18.001 7.125 20.5244 7.125 23.626C7.125 30.8631 13.0129 36.751 20.25 36.751H22.125V38.626C22.125 39.6615 22.9644 40.501 24 40.501C25.0356 40.501 25.875 39.6615 25.875 38.626V36.751H27.75C34.9871 36.751 40.875 30.8631 40.875 23.626C40.875 20.5244 38.3516 18.001 35.25 18.001C31.5808 18.001 28.2591 19.515 25.875 21.9505V15.001H27.75C32.9194 15.001 37.125 10.7954 37.125 5.62598C37.125 2.52435 34.6016 0.000976562 31.5 0.000976562C28.4366 0.000976562 25.7118 1.47801 24 3.75716C22.2882 1.47801 19.5634 0.000976562 16.5 0.000976562C13.3984 0.000976562 10.875 2.52435 10.875 5.62598C10.875 10.7954 15.0806 15.001 20.25 15.001H22.125V21.9505C19.7409 19.515 16.4192 18.001 12.75 18.001ZM10.875 23.626C10.875 22.5921 11.7161 21.751 12.75 21.751C17.9194 21.751 22.125 25.9566 22.125 31.126V33.001H20.25C15.0806 33.001 10.875 28.7954 10.875 23.626ZM35.25 21.751C36.2839 21.751 37.125 22.5921 37.125 23.626C37.125 28.7954 32.9194 33.001 27.75 33.001H25.875V31.126C25.875 25.9566 30.0806 21.751 35.25 21.751ZM31.5 3.75098C32.5339 3.75098 33.375 4.5921 33.375 5.62598C33.375 8.7276 30.8516 11.251 27.75 11.251H25.875V9.37598C25.875 6.27435 28.3984 3.75098 31.5 3.75098ZM14.625 5.62598C14.625 4.5921 15.4661 3.75098 16.5 3.75098C19.6016 3.75098 22.125 6.27435 22.125 9.37598V11.251H20.25C17.1484 11.251 14.625 8.7276 14.625 5.62598Z" fill="white"/>
</g>
<defs>
<clipPath id="clip0_10263_283369">
<rect width="48" height="48" fill="white" transform="translate(0 0.000976562)"/>
</clipPath>
</defs>
</svg>
