<svg width="48" height="48" viewBox="0 0 48 48" fill="none" xmlns="http://www.w3.org/2000/svg">
<g clip-path="url(#clip0_1342_3838)">
<g clip-path="url(#clip1_1342_3838)">
<path d="M48 15.9215V42.6339C47.9986 44.0566 47.4362 45.4207 46.4363 46.4267C45.4365 47.4328 44.0807 47.9986 42.6667 48H33.7778C32.8348 48 31.9304 47.6231 31.2636 46.9522C30.5968 46.2813 30.2222 45.3714 30.2222 44.4226V34.5848C30.2222 34.1104 30.0349 33.6554 29.7015 33.32C29.3681 32.9845 28.9159 32.7961 28.4444 32.7961H19.5556C19.0841 32.7961 18.6319 32.9845 18.2985 33.32C17.9651 33.6554 17.7778 34.1104 17.7778 34.5848V44.4226C17.7778 45.3714 17.4032 46.2813 16.7364 46.9522C16.0696 47.6231 15.1652 48 14.2222 48H5.33333C3.91928 47.9986 2.56354 47.4328 1.56366 46.4267C0.563769 45.4207 0.00141194 44.0566 0 42.6339V15.9215C0.0013303 15.3038 0.160876 14.6968 0.463243 14.1591C0.76561 13.6215 1.20059 13.1713 1.72622 12.8521L22.1707 0.510082C22.7234 0.176314 23.3558 0 24.0004 0C24.6451 0 25.2775 0.176314 25.8302 0.510082L46.2747 12.8521C46.8001 13.1715 47.2349 13.6217 47.5371 14.1593C47.8394 14.6969 47.9988 15.3038 48 15.9215Z" fill="white"/>
</g>
</g>
<defs>
<clipPath id="clip0_1342_3838">
<rect width="48" height="48" fill="white"/>
</clipPath>
<clipPath id="clip1_1342_3838">
<rect width="48" height="48" fill="white"/>
</clipPath>
</defs>
</svg>
