<svg width="48" height="48" viewBox="0 0 48 48" fill="none" xmlns="http://www.w3.org/2000/svg">
<g clip-path="url(#clip0_427_2920)">
<path d="M24 48C17.5894 48 11.5625 45.5035 7.02938 40.9706C2.49647 36.4375 0 30.4106 0 24C0 17.5894 2.49647 11.5625 7.02938 7.02938C11.5625 2.49647 17.5894 0 24 0C30.4106 0 36.4375 2.49647 40.9706 7.02938C45.5035 11.5625 48 17.5894 48 24C48 30.4106 45.5035 36.4375 40.9706 40.9706C36.4375 45.5035 30.4106 48 24 48ZM24 3.75C12.8341 3.75 3.75 12.8341 3.75 24C3.75 35.1659 12.8341 44.25 24 44.25C35.1659 44.25 44.25 35.1659 44.25 24C44.25 12.8341 35.1659 3.75 24 3.75ZM28.6875 37.6875H19.3125C18.2769 37.6875 17.4375 36.8481 17.4375 35.8125C17.4375 34.7769 18.2769 33.9375 19.3125 33.9375H22.125V23.3438C22.125 22.3099 21.2839 21.4688 20.25 21.4688H19.3125C18.2769 21.4688 17.4375 20.6293 17.4375 19.5938C17.4375 18.5582 18.2769 17.7188 19.3125 17.7188H20.25C23.3516 17.7188 25.875 20.2421 25.875 23.3438V33.9375H28.6875C29.7231 33.9375 30.5625 34.7769 30.5625 35.8125C30.5625 36.8481 29.7231 37.6875 28.6875 37.6875ZM24 10.7812C22.9644 10.7812 22.125 11.6207 22.125 12.6562C22.125 13.6918 22.9644 14.5312 24 14.5312C25.0356 14.5312 25.875 13.6918 25.875 12.6562C25.875 11.6207 25.0356 10.7812 24 10.7812Z" fill="white"/>
</g>
<defs>
<clipPath id="clip0_427_2920">
<rect width="48" height="48" fill="white"/>
</clipPath>
</defs>
</svg>
