<svg width="48" height="48" viewBox="0 0 48 48" fill="none" xmlns="http://www.w3.org/2000/svg">
<g clip-path="url(#clip0_10263_283342)">
<path d="M35.9323 4.11266C33.7392 6.30585 33.7392 9.87435 35.9323 12.0676C38.1255 14.2608 41.6941 14.2609 43.8874 12.0676C46.0855 9.86938 46.0859 6.3112 43.8874 4.11266C41.6942 1.91938 38.1256 1.91957 35.9323 4.11266V4.11266ZM41.2357 9.41601C40.5048 10.147 39.3153 10.1472 38.5841 9.41601C37.853 8.68494 37.853 7.49535 38.5841 6.76429C39.3151 6.03323 40.5047 6.03313 41.2358 6.76429C41.9684 7.49685 41.9687 8.68307 41.2357 9.41601V9.41601Z" fill="white"/>
<path d="M44.7378 15.9802C43.7423 16.2657 43.167 17.3042 43.4526 18.2995C43.9818 20.1435 44.25 22.0614 44.25 24C44.25 35.3552 35.3551 44.25 24 44.25C12.6448 44.25 3.75 35.3552 3.75 24C3.75 12.6448 12.6448 3.75 24 3.75C25.9386 3.75 27.8565 4.01831 29.7005 4.54734C30.6964 4.83319 31.7344 4.25766 32.0199 3.26222C32.3055 2.26688 31.7302 1.22841 30.7348 0.942844C28.5544 0.31725 26.2885 0 24 0C10.5421 0 0 10.5421 0 24C0 37.4579 10.5421 48 24 48C37.458 48 48 37.4579 48 24C48 21.7116 47.6827 19.4456 47.0572 17.2653C46.7715 16.2698 45.7331 15.6944 44.7378 15.9802Z" fill="white"/>
<path d="M33.2808 17.3708C34.0131 16.6386 34.013 15.4514 33.2807 14.7192C32.5484 13.9869 31.3612 13.9869 30.6291 14.7192L29.1668 16.1814C28.1831 15.5292 27.0702 15.0571 25.875 14.8135V12.75C25.875 11.7144 25.0356 10.875 24 10.875C22.9644 10.875 22.125 11.7144 22.125 12.75V14.8135C20.9298 15.0571 19.8168 15.5292 18.8331 16.1814L17.3708 14.7192C16.6386 13.9869 15.4514 13.9869 14.7192 14.7192C13.987 15.4515 13.9869 16.6387 14.7192 17.3708L16.1814 18.8331C15.5292 19.8168 15.0571 20.9297 14.8135 22.125H12.75C11.7144 22.125 10.875 22.9644 10.875 24C10.875 25.0356 11.7144 25.875 12.75 25.875H14.8135C15.0571 27.0703 15.5292 28.1832 16.1814 29.1669L14.7192 30.6292C13.9869 31.3614 13.9869 32.5486 14.7192 33.2808C15.4514 34.013 16.6386 34.0131 17.3708 33.2808L18.8331 31.8186C19.8168 32.4708 20.9297 32.9429 22.125 33.1865V35.25C22.125 36.2856 22.9644 37.125 24 37.125C25.0356 37.125 25.875 36.2856 25.875 35.25V33.1865C27.0702 32.9429 28.1832 32.4708 29.1668 31.8186L30.6291 33.2808C31.3612 34.013 32.5485 34.0132 33.2807 33.2808C34.013 32.5486 34.0131 31.3613 33.2808 30.6292L31.8186 29.1669C32.4708 28.1832 32.9429 27.0702 33.1865 25.875H35.25C36.2856 25.875 37.125 25.0356 37.125 24C37.125 22.9644 36.2856 22.125 35.25 22.125H33.1865C32.9429 20.9298 32.4708 19.8168 31.8186 18.8331L33.2808 17.3708ZM24 29.625C20.8985 29.625 18.375 27.1009 18.375 24C18.375 20.8985 20.8991 18.375 24 18.375C27.1013 18.375 29.625 20.8988 29.625 24C29.625 27.1013 27.1012 29.625 24 29.625Z" fill="white"/>
</g>
<defs>
<clipPath id="clip0_10263_283342">
<rect width="48" height="48" fill="white"/>
</clipPath>
</defs>
</svg>
