<svg width="48" height="48" viewBox="0 0 48 48" fill="none" xmlns="http://www.w3.org/2000/svg">
<g clip-path="url(#clip0_2204_5090)">
<path d="M31.125 10.5H16.875C15.8394 10.5 15 11.3394 15 12.375C15 13.4106 15.8394 14.25 16.875 14.25H31.125C32.1606 14.25 33 13.4106 33 12.375C33 11.3394 32.1606 10.5 31.125 10.5Z" fill="white"/>
<path d="M31.125 18H16.875C15.8394 18 15 18.8394 15 19.875C15 20.9106 15.8394 21.75 16.875 21.75H31.125C32.1606 21.75 33 20.9106 33 19.875C33 18.8394 32.1606 18 31.125 18Z" fill="white"/>
<path d="M31.125 25.5H16.875C15.8394 25.5 15 26.3394 15 27.375C15 28.4106 15.8394 29.25 16.875 29.25H31.125C32.1606 29.25 33 28.4106 33 27.375C33 26.3394 32.1606 25.5 31.125 25.5Z" fill="white"/>
<path d="M42.375 33H20.625C17.5234 33 15 35.5234 15 38.625V42.375C15 43.4089 14.1589 44.25 13.125 44.25C12.0911 44.25 11.25 43.4089 11.25 42.375V5.625C11.25 4.96772 11.1356 4.33687 10.9275 3.75H34.875C35.9089 3.75 36.75 4.59113 36.75 5.625V27.375C36.75 28.4106 37.5894 29.25 38.625 29.25C39.6606 29.25 40.5 28.4106 40.5 27.375V5.625C40.5 2.52338 37.9766 0 34.875 0H5.625C2.52338 0 0 2.52338 0 5.625V8.625C0 11.7266 2.52338 14.25 5.625 14.25H7.5V42.375C7.5 45.4766 10.0234 48 13.125 48H42.375C45.4766 48 48 45.4766 48 42.375V38.625C48 35.5234 45.4766 33 42.375 33ZM3.75 8.625V5.625C3.75 4.59113 4.59113 3.75 5.625 3.75C6.65887 3.75 7.5 4.59113 7.5 5.625V10.5H5.625C4.59113 10.5 3.75 9.65887 3.75 8.625ZM44.25 42.375C44.25 43.4089 43.4089 44.25 42.375 44.25H18.4287C18.6367 43.6633 18.75 43.0321 18.75 42.375V38.625C18.75 37.5911 19.5911 36.75 20.625 36.75H42.375C43.4089 36.75 44.25 37.5911 44.25 38.625V42.375Z" fill="white"/>
</g>
<defs>
<clipPath id="clip0_2204_5090">
<rect width="48" height="48" fill="white"/>
</clipPath>
</defs>
</svg>
