<svg width="48" height="48" viewBox="0 0 48 48" fill="none" xmlns="http://www.w3.org/2000/svg">
<g clip-path="url(#clip0_1722_3943)">
<path d="M31.125 0C23.7917 0 17.537 4.7025 15.2153 11.25H5.625C4.58944 11.25 3.75 12.0894 3.75 13.125C3.75 14.1606 4.58944 15 5.625 15H14.3547C14.2863 15.6158 14.25 16.2412 14.25 16.875C14.25 17.5061 14.2856 18.1316 14.3536 18.75H1.875C0.839438 18.75 0 19.5894 0 20.625C0 21.6606 0.839438 22.5 1.875 22.5H15.2065C15.8298 24.2679 16.7497 25.9242 17.94 27.4083L14.7986 30.5497C14.0643 30.1976 13.2423 30 12.375 30C10.8725 30 9.45984 30.5851 8.39756 31.6476L1.64756 38.3976C0.585094 39.4598 0 40.8725 0 42.375C0 45.4766 2.52338 48 5.625 48C7.12744 48 8.54006 47.4149 9.60244 46.3524L16.3524 39.6024C17.4149 38.5401 18 37.1274 18 35.625C18 34.7577 17.8024 33.9357 17.4503 33.2014L21.8442 28.8074C22.5765 28.0751 22.5765 26.888 21.8442 26.1558C19.3652 23.6767 18 20.3808 18 16.875C18 9.63788 23.8879 3.75 31.125 3.75C38.3621 3.75 44.25 9.63788 44.25 16.875C44.25 24.1121 38.3621 30 31.125 30C29.9707 30 28.8262 29.8504 27.7233 29.5553C26.7231 29.288 25.6951 29.8818 25.4274 30.8821C25.1599 31.8824 25.7539 32.9104 26.7543 33.1779C28.1732 33.5575 29.6437 33.75 31.125 33.75C40.4299 33.75 48 26.1799 48 16.875C48 7.57013 40.4299 0 31.125 0ZM13.7008 36.9508L6.95081 43.7008C6.59662 44.0549 6.12581 44.25 5.625 44.25C4.59113 44.25 3.75 43.4089 3.75 42.375C3.75 41.8742 3.945 41.4033 4.29919 41.0492L11.0492 34.2992C11.4033 33.945 11.8742 33.75 12.375 33.75C13.4089 33.75 14.25 34.5911 14.25 35.625C14.25 36.1258 14.0549 36.5966 13.7008 36.9508Z" fill="white"/>
<path d="M39.4967 20.625C39.4967 19.5894 38.6573 18.75 37.6217 18.75H24.6284C23.5929 18.75 22.7534 19.5894 22.7534 20.625C22.7534 21.6606 23.5929 22.5 24.6284 22.5H37.6217C38.6573 22.5 39.4967 21.6606 39.4967 20.625Z" fill="white"/>
<path d="M34.875 15H27.375C26.3394 15 25.5 14.1606 25.5 13.125C25.5 12.0894 26.3394 11.25 27.375 11.25H34.875C35.9106 11.25 36.75 12.0894 36.75 13.125C36.75 14.1606 35.9106 15 34.875 15Z" fill="white"/>
</g>
<defs>
<clipPath id="clip0_1722_3943">
<rect width="48" height="48" fill="white"/>
</clipPath>
</defs>
</svg>
