<svg width="48" height="48" viewBox="0 0 48 48" fill="none" xmlns="http://www.w3.org/2000/svg"><g clip-path="url(#clip0_868_4206)"><g clip-path="url(#clip1_868_4206)"><path fill-rule="evenodd" clip-rule="evenodd" d="M40.8594 23.1415c0 9.5056-7.564 17.2114-16.8946 17.2114-9.3305 0-16.89449-7.7058-16.89449-17.2114 0-9.5058 7.56399-17.21171 16.89449-17.21171 9.3306 0 16.8946 7.70591 16.8946 17.21171z" fill="#D33833"/><path d="M7.75906 27.4042S6.53601 9.45552 23.1411 8.94263l-1.1584-1.92307-9.0104 3.01284-2.5745 2.9487-2.25258 4.295-1.28731 5 .38616 3.3333" fill="#EF3D3A"/><path d="M12.3935 11.4002c-2.96417 3.0207-4.79844 7.1915-4.79844 11.8055 0 4.6131 1.83427 8.7844 4.79844 11.8046 2.9656 3.0203 7.0527 4.8839 11.5711 4.8839 4.5185 0 8.6058-1.8636 11.5712-4.8839 2.964-3.0202 4.7986-7.1915 4.7986-11.8046 0-4.614-1.8346-8.7848-4.7986-11.8055-2.9654-3.01965-7.0527-4.8833-11.5712-4.88369-4.5184.00039-8.6055 1.86404-11.5711 4.88369zm-.7503 24.3408c-3.15024-3.2089-5.09779-7.6435-5.09779-12.5353 0-4.8925 1.94755-9.3267 5.09779-12.5357 3.1495-3.20964 7.5092-5.19906 12.3214-5.19849 4.8122-.00057 9.1723 1.98885 12.3213 5.19849 3.1505 3.209 5.0983 7.6436 5.0979 12.5357.0004 4.8918-1.9474 9.3264-5.0979 12.5353-3.149 3.2094-7.5091 5.1986-12.3213 5.1986-4.8122 0-9.1719-1.9892-12.3214-5.1986" fill="#231F20"/><path fill-rule="evenodd" clip-rule="evenodd" d="M31.0767 23.2369l-2.5746.3846-3.4755.3847-2.2527.064-2.1882-.064-1.6734-.5129-1.4803-1.6025-1.1585-3.2693-.2574-.7052-1.5447-.5126-.9011-1.4745-.6435-2.1154.708-1.859 1.6733-.5769 1.3515.6411.6438 1.4102.7723-.1282.2573-.3204-.2573-1.4745-.0645-1.85899.3862-2.56404-.0151-1.46461 1.1736-1.86866 2.0595-1.47442L25.2197.736917l3.9903.576923 3.4754 2.5 1.6092 2.56404 1.0297 1.85904.2573 4.61538-.7723 3.9744-1.4159 3.5256-1.3515 1.859" fill="#F0D6B7"/><path fill-rule="evenodd" clip-rule="evenodd" d="M28.8884 34.3266l-9.2036.3846v1.5385l.7723 5.3846-.3862.4488-6.4359-2.1796-.4507-.7692-.6435-7.2435-1.4801-4.359-.3219-1.0256 5.1487-3.5256 1.6091-.6411 1.4158 1.7307 1.2229 1.0899 1.416.4486.6435.1923.7723 3.3333.5793.7051 1.4804-.5128-1.0299 1.9873 5.5994 2.6281-.7079.3846" fill="#335061"/><path fill-rule="evenodd" clip-rule="evenodd" d="M13.6345 11.9548l1.6733-.5769 1.3515.6411.6438 1.4102.7723-.1283.1931-.7692-.3862-1.4742.3862-3.5258-.3219-1.92308 1.1585-1.34615 2.51-1.98712-.708-.96154-3.5398 1.73077-1.4803 1.15385-.8367 1.79481-1.2872 1.73077-.3861 2.05134.2575 2.17945z" fill="#6D6B6D"/><path fill-rule="evenodd" clip-rule="evenodd" d="M16.2736 5.92922s.9654-2.37172 4.827-3.52557c3.8617-1.15385.1931-.83346.1931-.83346l-4.1833 1.60269-1.6091 1.6025-.7078 1.28212 1.4801-.12828zM14.3424 11.5062s-1.3516-4.48733 3.7972-5.12829l-.193-.76923-3.5398.83346-1.0298 3.33327.2575 2.17939.7079-.4486z" fill="#DCD9D8"/><path fill-rule="evenodd" clip-rule="evenodd" d="M16.4023 17.4677l.8427-.8133s.3804.0441.4447.4927c.0642.4489.2573 4.4873 3.0248 6.6669.2524.1989-2.0594-.3207-2.0594-.3207l-2.0597-3.205M28.2449 16.2498s.15-1.9431.6754-1.7937c.5254.1494.5254.6727.5254.6727s-1.2759.8221-1.2008 1.121" fill="#F7E4CD"/><path d="M33.5863 9.13439s-1.0608.22307-1.1585 1.15381c-.0977.931 1.1585.1923 1.3515.1283M25.7989 9.19869s-1.4161.19231-1.4161 1.08961c0 .8975 1.6092.8335 2.0596.4489" fill="#F7E4CD"/><path fill-rule="evenodd" clip-rule="evenodd" d="M17.0456 13.3652s-2.4458-1.4745-2.7031-.0641c-.2575 1.4102-.8368 2.436.3861 3.9102l-.8366-.2563-.7724-1.9872-.2573-1.923 1.4802-1.5387 1.6734.1283.9654.7692.0643.9616zM18.2046 9.32678s1.0941-5.64096 6.6292-6.73077c4.557-.89711 6.9508.19231 7.8519 1.21789 0 0-4.0547-4.807503-7.9164-3.333272C20.9077 1.95505 18.076 4.64736 18.1402 6.37794c.1096 2.94769.0644 2.94884.0644 2.94884zM33.1364 4.45481s-1.8663-.06404-1.9308 1.60269c0 0-.0002.25634.1286.51269 0 0 1.4805-1.66673 2.3814-.76923" fill="#F7E4CD"/><path fill-rule="evenodd" clip-rule="evenodd" d="M24.9635 6.74387s-.3213-2.55827-2.5112-1.07096c-1.4159.96154-1.2871 2.30769-1.0297 2.56404.2574.25653.1874.77288.3833.41846.1959-.35442.1314-1.50827.8395-1.82866.708-.32057 1.8686-.67865 2.3181-.08288z" fill="#F7E4CD"/><path fill-rule="evenodd" clip-rule="evenodd" d="M18.9124 24.0702l-6.0497 2.6923s2.51 9.936 1.2227 13.0129l-.9011-.3204-.0643-3.7821-1.6732-7.1794-.708-1.9873 6.3072-4.2306 1.8664 1.7946zM19.5341 29.5658l.8583 1.043v3.8462h-1.0299s-.1286-2.6924-.1286-3.013c0-.3205.1286-1.4744.1286-1.4744M19.5559 35.032l-2.8962.128.8368.577 2.0594.3205" fill="#49728B"/><path fill-rule="evenodd" clip-rule="evenodd" d="M29.4678 34.3907l2.3812-.0641.5793 5.8976-2.4458.3204-.5147-6.1539" fill="#335061"/><path fill-rule="evenodd" clip-rule="evenodd" d="M30.1113 34.3907l3.6043-.1923s1.4801-3.7179 1.4801-3.9102c0-.1923 1.2873-5.3846 1.2873-5.3846l-2.8962-3.0127-.5793-.5128-1.5446 1.5384v5.9616l-1.3516 5.5126" fill="#335061"/><path fill-rule="evenodd" clip-rule="evenodd" d="M31.7203 33.9421l-2.2525.4487.3216 1.795c.8367.3846 2.2527-.6411 2.2527-.6411M31.7847 22.7242l4.5051 3.3333.1288-1.5385-3.4111-3.1409-1.2228 1.3461z" fill="#49728B"/><path fill-rule="evenodd" clip-rule="evenodd" d="M21.7894 47.0196l-1.3325-5.3853-.6627-3.9736-.1096-2.9495 6.0308-.3198 3.7521-.0006-.3412 6.7314.5793 5.1923-.0643.9615-4.8913.3846-2.9606-.641" fill="#fff"/><path fill-rule="evenodd" clip-rule="evenodd" d="M28.6308 34.3267s-.3217 6.6668.6437 11.4102c0 0-1.9308 1.2181-4.7628 1.5385l5.4064-.1923.6435-.3846-.7723-10.5127-.1931-2.2439" fill="#DCD9D8"/><path fill-rule="evenodd" clip-rule="evenodd" d="M32.5375 39.7119l2.5101-.7051 4.7625-.2564.7081-2.1794-1.2873-3.7822-1.4802-.1923-2.0596.641-1.976.961-1.049-.1917-.8175.3199" fill="#fff"/><path fill-rule="evenodd" clip-rule="evenodd" d="M32.4922 38.4292s1.6732-.769 1.9308-.705l-.7078-3.5257.8366-.3204s.5792 3.3332.5792 3.7178c0 0 3.6041.1923 3.9259.1923 0 0 .7724-1.4743.5793-3.0128l.708 2.0513.0643 1.1538-1.0297 1.5385-1.1585.2564-1.9308-.0641-.6435-.8332-2.2527.3204-.708.2565" fill="#DCD9D8"/><path d="M29.9631 33.8787l-1.4159-3.5899-1.4803-2.1153s.3217-.8975.7723-.8975h1.4804l1.4158.5128-.1286 2.3718-.6437 3.7181z" fill="#fff"/><path fill-rule="evenodd" clip-rule="evenodd" d="M30.2399 32.66s-1.8022-3.4614-1.8022-3.9742c0 0 .3217-.7693.7723-.577.4507.1923 1.4161.705 1.4161.705V27.596l-2.1884-.4489-1.4802.1923 2.5101 5.8975.5147.0642" fill="#DCD9D8"/><path d="M22.3686 24.1992l-1.783-.1931-1.6735-.5129v.5769l.8177.8981 2.5744 1.1539" fill="#fff"/><path fill-rule="evenodd" clip-rule="evenodd" d="M19.4919 24.3913s1.9953.8334 2.6389.6411l.064.7685-1.8017-.3838-1.0943-.7693.1931-.2565z" fill="#DCD9D8"/><path fill-rule="evenodd" clip-rule="evenodd" d="M32.531 27.4943c-1.0921-.032-2.0788-.1612-2.9426-.4039.0587-.3527-.0512-.6988.0371-.9529.2407-.1727.6443-.17 1.0082-.2105-.3147-.1541-.7568-.215-1.12-.126-.0085-.2448-.1188-.3965-.1856-.5881.614-.2183 2.0635-1.6492 2.8789-1.1754.3884.2254.5535 1.5127.5837 2.1387.0251.5192-.0474 1.0431-.2597 1.3181z" fill="#D33833"/><path d="M32.531 27.4943c-1.0921-.032-2.0788-.1612-2.9426-.4039.0587-.3527-.0512-.6988.0371-.9529.2407-.1727.6443-.17 1.0082-.2105-.3147-.1541-.7568-.215-1.12-.126-.0085-.2448-.1188-.3965-.1856-.5881.614-.2183 2.0635-1.6492 2.8789-1.1754.3884.2254.5535 1.5127.5837 2.1387.0251.5192-.0474 1.0431-.2597 1.3181z" stroke="#D33833" stroke-width=".274725"/><path fill-rule="evenodd" clip-rule="evenodd" d="M27.3084 25.7162c-.0029.0823-.0064.1652-.0097.2483-.341.2231-.8914.2204-1.2656.4079.5516.024.9859.1563 1.3616.3428-.0083.2074-.0162.4145-.0243.6218-.625.4261-1.196 1.0607-1.9319 1.4604-.3479.189-1.569.6753-1.9391.5894-.2095-.0485-.2283-.3073-.3121-.5513-.1783-.5226-.589-1.3543-.6248-2.1408-.0457-.9935-.1464-2.6585.9286-2.4539.8672.1648 1.8758.5627 2.5472.9281.4103.2235.6476.4996 1.2701.5473" fill="#D33833"/><path d="M27.3084 25.7162c-.0029.0823-.0064.1652-.0097.2483-.341.2231-.8914.2204-1.2656.4079.5516.024.9859.1563 1.3616.3428-.0083.2074-.0162.4145-.0243.6218-.625.4261-1.196 1.0607-1.9319 1.4604-.3479.189-1.569.6753-1.9391.5894-.2095-.0485-.2283-.3073-.3121-.5513-.1783-.5226-.589-1.3543-.6248-2.1408-.0457-.9935-.1464-2.6585.9286-2.4539.8672.1648 1.8758.5627 2.5472.9281.4103.2235.6476.4996 1.2701.5473v0z" stroke="#D33833" stroke-width=".274725"/><path fill-rule="evenodd" clip-rule="evenodd" d="M27.9292 26.9015c-.0953-.5411-.2056-.6956-.1629-1.1677 1.4491-.9623 1.7211 1.6529.1629 1.1677z" fill="#D33833"/><path d="M27.9292 26.9015c-.0953-.5411-.2056-.6956-.1629-1.1677 1.4491-.9623 1.7211 1.6529.1629 1.1677z" stroke="#D33833" stroke-width=".274725"/><path fill-rule="evenodd" clip-rule="evenodd" d="M30.0276 27.3402s-.4507-.6411-.1288-.8335c.3219-.1923.6437.0002.8368-.3203.1931-.3206 0-.5129.0643-.8975.0643-.3847.3864-.4489.708-.5129.3217-.0641 1.223-.1923 1.3516.1282l-.3862-1.1538-.7723-.2563-2.4458 1.4101-.1287.7052v1.4102M23.2696 29.4556c-.0773-1.0004-.1592-1.9995-.2502-2.9989-.1362-1.4923.3599-1.2319 1.6587-1.2319.1983 0 1.2214.2356 1.2946.3846.351.714-.587.5554.4043 1.0938.8368.4545 2.315-.2759 1.9769-1.2861-.1892-.2246-.9858-.07-1.2714-.2175-.5028-.2596-1.0056-.5192-1.5084-.7789-.6397-.3305-2.1183-.8125-2.8003-.3505-1.7281 1.1705.1091 4.0953.7256 5.3165" fill="#EF3D3A"/><path fill-rule="evenodd" clip-rule="evenodd" d="M24.9631 6.74386c-1.7541-.40693-2.6258.73115-3.1575 1.91154-.4748-.11462-.2859-.7577-.166-1.08539.314-.86 1.5794-2.00481 2.6133-1.84962.4449.06673 1.047.47193.7102 1.02347M33.5104 8.7334c.0276.00116.0556.00212.0832.00327.3964.82019.7395 1.68903 1.2396 2.41313-.335.7771-2.5367 1.4648-2.5027.0694.4761-.2073 1.2981-.0423 1.7201-.3071-.244-.6672-.5962-1.23504-.5402-2.1787M25.8613 8.75484c.3761.68673.4985 1.40826 1.0332 1.92736.2407.2336.709.5184.4769 1.1682-.0543.1533-.4507.495-.6795.5621-.8358.2458-2.7835.0508-2.1239-.9871.6913.0321 1.6204.4471 2.1371-.0527-.3968-.6317-1.1042-1.88151-.8438-2.61786M33.1967 15.7344c-1.2585.8052-2.6618 1.6808-4.7239 1.4777-.4406-.3815-.6086-1.2306-.1806-1.7913.2228.3815.0829 1.0832.7038 1.1888 1.1701.1994 2.5319-.7129 3.3735-1.0317.5219-.8764-.045-1.1987-.5151-1.7627-.9625-1.1556-2.2537-2.5879-2.2067-4.3179.389-.28096.4226.42885.4784.5581.5026 1.1715 1.7675 2.6698 2.6906 3.6725.2267.2469.5999.4838.6414.6471.1197.4748-.3114 1.0436-.2614 1.3594M16.6051 14.8868c-.3944-.2243-.4883-1.212-.9514-1.24-.6619-.04-.5412 1.2813-.5385 2.054-.4556-.4119-.5357-1.6802-.201-2.3315-.3814-.1866-.5518.2057-.7633.344.2719-1.9673 2.8894-.9125 2.4542 1.1735zM33.9978 16.5536c-.5859 1.1106-1.4146 2.3337-3.1336 2.3693-.0349-.3587-.0617-.9045.002-1.1204 1.3141-.1258 2.1254-.792 3.1316-1.2489zM25.7622 17.2737c1.0964.5742 3.1114.636 4.6016.5925.0799.3252.078.7269.0811 1.1235-1.9156.0951-4.1804-.377-4.6827-1.716zM25.5539 18.3444c.7582 1.8959 3.364 1.6777 5.5615 1.6253-.0968.2462-.3064.537-.5671.6422-.7042.2853-2.6464.5019-3.6239-.0152-.62-.3283-1.0183-1.07-1.358-1.5048-.1641-.21-.9809-.7464-.0125-.7475" fill="#231F20"/><path fill-rule="evenodd" clip-rule="evenodd" d="M33.1047 28.8026c-.8897 1.5178-1.741 3.0766-2.7966 4.4153.4425-1.296.632-3.4651.6988-5.1187.9258-.4315 1.7186.0971 2.0978.7034z" fill="#81B0C4"/><path fill-rule="evenodd" clip-rule="evenodd" d="M37.8929 34.2575c-.9961.1986-1.696 1.1629-2.6678 1.101.5341-.7499 1.4699-1.066 2.6678-1.101zM38.3322 35.8101c-.8119.0854-1.7655.2164-2.589.1489.3898-.5931 1.8918-.3884 2.589-.1489zM38.6132 37.1488c-.9125.0197-2.0467.0016-2.914-.0709.513-.5488 2.3222-.2036 2.914.0709z" fill="#231F20"/><path fill-rule="evenodd" clip-rule="evenodd" d="M31.3881 40.8121c.131 1.1414.5853 2.2979.5283 3.5479-.5045.1694-.7943.3177-1.4703.3168-.0477-1.0624-.1904-2.6864-.1477-3.6991.3325.0219.8227-.2366 1.0897-.1656z" fill="#DCD9D8"/><path fill-rule="evenodd" clip-rule="evenodd" d="M29.917 23.9905c-.4582.2979-.8484.6699-1.2884.9879-.9759.0481-1.5084-.0673-2.2253-.6254.0118-.0448.0838-.0248.0865-.0798 1.0446.4637 2.3724-.1888 3.4272-.2827" fill="#F0D6B7"/><path fill-rule="evenodd" clip-rule="evenodd" d="M24.4336 31.0825c.287-1.2386 1.4115-1.8801 2.4327-2.5622 1.0541 1.3323 1.6951 3.0457 2.401 4.6992-1.6678-.5008-3.372-1.3133-4.8337-2.137z" fill="#81B0C4"/><path fill-rule="evenodd" clip-rule="evenodd" d="M30.2983 40.9777c-.0426 1.0127.1 2.6367.1477 3.699.676.0009.9658-.1473 1.4703-.3168.057-1.25-.3973-2.4064-.5282-3.5478-.2671-.071-.7573.1875-1.0898.1656zm-10.5256-5.7594c.4457 4.0813 1.0913 7.5122 2.2755 11.1263 2.628.7948 5.7963.8641 8.1192.1469-.4265-2.0398-.2402-4.5232-.4894-6.7-.1879-1.6361-.0921-3.2823-.3497-4.9515-2.8147-.5833-6.7933-.1364-9.5556.3783zm10.2211-.3527c-.0237 1.7528.0788 3.4819.2132 5.2369.6758-.101 1.1344-.1685 1.7623-.3056-.2039-1.6896-.1788-3.5908-.5942-5.0854-.48.0046-.9026-.0056-1.3813.1541zm3.4282-.2826c-.3207-.0732-.6941-.0028-1.0005.0031.144 1.4289.4935 3.0056.6165 4.5054.4821.015.7397-.2115 1.1362-.2877.0213-1.3165-.1154-3.1304-.7522-4.2208zm5.1908 4.7237c1.005-.2431 1.6369-1.4691 1.3558-2.7281-.1886-.8461-.5246-2.4394-.8841-2.9807-.2657-.4004-.9861-.9246-1.5613-.5577-.9356.5967-2.584.7699-3.2663 1.4923.3421 1.1346.4483 2.693.5895 4.1307 1.1689.0726 2.6071-.3204 3.5793.0966-.6787.219-1.5593.2207-2.1457.5398.4792.2306 1.6012.184 2.3328.0071zm-9.3457-6.0873c-.7059-1.6535-1.347-3.3669-2.401-4.6992-1.0212.6821-2.1457 1.3236-2.4327 2.5622 1.4617.8237 3.1658 1.6362 4.8337 2.137zm1.74-5.1202c-.0668 1.6536-.2562 3.8227-.6987 5.1187 1.0555-1.3387 1.9068-2.8975 2.7966-4.4153-.3793-.6063-1.172-1.1349-2.0979-.7034zm-1.9725-.6981c-.3999-.0429-.7393.4579-1.2593.2414-.1191.1311-.2274.2732-.3489.4013 1.1485 1.3785 1.6704 3.3342 2.5574 4.9542.4759-1.5561.4211-3.261.526-4.9594-.654.0414-1.0168-.589-1.4752-.6375zm-1.2683-1.6673c-.0427.4721.0675.6266.1629 1.1677 1.5582.4852 1.2861-2.13-.1629-1.1677zm-1.7279-.565c-.6714-.3654-1.68-.7633-2.5472-.9281-1.075-.2048-.9743 1.4604-.9287 2.4539.0359.7865.4465 1.6183.6249 2.1408.0837.244.1026.5028.312.5513.3702.0859 1.5913-.4004 1.9392-.5894.7359-.3996 1.3068-1.0343 1.9318-1.4604.0082-.2073.0161-.4144.0244-.6217-.3758-.1866-.81-.3189-1.3616-.3429.3742-.1875.9246-.1848 1.2656-.4079.0033-.0831.0068-.166.0097-.2483-.6225-.0477-.8598-.3238-1.2701-.5473zm-6.4129-1.1602c-.5573.5635 1.5628 1.3316 2.2379 1.3729-.0038-.3565.204-.6927.1621-.9485-.8017-.1401-1.8553-.0476-2.4-.4244zm6.8643.2646c-.0027.055-.0747.035-.0865.0798.7169.5581 1.2494.6735 2.2253.6254.44-.318.8302-.69 1.2884-.9879-1.0548.0939-2.3826.7464-3.4272.2827zm6.3006 1.9029c-.0301-.6259-.1952-1.9133-.5837-2.1386-.8153-.4741-2.2648.9571-2.8788 1.1754.0668.1915.1771.3432.1856.588.3631-.089.8053-.028 1.12.126-.3639.0406-.7675.0379-1.0083.2106-.0882.254.0217.6002-.037.9528.8638.2427 1.8505.372 2.9425.4039.2124-.275.2848-.7988.2597-1.3181zm-14.1031-1.6225c-.1749-.1242-1.3587-1.6582-1.5209-1.5946-2.1419.8414-4.1448 2.2962-5.9346 3.6721 1.7065 3.647 2.3953 8.115 2.517 12.4215 1.9548.9106 3.6718 2.2234 6.3244 2.3604-.3069-2.163-.5871-4.0929-.7614-6.1294-.6665-.2798-1.6227.0127-2.2464-.0867-.0053-.7487.9526-.3279 1.0324-.8313.0601-.3808-.5271-.4097-.3359-1.0093.4876.1766.7437.5665 1.2637.7129.4752-1.0353-.0066-2.8673.0619-3.7327.0129-.1625.0814-.9002.4468-.7707.3234.1145-.0184 1.9619.017 2.7809.0323.7546-.0915 1.4848.2153 1.9585 2.5633-.3475 5.168-.5721 7.9414-.6479-.6102-.2608-1.335-.5075-2.1297-.9537-.4308-.2419-1.7888-.7452-1.9131-1.1527-.1983-.6494.5204-.9953.6434-1.5521-1.2939.7029-1.5463-.6736-1.8524-1.6488-.2773-.8833-.4352-1.5431-.5032-2.0525-1.1146-.5293-2.3063-1.0652-3.2657-1.7439zm12.9711-1.409c1.7846-.8619 2.1063 3.2213 1.4068 4.5367.1081.3923.48.5425.6317.8952-.9959 1.7769-2.102 3.4356-3.1182 5.1916.7559-.4687 1.8356-.0839 2.7251-.4347.3252-.128.5605-.8694.8067-1.4625.6772-1.6317 1.3881-3.6888 1.7044-5.2459.0714-.3548.266-1.1279.2224-1.4437-.0778-.5654-.848-.9846-1.2398-1.3342-.7217-.6458-1.1762-1.2141-1.9291-1.8179-.3052.4488-.9604.7504-1.21 1.1154zM14.6059 7.3815c-.8504.93192-.6724 2.6781-.5695 3.9204 1.5371-.9631 3.5773.0761 3.5581 1.7142.7338-.0194.2741-.9129.1414-1.4884-.4338-1.88004.7308-3.92254.0528-5.64177-1.3165.09942-2.3981.63499-3.1828 1.49557zm6.0847-5.40884c-1.9252.54346-4.3925 1.93673-5.1836 3.65923.6126-.08866 1.0378-.39635 1.6421-.43443.2284-.0148.5276.09539.7901.03039.523-.12923.9645-1.29731 1.3591-1.73193.3846-.42442.8469-.60576 1.1633-.99269.2033-.09769.5039-.09096.5154-.395-.0881-.09384-.1809-.16538-.2864-.13557zm10.0215.51115c-1.9982-1.12289-5.3804-1.967501-7.506-.91212-1.7151.85173-4.0334 2.26097-4.8238 4.04673.7383 1.72327-.2188 3.30231-.2799 5.05188-.0324.931.4401 1.7437.4763 2.7572-.2526.4152-1.0246.4663-1.559.4378-.1798-.8965-.4947-1.9042-1.4217-2.0053-1.3116-.1429-2.2705.9382-2.3301 2.068-.0705 1.3287 1.0246 3.5308 2.5768 3.3779.5996-.059.7469-.6577 1.4002-.6515.3541.7036-.5462.9246-.6388 1.4279-.0242.13.0746.638.1321.8763.2819 1.1602.9104 2.6618 1.529 3.545.7852 1.1204 2.3277 1.2893 3.9872 1.3991.2964-.636 1.3883-.5837 2.0998-.4173-.8526-.3364-1.6453-1.1518-2.3023-1.8735-.7546-.8281-1.519-1.7164-1.5576-2.7987 1.426 1.9704 2.6041 3.6912 5.1971 4.5579 1.9621.6554 4.2536-.3004 5.7612-1.3548.6256-.4383.999-1.1336 1.4436-1.7702 1.6638-2.3836 2.4402-5.7859 2.2695-9.0836-.0703-1.36003-.0672-2.71542-.5254-3.63042-.4788-.95673-2.0984-1.81269-3.0464-.94731-.1757-.93038.7884-1.50577 1.9208-1.17096-.8075-1.03788-1.6549-2.285-2.8026-2.93zm3.7228 30.68599c1.5615-.7731 4.4789-2.081 5.4578.0029.3613.7681.7851 2.0665.9722 2.8594.2643 1.1186-.2865 3.4698-1.441 3.8452-1.0196.3315-2.2094.3113-3.4376.0656-.1446-.1198-.3056-.3287-.4182-.5464-.877-.0339-1.6982.0469-2.3909.406.0656.6459-.3731.7496-.7843.8826-.3049 1.2041.6099 2.7764.391 3.8743-.1562.7821-1.1224.9031-1.8326 1.0494-.0231.4347.0311.7975.0796 1.1652-.1624.5959-.8907.9352-1.5808 1.0183-2.2704.2719-5.7178.394-7.9016-.3881-.6094-1.4888-1.0895-3.2996-1.5971-4.9996-2.1299.2265-3.8526-.9154-5.4765-1.6635-.5623-.2596-1.3401-.4026-1.5502-.8484-.2036-.4316-.1203-1.2587-.1708-2.04-.1286-1.9956-.2387-3.9204-.7678-5.9637-.2376-.9169-.6517-1.726-.9406-2.6094-.267-.8189-.7334-1.8308-.8551-2.6473-.1804-1.2102.9637-1.2775 1.6954-1.802 1.1309-.8109 2.0186-1.2594 3.2435-1.9913.3628-.2167 1.4568-.7654 1.5812-1.0181.2474-.5009-.4246-1.2073-.6043-1.6-.2842-.6209-.4324-1.1484-.4731-1.7611-1.0275-.1618-1.8064-.7708-2.2768-1.4575-.7783-1.1366-1.3181-3.2393-.6447-4.8387.0528-.1259.3162-.3736.355-.5671.0767-.381-.1442-.8875-.1579-1.2927-.0707-2.07884.3531-3.86999 1.7583-4.49691.5704-2.26327 2.612-3.01577 4.5355-4.14058.719-.42038 1.5116-.68904 2.3302-.98904 2.9364-1.076346 7.4417-.873652 9.8787.96212 1.0334.77846 2.6852 2.42211 3.2761 3.61211 1.5604 3.14173 1.4496 8.3923.3581 12.214-.1467.5131-.3595 1.2674-.6567 1.8837-.2071.4304-.8511 1.2915-.7729 1.6715.0806.3929 1.4682 1.4423 1.7658 1.7281.5358.5148 1.5537 1.1981 1.6361 1.8477.0887.6914-.3058 1.6371-.5056 2.3042-.6681 2.2264-1.3199 4.2843-2.0774 6.2691" fill="#231F20"/><path fill-rule="evenodd" clip-rule="evenodd" d="M24.0174 17.7587c.0847-.1123.5504-.2829 1.202.0296 0 0-.7723.1283-.708 1.4108l-.3219-.0642s-.3326-1.1629-.1721-1.3762" fill="#F7E4CD"/><path fill-rule="evenodd" clip-rule="evenodd" d="M29.6607 28.7819c0 .1947-.1586.3525-.3541.3525-.1954 0-.354-.1578-.354-.3525 0-.1946.1586-.3527.354-.3527.1955 0 .3541.1581.3541.3527zM30.0147 30.4166c0 .1946-.1586.3524-.3541.3524-.1954 0-.354-.1578-.354-.3524 0-.1947.1586-.3527.354-.3527.1955 0 .3541.158.3541.3527z" fill="#1D1919"/></g></g><defs><clipPath id="clip0_868_4206"><path fill="#fff" d="M0 0h48v48H0z"/></clipPath><clipPath id="clip1_868_4206"><path fill="#fff" transform="translate(6.54541)" d="M0 0h34.9091v48H0z"/></clipPath></defs></svg>