<svg width="48" height="48" viewBox="0 0 48 48" fill="none" xmlns="http://www.w3.org/2000/svg">
<g clip-path="url(#clip0_10263_283364)">
<path d="M35.0293 0.000976562C33.9937 0.000976562 33.1543 0.840414 33.1543 1.87598V5.62598C33.1543 6.65985 32.3132 7.50098 31.2793 7.50098H27.5293C24.4277 7.50098 21.9043 10.0244 21.9043 13.126V16.501C21.9043 17.5365 22.7437 18.376 23.7793 18.376C24.8149 18.376 25.6543 17.5365 25.6543 16.501V13.126C25.6543 12.0921 26.4954 11.251 27.5293 11.251H31.2793C34.3809 11.251 36.9043 8.7276 36.9043 5.62598V1.87598C36.9043 0.840414 36.0648 0.000976562 35.0293 0.000976562Z" fill="white"/>
<path d="M34.875 21.751C34.875 21.751 12.4437 21.7641 12.1076 21.7899C5.28412 22.314 0 28.0186 0 34.876C0 42.1131 5.88788 48.001 13.125 48.001C18.0274 48.001 19.9584 46.4674 21.3683 45.3477C22.2877 44.6175 22.7492 44.251 24 44.251C25.2893 44.251 25.839 44.6554 26.837 45.3897C28.3347 46.4917 30.3862 48.001 35.25 48.001C42.3996 48.001 48 42.2358 48 34.876C48 27.6389 42.1121 21.751 34.875 21.751ZM35.25 44.251C31.6171 44.251 30.3746 43.3369 29.0593 42.3691C27.8692 41.4934 26.5202 40.501 24 40.501C21.4413 40.501 20.1077 41.5601 19.0361 42.4111C17.8448 43.3573 16.7195 44.251 13.125 44.251C7.95553 44.251 3.75 40.0454 3.75 34.876C3.75 30.007 7.54734 25.9012 12.3949 25.5289C12.6358 25.5104 12.8815 25.501 13.125 25.501H34.875C40.0445 25.501 44.25 29.7066 44.25 34.876C44.25 40.133 40.2968 44.251 35.25 44.251Z" fill="white"/>
<path d="M16.875 33.001H15V31.126C15 30.0904 14.1606 29.251 13.125 29.251C12.0894 29.251 11.25 30.0904 11.25 31.126V33.001H9.375C8.33944 33.001 7.5 33.8404 7.5 34.876C7.5 35.9115 8.33944 36.751 9.375 36.751H11.25V38.626C11.25 39.6615 12.0894 40.501 13.125 40.501C14.1606 40.501 15 39.6615 15 38.626V36.751H16.875C17.9106 36.751 18.75 35.9115 18.75 34.876C18.75 33.8404 17.9106 33.001 16.875 33.001Z" fill="white"/>
<path d="M34.875 33.001C35.9105 33.001 36.75 32.1615 36.75 31.126C36.75 30.0904 35.9105 29.251 34.875 29.251C33.8395 29.251 33 30.0904 33 31.126C33 32.1615 33.8395 33.001 34.875 33.001Z" fill="white"/>
<path d="M31.125 36.751C32.1605 36.751 33 35.9115 33 34.876C33 33.8404 32.1605 33.001 31.125 33.001C30.0895 33.001 29.25 33.8404 29.25 34.876C29.25 35.9115 30.0895 36.751 31.125 36.751Z" fill="white"/>
<path d="M34.875 40.501C35.9105 40.501 36.75 39.6615 36.75 38.626C36.75 37.5904 35.9105 36.751 34.875 36.751C33.8395 36.751 33 37.5904 33 38.626C33 39.6615 33.8395 40.501 34.875 40.501Z" fill="white"/>
<path d="M38.625 36.751C39.6605 36.751 40.5 35.9115 40.5 34.876C40.5 33.8404 39.6605 33.001 38.625 33.001C37.5895 33.001 36.75 33.8404 36.75 34.876C36.75 35.9115 37.5895 36.751 38.625 36.751Z" fill="white"/>
</g>
<defs>
<clipPath id="clip0_10263_283364">
<rect width="48" height="48" fill="white" transform="translate(0 0.000976562)"/>
</clipPath>
</defs>
</svg>
