<svg width="48" height="48" viewBox="0 0 48 48" fill="none" xmlns="http://www.w3.org/2000/svg">
<path d="M19.5 39.75C19.531 38.25 20.039 37.008 21.024 36.024C22.009 35.04 23.251 34.532 24.75 34.5C26.25 34.531 27.492 35.039 28.476 36.024C29.46 37.009 29.968 38.251 30 39.75C29.969 41.25 29.461 42.492 28.476 43.476C27.491 44.46 26.249 44.968 24.75 45C23.25 44.969 22.008 44.461 21.024 43.476C20.04 42.491 19.532 41.249 19.5 39.75ZM19.5 24C19.531 22.5 20.039 21.258 21.024 20.274C22.009 19.29 23.251 18.782 24.75 18.75C26.25 18.781 27.492 19.289 28.476 20.274C29.46 21.259 29.968 22.501 30 24C29.969 25.5 29.461 26.742 28.476 27.726C27.491 28.71 26.249 29.218 24.75 29.25C23.25 29.219 22.008 28.711 21.024 27.726C20.04 26.741 19.532 25.499 19.5 24ZM19.5 8.25C19.531 6.75 20.039 5.508 21.024 4.524C22.009 3.54 23.251 3.0321 24.75 3C26.25 3.0309 27.492 3.5391 28.476 4.524C29.46 5.5089 29.968 6.7509 30 8.25C29.969 9.75 29.461 10.992 28.476 11.976C27.491 12.96 26.249 13.4679 24.75 13.5C23.25 13.4691 22.008 12.9609 21.024 11.976C20.04 10.9911 19.532 9.7491 19.5 8.25Z" fill="white"/>
</svg>
