<svg width="48" height="48" viewBox="0 0 48 48" fill="none" xmlns="http://www.w3.org/2000/svg">
<path d="M40.8673 12.6309C39.8048 11.5684 38.3925 10.9833 36.8898 10.9833C36.889 10.9833 36.8878 10.9833 36.8871 10.9833C35.8515 10.9837 35.0126 11.8236 35.0131 12.8592C35.0135 13.8945 35.8529 14.7333 36.888 14.7332H36.8899C37.3907 14.7332 37.8615 14.9282 38.2157 15.2824C38.9485 16.015 38.9487 17.2012 38.2157 17.9341L37.7469 18.4029C37.172 18.9778 37.0332 19.8577 37.403 20.5817C40.205 26.0668 38.3584 33.7012 32.9125 39.1471C27.67 44.3896 20.9583 45.6939 15.2121 42.7585C14.4883 42.3887 13.6085 42.5275 13.0335 43.1023L12.5644 43.5712C11.8317 44.3039 10.6457 44.304 9.91286 43.5712C9.18181 42.8401 9.18181 41.6507 9.91286 40.9196L10.3817 40.4508C10.9566 39.8759 11.0954 38.9961 10.7256 38.272C7.7902 32.5257 9.10868 25.8282 14.3513 20.5857C15.7934 19.1436 17.3911 17.9437 19.1108 17.0074C21.0347 18.1155 23.2647 18.7498 25.64 18.7498C28.7416 18.7498 31.265 16.2265 31.265 13.1249C31.265 5.88782 25.3772 0 18.1401 0C15.0385 0 12.5152 2.52335 12.5152 5.62495C12.5152 9.04435 13.83 12.162 15.98 14.5003C14.4516 15.467 13.0183 16.6152 11.6993 17.9341C8.4861 21.1474 6.51474 24.8333 5.78144 28.8372C5.1581 32.2412 5.51847 35.645 6.82177 38.7616C5.07907 40.9674 5.2256 44.1874 7.26098 46.2229C9.31953 48.2812 12.5385 48.3924 14.7228 46.6623C16.8456 47.5498 19.1007 48 21.3993 47.9999C26.2172 47.9997 31.2997 46.0631 35.5641 41.7987C38.8079 38.555 41.0184 34.636 41.9568 30.4655C42.7744 26.8321 42.5368 23.2049 41.2986 20.1027C43.0374 17.9181 42.9301 14.6936 40.8673 12.6309V12.6309ZM18.1401 3.74996C23.3095 3.74996 27.515 7.95555 27.515 13.1249C27.515 14.1587 26.6739 14.9999 25.64 14.9999C20.4706 14.9999 16.2651 10.7943 16.2651 5.62495C16.2651 4.59108 17.1061 3.74996 18.1401 3.74996Z" fill="white"/>
<path d="M15.2549 29.1206C16.2904 29.1206 17.1299 28.2811 17.1299 27.2456C17.1299 26.2101 16.2904 25.3706 15.2549 25.3706C14.2193 25.3706 13.3799 26.2101 13.3799 27.2456C13.3799 28.2811 14.2193 29.1206 15.2549 29.1206Z" fill="white"/>
<path d="M15.2549 36.6206C16.2904 36.6206 17.1299 35.7811 17.1299 34.7456C17.1299 33.7101 16.2904 32.8706 15.2549 32.8706C14.2193 32.8706 13.3799 33.7101 13.3799 34.7456C13.3799 35.7811 14.2193 36.6206 15.2549 36.6206Z" fill="white"/>
</svg>
