<svg width="48" height="48" viewBox="0 0 48 48" fill="none" xmlns="http://www.w3.org/2000/svg">
<g clip-path="url(#clip0_958_4046)">
<path d="M11.6453 48.0006C8.57891 48.0007 5.68317 46.7856 3.44902 44.5515C1.10968 42.2121 -0.112258 39.1469 0.00811655 35.9205C0.132523 32.5884 1.63786 29.3875 4.36148 26.6639L9.26535 21.74C9.99603 21.0063 11.1832 21.0038 11.917 21.7346C12.6507 22.4653 12.6532 23.6525 11.9224 24.3862L7.01592 29.3129C3.03989 33.2889 2.66471 38.4638 6.10082 41.8999C9.53703 45.3363 14.7119 44.961 18.685 40.9875L25.4244 34.2481C27.4672 32.2055 28.5937 29.8731 28.6821 27.5033C28.7632 25.3311 27.9303 23.2573 26.3369 21.6639C25.803 21.1301 25.2123 20.6771 24.5811 20.3176C23.6813 19.805 23.3673 18.6601 23.8798 17.7604C24.3924 16.8605 25.5374 16.5467 26.437 17.0591C27.3593 17.5845 28.2178 18.2417 28.9886 19.0124C31.328 21.3517 32.5499 24.4169 32.4295 27.6433C32.3051 30.9754 30.7998 34.1764 28.0762 36.8999L21.3368 43.6393C18.613 46.3629 15.4122 47.8682 12.0801 47.9927C11.935 47.9979 11.7898 48.0006 11.6453 48.0006ZM24.1204 30.241C24.6329 29.3412 24.3188 28.1962 23.4191 27.6838C22.7879 27.3242 22.1971 26.8712 21.6633 26.3375C18.2272 22.9013 18.6024 17.7264 22.5757 13.7531L29.3151 7.01381C33.2885 3.0406 38.4633 2.66532 41.8993 6.10144C45.3354 9.53756 44.9602 14.7125 40.9842 18.6885L36.0777 23.6151C35.3469 24.3488 35.3494 25.5361 36.0831 26.2667C36.8168 26.9975 38.004 26.9949 38.7348 26.2613L43.6386 21.3374C46.3622 18.6138 47.8675 15.4129 47.992 12.0808C48.1124 8.8544 46.8904 5.78916 44.5511 3.44982C42.2117 1.11039 39.1449 -0.111361 35.9201 0.00882589C32.588 0.133232 29.3871 1.63857 26.6635 4.36219L19.924 11.1015C17.2004 13.8251 15.6952 17.026 15.5707 20.3581C15.4503 23.5845 16.6722 26.6497 19.0116 28.9891C19.7823 29.7598 20.6408 30.4169 21.5632 30.9423C21.856 31.1091 22.1748 31.1884 22.4894 31.1884C23.1413 31.1883 23.7746 30.8478 24.1204 30.241Z" fill="white"/>
</g>
<defs>
<clipPath id="clip0_958_4046">
<rect width="48" height="48" fill="white"/>
</clipPath>
</defs>
</svg>
