<svg width="48" height="48" viewBox="0 0 48 48" fill="none" xmlns="http://www.w3.org/2000/svg">
<g clip-path="url(#clip0_1075_6129)">
<path d="M38.2051 5.89219C34.4242 2.09501 29.387 0.00377956 24.0215 0.00377956H23.9984C13.1939 -0.217362 3.71498 9.2978 3.93743 20.0984C4.22026 27.7249 11.5571 37.4104 17.2706 44.8515C18.9485 46.8559 21.3933 48 24.0198 48C26.7384 47.9999 29.2625 46.775 30.9449 44.6391C35.1834 39.3721 44.3357 26.7036 44.0594 20.0982C44.0595 14.7288 41.9804 9.68374 38.2051 5.89219V5.89219ZM27.9993 42.3189C26.0617 44.8747 21.9858 44.8793 20.0475 42.3233C12.3002 32.4584 7.68699 24.243 7.68699 20.0983C7.68699 11.0858 15.0042 3.75362 23.9984 3.75362H24.0215C33.0029 3.75362 40.3098 11.0859 40.3098 20.0983C40.3098 24.2881 35.8227 32.3871 27.9993 42.3189V42.3189ZM24.1037 28.0328C19.7101 28.0328 16.1355 24.4583 16.1355 20.0646C16.5732 9.49372 31.6359 9.49682 32.0719 20.0647C32.0719 24.4584 28.4974 28.0328 24.1037 28.0328ZM24.1037 15.8462C21.7777 15.8462 19.8853 17.7386 19.8853 20.0646C20.117 25.661 28.0913 25.6593 28.3222 20.0646C28.3222 17.7386 26.4299 15.8462 24.1037 15.8462Z" fill="white"/>
</g>
<defs>
<clipPath id="clip0_1075_6129">
<rect width="48" height="48" fill="white"/>
</clipPath>
</defs>
</svg>
