<svg width="48" height="48" viewBox="0 0 48 48" fill="none" xmlns="http://www.w3.org/2000/svg">
<path d="M26.0014 42C26.0015 42.2626 25.9498 42.5227 25.8493 42.7654C25.7489 43.0081 25.6015 43.2286 25.4158 43.4143C25.2301 43.6001 25.0096 43.7474 24.7669 43.8478C24.5242 43.9483 24.2641 44 24.0015 43.9999H16.0015C13.3503 43.9968 10.8086 42.9423 8.93386 41.0676C7.05917 39.1929 6.00459 36.6512 6.00146 34V13.9999C6.00459 11.3487 7.05917 8.80701 8.93386 6.93233C10.8086 5.05766 13.3503 4.0031 16.0015 4H24.0015C24.5319 4 25.0406 4.21071 25.4157 4.58578C25.7907 4.96084 26.0014 5.46954 26.0014 5.99997C26.0014 6.53039 25.7907 7.03909 25.4157 7.41416C25.0406 7.78923 24.5319 7.99994 24.0015 7.99994H16.0015C14.4107 8.00167 12.8856 8.63437 11.7608 9.75922C10.6359 10.8841 10.0032 12.4092 10.0015 13.9999V34C10.0032 35.5908 10.6359 37.1159 11.7608 38.2407C12.8856 39.3656 14.4107 39.9983 16.0015 40H24.0015C24.2641 39.9999 24.5242 40.0516 24.7669 40.1521C25.0096 40.2526 25.2301 40.3999 25.4158 40.5856C25.6015 40.7713 25.7489 40.9918 25.8493 41.2345C25.9498 41.4772 26.0015 41.7373 26.0014 42V42ZM41.8472 24.7641C41.9978 24.3985 42.0371 23.9965 41.96 23.6087C41.8829 23.2208 41.6929 22.8644 41.4138 22.5842L33.4156 14.5859C33.2299 14.4002 33.0094 14.2529 32.7668 14.1524C32.5241 14.0519 32.2641 14.0001 32.0015 14.0001C31.7389 14.0001 31.4788 14.0519 31.2362 14.1524C30.9936 14.2529 30.7731 14.4002 30.5874 14.5859C30.4017 14.7716 30.2544 14.992 30.1539 15.2347C30.0534 15.4773 30.0017 15.7373 30.0017 16C30.0017 16.2626 30.0534 16.5226 30.1539 16.7652C30.2544 17.0079 30.4017 17.2283 30.5874 17.414L35.1734 22H20.0014C19.471 22 18.9623 22.2107 18.5872 22.5858C18.2122 22.9608 18.0015 23.4695 18.0015 24C18.0015 24.5304 18.2122 25.0391 18.5872 25.4142C18.9623 25.7892 19.471 25.9999 20.0014 25.9999H35.1734L30.5874 30.5859C30.4017 30.7716 30.2544 30.9921 30.1539 31.2347C30.0534 31.4773 30.0017 31.7374 30.0017 32C30.0017 32.2626 30.0534 32.5227 30.1539 32.7653C30.2544 33.0079 30.4017 33.2284 30.5874 33.4141C30.7731 33.5998 30.9936 33.7471 31.2362 33.8476C31.4788 33.9481 31.7389 33.9998 32.0015 33.9998C32.2641 33.9998 32.5241 33.9481 32.7668 33.8476C33.0094 33.7471 33.2299 33.5998 33.4156 33.4141L41.4138 25.4156C41.5998 25.2292 41.7471 25.0077 41.8472 24.7641V24.7641Z" fill="white"/>
</svg>
