<svg width="48" height="48" viewBox="0 0 48 48" fill="none" xmlns="http://www.w3.org/2000/svg">
<g clip-path="url(#clip0_1806_4166)">
<path d="M22.9616 39.8759C22.2567 39.7642 21.6764 39.2621 21.4645 38.5806L18.6083 29.3918L9.41956 26.5356C8.738 26.3238 8.23587 25.7434 8.12422 25.0385C8.01256 24.3336 8.31069 23.6265 8.89343 23.2144L16.7494 17.658L16.6272 8.03698C16.6181 7.32336 17.015 6.66646 17.6509 6.34246C18.2867 6.01846 19.0514 6.08362 19.6234 6.51046L27.3347 12.2652L36.4459 9.17642C37.1218 8.94729 37.8692 9.12176 38.3737 9.62632C38.8784 10.131 39.0527 10.8782 38.8236 11.5541L35.7348 20.6653L41.4896 28.3766C41.9164 28.9486 41.9815 29.7133 41.6576 30.3492C41.3336 30.9851 40.6756 31.3813 39.963 31.3728L30.342 31.2507L24.7857 39.1066C24.3725 39.6912 23.6642 39.9874 22.9616 39.8759ZM14.1604 24.0823L20.6627 26.1034C21.252 26.2866 21.7135 26.7481 21.8967 27.3374L23.9178 33.8397L27.8496 28.2808C28.2059 27.777 28.79 27.4818 29.4042 27.4886L36.2123 27.575L32.14 22.1182C31.7709 21.6236 31.6689 20.9792 31.8669 20.3948L34.0527 13.9473L27.6053 16.1331C27.0208 16.3313 26.3764 16.229 25.8819 15.86L20.425 11.7877L20.5114 18.5958C20.5192 19.2128 20.2231 19.7941 19.7192 20.1504L14.1604 24.0823Z" fill="white"/>
<path d="M0.549211 47.451C-0.18307 46.7188 -0.18307 45.5316 0.549211 44.7994L12.7884 32.5603C13.5206 31.828 14.7078 31.828 15.44 32.5603C16.1722 33.2925 16.1723 34.4797 15.44 35.2119L3.20084 47.451C2.46865 48.1832 1.28149 48.1832 0.549211 47.451Z" fill="white"/>
<path d="M28.1005 7.43112C27.0777 7.26912 26.3799 6.30865 26.5419 5.28584L27.1285 1.58206C27.2905 0.559248 28.2507 -0.138721 29.2738 0.0234666C30.2966 0.185467 30.9944 1.14594 30.8324 2.16875L30.2458 5.87253C30.0837 6.89581 29.1226 7.59303 28.1005 7.43112Z" fill="white"/>
<path d="M33.4468 41.4745L31.7443 38.1333C31.2742 37.2106 31.6411 36.0815 32.5637 35.6114C33.4865 35.1413 34.6155 35.5082 35.0856 36.4308L36.7881 39.772C37.2582 40.6947 36.8913 41.8238 35.9686 42.2939C35.0402 42.767 33.914 42.3912 33.4468 41.4745Z" fill="white"/>
<path d="M9.86688 16.2559L6.52563 14.5534C5.60294 14.0833 5.2361 12.9542 5.70625 12.0316C6.17641 11.1089 7.30544 10.7419 8.22813 11.2121L11.5694 12.9146C12.4921 13.3847 12.8589 14.5139 12.3888 15.4365C11.9163 16.3637 10.7853 16.7238 9.86688 16.2559Z" fill="white"/>
<path d="M40.5693 19.8999C40.4073 18.8771 41.105 17.9166 42.1279 17.7546L45.8316 17.168C46.8547 17.0061 47.8149 17.7039 47.9769 18.7266C48.1389 19.7494 47.4411 20.7099 46.4183 20.8719L42.7145 21.4585C41.6829 21.6215 40.7299 20.9143 40.5693 19.8999Z" fill="white"/>
</g>
<defs>
<clipPath id="clip0_1806_4166">
<rect width="48" height="48" fill="white"/>
</clipPath>
</defs>
</svg>
