<svg width="48" height="48" viewBox="0 0 48 48" fill="none" xmlns="http://www.w3.org/2000/svg">
<path d="M27.417 20.586C28.1617 21.3307 29.3655 21.3307 30.1102 20.586L40.1912 10.5049V17.3348C40.1912 18.3862 41.0426 19.2395 42.0959 19.2395C43.1491 19.2395 44.0005 18.3862 44.0005 17.3348V5.91707C44.0006 5.90676 44.0001 5.89653 43.9999 5.88629C43.9995 5.83958 43.9971 5.79325 43.9933 5.7474C43.9924 5.73677 43.992 5.72607 43.9909 5.71545C43.9857 5.6635 43.9779 5.61233 43.9686 5.56171C43.967 5.55265 43.9656 5.54351 43.9638 5.53445C43.9534 5.48203 43.9406 5.43047 43.926 5.37969C43.9238 5.37204 43.9217 5.36438 43.9195 5.35673C43.9038 5.30462 43.8857 5.25353 43.8657 5.20338C43.8631 5.19658 43.8605 5.18986 43.8578 5.18307C43.8366 5.13159 43.8131 5.08128 43.7876 5.03222C43.7848 5.02675 43.7821 5.02121 43.7792 5.01574C43.7518 4.9641 43.7221 4.91403 43.6902 4.86536C43.6883 4.86247 43.6865 4.8595 43.6846 4.85661C43.5428 4.64248 43.3588 4.45883 43.1445 4.3172C43.1439 4.31681 43.1434 4.31642 43.1427 4.31603C43.0913 4.28212 43.0381 4.25072 42.9834 4.22182C42.9819 4.22103 42.9804 4.22033 42.9789 4.21955C42.9255 4.1915 42.8705 4.16596 42.8142 4.14299C42.8129 4.14245 42.8116 4.14198 42.8103 4.14143C42.7546 4.11893 42.6976 4.09886 42.6395 4.08159C42.6384 4.08128 42.6373 4.08097 42.6362 4.08065C42.579 4.06378 42.5208 4.04941 42.4615 4.03792C42.4598 4.03761 42.4582 4.03738 42.4565 4.03706C42.3988 4.02605 42.3403 4.01738 42.2808 4.01168C42.2782 4.01144 42.2755 4.01129 42.273 4.01105C42.2147 4.00566 42.1557 4.00254 42.0959 4.00254H30.6682C29.615 4.00254 28.7636 4.85583 28.7636 5.90715C28.7636 6.95847 29.615 7.81177 30.6682 7.81177H37.4982L27.417 17.8929C26.6723 18.6376 26.6723 19.8413 27.417 20.586Z" fill="white"/>
<path d="M20.584 20.586C19.8393 21.3307 18.6355 21.3307 17.8908 20.586L7.80973 10.5049V17.3348C7.80973 18.3862 6.95839 19.2395 5.90511 19.2395C4.85184 19.2395 4.0005 18.3862 4.0005 17.3348V5.91707C4.00042 5.90676 4.00089 5.89653 4.00105 5.88629C4.00151 5.83958 4.00386 5.79325 4.00768 5.7474C4.00854 5.73677 4.00901 5.72607 4.01011 5.71545C4.01526 5.6635 4.02307 5.61233 4.03237 5.56171C4.03401 5.55265 4.03542 5.54351 4.03721 5.53445C4.0476 5.48203 4.06041 5.43047 4.07502 5.37969C4.07721 5.37204 4.07924 5.36438 4.08151 5.35673C4.09721 5.30462 4.11525 5.25353 4.13525 5.20338C4.13791 5.19658 4.14049 5.18986 4.14322 5.18307C4.16439 5.13159 4.1879 5.08128 4.21337 5.03222C4.21618 5.02675 4.21892 5.02121 4.22181 5.01574C4.24915 4.9641 4.27891 4.91403 4.31079 4.86536C4.31266 4.86247 4.31446 4.8595 4.31641 4.85661C4.4582 4.64248 4.64217 4.45883 4.85645 4.3172C4.85707 4.31681 4.85762 4.31642 4.85824 4.31603C4.90965 4.28212 4.96284 4.25072 5.0176 4.22182C5.01909 4.22103 5.02057 4.22033 5.02206 4.21955C5.07549 4.1915 5.13049 4.16596 5.18673 4.14299C5.18806 4.14245 5.18939 4.14198 5.19072 4.14143C5.24641 4.11893 5.30336 4.09886 5.36148 4.08159C5.36258 4.08128 5.36367 4.08097 5.36476 4.08065C5.42195 4.06378 5.48023 4.04941 5.53952 4.03792C5.54116 4.03761 5.5428 4.03738 5.54444 4.03706C5.60217 4.02605 5.66068 4.01738 5.72013 4.01168C5.72278 4.01144 5.72544 4.01129 5.72802 4.01105C5.7863 4.00566 5.84527 4.00254 5.90504 4.00254H17.3327C18.386 4.00254 19.2373 4.85583 19.2373 5.90715C19.2373 6.95847 18.386 7.81177 17.3327 7.81177H10.5028L20.584 17.8929C21.3287 18.6376 21.3287 19.8413 20.584 20.586Z" fill="white"/>
<path d="M4.00064 42.1159C4.00119 42.1625 4.00345 42.2087 4.00728 42.2545C4.00814 42.2652 4.00861 42.2759 4.0097 42.2865C4.01494 42.3387 4.02267 42.3901 4.03205 42.4409C4.03369 42.4496 4.03501 42.4584 4.03673 42.4671C4.0472 42.52 4.06017 42.572 4.07493 42.6232C4.07696 42.6303 4.07884 42.6374 4.08103 42.6445C4.09688 42.6973 4.11516 42.749 4.1354 42.7998C4.13782 42.8058 4.14008 42.8119 4.14251 42.8179C4.16399 42.8702 4.18782 42.9212 4.21367 42.9711C4.21617 42.9758 4.21852 42.9806 4.22102 42.9854C4.24867 43.0376 4.27882 43.0883 4.31101 43.1375C4.31257 43.14 4.31405 43.1424 4.31562 43.1447C4.45709 43.3585 4.64051 43.5419 4.85417 43.6833C4.85706 43.6853 4.86003 43.687 4.86292 43.689C4.91159 43.7208 4.96174 43.7506 5.0133 43.7779C5.01877 43.7808 5.02431 43.7836 5.02978 43.7864C5.07892 43.8119 5.12915 43.8354 5.18063 43.8565C5.18735 43.8593 5.19414 43.8618 5.20094 43.8645C5.25109 43.8844 5.3021 43.9025 5.35429 43.9183C5.36194 43.9205 5.3696 43.9225 5.37725 43.9247C5.42803 43.9393 5.47959 43.9522 5.53201 43.9625C5.54107 43.9643 5.55021 43.9657 5.55927 43.9674C5.60989 43.9767 5.66106 43.9844 5.71301 43.9897C5.72363 43.9907 5.73426 43.9912 5.74496 43.9921C5.79081 43.9959 5.83706 43.9982 5.88385 43.9987C5.89417 43.9988 5.9044 43.9993 5.91463 43.9993H17.3324C18.3837 43.9993 19.237 43.1479 19.237 42.0946C19.237 41.0414 18.3837 40.19 17.3324 40.19H10.5025L20.5836 30.109C21.3283 29.3643 21.3283 28.1606 20.5836 27.4159C20.2122 27.0445 19.7246 26.8578 19.237 26.8578C18.7494 26.8578 18.2619 27.0444 17.8905 27.4159L7.80941 37.497V30.667C7.80941 29.6138 6.95611 28.7624 5.90479 28.7624C4.85347 28.7624 4.00017 29.6138 4.00017 30.667V42.0848C4.0001 42.0952 4.00057 42.1055 4.00064 42.1159Z" fill="white"/>
<path d="M43.6414 42.1166C43.6409 42.1633 43.6386 42.2094 43.6348 42.2552C43.6339 42.2659 43.6335 42.2766 43.6324 42.2872C43.6272 42.3394 43.6194 42.3908 43.61 42.4416C43.6084 42.4503 43.6071 42.4591 43.6054 42.4678C43.5949 42.5207 43.5819 42.5728 43.5672 42.6239C43.5651 42.631 43.5633 42.6381 43.5611 42.6453C43.5452 42.6981 43.5269 42.7498 43.5067 42.8006C43.5043 42.8066 43.502 42.8127 43.4996 42.8187C43.4781 42.8709 43.4543 42.922 43.4284 42.9718C43.4259 42.9766 43.4236 42.9813 43.4211 42.9861C43.3934 43.0383 43.3633 43.089 43.3311 43.1383C43.3295 43.1407 43.328 43.1431 43.3265 43.1455C43.185 43.3592 43.0016 43.5426 42.7879 43.6841C42.785 43.686 42.7821 43.6878 42.7792 43.6897C42.7305 43.7216 42.6804 43.7513 42.6288 43.7787C42.6233 43.7816 42.6178 43.7843 42.6123 43.7871C42.5632 43.8126 42.5129 43.8361 42.4615 43.8573C42.4547 43.86 42.4479 43.8626 42.4412 43.8652C42.391 43.8852 42.34 43.9033 42.2878 43.919C42.2801 43.9212 42.2725 43.9233 42.2648 43.9255C42.2141 43.9401 42.1625 43.9529 42.1101 43.9633C42.101 43.9651 42.0919 43.9665 42.0828 43.9681C42.0322 43.9774 41.981 43.9852 41.9291 43.9904C41.9185 43.9915 41.9078 43.9919 41.8971 43.9928C41.8513 43.9966 41.805 43.999 41.7582 43.9994C41.7479 43.9995 41.7377 44.0001 41.7275 44H30.3097C29.2584 44 28.4051 43.1487 28.4051 42.0954C28.4051 41.0421 29.2584 40.1908 30.3097 40.1908H37.1396L27.0585 30.1098C26.3138 29.3651 26.3138 28.1613 27.0585 27.4166C27.4299 27.0452 27.9175 26.8585 28.4051 26.8585C28.8927 26.8585 29.3802 27.0452 29.7516 27.4166L39.8327 37.4977V30.6678C39.8327 29.6145 40.686 28.7631 41.7373 28.7631C42.7886 28.7631 43.6419 29.6145 43.6419 30.6678V42.0855C43.642 42.0959 43.6415 42.1062 43.6414 42.1166Z" fill="white"/>
</svg>
