<svg width="48" height="48" viewBox="0 0 48 48" fill="none" xmlns="http://www.w3.org/2000/svg">
<path d="M8.25 19.5C9.75 19.531 10.992 20.039 11.976 21.024C12.96 22.009 13.468 23.251 13.5 24.75C13.469 26.25 12.961 27.492 11.976 28.476C10.991 29.46 9.74901 29.968 8.25 30C6.75 29.969 5.508 29.461 4.524 28.476C3.54 27.491 3.03201 26.249 3 24.75C3.03099 23.25 3.53901 22.008 4.524 21.024C5.50899 20.04 6.75099 19.532 8.25 19.5ZM24 19.5C25.5 19.531 26.742 20.039 27.726 21.024C28.71 22.009 29.218 23.251 29.25 24.75C29.219 26.25 28.711 27.492 27.726 28.476C26.741 29.46 25.499 29.968 24 30C22.5 29.969 21.258 29.461 20.274 28.476C19.29 27.491 18.782 26.249 18.75 24.75C18.781 23.25 19.289 22.008 20.274 21.024C21.259 20.04 22.501 19.532 24 19.5ZM39.75 19.5C41.25 19.531 42.492 20.039 43.476 21.024C44.46 22.009 44.9679 23.251 45 24.75C44.9691 26.25 44.4609 27.492 43.476 28.476C42.4911 29.46 41.2491 29.968 39.75 30C38.25 29.969 37.008 29.461 36.024 28.476C35.04 27.491 34.5321 26.249 34.5 24.75C34.5309 23.25 35.0391 22.008 36.024 21.024C37.0089 20.04 38.2509 19.532 39.75 19.5Z" fill="white"/>
</svg>
