<svg width="48" height="48" viewBox="0 0 48 48" fill="none" xmlns="http://www.w3.org/2000/svg">
<g clip-path="url(#clip0_10263_283373)">
<path d="M24 42.7508C17.8925 42.7508 12.5325 42.3516 9.11144 42.0167C4.7806 41.5929 1.3302 38.2901 0.720518 33.9851C-0.240173 27.1665 -0.240173 20.8338 0.720518 14.0152C1.3302 9.71029 4.7806 6.40746 9.11144 5.9836C12.5324 5.64871 17.8925 5.24951 24 5.24951C30.1076 5.24951 35.4676 5.64871 38.8886 5.9836C43.2195 6.40746 46.6699 9.71029 47.2795 14.0153C48.2402 20.8338 48.2402 27.1665 47.2795 33.9852C46.6699 38.29 43.2195 41.5929 38.8886 42.0167C35.4676 42.3516 30.1076 42.7508 24 42.7508ZM24 8.99964C18.0439 8.99964 12.8147 9.3891 9.47679 9.71601C6.87364 9.97083 4.79991 11.9549 4.43371 14.541C3.97957 17.7478 3.74931 20.9302 3.74931 24.0003C3.74931 27.0703 3.97957 30.2527 4.43371 33.4594C4.79991 36.0456 6.87364 38.0297 9.47679 38.2845C12.8148 38.6113 18.0439 39.0009 24 39.0009C29.9562 39.0009 35.1854 38.6114 38.5233 38.2845C41.1264 38.0297 43.2001 36.0456 43.5663 33.4595C44.0205 30.2528 44.2507 27.0703 44.2507 24.0003C44.2507 20.9302 44.0205 17.7479 43.5663 14.5411C43.2001 11.9549 41.1264 9.97083 38.5233 9.71601C35.1854 9.3891 29.9562 8.99964 24 8.99964ZM21.5678 32.8876C19.0608 32.9217 16.8161 30.7478 16.8748 28.2111V19.7424C16.8748 18.0464 17.7582 16.5314 19.238 15.6899C20.7294 14.8416 22.5003 14.859 23.9743 15.736L31.0915 19.9704C34.1199 21.7079 34.1192 26.246 31.0915 27.983L23.9743 32.2174C23.2237 32.6639 22.3961 32.8876 21.5678 32.8876ZM21.5722 18.8206C21.3535 18.8206 21.1795 18.9001 21.0919 18.9499C20.9175 19.0491 20.625 19.2838 20.625 19.7424V28.2111C20.625 28.6697 20.9175 28.9045 21.0919 29.0036C21.2379 29.0867 21.624 29.2521 22.057 28.9944L29.1742 24.76C29.7801 24.3983 29.7809 23.5558 29.1742 23.1933L22.057 18.959C21.8837 18.8559 21.718 18.8206 21.5722 18.8206Z" fill="white"/>
</g>
<defs>
<clipPath id="clip0_10263_283373">
<rect width="48" height="48" fill="white"/>
</clipPath>
</defs>
</svg>
