<svg width="48" height="48" viewBox="0 0 48 48" fill="none" xmlns="http://www.w3.org/2000/svg">
<path fill-rule="evenodd" clip-rule="evenodd" d="M42.375 7.5C41.3395 7.5 40.5 6.6605 40.5 5.625V1.875C40.5 0.839467 39.6605 0 38.625 0C37.5895 0 36.75 0.839467 36.75 1.875V5.625C36.75 8.73156 39.2684 11.25 42.375 11.25H46.125C47.1605 11.25 48 10.4105 48 9.375C48 8.33947 47.1605 7.5 46.125 7.5H42.375Z" fill="white"/>
<path fill-rule="evenodd" clip-rule="evenodd" d="M19.2992 28.7008C20.0314 29.4331 21.2186 29.4331 21.9508 28.7008L41.0492 9.60245C41.7814 8.87022 41.7814 7.68303 41.0492 6.9508C40.317 6.21857 39.1298 6.21857 38.3975 6.9508L19.2992 26.0492C18.5669 26.7814 18.5669 27.9686 19.2992 28.7008Z" fill="white"/>
<path fill-rule="evenodd" clip-rule="evenodd" d="M0 27.375C0 38.7492 9.25081 48 20.625 48C31.9991 48 41.25 38.7492 41.25 27.375C41.25 24.7197 40.7448 22.1762 39.8244 19.8387C39.4449 18.8752 38.3563 18.4017 37.3927 18.7811C36.4292 19.1605 35.9557 20.2492 36.3351 21.2127C37.0864 23.1206 37.5 25.1986 37.5 27.375C37.5 36.6781 29.928 44.25 20.625 44.25C11.3219 44.25 3.75 36.6781 3.75 27.375C3.75 18.072 11.3219 10.5 20.625 10.5C22.8014 10.5 24.8794 10.9136 26.7873 11.6649C27.7508 12.0443 28.8395 11.5708 29.2189 10.6073C29.5983 9.64373 29.1248 8.55506 28.1613 8.17564C25.8238 7.2552 23.2803 6.75 20.625 6.75C9.2508 6.75 0 16.0009 0 27.375Z" fill="white"/>
<path fill-rule="evenodd" clip-rule="evenodd" d="M7.5 27.375C7.5 34.6237 13.3763 40.5 20.625 40.5C27.8738 40.5 33.75 34.6237 33.75 27.375C33.75 27.1305 33.7434 26.8869 33.73 26.6445C33.6731 25.6105 32.7887 24.8185 31.7547 24.8755C30.7208 24.9324 29.9287 25.8168 29.9857 26.8507C29.9952 27.0236 30 27.1984 30 27.375C30 32.5527 25.8027 36.75 20.625 36.75C15.4473 36.75 11.25 32.5527 11.25 27.375C11.25 22.1973 15.4473 18 20.625 18C20.8016 18 20.9764 18.0048 21.1493 18.0143C22.1832 18.0713 23.0676 17.2792 23.1245 16.2453C23.1815 15.2113 22.3895 14.3269 21.3555 14.27C21.1131 14.2566 20.8695 14.25 20.625 14.25C13.3763 14.25 7.5 20.1262 7.5 27.375Z" fill="white"/>
</svg>
