<svg width="48" height="48" viewBox="0 0 48 48" fill="none" xmlns="http://www.w3.org/2000/svg">
<g clip-path="url(#clip0_60_4017)">
<path d="M21 44.25H11.25C7.1145 44.25 3.75 40.8855 3.75 36.75V11.25C3.75 7.1145 7.1145 3.75 11.25 3.75H28.5C32.6355 3.75 36 7.1145 36 11.25V17.4375C36 18.4731 36.8394 19.3125 37.875 19.3125C38.9106 19.3125 39.75 18.4731 39.75 17.4375V11.25C39.75 5.04675 34.7033 0 28.5 0H11.25C5.04675 0 0 5.04675 0 11.25V36.75C0 42.9533 5.04675 48 11.25 48H21C22.0356 48 22.875 47.1606 22.875 46.125C22.875 45.0894 22.0356 44.25 21 44.25Z" fill="white"/>
<path d="M35.3438 22.6875C28.3651 22.6875 22.6875 28.3651 22.6875 35.3438C22.6875 42.3224 28.3651 48 35.3438 48C42.3224 48 48 42.3224 48 35.3438C48 28.3651 42.3224 22.6875 35.3438 22.6875ZM35.3438 44.25C30.4328 44.25 26.4375 40.2547 26.4375 35.3438C26.4375 30.4328 30.4328 26.4375 35.3438 26.4375C40.2547 26.4375 44.25 30.4328 44.25 35.3438C44.25 40.2547 40.2547 44.25 35.3438 44.25Z" fill="white"/>
<path d="M39.2812 33.4688H37.2188V31.4062C37.2188 30.3707 36.3793 29.5312 35.3438 29.5312C34.3082 29.5312 33.4688 30.3707 33.4688 31.4062V33.4688H31.4062C30.3707 33.4688 29.5312 34.3082 29.5312 35.3438C29.5312 36.3793 30.3707 37.2188 31.4062 37.2188H33.4688V39.2812C33.4688 40.3168 34.3082 41.1562 35.3438 41.1562C36.3793 41.1562 37.2188 40.3168 37.2188 39.2812V37.2188H39.2812C40.3168 37.2188 41.1562 36.3793 41.1562 35.3438C41.1562 34.3082 40.3168 33.4688 39.2812 33.4688Z" fill="white"/>
</g>
<defs>
<clipPath id="clip0_60_4017">
<rect width="48" height="48" fill="white"/>
</clipPath>
</defs>
</svg>
