<svg width="48" height="48" viewBox="0 0 48 48" fill="none" xmlns="http://www.w3.org/2000/svg">
<g clip-path="url(#clip0_1753_3981)">
<path d="M15 22.5C13.9644 22.5 13.125 21.6606 13.125 20.625V13.9016L12.5759 14.4508C11.8436 15.1831 10.6563 15.1831 9.92414 14.4508C9.19195 13.7186 9.19195 12.5314 9.92414 11.7992L13.6741 8.0492C14.2104 7.51295 15.0167 7.35245 15.7175 7.64279C16.4181 7.93295 16.875 8.61666 16.875 9.37501V20.625C16.875 21.6606 16.0355 22.5 15 22.5Z" fill="white"/>
<path d="M36.7502 40.5H29.2502C28.4432 40.5 27.7266 39.9835 27.4714 39.2179C27.2161 38.4522 27.4795 37.6091 28.1253 37.1249L34.1232 32.6269C34.6011 32.2685 34.8752 31.7211 34.8752 31.125C34.8752 30.0911 34.0341 29.25 33.0002 29.25C31.9663 29.25 31.1252 30.0911 31.1252 31.125C31.1252 32.1606 30.2857 33 29.2502 33C28.2146 33 27.3752 32.1606 27.3752 31.125C27.3752 28.0234 29.8986 25.5 33.0002 25.5C36.1018 25.5 38.6252 28.0234 38.6252 31.125C38.6252 32.8863 37.7833 34.5693 36.3731 35.627L34.8756 36.75H36.7502C37.7857 36.75 38.6252 37.5894 38.6252 38.625C38.6252 39.6606 37.7857 40.5 36.7502 40.5Z" fill="white"/>
<path d="M15 30C6.72891 30 0 23.271 0 15C0 6.729 6.72891 0 15 0C23.2711 0 30 6.729 30 15C30 23.271 23.2711 30 15 30ZM15 3.75C8.79675 3.75 3.75 8.79675 3.75 15C3.75 21.2032 8.79675 26.25 15 26.25C21.2032 26.25 26.25 21.2032 26.25 15C26.25 8.79675 21.2032 3.75 15 3.75Z" fill="white"/>
<path d="M32.9999 48C29.209 48 25.5903 46.5823 22.8104 44.0079C20.0464 41.4484 18.3558 37.9777 18.0503 34.2355C17.966 33.2034 18.7344 32.2984 19.7665 32.2141C20.7988 32.1298 21.7036 32.8981 21.7879 33.9303C22.2603 39.7171 27.1854 44.25 32.9999 44.25C39.2032 44.25 44.2499 39.2032 44.2499 33C44.2499 27.1854 39.7169 22.2605 33.9302 21.7878C32.8981 21.7035 32.1297 20.7985 32.214 19.7663C32.2983 18.7341 33.2038 17.9659 34.2355 18.0501C37.9778 18.3558 41.4484 20.0464 44.008 22.8104C46.5822 25.5904 47.9999 29.2091 47.9999 33C47.9999 41.271 41.271 48 32.9999 48Z" fill="white"/>
</g>
<defs>
<clipPath id="clip0_1753_3981">
<rect width="48" height="48" fill="white"/>
</clipPath>
</defs>
</svg>
