<svg width="48" height="48" viewBox="0 0 48 48" fill="none" xmlns="http://www.w3.org/2000/svg">
<path fill-rule="evenodd" clip-rule="evenodd" d="M11.3624 35.3513C11.2848 35.2737 11.1591 35.2737 11.0815 35.3513L8.55602 37.8768L10.1001 39.4209L12.6256 36.8954C12.7031 36.8178 12.7031 36.6921 12.6256 36.6145L11.3624 35.3513ZM9.95781 34.2276C10.656 33.5295 11.7879 33.5295 12.4861 34.2276L13.7492 35.4908C14.4474 36.189 14.4474 37.3209 13.7492 38.0191L12.3402 39.4281L12.5808 39.6688C13.1994 40.2874 13.1994 41.2903 12.5808 41.9089C11.9622 42.5274 10.9593 42.5274 10.3408 41.9089L6.0694 37.6375C5.45082 37.0189 5.45082 36.016 6.0694 35.3974C6.68798 34.7789 7.69089 34.7789 8.30947 35.3974L8.54874 35.6367L9.95781 34.2276Z" fill="white"/>
<path fill-rule="evenodd" clip-rule="evenodd" d="M27.7651 10.9453C27.0669 10.2472 27.0669 9.11523 27.7651 8.41706L29.6289 6.55328C30.327 5.85512 31.459 5.85512 32.1571 6.55328L41.4046 15.8007C42.1027 16.4989 42.1027 17.6308 41.4046 18.329L39.5408 20.1928C38.8426 20.8909 37.7107 20.8909 37.0125 20.1928L27.7651 10.9453ZM28.8888 9.54074C28.8112 9.61831 28.8112 9.74408 28.8888 9.82166L38.1362 19.0691C38.2138 19.1467 38.3396 19.1467 38.4171 19.0691L40.2809 17.2053C40.3585 17.1277 40.3585 17.002 40.2809 16.9244L31.0335 7.67696C30.9559 7.59938 30.8301 7.59938 30.7526 7.67696L28.8888 9.54074Z" fill="white"/>
<path fill-rule="evenodd" clip-rule="evenodd" d="M27.4829 26.6491C26.4525 26.6491 25.6172 27.4844 25.6172 28.5148C25.6172 29.5453 26.4525 30.3806 27.4829 30.3806C28.5134 30.3806 29.3487 29.5453 29.3487 28.5148C29.3487 27.4844 28.5134 26.6491 27.4829 26.6491ZM24.0281 28.5148C24.0281 26.6068 25.5749 25.06 27.4829 25.06C29.391 25.06 30.9378 26.6068 30.9378 28.5148C30.9378 30.4229 29.391 31.9697 27.4829 31.9697C25.5749 31.9697 24.0281 30.4229 24.0281 28.5148Z" fill="white"/>
<path fill-rule="evenodd" clip-rule="evenodd" d="M25.599 13.2887C26.2972 12.5905 27.4291 12.5905 28.1273 13.2887L34.6738 19.8352C35.372 20.5334 35.372 21.6653 34.6738 22.3635L31.5167 25.5206L30.9549 24.9703C30.0593 24.0929 28.835 23.5532 27.4831 23.5532C26.5456 23.5532 25.671 23.8125 24.9245 24.2628L24.392 24.5841L20.6119 20.804C19.9138 20.1059 19.9138 18.9739 20.6119 18.2758L25.599 13.2887ZM27.0036 14.4124C26.926 14.3348 26.8003 14.3348 26.7227 14.4124L21.7356 19.3994C21.658 19.477 21.658 19.6028 21.7356 19.6803L24.6583 22.603C25.5142 22.1934 26.4727 21.9641 27.4831 21.9641C28.9837 21.9641 30.3674 22.4694 31.4718 23.3182L33.5501 21.2398C33.6277 21.1622 33.6277 21.0365 33.5501 20.9589L27.0036 14.4124ZM18.4183 23.1472C19.1165 22.449 20.2484 22.449 20.9466 23.1472L23.4135 25.6141L23.1276 26.1364C22.7415 26.8418 22.5217 27.6514 22.5217 28.5147C22.5217 29.2813 22.695 30.0053 23.0039 30.6515L23.2463 31.1586L18.5766 35.8283C17.8785 36.5264 16.7465 36.5264 16.0484 35.8283L12.1569 31.9368C11.4588 31.2387 11.4588 30.1067 12.1569 29.4086L18.4183 23.1472ZM19.8229 24.2709C19.7453 24.1933 19.6195 24.1933 19.542 24.2709L13.2806 30.5322C13.203 30.6098 13.203 30.7356 13.2806 30.8132L17.172 34.7046C17.2496 34.7822 17.3754 34.7822 17.4529 34.7046L21.3466 30.811C21.0788 30.0956 20.9326 29.3215 20.9326 28.5147C20.9326 27.5926 21.1235 26.7136 21.4683 25.9163L19.8229 24.2709Z" fill="white"/>
</svg>
