<svg width="48" height="48" viewBox="0 0 48 48" fill="none" xmlns="http://www.w3.org/2000/svg"><path d="M4.50272 31.6251H0v8.2202h4.50272v-8.2202zM16.9583 10.507C14.5412 9.21529 12.8649 9 8.90797 9H0v18.7108h8.86899c3.52811 0 6.15951-.2153 8.47911-1.7615 2.534-1.6832 3.84-4.482 3.84-7.7114 0-3.5033-1.6179-6.3021-4.2298-7.7309zM9.90208 23.7964H4.50272V13.0122l5.08748-.0391c4.6392-.0587 6.9587 1.5853 6.9587 5.304 0 3.9927-2.8653 5.5193-6.64682 5.5193zM23.7515 9h7.524c11.2665.07829 16.6854 5.5976 16.7244 15.501.0389 8.4355-4.3078 15.2465-15.9837 15.3639H23.771V9h-.0195zm4.5612 27.0092h2.6314c8.1673 0 12.4361-3.1315 12.4361-11.5278-.0195-7.3786-4.2493-11.6062-12.0072-11.6062-1.501 0-3.0603.0392-3.0603.0392v23.0948z" fill="#06AC38"/></svg>