<svg width="48" height="48" viewBox="0 0 48 48" fill="none" xmlns="http://www.w3.org/2000/svg">
<g clip-path="url(#clip0_1806_4171)">
<path d="M44.1732 6.19609C43.7197 3.47523 41.3864 1.50043 38.6251 1.50043H9.37571C6.61445 1.50043 4.28115 3.47523 3.82759 6.19609C-0.153234 30.245 0.000794646 28.726 0.000794646 29.6249C0.000794646 32.7264 2.52412 35.2498 5.62568 35.2498H22.1254V42.7496H16.5005C15.4649 42.7496 14.6255 43.589 14.6255 44.6246C14.6255 45.6601 15.4649 46.4995 16.5005 46.4995H31.5002C32.5357 46.4995 33.3751 45.6601 33.3751 44.6246C33.3751 43.589 32.5357 42.7496 31.5002 42.7496H25.8753V35.2498H42.375C45.4765 35.2498 47.9999 32.7264 47.9999 29.6249C47.9999 28.7763 48.0907 29.8624 44.1732 6.19609ZM44.2499 29.6249C44.2499 30.6587 43.4088 31.4998 42.375 31.4998H5.62568C4.59183 31.4998 3.75072 30.6587 3.75072 29.6249C3.75072 29.3253 3.54082 30.7825 7.52643 6.81257C7.67727 5.90734 8.455 5.25035 9.37561 5.25035H38.625C39.5456 5.25035 40.3234 5.90734 40.4742 6.81257C44.4584 30.7739 44.2499 29.325 44.2499 29.6249Z" fill="white"/>
<path d="M23.9989 27.7504C23.717 27.7504 23.431 27.6866 23.1618 27.552C22.2356 27.0889 21.8602 25.9627 22.3233 25.0365L24.7165 20.2501H20.2504C19.6006 20.2501 18.9971 19.9136 18.6555 19.3609C18.3139 18.8081 18.2828 18.1178 18.5735 17.5366L22.3234 10.0368C22.7865 9.11061 23.9127 8.73515 24.8389 9.19827C25.7651 9.66138 26.1405 10.7876 25.6774 11.7138L23.2842 16.5002H27.7503C28.4001 16.5002 29.0036 16.8367 29.3452 17.3894C29.6868 17.9422 29.7179 18.6324 29.4272 19.2137L25.6773 26.7135C25.3488 27.3705 24.6866 27.7503 23.9989 27.7504Z" fill="white"/>
</g>
<defs>
<clipPath id="clip0_1806_4171">
<rect width="48" height="48" fill="white"/>
</clipPath>
</defs>
</svg>
