<svg width="48" height="48" viewBox="0 0 48 48" fill="none" xmlns="http://www.w3.org/2000/svg">
<path d="M23.0821 48C22.5706 48 22.0489 47.8987 21.5411 47.6891C19.8182 46.9776 18.8612 45.2647 19.1599 43.4266L21.0463 31.9671H13.7278C11.4437 31.9671 9.38442 30.7199 8.35366 28.7123C7.34549 26.7488 7.51383 24.4088 8.7897 22.5895L21.827 1.75295C21.8479 1.71958 21.8698 1.68687 21.8928 1.65491C22.98 0.138628 24.8703 -0.40173 26.5964 0.310249C28.3191 1.02063 29.2769 2.73253 28.98 4.56994L27.0603 16.1178H34.315C36.6106 16.1178 38.674 17.3589 39.6998 19.3571C40.7097 21.3241 40.5423 23.5863 39.2546 25.4218L26.3152 46.2421C26.2935 46.2771 26.2705 46.3114 26.2465 46.3451C25.4786 47.4158 24.3102 47.9999 23.0821 48ZM24.9655 3.80538C24.9655 3.80538 11.8968 24.6898 11.8738 24.7218C11.1613 25.7153 11.5071 26.6458 11.6889 26.9998C12.0805 27.7625 12.8427 28.2178 13.7277 28.2178H23.2547C23.8051 28.2178 24.3276 28.4598 24.6838 28.8794C25.0401 29.299 25.1938 29.8538 25.1044 30.397L22.8599 44.0318C22.8478 44.1063 22.8378 44.1681 22.9721 44.2237C23.0848 44.27 23.1342 44.2414 23.1726 44.1958L36.1001 23.3947C36.1219 23.3597 36.1448 23.3254 36.1688 23.2917C36.8718 22.3114 36.5398 21.4111 36.3645 21.0695C35.9778 20.3165 35.2117 19.867 34.3149 19.867H24.8481C24.2972 19.867 23.7742 19.6246 23.418 19.2044C23.0618 18.7841 22.9085 18.2285 22.9988 17.6849L25.2799 3.96341C25.2913 3.89348 25.3013 3.83162 25.1669 3.77623C25.0531 3.72936 25.0039 3.75907 24.9655 3.80538Z" fill="white"/>
</svg>
