<svg width="48" height="48" viewBox="0 0 48 48" fill="none" xmlns="http://www.w3.org/2000/svg">
<g clip-path="url(#clip0_60_4063)">
<path d="M23.3842 30.2109H23.3832C22.3487 30.2016 21.5166 29.3554 21.526 28.3199L21.5339 27.4361C21.5339 27.4359 21.5339 27.4357 21.5339 27.4355L21.5339 27.4351L21.6385 27.4361C21.6385 27.3856 21.6411 27.3343 21.6464 27.2839L23.3842 30.2109ZM23.3842 30.2109H23.3842M23.3842 30.2109H23.3842M24.7306 34.9714L24.7286 34.9734C24.3731 35.3195 23.8958 35.5162 23.3992 35.5162C22.9123 35.5162 22.4256 35.32 22.0783 34.9729M24.7306 34.9714L25.1688 33.6421C25.1688 34.111 24.983 34.5622 24.6557 34.8985C24.3194 35.2258 23.8682 35.4116 23.3992 35.4116C22.9392 35.4116 22.4791 35.2258 22.1517 34.8985C21.8155 34.5711 21.6297 34.111 21.6297 33.6421C21.6297 33.182 21.8155 32.7219 22.1517 32.3945L22.0778 32.3206C22.0779 32.3204 22.0781 32.3202 22.0783 32.32M24.7306 34.9714C25.0767 34.6159 25.2734 34.1386 25.2734 33.6421C25.2734 33.155 25.0771 32.6678 24.7202 32.3201M24.7306 34.9714L24.7202 32.3201M22.0783 34.9729C22.0781 34.9727 22.0779 34.9726 22.0778 34.9724L22.1516 34.8985L22.0788 34.9734C22.0786 34.9732 22.0784 34.973 22.0783 34.9729ZM22.0783 34.9729C21.7212 34.625 21.5251 34.1377 21.5251 33.6421C21.5251 33.1549 21.7215 32.6677 22.0783 32.32M22.0783 32.32C22.7738 31.6252 24.0248 31.6252 24.7202 32.3201M22.0783 32.32L24.7202 32.3201M23.3842 30.2109H23.3842M23.3842 30.2109H23.3842M23.3842 30.2109H23.3843M23.3842 30.2109H23.3843M23.3843 30.2109H23.3843M23.3843 30.2109H23.3843M23.3843 30.2109H23.3843M23.3843 30.2109H23.3843M23.3843 30.2109H23.3844M23.3843 30.2109H23.3844M23.3844 30.2109H23.3844M23.3844 30.2109H23.3844M23.3844 30.2109H23.3844M23.3844 30.2109H23.3844M23.3844 30.2109H23.3844M23.3844 30.2109H23.3844M23.3844 30.2109H23.3845M23.3844 30.2109H23.3845M23.3845 30.2109H23.3845M23.3845 30.2109H23.3845M23.3845 30.2109H23.3845M23.3845 30.2109H23.3845M23.3845 30.2109H23.3846M23.3845 30.2109H23.3846M23.3846 30.2109H23.3846M23.3846 30.2109H23.3846M23.3846 30.2109H23.3846M23.3846 30.2109H23.3846M23.3846 30.2109H23.3847M23.3846 30.2109H23.3847M23.3847 30.2109H23.3847M23.3847 30.2109H23.3847M23.3847 30.2109H23.3847M23.3847 30.2109H23.3847M23.3847 30.2109H23.3848M23.3847 30.2109H23.3848M23.3848 30.2109H23.3848M23.3848 30.2109H23.3848M23.3848 30.2109H23.3848M23.3848 30.2109H23.3848M23.3848 30.2109H23.3848M23.3848 30.2109H23.3848M23.3848 30.2109H23.3849M23.3848 30.2109H23.3849M23.3849 30.2109H23.3849M23.3849 30.2109H23.3849M23.3849 30.2109H23.3849M23.3849 30.2109H23.3849M23.3849 30.2109H23.385M23.3849 30.2109H23.385M23.385 30.2109H23.385M23.385 30.2109H23.385M23.385 30.2109H23.385M23.385 30.2109H23.385M23.385 30.2109H23.3851M23.385 30.2109H23.3851M23.3851 30.2109H23.3851M23.3851 30.2109H23.3851M23.3851 30.2109H23.3851M23.3851 30.2109H23.3851M23.3851 30.2109H23.3852M23.3851 30.2109H23.3852M23.3852 30.2109H23.3852M23.3852 30.2109H23.3852M23.3852 30.2109H23.3852M23.3852 30.2109H23.3852M23.3852 30.2109H23.3853M23.3852 30.2109H23.3853M23.3853 30.2109H23.3853M23.3853 30.2109H23.3853M23.3853 30.2109H23.3853M23.3853 30.2109H23.3853M23.3853 30.2109H23.3853M23.3853 30.2109H23.3853M23.3853 30.2109H23.3854M23.3853 30.2109H23.3854M23.3854 30.2109H23.3854M23.3854 30.2109H23.3854M23.3854 30.2109H23.3854M23.3854 30.2109H23.3854M23.3854 30.2109H23.3855M23.3854 30.2109H23.3855M23.3855 30.2109H23.3855M23.3855 30.2109H23.3855M23.3855 30.2109H23.3855M23.3855 30.2109H23.3855M23.3855 30.2109H23.3856M23.3855 30.2109H23.3856M23.3856 30.2109H23.3856M23.3856 30.2109H23.3856M23.3856 30.2109H23.3856M23.3856 30.2109H23.3856M23.3856 30.2109H23.3857M23.3856 30.2109H23.3857M23.3857 30.2109H23.3857M23.3857 30.2109H23.3857M23.3857 30.2109H23.3857M23.3857 30.2109H23.3857M23.3857 30.2109H23.3858M23.3857 30.2109H23.3858M23.3858 30.2109H23.3858M23.3858 30.2109H23.3858M23.3858 30.2109H23.3858M23.3858 30.2109H23.3858M23.3858 30.2109H23.3858M23.3858 30.2109H23.3858M23.3858 30.2109H23.3859M23.3858 30.2109H23.3859M23.3859 30.2109H23.3859M23.3859 30.2109H23.3859M23.3859 30.2109H23.3859M23.3859 30.2109H23.3859M23.3859 30.2109H23.386M23.3859 30.2109H23.386M23.386 30.2109H23.386M23.386 30.2109H23.386M23.386 30.2109H23.386M23.386 30.2109H23.386M23.386 30.2109H23.3861M23.386 30.2109H23.3861M23.3861 30.2109H23.3861M23.3861 30.2109H23.3861M23.3861 30.2109H23.3861M23.3861 30.2109H23.3861M23.3861 30.2109H23.3862M23.3861 30.2109H23.3862M23.3862 30.2109H23.3862M23.3862 30.2109H23.3862M23.3862 30.2109H23.3862M23.3862 30.2109H23.3862M23.3862 30.2109H23.3862M23.3862 30.2109H23.3862M23.3862 30.2109H23.3863M23.3862 30.2109H23.3863M23.3863 30.2109H23.3863M23.3863 30.2109H23.3863M23.3863 30.2109H23.3863M23.3863 30.2109H23.3863M23.3863 30.2109H23.3864M23.3863 30.2109H23.3864M23.3864 30.2109H23.3864M23.3864 30.2109H23.3864M23.3864 30.2109H23.3864M23.3864 30.2109H23.3864M23.3864 30.2109H23.3865M23.3864 30.2109H23.3865M23.3865 30.2109H23.3865M23.3865 30.2109H23.3865M23.3865 30.2109H23.3865M23.3865 30.2109H23.3865M23.3865 30.2109H23.3866M23.3865 30.2109H23.3866M23.3866 30.2109H23.3866M23.3866 30.2109H23.3866M23.3866 30.2109H23.3866M23.3866 30.2109H23.3866M23.3866 30.2109H23.3867M23.3866 30.2109H23.3867M23.3867 30.2109H23.3867M23.3867 30.2109H23.3867M23.3867 30.2109H23.3867M23.3867 30.2109H23.3867M23.3867 30.2109H23.3867M23.3867 30.2109H23.3867M23.3867 30.2109H23.3868M23.3867 30.2109H23.3868M23.3868 30.2109H23.3868M23.3868 30.2109H23.3868M23.3868 30.2109H23.3868M23.3868 30.2109H23.3868M23.3868 30.2109H23.3869M23.3868 30.2109H23.3869M23.3869 30.2109H23.3869M23.3869 30.2109H23.3869M23.3869 30.2109H23.3869M23.3869 30.2109H23.3869M23.3869 30.2109H23.387M23.3869 30.2109H23.387M23.387 30.2109H23.387M23.387 30.2109H23.387M23.387 30.2109H23.387M23.387 30.2109H23.387M23.387 30.2109H23.3871M23.387 30.2109H23.3871M23.3871 30.2109H23.3871M23.3871 30.2109H23.3871M23.3871 30.2109H23.3871M23.3871 30.2109H23.3871M23.3871 30.2109H23.3872M23.3871 30.2109H23.3872M23.3872 30.2109H23.3872M23.3872 30.2109H23.3872M23.3872 30.2109H23.3872M23.3872 30.2109H23.3872M23.3872 30.2109H23.3872M23.3872 30.2109H23.3872M23.3872 30.2109H23.3873M23.3872 30.2109H23.3873M23.3873 30.2109H23.3873M23.3873 30.2109H23.3873M23.3873 30.2109H23.3873M23.3873 30.2109H23.3873M23.3873 30.2109H23.3874M23.3873 30.2109H23.3874M23.3874 30.2109H23.3874M23.3874 30.2109H23.3874M23.3874 30.2109H23.3874M23.3874 30.2109H23.3874M23.3874 30.2109H23.3875M23.3874 30.2109H23.3875M23.3875 30.2109H23.3875M23.3875 30.2109H23.3875M23.3875 30.2109H23.3875M23.3875 30.2109H23.3875M23.3875 30.2109H23.3876M23.3875 30.2109H23.3876M23.3876 30.2109H23.3876M23.3876 30.2109H23.3876M23.3876 30.2109H23.3876M23.3876 30.2109H23.3876M23.3876 30.2109H23.3876M23.3876 30.2109H23.3876M23.3876 30.2109H23.3877M23.3876 30.2109H23.3877M23.3877 30.2109H23.3877M23.3877 30.2109H23.3877M23.3877 30.2109H23.3877M23.3877 30.2109H23.3877M23.3877 30.2109H23.3878M23.3877 30.2109H23.3878M23.3878 30.2109H23.3878M23.3878 30.2109H23.3878M23.3878 30.2109H23.3878M23.3878 30.2109H23.3878M23.3878 30.2109H23.3879M23.3878 30.2109H23.3879M23.3879 30.2109H23.3879M23.3879 30.2109H23.3879M23.3879 30.2109H23.3879M23.3879 30.2109H23.3879M23.3879 30.2109H23.388M23.3879 30.2109H23.388M23.388 30.2109H23.388M23.388 30.2109H23.388M23.388 30.2109H23.388M23.388 30.2109H23.388M23.388 30.2109H23.3881M23.388 30.2109H23.3881M23.3881 30.2109H23.3881M23.3881 30.2109H23.3881M23.3881 30.2109H23.3881M23.3881 30.2109H23.3881M23.3881 30.2109H23.3881M23.3881 30.2109H23.3881M23.3881 30.2109H23.3882M23.3881 30.2109H23.3882M23.3882 30.2109H23.3882M23.3882 30.2109H23.3882M23.3882 30.2109H23.3882M23.3882 30.2109H23.3882M23.3882 30.2109H23.3883M23.3882 30.2109H23.3883M23.3883 30.2109H23.3883M23.3883 30.2109H23.3883M23.3883 30.2109H23.3883M23.3883 30.2109H23.3883M23.3883 30.2109H23.3884M23.3883 30.2109H23.3884M23.3884 30.2109H23.3884M23.3884 30.2109H23.3884M23.3884 30.2109H23.3884M23.3884 30.2109H23.3884M23.3884 30.2109H23.3885M23.3884 30.2109H23.3885M23.3885 30.2109H23.3885M23.3885 30.2109H23.3885M23.3885 30.2109H23.3885M23.3885 30.2109H23.3885M23.3885 30.2109H23.3886M23.3885 30.2109H23.3886M23.3886 30.2109H23.3886M23.3886 30.2109H23.3886M23.3886 30.2109H23.3886M23.3886 30.2109H23.3886M23.3886 30.2109H23.3886M23.3886 30.2109H23.3886M23.3886 30.2109H23.3887M23.3886 30.2109H23.3887M23.3887 30.2109H23.3887M23.3887 30.2109H23.3887M23.3887 30.2109H23.3887M23.3887 30.2109H23.3887M23.3887 30.2109H23.3888M23.3887 30.2109H23.3888M23.3888 30.2109H23.3888M23.3888 30.2109H23.3888M23.3888 30.2109H23.3888M23.3888 30.2109H23.3888M23.3888 30.2109H23.3889M23.3888 30.2109H23.3889M23.3889 30.2109H23.3889M23.3889 30.2109H23.3889M23.3889 30.2109H23.3889M23.3889 30.2109H23.3889M23.3889 30.2109H23.389M23.3889 30.2109H23.389M23.389 30.2109H23.389M23.389 30.2109H23.389M23.389 30.2109H23.389M23.389 30.2109H23.389M23.389 30.2109H23.389M23.389 30.2109H23.389M23.389 30.2109H23.3891M23.389 30.2109H23.3891M23.3891 30.2109H23.3891M23.3891 30.2109H23.3891M23.3891 30.2109H23.3891M23.3891 30.2109H23.3891M23.3891 30.2109H23.3892M23.3891 30.2109H23.3892M23.3892 30.2109H23.3892M23.3892 30.2109H23.3892M23.3892 30.2109H23.3892M23.3892 30.2109H23.3892M23.3892 30.2109H23.3893M23.3892 30.2109H23.3893M23.3893 30.2109H23.3893M23.3893 30.2109H23.3893M23.3893 30.2109H23.3893M23.3893 30.2109H23.3893M23.3893 30.2109H23.3894M23.3893 30.2109H23.3894M23.3894 30.2109H23.3894M23.3894 30.2109H23.3894M23.3894 30.2109H23.3894M23.3894 30.2109H23.3894M23.3894 30.2109H23.3895M23.3894 30.2109H23.3895M23.3895 30.2109H23.3895M23.3895 30.2109H23.3895M23.3895 30.2109H23.3895M23.3895 30.2109H23.3895M23.3895 30.2109H23.3895M23.3895 30.2109H23.3895M23.3895 30.2109H23.3896M23.3895 30.2109H23.3896M23.3896 30.2109H23.3896M23.3896 30.2109H23.3896M23.3896 30.2109H23.3896M23.3896 30.2109H23.3896M23.3896 30.2109H23.3897M23.3896 30.2109H23.3897M23.3897 30.2109H23.3897M23.3897 30.2109H23.3897M23.3897 30.2109H23.3897M23.3897 30.2109H23.3897M23.3897 30.2109H23.3898M23.3897 30.2109H23.3898M23.3898 30.2109H23.3898M23.3898 30.2109H23.3898M23.3898 30.2109H23.3898M23.3898 30.2109H23.3898M23.3898 30.2109H23.3899M23.3898 30.2109H23.3899M23.3899 30.2109H23.3899M23.3899 30.2109H23.3899M23.3899 30.2109H23.3899M23.3899 30.2109H23.3899M23.3899 30.2109H23.3899M23.3899 30.2109H23.3899M23.3899 30.2109H23.39M23.3899 30.2109H23.39M23.39 30.2109H23.39M23.39 30.2109H23.39M23.39 30.2109H23.39M23.39 30.2109H23.39M23.39 30.2109H23.3901M23.39 30.2109H23.3901M23.3901 30.2109H23.3901M23.3901 30.2109H23.3901M23.3901 30.2109H23.3901M23.3901 30.2109H23.3901M23.3901 30.2109H23.3902M23.3901 30.2109H23.3902M23.3902 30.2109H23.3902M23.3902 30.2109H23.3902M23.3902 30.2109H23.3902M23.3902 30.2109H23.3902M23.3902 30.2109H23.3903M23.3902 30.2109H23.3903M23.3903 30.2109H23.3903M23.3903 30.2109H23.3903M23.3903 30.2109H23.3903M23.3903 30.2109H23.3903M23.3903 30.2109H23.3904M23.3903 30.2109H23.3904M23.3904 30.2109H23.3904M23.3904 30.2109H23.3904M23.3904 30.2109H23.3904M23.3904 30.2109H23.3904M23.3904 30.2109H23.3904M23.3904 30.2109H23.3904M23.3904 30.2109H23.3905M23.3904 30.2109H23.3905M23.3905 30.2109H23.3905M23.3905 30.2109H23.3905M23.3905 30.2109H23.3905M23.3905 30.2109H23.3905M23.3905 30.2109H23.3906M23.3905 30.2109H23.3906M23.3906 30.2109H23.3906M23.3906 30.2109H23.3906M23.3906 30.2109H23.3906M23.3906 30.2109H23.3906M23.3906 30.2109H23.3907M23.3906 30.2109H23.3907M23.3907 30.2109H23.3907M23.3907 30.2109H23.3907M23.3907 30.2109H23.3907M23.3907 30.2109H23.3907M23.3907 30.2109H23.3908M23.3907 30.2109H23.3908M23.3908 30.2109H23.3908M23.3908 30.2109H23.3908M23.3908 30.2109H23.3908M23.3908 30.2109H23.3908M23.3908 30.2109H23.3909M23.3908 30.2109H23.3909M23.3909 30.2109H23.3909M23.3909 30.2109H23.3909M23.3909 30.2109H23.3909M23.3909 30.2109H23.3909M23.3909 30.2109H23.3909M23.3909 30.2109H23.3909M23.3909 30.2109H23.391M23.3909 30.2109H23.391M23.391 30.2109H23.391M23.391 30.2109H23.391M23.391 30.2109H23.391M23.391 30.2109H23.391M23.391 30.2109H23.3911M23.391 30.2109H23.3911M23.3911 30.2109H23.3911M23.3911 30.2109H23.3911M23.3911 30.2109H23.3911M23.3911 30.2109H23.3911M23.3911 30.2109H23.3912M23.3911 30.2109H23.3912M23.3912 30.2109H23.3912M23.3912 30.2109H23.3912M23.3912 30.2109H23.3912M23.3912 30.2109H23.3912M23.3912 30.2109H23.3913M23.3912 30.2109H23.3913M23.3913 30.2109H23.3913M23.3913 30.2109H23.3913M23.3913 30.2109H23.3913M23.3913 30.2109H23.3913M23.3913 30.2109H23.3913M23.3913 30.2109H23.3913M23.3913 30.2109H23.3914M23.3913 30.2109H23.3914M23.3914 30.2109H23.3914M23.3914 30.2109H23.3914M23.3914 30.2109H23.3914M23.3914 30.2109H23.3914M23.3914 30.2109H23.3915M23.3914 30.2109H23.3915M23.3915 30.2109H23.3915M23.3915 30.2109H23.3915M23.3915 30.2109H23.3915M23.3915 30.2109H23.3915M23.3915 30.2109H23.3916M23.3915 30.2109H23.3916M23.3916 30.2109H23.3916M23.3916 30.2109H23.3916M23.3916 30.2109H23.3916M23.3916 30.2109H23.3916M23.3916 30.2109H23.3917M23.3916 30.2109H23.3917M23.3917 30.2109H23.3917M23.3917 30.2109H23.3917M23.3917 30.2109H23.3917M23.3917 30.2109H23.3917M23.3917 30.2109H23.3918M23.3917 30.2109H23.3918M23.3918 30.2109H23.3918M23.3918 30.2109H23.3918M23.3918 30.2109H23.3918M23.3918 30.2109H23.3918M23.3918 30.2109H23.3918M23.3918 30.2109H23.3918M23.3918 30.2109H23.3919M23.3918 30.2109H23.3919M23.3919 30.2109H23.3919M23.3919 30.2109H23.3919M23.3919 30.2109H23.3919M23.3919 30.2109H23.3919M23.3919 30.2109H23.392M23.3919 30.2109H23.392M23.392 30.2109H23.392M23.392 30.2109H23.392M23.392 30.2109H23.392M23.392 30.2109H23.392M23.392 30.2109H23.3921M23.392 30.2109H23.3921M23.3921 30.2109H23.3921M23.3921 30.2109H23.3921M23.3921 30.2109H23.3921M23.3921 30.2109H23.3921M23.3921 30.2109H23.3922M23.3921 30.2109H23.3922M23.3922 30.2109H23.3922M23.3922 30.2109H23.3922M23.3922 30.2109H23.3922M23.3922 30.2109H23.3922M23.3922 30.2109H23.3923M23.3922 30.2109H23.3923M23.3923 30.2109H23.3923M23.3923 30.2109H23.3923M23.3923 30.2109H23.3923M23.3923 30.2109H23.3923M23.3923 30.2109H23.3923M23.3923 30.2109H23.3923M23.3923 30.2109H23.3924M23.3923 30.2109H23.3924M23.3924 30.2109H23.3924M23.3924 30.2109H23.3924M23.3924 30.2109H23.3924M23.3924 30.2109H23.3924M23.3924 30.2109H23.3925M23.3924 30.2109H23.3925M23.3925 30.2109H23.3925M23.3925 30.2109H23.3925M23.3925 30.2109H23.3925M23.3925 30.2109H23.3925M23.3925 30.2109H23.3926M23.3925 30.2109H23.3926M23.3926 30.2109H23.3926M23.3926 30.2109H23.3926M23.3926 30.2109H23.3926M23.3926 30.2109H23.3926M23.3926 30.2109H23.3927M23.3926 30.2109H23.3927M23.3927 30.2109H23.3927M23.3927 30.2109H23.3927M23.3927 30.2109H23.3927M23.3927 30.2109H23.3927M23.3927 30.2109H23.3927M23.3927 30.2109H23.3927M23.3927 30.2109H23.3928M23.3927 30.2109H23.3928M23.3928 30.2109H23.3928M23.3928 30.2109H23.3928M23.3928 30.2109H23.3928M23.3928 30.2109H23.3928M23.3928 30.2109H23.3929M23.3928 30.2109H23.3929M23.3929 30.2109H23.3929M23.3929 30.2109H23.3929M23.3929 30.2109H23.3929M23.3929 30.2109H23.3929M23.3929 30.2109H23.393M23.3929 30.2109H23.393M23.393 30.2109H23.393M23.393 30.2109H23.393M23.393 30.2109H23.393M23.393 30.2109H23.393M23.393 30.2109H23.3931M23.393 30.2109H23.3931M23.3931 30.2109H23.3931M23.3931 30.2109H23.3931M23.3931 30.2109H23.3931M23.3931 30.2109H23.3931M23.3931 30.2109H23.3932M23.3931 30.2109H23.3932M23.3932 30.2109H23.3932M23.3932 30.2109H23.3932M23.3932 30.2109H23.3932M23.3932 30.2109H23.3932M23.3932 30.2109H23.3932M23.3932 30.2109H23.3932M23.3932 30.2109H23.3933M23.3932 30.2109H23.3933M23.3933 30.2109H23.3933M23.3933 30.2109H23.3933M23.3933 30.2109H23.3933M23.3933 30.2109H23.3933M23.3933 30.2109H23.3934M23.3933 30.2109H23.3934M23.3934 30.2109H23.3934M23.3934 30.2109H23.3934M23.3934 30.2109H23.3934M23.3934 30.2109H23.3934M23.3934 30.2109H23.3935M23.3934 30.2109H23.3935M23.3935 30.2109H23.3935M23.3935 30.2109H23.3935M23.3935 30.2109H23.3935M23.3935 30.2109H23.3935M23.3935 30.2109H23.3936M23.3935 30.2109H23.3936M23.3936 30.2109H23.3936M23.3936 30.2109H23.3936M23.3936 30.2109H23.3936M23.3936 30.2109H23.3936M23.3936 30.2109H23.3937M23.3936 30.2109H23.3937M23.3937 30.2109H23.3937M23.3937 30.2109H23.3937M23.3937 30.2109H23.3937M23.3937 30.2109H23.3937M23.3937 30.2109H23.3937M23.3937 30.2109H23.3937M23.3937 30.2109H23.3938M23.3937 30.2109H23.3938M23.3938 30.2109H23.3938M23.3938 30.2109H23.3938M23.3938 30.2109H23.3938M23.3938 30.2109H23.3938M23.3938 30.2109H23.3939M23.3938 30.2109H23.3939M23.3939 30.2109H23.3939M23.3939 30.2109H23.3939M23.3939 30.2109H23.3939M23.3939 30.2109H23.3939M23.3939 30.2109H23.394M23.3939 30.2109H23.394M23.394 30.2109H23.394M23.394 30.2109H23.394M23.394 30.2109H23.394M23.394 30.2109H23.394M23.394 30.2109H23.3941M23.394 30.2109H23.3941M23.3941 30.2109H23.3941M23.3941 30.2109H23.3941M23.3941 30.2109H23.3941M23.3941 30.2109H23.3941M23.3941 30.2109H23.3941M23.3941 30.2109H23.3941M23.3941 30.2109H23.3942M23.3941 30.2109H23.3942M23.3942 30.2109H23.3942M23.3942 30.2109H23.3942M23.3942 30.2109H23.3942M23.3942 30.2109H23.3942M23.3942 30.2109H23.3943M23.3942 30.2109H23.3943M23.3943 30.2109H23.3943M23.3943 30.2109H23.3943M23.3943 30.2109H23.3943M23.3943 30.2109H23.3943M23.3943 30.2109H23.3944M23.3943 30.2109H23.3944M23.3944 30.2109H23.3944M23.3944 30.2109H23.3944M23.3944 30.2109H23.3944M23.3944 30.2109H23.3944M23.3944 30.2109H23.3945M23.3944 30.2109H23.3945M23.3945 30.2109H23.3945M23.3945 30.2109H23.3945M23.3945 30.2109H23.3945M23.3945 30.2109H23.3945M23.3945 30.2109H23.3946M23.3945 30.2109H23.3946M23.3946 30.2109H23.3946M23.3946 30.2109H23.3946M23.3946 30.2109H23.3946M23.3946 30.2109H23.3946M23.3946 30.2109H23.3946M23.3946 30.2109H23.3946M23.3946 30.2109H23.3947M23.3946 30.2109H23.3947M23.3947 30.2109H23.3947M23.3947 30.2109H23.3947M23.3947 30.2109H23.3947M23.3947 30.2109H23.3947M23.3947 30.2109H23.3948M23.3947 30.2109H23.3948M23.3948 30.2109H23.3948M23.3948 30.2109H23.3948M23.3948 30.2109H23.3948M23.3948 30.2109H23.3948M23.3948 30.2109H23.3949M23.3948 30.2109H23.3949M23.3949 30.2109H23.3949M23.3949 30.2109H23.3949M23.3949 30.2109H23.3949M23.3949 30.2109H23.3949M23.3949 30.2109H23.395M23.3949 30.2109H23.395M23.395 30.2109H23.395M23.395 30.2109H23.395M23.395 30.2109H23.395M23.395 30.2109H23.395M23.395 30.2109H23.3951M23.395 30.2109H23.3951M23.3951 30.2109H23.3951M23.3951 30.2109H23.3951M23.3951 30.2109H23.3951M23.3951 30.2109H23.3951M23.3951 30.2109H23.3951M23.3951 30.2109H23.3951M23.3951 30.2109H23.3952M23.3951 30.2109H23.3952M23.3952 30.2109H23.3952M23.3952 30.2109H23.3952M23.3952 30.2109H23.3952M23.3952 30.2109H23.3952M23.3952 30.2109H23.3953M23.3952 30.2109H23.3953M23.3953 30.2109H23.3953M23.3953 30.2109H23.3953M23.3953 30.2109H23.3953M23.3953 30.2109H23.3953M23.3953 30.2109H23.3954M23.3953 30.2109H23.3954M23.3954 30.2109H23.3954M23.3954 30.2109H23.3954M23.3954 30.2109H23.3954M23.3954 30.2109H23.3954M23.3954 30.2109H23.3955M23.3954 30.2109H23.3955M23.3955 30.2109H23.3955M23.3955 30.2109H23.3955M23.3955 30.2109H23.3955M23.3955 30.2109H23.3955M23.3955 30.2109H23.3955M23.3955 30.2109H23.3955M23.3955 30.2109H23.3956M23.3955 30.2109H23.3956M23.3956 30.2109H23.3956M23.3956 30.2109H23.3956M23.3956 30.2109H23.3956M23.3956 30.2109H23.3956M23.3956 30.2109H23.3957M23.3956 30.2109H23.3957M23.3957 30.2109H23.3957M23.3957 30.2109H23.3957M23.3957 30.2109H23.3957M23.3957 30.2109H23.3957M23.3957 30.2109H23.3958M23.3957 30.2109H23.3958M23.3958 30.2109H23.3958M23.3958 30.2109H23.3958M23.3958 30.2109H23.3958M23.3958 30.2109H23.3958M23.3958 30.2109H23.3959M23.3958 30.2109H23.3959M23.3959 30.2109H23.3959M23.3959 30.2109H23.3959M23.3959 30.2109H23.3959M23.3959 30.2109H23.3959M23.3959 30.2109H23.396M23.3959 30.2109H23.396M23.396 30.2109H23.396M23.396 30.2109H23.396M23.396 30.2109H23.396M23.396 30.2109H23.396M23.396 30.2109H23.396M23.396 30.2109H23.396M23.396 30.2109H23.3961M23.396 30.2109H23.3961M23.3961 30.2109H23.3961M23.3961 30.2109H23.3961M23.3961 30.2109H23.3961M23.3961 30.2109H23.3961M23.3961 30.2109H23.3962M23.3961 30.2109H23.3962M23.3962 30.2109H23.3962M23.3962 30.2109H23.3962M23.3962 30.2109H23.3962M23.3962 30.2109H23.3962M23.3962 30.2109H23.3963M23.3962 30.2109H23.3963M23.3963 30.2109H23.3963M23.3963 30.2109H23.3963M23.3963 30.2109H23.3963M23.3963 30.2109H23.3963M23.3963 30.2109H23.3964M23.3963 30.2109H23.3964M23.3964 30.2109H23.3964M23.3964 30.2109H23.3964M23.3964 30.2109H23.3964M23.3964 30.2109H23.3964M23.3964 30.2109H23.3965M23.3964 30.2109H23.3965M23.3965 30.2109H23.3965M23.3965 30.2109H23.3965M23.3965 30.2109H23.3965M23.3965 30.2109H23.3965M23.3965 30.2109H23.3965M23.3965 30.2109H23.3965M23.3965 30.2109H23.3966M23.3965 30.2109H23.3966M23.3966 30.2109H23.3966M23.3966 30.2109H23.3966M23.3966 30.2109H23.3966M23.3966 30.2109H23.3966M23.3966 30.2109H23.3967M23.3966 30.2109H23.3967M23.3967 30.2109H23.3967M23.3967 30.2109H23.3967M23.3967 30.2109H23.3967M23.3967 30.2109H23.3967M23.3967 30.2109H23.3968M23.3967 30.2109H23.3968M23.3968 30.2109H23.3968M23.3968 30.2109H23.3968M23.3968 30.2109H23.3968M23.3968 30.2109H23.3968M23.3968 30.2109H23.3969M23.3968 30.2109H23.3969M23.3969 30.2109H23.3969M23.3969 30.2109H23.3969M23.3969 30.2109H23.3969M23.3969 30.2109H23.3969M23.3969 30.2109H23.3969M23.3969 30.2109H23.3969M23.3969 30.2109H23.397M23.3969 30.2109H23.397M23.397 30.2109H23.397M23.397 30.2109H23.397M23.397 30.2109H23.397M23.397 30.2109H23.397M23.397 30.2109H23.3971M23.397 30.2109H23.3971M23.3971 30.2109H23.3971M23.3971 30.2109H23.3971M23.3971 30.2109H23.3971M23.3971 30.2109H23.3971M23.3971 30.2109H23.3972M23.3971 30.2109H23.3972M23.3972 30.2109H23.3972M23.3972 30.2109H23.3972M23.3972 30.2109H23.3972M23.3972 30.2109H23.3972M23.3972 30.2109H23.3973M23.3972 30.2109H23.3973M23.3973 30.2109H23.3973M23.3973 30.2109H23.3973M23.3973 30.2109H23.3973M23.3973 30.2109H23.3973M23.3973 30.2109H23.3974M23.3973 30.2109H23.3974M23.3974 30.2109H23.3974M23.3974 30.2109H23.3974M23.3974 30.2109H23.3974M23.3974 30.2109H23.3974M23.3974 30.2109H23.3974M23.3974 30.2109H23.3974M23.3974 30.2109H23.3975M23.3974 30.2109H23.3975M23.3975 30.2109H23.3975M23.3975 30.2109H23.3975M23.3975 30.2109H23.3975M23.3975 30.2109H23.3975M23.3975 30.2109H23.3976M23.3975 30.2109H23.3976M23.3976 30.2109H23.3976M23.3976 30.2109H23.3976M23.3976 30.2109H23.3976M23.3976 30.2109H23.3976M23.3976 30.2109H23.3977M23.3976 30.2109H23.3977M23.3977 30.2109H23.3977M23.3977 30.2109H23.3977M23.3977 30.2109H23.3977M23.3977 30.2109H23.3977M23.3977 30.2109H23.3978M23.3977 30.2109H23.3978M23.3978 30.2109H23.3978M23.3978 30.2109H23.3978M23.3978 30.2109H23.3978M23.3978 30.2109H23.3978M23.3978 30.2109H23.3979M23.3978 30.2109H23.3979M23.3979 30.2109H23.3979M23.3979 30.2109H23.3979M23.3979 30.2109H23.3979M23.3979 30.2109H23.3979M23.3979 30.2109H23.3979M23.3979 30.2109H23.3979M23.3979 30.2109H23.398M23.3979 30.2109H23.398M23.398 30.2109H23.398M23.398 30.2109H23.398M23.398 30.2109H23.398M23.398 30.2109H23.398M23.398 30.2109H23.3981M23.398 30.2109H23.3981M23.3981 30.2109H23.3981M23.3981 30.2109H23.3981M23.3981 30.2109H23.3981M23.3981 30.2109H23.3981M23.3981 30.2109H23.3982M23.3981 30.2109H23.3982M23.3982 30.2109H23.3982M23.3982 30.2109H23.3982M23.3982 30.2109H23.3982M23.3982 30.2109H23.3982M23.3982 30.2109H23.3983M23.3982 30.2109H23.3983M23.3983 30.2109H23.3983M23.3983 30.2109H23.3983M23.3983 30.2109H23.3983M23.3983 30.2109H23.3983M23.3983 30.2109H23.3983M23.3983 30.2109H23.3983M23.3983 30.2109H23.3984M23.3983 30.2109H23.3984M23.3984 30.2109H23.3984M23.3984 30.2109H23.3984M23.3984 30.2109H23.3984M23.3984 30.2109H23.3984M23.3984 30.2109H23.3985M23.3984 30.2109H23.3985M23.3985 30.2109H23.3985M23.3985 30.2109H23.3985M23.3985 30.2109H23.3985M23.3985 30.2109H23.3985M23.3985 30.2109H23.3986M23.3985 30.2109H23.3986M23.3986 30.2109H23.3986M23.3986 30.2109H23.3986M23.3986 30.2109H23.3986M23.3986 30.2109H23.3986M23.3986 30.2109H23.3987M23.3986 30.2109H23.3987M23.3987 30.2109H23.3987M23.3987 30.2109H23.3987M23.3987 30.2109H23.3987M23.3987 30.2109H23.3987M23.3987 30.2109H23.3988M23.3987 30.2109H23.3988M23.3988 30.2109H23.3988M23.3988 30.2109H23.3988M23.3988 30.2109H23.3988M23.3988 30.2109H23.3988M23.3988 30.2109H23.3988M23.3988 30.2109H23.3988M23.3988 30.2109H23.3989M23.3988 30.2109H23.3989M23.3989 30.2109H23.3989M23.3989 30.2109H23.3989M23.3989 30.2109H23.3989M23.3989 30.2109H23.3989M23.3989 30.2109H23.399M23.3989 30.2109H23.399M23.399 30.2109H23.399M23.399 30.2109H23.399M23.399 30.2109H23.399M23.399 30.2109H23.399M23.399 30.2109H23.3991M23.399 30.2109H23.3991M23.3991 30.2109H23.3991M23.3991 30.2109H23.3991M23.3991 30.2109H23.3991M23.3991 30.2109H23.3991M23.3991 30.2109H23.3992M23.3991 30.2109H23.3992M23.3992 30.2109H23.3992M23.3992 30.2109H23.3992M23.3992 30.2109H23.3992M23.3992 30.2109H23.3992M23.3992 30.2109H23.3993M23.3992 30.2109H23.3993M23.3993 30.2109H23.3993M23.3993 30.2109H23.3993M23.3993 30.2109H23.3993M23.3993 30.2109H23.3993M23.3993 30.2109H23.3993M23.3993 30.2109H23.3993M23.3993 30.2109H23.3994M23.3993 30.2109H23.3994M23.3994 30.2109H23.3994M23.3994 30.2109H23.3994M23.3994 30.2109H23.3994M23.3994 30.2109H23.3994M23.3994 30.2109H23.3995M23.3994 30.2109H23.3995M23.3995 30.2109H23.3995M23.3995 30.2109H23.3995M23.3995 30.2109H23.3995M23.3995 30.2109H23.3995M23.3995 30.2109H23.3996M23.3995 30.2109H23.3996M23.3996 30.2109H23.3996M23.3996 30.2109H23.3996M23.3996 30.2109H23.3996M23.3996 30.2109H23.3996M23.3996 30.2109H23.3997M23.3996 30.2109H23.3997M23.3997 30.2109H23.3997M23.3997 30.2109H23.3997M23.3997 30.2109H23.3997M23.3997 30.2109H23.3997M23.3997 30.2109H23.3997M23.3997 30.2109H23.3997M23.3997 30.2109H23.3998M23.3997 30.2109H23.3998M23.3998 30.2109H23.3998M23.3998 30.2109H23.3998M23.3998 30.2109H23.3998M23.3998 30.2109H23.3998M23.3998 30.2109H23.3999M23.3998 30.2109H23.3999M23.3999 30.2109H23.3999M23.3999 30.2109H23.3999M23.3999 30.2109H23.3999M23.3999 30.2109H23.3999M23.3999 30.2109H23.4M23.3999 30.2109H23.4M23.4 30.2109H23.4M23.4 30.2109H23.4M23.4 30.2109H23.4M23.4 30.2109H23.4M23.4 30.2109H23.4001M23.4 30.2109H23.4001M23.4001 30.2109H23.4001M23.4001 30.2109H23.4001M23.4001 30.2109C24.4271 30.2109 25.2649 29.3835 25.2725 28.3519L23.4001 30.2109ZM24.8975 21.793C23.5272 23.0574 21.7916 24.6589 21.5424 27.2735L25.2725 28.3517L25.2795 27.5587C25.4106 26.4751 26.1693 25.7176 27.4438 24.5408C27.953 24.0714 28.4832 23.5814 28.98 23.0213L28.98 23.0213C30.7816 20.9887 31.1269 18.3001 29.8739 16.0083L29.8739 16.0083C28.3696 13.2581 24.9512 11.8936 21.5692 12.666L21.5691 12.666C19.0437 13.2443 17.1864 15.1116 16.472 17.7798L16.472 17.7799C16.205 18.7796 16.798 19.8076 17.7979 20.0756L17.798 20.0756C18.7978 20.3426 19.8257 19.7495 20.0937 18.7497C20.2995 17.9825 20.8706 16.6709 22.4068 16.3197L22.4068 16.3196C23.153 16.1488 24.0067 16.1654 24.7704 16.4041C25.5336 16.6426 26.2003 17.1005 26.5865 17.8074L26.5866 17.8075C27.252 19.0228 26.6252 20.0299 26.1771 20.5352L26.177 20.5353C25.8101 20.9498 25.3792 21.3479 24.9187 21.7734L24.9032 21.7877L24.9032 21.7877L24.8975 21.793ZM34.3184 3.32478L34.2746 3.41219L34.3183 3.32477C31.1732 1.75218 27.6206 0.920355 24.0433 0.920355C18.8763 0.920355 13.8254 2.63548 9.81978 5.74946C2.89125 11.135 -0.423844 20.1648 1.3725 28.7555C3.13512 37.1881 9.65153 44.0822 17.9748 46.3213C19.9064 46.8413 21.9108 47.1044 23.9327 47.1044C29.0901 47.1044 34.1446 45.3838 38.1643 42.2584C43.7604 37.9085 47.1013 31.0845 47.1013 24.0039C47.1013 15.3261 42.0842 7.20992 34.3184 3.32478ZM12.1212 8.70873L12.1212 8.70871C15.4708 6.10345 19.7057 4.66864 24.0442 4.66864C27.0428 4.66864 30.0156 5.36398 32.6428 6.67758C39.1496 9.93274 43.3539 16.7343 43.3539 24.0039C43.3539 29.936 40.5543 35.6541 35.8646 39.2992C32.4989 41.9152 28.2613 43.3561 23.9327 43.3561C22.2404 43.3561 20.5631 43.1352 18.9493 42.7014C11.978 40.8261 6.51865 35.0499 5.04203 27.988L4.9397 28.0094L5.04203 27.988C3.53632 20.7895 6.31569 13.2215 12.1212 8.70873Z" fill="white" stroke="white" stroke-width="0.209094"/>
</g>
<defs>
<clipPath id="clip0_60_4063">
<rect width="48" height="48" fill="white"/>
</clipPath>
</defs>
</svg>
