<svg width="48" height="48" viewBox="0 0 48 48" fill="none" xmlns="http://www.w3.org/2000/svg">
<path d="M43.6326 27.545L39.7694 22.089C39.1308 21.1896 37.8846 20.9718 36.9804 21.6124L31.5254 25.4748C30.625 26.1124 30.4102 27.3606 31.0488 28.262C31.6874 29.1624 32.9336 29.3782 33.8378 28.7386L35.6648 27.445C35.2724 28.7738 34.6726 30.0376 33.8358 31.18C31.5076 34.3588 27.9236 36.181 23.9998 36.181C20.4382 36.181 17.0808 34.6312 14.7898 31.929C14.077 31.0892 12.8152 30.9856 11.9704 31.6976C11.1286 32.4124 11.0242 33.6742 11.739 34.517C14.7918 38.1166 19.2604 40.181 23.9998 40.181C29.1366 40.181 34.0194 37.6996 37.0624 33.5434C38.168 32.0342 38.9642 30.3662 39.4864 28.6122L40.367 29.856C40.7576 30.4068 41.3748 30.7008 42.0018 30.7008C42.4002 30.7008 42.8046 30.5816 43.156 30.3326C44.0564 29.6944 44.2712 28.4462 43.6326 27.545V27.545Z" fill="white"/>
<path d="M16.9512 19.7381C16.3116 18.8359 15.0634 18.6219 14.163 19.2607L12.3356 20.5543C12.7276 19.2251 13.3272 17.9617 14.163 16.8203C16.4912 13.6425 20.0762 11.8193 24 11.8193C27.5626 11.8193 30.92 13.3691 33.211 16.0713C33.9258 16.9121 35.1876 17.0175 36.0294 16.3027C36.8732 15.5879 36.9766 14.3261 36.2618 13.4833C33.209 9.88374 28.7402 7.81934 24 7.81934C18.8642 7.81934 13.9804 10.3007 10.9366 14.4569C9.83156 15.9657 9.03576 17.6341 8.51376 19.3891L7.63276 18.1445C6.99316 17.2421 5.74596 17.0283 4.84476 17.6669C3.94356 18.3055 3.72956 19.5537 4.36716 20.4549L8.22956 25.9109C8.62016 26.4617 9.23736 26.7557 9.86436 26.7557C10.2638 26.7557 10.6672 26.6365 11.0178 26.3885L16.4738 22.5261C17.375 21.8875 17.5888 20.6395 16.9512 19.7381V19.7381Z" fill="white"/>
</svg>
