<svg width="48" height="48" viewBox="0 0 48 48" fill="none" xmlns="http://www.w3.org/2000/svg">
<g clip-path="url(#clip0_2239_5178)">
<path d="M24 0C10.7664 0 0 10.7664 0 24C0 37.2336 10.7664 48 24 48C37.2336 48 48 37.2336 48 24C48 10.7664 37.2336 0 24 0ZM24 43.6364C13.1724 43.6364 4.36364 34.8275 4.36364 24C4.36364 13.1725 13.1724 4.36364 24 4.36364C34.8276 4.36364 43.6364 13.1725 43.6364 24C43.6364 34.8275 34.8275 43.6364 24 43.6364Z" fill="white"/>
<path d="M32.9996 15.5148L20.6572 27.857L15.0005 22.2002C14.1485 21.3482 12.767 21.3481 11.9149 22.2C11.0629 23.0521 11.0629 24.4335 11.9149 25.2855L19.1144 32.4852C19.5235 32.8944 20.0784 33.1244 20.657 33.1244H20.6572C21.2358 33.1244 21.7907 32.8944 22.1999 32.4854L36.0851 18.6004C36.9372 17.7484 36.9372 16.367 36.0851 15.5149C35.233 14.6628 33.8517 14.6627 32.9996 15.5148Z" fill="white"/>
</g>
<defs>
<clipPath id="clip0_2239_5178">
<rect width="48" height="48" fill="white"/>
</clipPath>
</defs>
</svg>
