<svg width="48" height="48" viewBox="0 0 48 48" fill="none" xmlns="http://www.w3.org/2000/svg"><g clip-path="url(#clip0_868_4214)"><g clip-path="url(#clip1_868_4214)" fill-rule="evenodd" clip-rule="evenodd"><path d="M40.3996 8.30005L32.0996 24.1l8.3 15.8 3.4-1.9V10.2l-3.4-1.89995z" fill="#E25444"/><path d="M40.3996 8.30005L23.7996 10.2l-8.45 13.9 8.45 13.9 16.6 1.9V8.30005z" fill="#7B1D13"/><path d="M6.9002 8.30005l-2.7 1.2V38.7l2.7 1.2 16.9-15.8-16.9-15.79995z" fill="#58150D"/><path d="M6.86377 8.26672L23.8225 12.9778v22.6666L6.86377 39.9111V8.26672z" fill="#E25444"/><path d="M23.8317 15.4667l-7.2008-1.1556 7.2008-8.1778 7.183 8.1778-7.183 1.1556z" fill="#58150D"/><path d="M31.0147 14.3111l-7.1919 1.1733-7.1919-1.1733V6.1333M23.8317 32.6222l-7.2008 1.3334 7.2008 7.0222 7.183-7.0222-7.183-1.3334z" fill="#58150D"/><path d="M23.7996 0l-7.2 3.8v10.5l7.2224-2.0333L23.7996 0zM23.8228 18.0444l-7.1919.7823v10.4838l7.1919.8228V18.0444zM23.8228 35.7334l-7.1919-1.8033v10.3063l7.1919 3.7637V35.7334z" fill="#7B1D13"/><path d="M31.0142 33.9301l-7.1919 1.8038v12.2662l7.1919-3.7637V33.9301zM23.8223 18.0444l7.1919.7823v10.4838l-7.1919.8228V18.0444zM23.7998 0l7.2 3.8v10.5l-7.2-2V0z" fill="#E25444"/></g></g><defs><clipPath id="clip0_868_4214"><path fill="#fff" d="M0 0h48v48H0z"/></clipPath><clipPath id="clip1_868_4214"><path fill="#fff" transform="translate(4.2002)" d="M0 0h39.6v48H0z"/></clipPath></defs></svg>