<svg width="48" height="48" viewBox="0 0 48 48" fill="none" xmlns="http://www.w3.org/2000/svg">
<path d="M44.2024 21.1232L5.50578 2.24672C5.17298 2.08438 4.80754 2 4.43724 2C3.0912 2 2 3.0912 2 4.43724V4.50758C2 4.83462 2.0401 5.16044 2.11942 5.47772L5.83136 20.3254C5.93274 20.731 6.27564 21.0306 6.69108 21.0768L23.0062 22.8896C23.572 22.9524 24 23.4306 24 24C24 24.5694 23.572 25.0476 23.0062 25.1104L6.69108 26.9232C6.27564 26.9694 5.93274 27.269 5.83136 27.6746L2.11942 42.5222C2.0401 42.8396 2 43.1654 2 43.4924V43.5628C2 44.9088 3.0912 46 4.43724 46C4.80754 46 5.17298 45.9156 5.50578 45.7532L44.2024 26.8768C45.3022 26.3404 46 25.2238 46 24C46 22.7762 45.3022 21.6596 44.2024 21.1232Z" fill="white"/>
</svg>
