<svg width="48" height="48" viewBox="0 0 48 48" fill="none" xmlns="http://www.w3.org/2000/svg">
<g clip-path="url(#clip0_346_8128)">
<path d="M27.6562 15H12.0938C11.0582 15 10.2187 14.1605 10.2187 13.1249C10.2187 12.0894 11.0582 11.2499 12.0938 11.2499H27.6563C28.6919 11.2499 29.5314 12.0894 29.5314 13.1249C29.5314 14.1605 28.6918 15 27.6562 15ZM38.8425 44.7378L44.6719 38.9567C46.787 36.8591 48 33.9476 48 30.9689V11.25C48 5.04674 42.9533 0 36.75 0H17.0793C14.092 0 11.2786 1.15847 9.15745 3.26215L3.32805 9.04327C1.21305 11.1408 0 14.0523 0 17.0311V36.75C0 42.9533 5.04674 48 11.25 48H30.9207C33.9082 48 36.7214 46.8415 38.8425 44.7378ZM36.75 3.74999C40.8855 3.74999 44.25 7.11446 44.25 11.25V30.9689C44.25 32.9548 43.4413 34.8958 42.0313 36.2943L36.202 42.0753C34.7879 43.4777 32.9123 44.25 30.9207 44.25H11.25C7.11446 44.25 3.74999 40.8855 3.74999 36.75V17.0311C3.74999 15.0452 4.55872 13.1042 5.96867 11.7057L11.798 5.9247C13.2121 4.52231 15.0877 3.74999 17.0793 3.74999H36.75ZM36.6562 36.4688V17.0798C36.6562 15.0692 37.4821 13.1112 38.9224 11.7081L39.746 10.9054C40.4877 10.1827 40.5031 8.99562 39.7804 8.25396C39.0578 7.5124 37.8706 7.49684 37.129 8.21962L36.3054 9.02223C34.1453 11.1269 32.9063 14.0638 32.9063 17.0798V36.4687C32.9063 37.5043 33.7458 38.3437 34.7814 38.3437C35.8169 38.3437 36.6562 37.5043 36.6562 36.4688Z" fill="white"/>
</g>
<defs>
<clipPath id="clip0_346_8128">
<rect width="48" height="48" fill="white"/>
</clipPath>
</defs>
</svg>
