<svg width="48" height="48" viewBox="0 0 48 48" fill="none" xmlns="http://www.w3.org/2000/svg">
<g clip-path="url(#clip0_570_2802)">
<path d="M23.996 48.0001C20.8925 48.0001 18.3676 45.4752 18.3676 42.3717V42.3247C18.3676 41.6567 17.9624 41.0659 17.3353 40.8196C15.6179 40.1454 14.017 39.2131 12.5767 38.0488C12.0461 37.6199 11.3278 37.5556 10.7469 37.8855C10.745 37.8866 10.7378 37.8907 10.7359 37.8917C8.03306 39.4149 4.58913 38.4618 3.05923 35.7674C2.31741 34.461 2.12989 32.9446 2.53129 31.4975C2.93353 30.0476 3.87817 28.8417 5.19128 28.1018L5.21463 28.0886C5.78479 27.7647 6.10824 27.1218 6.01968 26.4885C5.78094 24.7852 5.7861 23.0283 6.03554 21.3267C6.12972 20.6829 5.80036 20.0275 5.21595 19.6956L5.18527 19.6781C3.87817 18.9416 2.93353 17.7358 2.53129 16.2859C2.12989 14.8388 2.31741 13.3224 3.05923 12.016C4.58922 9.32148 8.03315 8.36877 10.7359 9.89163L10.8488 9.9557C11.4255 10.2833 12.1429 10.2201 12.6768 9.79473C14.0893 8.66942 15.6543 7.76522 17.3284 7.10717C17.9596 6.85895 18.3675 6.26713 18.3675 5.59932C18.6768 -1.86817 29.3166 -1.8647 29.6243 5.59932V5.63703C29.6243 6.30118 30.029 6.89179 30.6554 7.14178C32.3112 7.80246 33.8589 8.70441 35.2555 9.8225C35.7905 10.2508 36.509 10.3158 37.0859 9.98825L37.2503 9.89482C39.9589 8.36877 43.4026 9.32166 44.9326 12.0161C45.6744 13.3224 45.862 14.8388 45.4606 16.2859C45.0583 17.7358 44.1137 18.9416 42.8005 19.6815L42.6719 19.7546C42.0989 20.08 41.7752 20.7228 41.8666 21.3543C42.1096 23.0306 42.1156 24.7609 41.8855 26.439C41.7985 27.0734 42.122 27.7163 42.6901 28.039L42.8034 28.1034C44.115 28.8434 45.0586 30.0486 45.4606 31.4974C46.8083 36.2871 41.5785 40.3417 37.2559 37.8917L37.1906 37.8547C36.6078 37.5237 35.8856 37.591 35.35 38.0257C33.9268 39.1806 32.3452 40.109 30.6488 40.785C30.0265 41.033 29.6244 41.6226 29.6244 42.287V42.3717C29.6244 45.4752 27.0995 48.0001 23.996 48.0001V48.0001ZM11.5412 33.9196C12.7458 33.9196 13.9435 34.3288 14.9355 35.1306C16.0776 36.0539 17.3464 36.7928 18.7068 37.327C20.7802 38.1412 22.1198 40.1029 22.1198 42.3247V42.3717C22.2232 44.8612 25.7697 44.8593 25.8721 42.3717V42.287C25.8721 40.0772 27.2018 38.1195 29.2597 37.2994C30.6034 36.7638 31.857 36.0279 32.9855 35.1122C34.7295 33.6966 37.1072 33.4922 39.043 34.5915L39.1028 34.6255C40.0046 35.1334 41.1581 34.8159 41.6697 33.9146C41.9155 33.4817 41.9777 32.9795 41.8448 32.5006C41.7112 32.0189 41.3965 31.6177 40.9586 31.371C40.9566 31.3699 40.9548 31.3689 40.9529 31.3678L40.837 31.3019C38.9178 30.212 37.8701 28.1033 38.1679 25.9299C38.3505 24.5986 38.3459 23.2217 38.153 21.8918C37.8422 19.7442 38.9134 17.5741 40.8188 16.492L40.9531 16.4158C41.3966 16.1659 41.7113 15.7648 41.845 15.283C41.9778 14.804 41.9156 14.3019 41.6698 13.869C41.1581 12.9677 40.0043 12.6504 39.0979 13.1609L38.939 13.2512C37.018 14.342 34.6521 14.146 32.9106 12.7519C31.8032 11.8653 30.5767 11.1504 29.265 10.627C27.204 9.80458 25.8722 7.84599 25.8722 5.63721V5.59941C25.7691 3.11072 22.2228 3.11081 22.1199 5.59941C22.1199 7.82038 20.778 9.783 18.7014 10.5993C17.3753 11.1206 16.1352 11.8374 15.0151 12.7296C13.2757 14.1154 10.9132 14.3074 8.99627 13.2188L8.88895 13.1579C7.98766 12.6501 6.83411 12.9677 6.3223 13.8689C6.07653 14.3018 6.01434 14.8039 6.14717 15.2829C6.28084 15.7646 6.59556 16.1658 7.03345 16.4125L7.06976 16.4331C8.9882 17.5226 10.065 19.7077 9.7485 21.8699C9.55067 23.2198 9.54654 24.6174 9.73603 25.9685C10.0405 28.1449 8.99336 30.2578 7.06807 31.3512L7.03918 31.3676C6.59566 31.6176 6.28094 32.0187 6.14726 32.5005C6.01434 32.9795 6.07653 33.4816 6.3223 33.9144C6.83393 34.8155 7.98756 35.1332 8.8942 34.6226C9.72364 34.1516 10.6343 33.9196 11.5412 33.9196V33.9196ZM23.996 33.8353C18.5648 33.8353 14.1463 29.4167 14.1463 23.9855C14.6873 10.9185 33.3067 10.9224 33.8457 23.9856C33.8457 29.4167 29.4271 33.8353 23.996 33.8353V33.8353ZM23.996 17.8881C20.6338 17.8881 17.8985 20.6234 17.8985 23.9855C18.2335 32.0746 29.7597 32.0722 30.0934 23.9855C30.0934 20.6233 27.3581 17.8881 23.996 17.8881V17.8881Z" fill="white"/>
</g>
<defs>
<clipPath id="clip0_570_2802">
<rect width="48" height="48" fill="white"/>
</clipPath>
</defs>
</svg>
