<svg width="48" height="48" viewBox="0 0 48 48" fill="none" xmlns="http://www.w3.org/2000/svg">
<path d="M37.125 18.75C31.9555 18.75 27.75 14.5444 27.75 9.375C27.75 4.20563 31.9555 0 37.125 0C42.2945 0 46.5 4.20563 46.5 9.375C46.5 14.5444 42.2945 18.75 37.125 18.75ZM37.125 3.75C34.0234 3.75 31.5 6.27338 31.5 9.375C31.5 12.4766 34.0234 15 37.125 15C40.2266 15 42.75 12.4766 42.75 9.375C42.75 6.27338 40.2266 3.75 37.125 3.75Z" fill="white"/>
<path d="M37.125 48C31.9555 48 27.75 43.7944 27.75 38.625C27.75 33.4556 31.9555 29.25 37.125 29.25C42.2945 29.25 46.5 33.4556 46.5 38.625C46.5 43.7944 42.2945 48 37.125 48ZM37.125 33C34.0234 33 31.5 35.5234 31.5 38.625C31.5 41.7266 34.0234 44.25 37.125 44.25C40.2266 44.25 42.75 41.7266 42.75 38.625C42.75 35.5234 40.2266 33 37.125 33Z" fill="white"/>
<path d="M25.0342 29.9315L19.7807 26.9295C20.4061 25.033 20.4071 22.9701 19.7807 21.0706L25.0342 18.0686C25.9332 17.5549 26.2456 16.4094 25.7318 15.5104C25.2181 14.6113 24.0727 14.299 23.1736 14.8127L17.9158 17.8172C16.1964 15.8615 13.6776 14.625 10.875 14.625C5.70553 14.625 1.5 18.8306 1.5 24C1.5 29.1694 5.70553 33.375 10.875 33.375C13.6776 33.375 16.1964 32.1385 17.9158 30.1828L23.1736 33.1873C24.0688 33.6988 25.2158 33.3926 25.7318 32.4896C26.2456 31.5906 25.9332 30.4452 25.0342 29.9315ZM10.875 29.625C7.77338 29.625 5.25 27.1016 5.25 24C5.25 20.8984 7.77338 18.375 10.875 18.375C18.32 18.375 18.3105 29.625 10.875 29.625Z" fill="white"/>
</svg>
