<svg width="48" height="48" viewBox="0 0 48 48" fill="none" xmlns="http://www.w3.org/2000/svg">
<g clip-path="url(#clip0_10263_283403)">
<path d="M44.1121 12.3591C44.0875 11.0632 44.064 9.83894 44.064 8.65457C44.064 7.72669 43.312 6.97444 42.3839 6.97444C35.1985 6.97444 29.7278 4.90946 25.1677 0.475727C24.5154 -0.158688 23.4773 -0.158464 22.8252 0.475727C18.2656 4.90946 12.7958 6.97444 5.61088 6.97444C4.68301 6.97444 3.93076 7.72669 3.93076 8.65457C3.93076 9.83917 3.90746 11.0639 3.8826 12.36C3.65231 24.4202 3.33689 40.9371 23.4462 47.9074C23.6245 47.9692 23.8104 48.0001 23.9964 48.0001C24.1823 48.0001 24.3685 47.9692 24.5465 47.9074C44.6574 40.9369 44.3424 24.4195 44.1121 12.3591ZM23.9966 44.5371C6.75023 38.272 7.01099 24.5476 7.2424 12.4241C7.25628 11.6965 7.26973 10.9913 7.27913 10.3C14.0086 10.0159 19.3899 7.97669 23.9966 3.96366C28.6037 7.97669 33.9859 10.0161 40.7158 10.3C40.7252 10.9911 40.7387 11.6958 40.7526 12.423C40.9837 24.547 41.2443 38.2718 23.9966 44.5371Z" fill="white"/>
<path d="M29.7818 18.1639L21.6726 26.2726L18.2123 22.8122C17.5561 22.1563 16.4923 22.1563 15.8363 22.8122C15.1802 23.4686 15.1802 24.5322 15.8363 25.1884L20.4847 29.8367C20.8126 30.1647 21.2428 30.3286 21.6726 30.3286C22.1025 30.3286 22.5326 30.1647 22.8606 29.8367L32.1575 20.54C32.8139 19.8839 32.8139 18.82 32.1577 18.1641C31.5018 17.508 30.438 17.5077 29.7818 18.1639Z" fill="white"/>
</g>
<defs>
<clipPath id="clip0_10263_283403">
<rect width="48" height="48" fill="white"/>
</clipPath>
</defs>
</svg>
