<svg width="48" height="48" viewBox="0 0 48 48" fill="none" xmlns="http://www.w3.org/2000/svg">
<g clip-path="url(#clip0_10263_283282)">
<path d="M40.5 48.001C36.3645 48.001 33 44.6365 33 40.501V20.626C33 19.5904 33.8394 18.751 34.875 18.751C35.9106 18.751 36.75 19.5904 36.75 20.626V40.501C36.75 42.5687 38.4323 44.251 40.5 44.251C42.5677 44.251 44.25 42.5687 44.25 40.501C44.25 38.9137 43.2454 37.4923 41.7502 36.9639C40.7739 36.6189 40.2622 35.5476 40.6072 34.5713C40.9523 33.5949 42.0236 33.0832 42.9998 33.4282C45.9905 34.485 48 37.3274 48 40.501C48 44.6365 44.6355 48.001 40.5 48.001Z" fill="white"/>
<path d="M7.5 48.001C3.3645 48.001 0 44.6365 0 40.501C0 36.3655 3.3645 33.001 7.5 33.001H11.25V15.001H7.5C3.3645 15.001 0 11.6365 0 7.50098C0 3.36548 3.3645 0.000976562 7.5 0.000976562C11.6355 0.000976562 15 3.36548 15 7.50098V11.251H33V7.50098C33 3.36548 36.3645 0.000976562 40.5 0.000976562C44.6355 0.000976562 48 3.36548 48 7.50098C48 11.6365 44.6355 15.001 40.5 15.001H15V33.001H27.375C28.4106 33.001 29.25 33.8404 29.25 34.876C29.25 35.9115 28.4106 36.751 27.375 36.751H15V40.5013C15 44.6366 11.6355 48.001 7.5 48.001ZM7.5 36.751C5.43225 36.751 3.75 38.4332 3.75 40.501C3.75 42.5687 5.43225 44.251 7.5 44.251C9.56775 44.251 11.25 42.5688 11.25 40.5013V36.751H7.5ZM36.75 11.251H40.5C42.5677 11.251 44.25 9.56873 44.25 7.50098C44.25 5.43323 42.5677 3.75098 40.5 3.75098C38.4323 3.75098 36.75 5.43323 36.75 7.50098V11.251ZM7.5 3.75098C5.43225 3.75098 3.75 5.43323 3.75 7.50098C3.75 9.56873 5.43225 11.251 7.5 11.251H11.25V7.50098C11.25 5.43323 9.56775 3.75098 7.5 3.75098Z" fill="white"/>
</g>
<defs>
<clipPath id="clip0_10263_283282">
<rect width="48" height="48" fill="white" transform="translate(0 0.000976562)"/>
</clipPath>
</defs>
</svg>
