<svg width="48" height="48" viewBox="0 0 48 48" fill="none" xmlns="http://www.w3.org/2000/svg">
<g clip-path="url(#clip0_10263_283349)">
<path d="M24 33.001C25.0356 33.001 25.875 32.1615 25.875 31.126V24.001C25.875 22.9654 25.0356 22.126 24 22.126C22.9644 22.126 22.125 22.9654 22.125 24.001V31.126C22.125 32.1615 22.9644 33.001 24 33.001Z" fill="white"/>
<path d="M25.875 5.62598V1.87598C25.875 0.840414 25.0356 0.000976562 24 0.000976562C22.9644 0.000976562 22.125 0.840414 22.125 1.87598V5.62598C22.125 6.66154 22.9644 7.50098 24 7.50098C25.0356 7.50098 25.875 6.66154 25.875 5.62598Z" fill="white"/>
<path d="M12.0675 12.0688C12.7998 11.3365 12.7998 10.1493 12.0675 9.41714L9.41589 6.76552C8.68361 6.03324 7.49645 6.03324 6.76426 6.76552C6.03208 7.4978 6.03198 8.68496 6.76426 9.41714L9.41589 12.0688C10.1481 12.801 11.3352 12.801 12.0675 12.0688Z" fill="white"/>
<path d="M1.875 25.876H5.625C6.66056 25.876 7.5 25.0365 7.5 24.001C7.5 22.9654 6.66056 22.126 5.625 22.126H1.875C0.839438 22.126 0 22.9654 0 24.001C0 25.0365 0.839438 25.876 1.875 25.876Z" fill="white"/>
<path d="M46.125 22.126H42.375C41.3394 22.126 40.5 22.9654 40.5 24.001C40.5 25.0365 41.3394 25.876 42.375 25.876H46.125C47.1606 25.876 48 25.0365 48 24.001C48 22.9654 47.1606 22.126 46.125 22.126Z" fill="white"/>
<path d="M41.2358 6.76503C40.5035 6.03275 39.3163 6.03275 38.5841 6.76503L35.9325 9.41666C35.2002 10.1488 35.2002 11.3361 35.9325 12.0683C36.6648 12.8006 37.8519 12.8006 38.5841 12.0683L41.2358 9.41666C41.9679 8.68447 41.9679 7.49731 41.2358 6.76503Z" fill="white"/>
<path d="M36.9084 37.0007L34.0461 17.3153C33.5184 13.6214 30.3529 10.876 26.6214 10.876H21.3785C17.6349 10.876 14.4796 13.6349 13.9545 17.3107L11.0916 37.0007C8.79694 37.7102 7.125 39.8514 7.125 42.376V44.251H5.25C4.21444 44.251 3.375 45.0904 3.375 46.126C3.375 47.1615 4.21444 48.001 5.25 48.001H31.5C32.5356 48.001 33.375 47.1615 33.375 46.126C33.375 45.0904 32.5356 44.251 31.5 44.251H10.875V42.376C10.875 41.3421 11.7161 40.501 12.75 40.501H35.2421C35.244 40.501 35.2458 40.5013 35.2477 40.5013C35.2491 40.5013 35.2505 40.5011 35.2519 40.5011C36.2849 40.5021 37.125 41.3428 37.125 42.376V46.126C37.125 47.1615 37.9644 48.001 39 48.001H42.75C43.7856 48.001 44.625 47.1615 44.625 46.126C44.625 45.0904 43.7856 44.251 42.75 44.251H40.875V42.376C40.875 39.8514 39.2031 37.7102 36.9084 37.0007ZM17.6662 17.8456C17.9285 16.0101 19.5244 14.626 21.3786 14.626H26.6215C28.4757 14.626 30.0716 16.0101 30.3345 17.8502L33.0827 36.751H14.9173L17.6662 17.8456Z" fill="white"/>
</g>
<defs>
<clipPath id="clip0_10263_283349">
<rect width="48" height="48" fill="white" transform="translate(0 0.000976562)"/>
</clipPath>
</defs>
</svg>
