<svg width="48" height="48" viewBox="0 0 48 48" fill="none" xmlns="http://www.w3.org/2000/svg">
<g clip-path="url(#clip0_1753_3980)">
<path d="M47.6609 30.034C47.9163 31.0375 47.3097 32.0581 46.3061 32.3134L40.4471 33.8041L41.9436 39.7619C42.1958 40.7663 41.5862 41.785 40.5819 42.0372C39.6043 42.291 38.555 41.6877 38.3066 40.6755L36.5444 33.6599L25.9688 27.3563V39.7233L31.0447 44.7992C31.7769 45.5315 31.7769 46.7187 31.0447 47.4509C30.3124 48.1831 29.1252 48.1831 28.393 47.4509L24.0938 43.1516L19.7947 47.4508C19.0624 48.1831 17.8752 48.1831 17.143 47.4508C16.4108 46.7186 16.4108 45.5313 17.143 44.7991L22.2188 39.7233V27.2445L11.4556 33.6599L9.69349 40.6755C9.47974 41.5265 8.71559 42.0941 7.87634 42.0942C7.72512 42.0942 7.57156 42.0759 7.41818 42.0373C6.41384 41.7851 5.80418 40.7664 6.05646 39.762L7.5529 33.8042L1.6939 32.3135C0.690306 32.0581 0.0837436 31.0376 0.339119 30.0341C0.594494 29.0305 1.61449 28.4238 2.61856 28.6793L9.53506 30.4391L20.338 24L9.53524 17.561L2.61874 19.3209C2.46368 19.3603 2.30815 19.3793 2.15506 19.3793C1.31796 19.3793 0.555306 18.8146 0.339306 17.9662C0.0839311 16.9626 0.690494 15.9421 1.69409 15.6867L7.55309 14.1959L6.05665 8.23812C5.80446 7.23377 6.41402 6.21509 7.41837 5.9628C8.42262 5.71062 9.44131 6.32027 9.69368 7.32452L11.4558 14.34L22.2188 20.7554V8.27674L17.1429 3.20084C16.4107 2.46855 16.4107 1.2814 17.1429 0.549211C17.8751 -0.18307 19.0624 -0.18307 19.7946 0.549211L24.0938 4.8484L28.3929 0.549211C29.1251 -0.18307 30.3124 -0.18307 31.0446 0.549211C31.7768 1.28149 31.7768 2.46865 31.0446 3.20084L25.9688 8.27674V20.6438L36.5444 14.3401L38.3066 7.32462C38.5588 6.32027 39.5775 5.71034 40.5819 5.9629C41.5862 6.21518 42.1959 7.23387 41.9436 8.23821L40.4471 14.196L46.3061 15.6868C48.4378 16.2863 48.0314 19.3321 45.8452 19.3794C45.6921 19.3794 45.5366 19.3605 45.3815 19.321L38.465 17.5611L27.6622 24L38.4649 30.4391L45.3814 28.6792C46.3851 28.4239 47.4056 29.0305 47.6609 30.034Z" fill="white"/>
</g>
<defs>
<clipPath id="clip0_1753_3980">
<rect width="48" height="48" fill="white"/>
</clipPath>
</defs>
</svg>
