<svg width="48" height="48" viewBox="0 0 48 48" fill="none" xmlns="http://www.w3.org/2000/svg">
<path d="M24.0002 19.3687C28.5048 19.3687 32.1565 15.717 32.1565 11.2124C32.1565 6.70783 28.5048 3.05615 24.0002 3.05615C19.4957 3.05615 15.844 6.70783 15.844 11.2124C15.844 15.717 19.4957 19.3687 24.0002 19.3687Z" fill="white"/>
<path d="M26.232 22.5965C22.1328 22.2546 18.5699 22.6004 15.4967 25.1371C10.3538 29.2565 11.3435 34.803 11.3435 41.5883C11.3435 43.3836 12.8042 44.8715 14.6267 44.8715C34.4156 44.8715 35.2032 45.5098 36.3767 42.9112C36.7615 42.0323 36.656 42.3116 36.656 33.9046C36.656 27.2272 30.8742 22.5965 26.232 22.5965V22.5965Z" fill="white"/>
</svg>
