<svg width="48" height="48" viewBox="0 0 48 48" fill="none" xmlns="http://www.w3.org/2000/svg">
<path d="M44.9307 10.0466H3.07114C1.78744 10.0466 0.745605 11.0861 0.745605 12.3722C0.745605 13.6582 1.78744 14.6977 3.07114 14.6977H44.9307C46.2144 14.6977 47.2563 13.6582 47.2563 12.3722C47.2563 11.0861 46.2144 10.0466 44.9307 10.0466Z" fill="white"/>
<path d="M30.9775 21.6746H3.07114C1.78744 21.6746 0.745605 22.7141 0.745605 24.0001C0.745605 25.2861 1.78744 26.3256 3.07114 26.3256H30.9775C32.2612 26.3256 33.3031 25.2861 33.3031 24.0001C33.3031 22.7141 32.2612 21.6746 30.9775 21.6746Z" fill="white"/>
<path d="M17.0243 33.3025H3.07114C1.78744 33.3025 0.745605 34.342 0.745605 35.628C0.745605 36.914 1.78744 37.9536 3.07114 37.9536H17.0243C18.308 37.9536 19.3499 36.914 19.3499 35.628C19.3499 34.342 18.308 33.3025 17.0243 33.3025Z" fill="white"/>
</svg>
