<svg width="48" height="48" viewBox="0 0 48 48" fill="none" xmlns="http://www.w3.org/2000/svg">
<g clip-path="url(#clip0_10263_283298)">
<path d="M30.6246 20.3486L26.4226 24.5505C25.6882 24.1984 24.8661 24.0008 23.9988 24.0008C20.897 24.0008 18.3735 26.5243 18.3735 29.6261C18.3735 32.7278 20.897 35.2513 23.9988 35.2513C27.1006 35.2513 29.6241 32.7278 29.6241 29.6261C29.6241 28.7587 29.4265 27.9367 29.0743 27.2023L33.2763 23.0003C34.0086 22.268 34.0086 21.0808 33.2763 20.3486C32.5441 19.6162 31.3569 19.6162 30.6246 20.3486ZM23.9988 31.5012C22.9649 31.5012 22.1237 30.66 22.1237 29.6261C22.1237 28.5921 22.9649 27.751 23.9988 27.751C25.0327 27.751 25.8739 28.5921 25.8739 29.6261C25.8739 30.66 25.0327 31.5012 23.9988 31.5012Z" fill="white"/>
<path d="M31.3133 6.38465C28.0161 5.3286 24.5509 5.00655 21.0142 5.42779C10.3108 6.70229 2.04264 15.1402 0.337894 25.497C-0.437926 30.2101 0.128165 34.9685 1.97504 39.2579C2.88877 41.3802 4.93947 42.7516 7.19943 42.7516H40.8216C43.0299 42.7516 45.0117 41.516 45.8706 39.6037C47.2836 36.4577 48.0001 33.1006 48.0001 29.6259C48 18.9863 41.288 9.57953 31.3133 6.38465ZM40.8215 39.0014H7.19934C6.43889 39.0014 5.74023 38.5199 5.4195 37.7749C4.56136 35.7818 4.03127 33.6664 3.83607 31.501H5.62285C6.65847 31.501 7.49795 30.6615 7.49795 29.6259C7.49795 28.5903 6.65847 27.7508 5.62285 27.7508H3.83213C3.87986 27.2027 3.94802 26.6542 4.03821 26.1062C4.62783 22.524 6.13269 19.2581 8.28942 16.5625L9.4157 17.6888C10.1479 18.4211 11.3352 18.421 12.0675 17.6888C12.7998 16.9565 12.7998 15.7692 12.0675 15.037L10.8891 13.8587C13.8258 11.3179 17.475 9.62594 21.4576 9.15173C21.682 9.12501 21.906 9.10223 22.1295 9.08263V10.8692C22.1295 11.9048 22.969 12.7443 24.0046 12.7443C25.0402 12.7443 25.8797 11.9048 25.8797 10.8692V9.08423C30.0367 9.46131 33.9175 11.0953 37.1188 13.8599L35.9418 15.037C35.2095 15.7693 35.2095 16.9565 35.9418 17.6888C36.6741 18.4211 37.8614 18.4211 38.5936 17.6888L39.7184 16.564C42.2467 19.7348 43.8019 23.6277 44.1656 27.7508H42.3865C41.3509 27.7508 40.5114 28.5903 40.5114 29.6259C40.5114 30.6615 41.3509 31.501 42.3865 31.501H44.165C43.9617 33.7755 43.3883 35.9772 42.4496 38.0672C42.1986 38.626 41.5443 39.0014 40.8215 39.0014Z" fill="white"/>
</g>
<defs>
<clipPath id="clip0_10263_283298">
<rect width="48" height="48" fill="white"/>
</clipPath>
</defs>
</svg>
