<svg width="48" height="48" viewBox="0 0 48 48" fill="none" xmlns="http://www.w3.org/2000/svg">
<path d="M29.0002 24.0014C29.0002 23.1186 29.7332 22.403 30.6373 22.403H41.4258L37.6605 18.7426C37.0186 18.121 37.0143 17.1089 37.651 16.4821L37.6605 16.4728C38.2972 15.8461 39.3337 15.8419 39.9757 16.4635L46.5335 22.8666C46.6826 23.0186 46.7995 23.1978 46.8774 23.394C47.0411 23.7832 47.0411 24.2197 46.8774 24.6088C46.7995 24.805 46.6827 24.9843 46.5335 25.1363L39.9851 31.53C39.3432 32.1567 38.3024 32.1567 37.6604 31.53C37.0185 30.9032 37.0185 29.887 37.6604 29.2602L41.4258 25.5999H30.6373C29.7332 25.5999 29.0002 24.8842 29.0002 24.0014Z" fill="white"/>
<path fill-rule="evenodd" clip-rule="evenodd" d="M37.4405 16.2683L37.4413 16.2675L37.45 16.259C38.2028 15.518 39.4254 15.5131 40.1844 16.248L40.1853 16.2489L46.7478 22.6565C46.9238 22.8359 47.0623 23.048 47.1551 23.2805C47.3486 23.7424 47.3486 24.2605 47.1551 24.7224C47.0623 24.9548 46.9239 25.1668 46.7477 25.3464L46.7432 25.351L40.1947 31.7446C39.4362 32.4852 38.2094 32.4851 37.4508 31.7446C36.6883 31.0002 36.6884 29.7901 37.4508 29.0455L40.6868 25.8999L30.6373 25.8998C29.5743 25.8998 28.7002 25.0566 28.7002 24.0014C28.7002 22.9461 29.5743 22.103 30.6373 22.103L40.6868 22.103L37.4518 18.9581C37.4517 18.958 37.4519 18.9582 37.4518 18.9581M37.6605 18.7426C37.0186 18.121 37.0143 17.1089 37.651 16.4821L37.6605 16.4728C38.2972 15.8461 39.3337 15.8419 39.9757 16.4635L46.5335 22.8666C46.6826 23.0186 46.7995 23.1978 46.8774 23.394C47.0411 23.7832 47.0411 24.2197 46.8774 24.6088C46.7995 24.805 46.6827 24.9843 46.5335 25.1363L39.9851 31.53C39.3432 32.1567 38.3024 32.1567 37.6604 31.53C37.0185 30.9032 37.0185 29.887 37.6604 29.2602L41.4258 25.5999H30.6373C29.7332 25.5999 29.0002 24.8842 29.0002 24.0014C29.0002 23.1186 29.7332 22.403 30.6373 22.403H41.4258L37.6605 18.7426Z" fill="white"/>
<path d="M1.12295 24.6088C1.20087 24.805 1.31766 24.9843 1.46678 25.1363L8.0152 31.53C8.65711 32.1567 9.69793 32.1567 10.3399 31.53C10.9818 30.9032 10.9818 29.887 10.3399 29.2602L6.57462 25.5998H17.3631C18.2673 25.5998 19.0002 24.8841 19.0002 24.0014C19.0002 23.1186 18.2672 22.403 17.3631 22.403L6.57462 22.403L10.3399 18.7426C10.9818 18.121 10.9861 17.1089 10.3494 16.4821L10.3399 16.4728C9.70324 15.8461 8.66671 15.8419 8.02471 16.4635L1.46678 22.8665C1.31775 23.0185 1.20087 23.1977 1.12295 23.3939C0.959278 23.7832 0.959278 24.2197 1.12295 24.6088Z" fill="white"/>
<path fill-rule="evenodd" clip-rule="evenodd" d="M10.3399 29.2602C10.9818 29.887 10.9818 30.9032 10.3399 31.53C9.69793 32.1567 8.65711 32.1567 8.0152 31.53L1.46678 25.1363C1.31766 24.9843 1.20087 24.805 1.12295 24.6088C0.959278 24.2197 0.959278 23.7832 1.12295 23.3939C1.20087 23.1977 1.31775 23.0185 1.46678 22.8665L8.02471 16.4635C8.66671 15.8419 9.70324 15.8461 10.3399 16.4728L10.3494 16.4821C10.9861 17.1089 10.9818 18.121 10.3399 18.7426L6.57462 22.403L17.3631 22.403C18.2672 22.403 19.0002 23.1186 19.0002 24.0014C19.0002 24.8841 18.2673 25.5998 17.3631 25.5998H6.57462L10.3399 29.2602ZM7.3136 25.8998L10.549 29.0451C11.3115 29.7896 11.312 31.0002 10.5495 31.7446C9.79097 32.4851 8.56409 32.4852 7.80562 31.7446L1.25261 25.3464C1.07642 25.1669 0.93801 24.9548 0.845265 24.7224C0.651835 24.2605 0.651845 23.7424 0.845256 23.2804C0.938027 23.0479 1.07659 22.8359 1.25259 22.6564L1.25715 22.6518L7.81602 16.248C8.57479 15.5133 9.79693 15.518 10.5498 16.2584C10.55 16.2586 10.5496 16.2582 10.5498 16.2584L10.5599 16.2683C11.3166 17.0133 11.3115 18.219 10.5489 18.9578M7.3136 25.8998H17.3631C18.4262 25.8998 19.3002 25.0565 19.3002 24.0014C19.3002 22.9461 18.4261 22.103 17.3631 22.103L7.3136 22.103" fill="white"/>
<path d="M24.0002 40C25.1048 40 26.0002 39.2837 26.0002 38.4V9.59998C26.0002 8.71628 25.1047 8.00001 24.0002 8.00001C22.8957 8.00001 22.0002 8.71637 22.0002 9.59998V38.4C22.0002 39.2837 22.8957 40 24.0002 40Z" fill="white"/>
<path fill-rule="evenodd" clip-rule="evenodd" d="M26.5219 38.4C26.5219 39.6744 25.2783 40.5218 24.0002 40.5218C22.7222 40.5218 21.4785 39.6744 21.4785 38.4V9.59998C21.4785 8.32559 22.7222 7.47827 24.0002 7.47827C25.2782 7.47827 26.5219 8.32548 26.5219 9.59998V38.4ZM26.0002 38.4C26.0002 39.2837 25.1048 40 24.0002 40C22.8957 40 22.0002 39.2837 22.0002 38.4V9.59998C22.0002 8.71637 22.8957 8.00001 24.0002 8.00001C25.1047 8.00001 26.0002 8.71628 26.0002 9.59998V38.4Z" fill="white"/>
</svg>
