<svg width="48" height="48" viewBox="0 0 48 48" fill="none" xmlns="http://www.w3.org/2000/svg">
<path d="M47.0002 23.9986C47.0002 24.8815 46.2672 25.597 45.3631 25.597L34.5746 25.597L38.3399 29.2574C38.9818 29.8791 38.9861 30.8911 38.3494 31.5179L38.3399 31.5272C37.7032 32.154 36.6667 32.1581 36.0247 31.5365L29.4669 25.1334C29.3178 24.9815 29.2009 24.8022 29.123 24.606C28.9593 24.2169 28.9593 23.7803 29.123 23.3912C29.2009 23.195 29.3177 23.0157 29.4669 22.8637L36.0153 16.4701C36.6572 15.8433 37.698 15.8433 38.34 16.4701C38.9819 17.0968 38.9819 18.113 38.34 18.7399L34.5746 22.4002L45.3631 22.4002C46.2672 22.4002 47.0002 23.1158 47.0002 23.9986Z" fill="white"/>
<path fill-rule="evenodd" clip-rule="evenodd" d="M38.5599 31.7317L38.5591 31.7325L38.5504 31.741C37.7976 32.4821 36.575 32.4869 35.816 31.752L35.8151 31.7511L29.2526 25.3435C29.0766 25.1641 28.9381 24.9521 28.8453 24.7196C28.6518 24.2577 28.6518 23.7395 28.8453 23.2776C28.9381 23.0452 29.0765 22.8332 29.2527 22.6536L29.2572 22.649L35.8057 16.2554C36.5642 15.5149 37.791 15.5149 38.5496 16.2554C39.312 16.9998 39.312 18.21 38.5496 18.9545L35.3136 22.1002L45.3631 22.1002C46.4261 22.1002 47.3002 22.9434 47.3002 23.9986C47.3002 25.0539 46.4261 25.897 45.3631 25.897L35.3136 25.897L38.5486 29.0419C38.5487 29.042 38.5485 29.0418 38.5486 29.0419M38.3399 29.2574C38.9818 29.8791 38.9861 30.8911 38.3494 31.5179L38.3399 31.5272C37.7032 32.154 36.6667 32.1581 36.0247 31.5365L29.4669 25.1334C29.3178 24.9815 29.2009 24.8022 29.123 24.606C28.9593 24.2169 28.9593 23.7803 29.123 23.3912C29.2009 23.195 29.3177 23.0157 29.4669 22.8637L36.0153 16.4701C36.6572 15.8433 37.698 15.8433 38.34 16.4701C38.9819 17.0968 38.9819 18.113 38.34 18.7399L34.5746 22.4002L45.3631 22.4002C46.2672 22.4002 47.0002 23.1158 47.0002 23.9986C47.0002 24.8815 46.2672 25.597 45.3631 25.597L34.5746 25.597L38.3399 29.2574Z" fill="white"/>
<path d="M18.8774 23.3912C18.7995 23.195 18.6827 23.0157 18.5336 22.8637L11.9852 16.4701C11.3433 15.8433 10.3025 15.8433 9.66046 16.4701C9.01856 17.0968 9.01856 18.113 9.66046 18.7399L13.4258 22.4003L2.63725 22.4003C1.73307 22.4003 1.0002 23.1159 1.0002 23.9986C1.0002 24.8815 1.73316 25.597 2.63725 25.597L13.4258 25.597L9.66046 29.2574C9.01856 29.8791 9.01427 30.8911 9.65095 31.5179L9.66046 31.5272C10.2971 32.154 11.3337 32.1581 11.9757 31.5365L18.5336 25.1335C18.6826 24.9816 18.7995 24.8023 18.8774 24.6061C19.0411 24.2169 19.0411 23.7803 18.8774 23.3912Z" fill="white"/>
<path fill-rule="evenodd" clip-rule="evenodd" d="M9.66046 18.7399C9.01856 18.113 9.01856 17.0968 9.66046 16.4701C10.3025 15.8433 11.3433 15.8433 11.9852 16.4701L18.5336 22.8637C18.6827 23.0157 18.7995 23.195 18.8774 23.3912C19.0411 23.7803 19.0411 24.2169 18.8774 24.6061C18.7995 24.8023 18.6826 24.9816 18.5336 25.1335L11.9757 31.5365C11.3337 32.1581 10.2971 32.154 9.66046 31.5272L9.65095 31.5179C9.01427 30.8911 9.01856 29.8791 9.66046 29.2574L13.4258 25.597L2.63725 25.597C1.73316 25.597 1.0002 24.8815 1.0002 23.9986C1.0002 23.1159 1.73307 22.4003 2.63725 22.4003L13.4258 22.4003L9.66046 18.7399ZM12.6868 22.1003L9.45135 18.955C8.68892 18.2104 8.68841 16.9999 9.45088 16.2554C10.2094 15.5149 11.4363 15.5149 12.1948 16.2554L18.7478 22.6536C18.924 22.8331 19.0624 23.0452 19.1551 23.2776C19.3486 23.7395 19.3485 24.2577 19.1551 24.7196C19.0624 24.9521 18.9238 25.1641 18.7478 25.3436L18.7432 25.3482L12.1844 31.752C11.4256 32.4867 10.2035 32.4821 9.45061 31.7416C9.45041 31.7414 9.45081 31.7418 9.45061 31.7416L9.44048 31.7317C8.68378 30.9867 8.68886 29.781 9.45149 29.0422M12.6868 22.1003L2.63725 22.1003C1.57418 22.1003 0.700195 22.9435 0.700195 23.9986C0.700195 25.0539 1.57429 25.897 2.63725 25.897L12.6868 25.897" fill="white"/>
<path d="M24.0002 40C25.1048 40 26.0002 39.2837 26.0002 38.4V9.59998C26.0002 8.71628 25.1047 8.00001 24.0002 8.00001C22.8957 8.00001 22.0002 8.71637 22.0002 9.59998V38.4C22.0002 39.2837 22.8957 40 24.0002 40Z" fill="white"/>
<path fill-rule="evenodd" clip-rule="evenodd" d="M26.5219 38.4C26.5219 39.6744 25.2783 40.5218 24.0002 40.5218C22.7222 40.5218 21.4785 39.6744 21.4785 38.4V9.59998C21.4785 8.32559 22.7222 7.47827 24.0002 7.47827C25.2782 7.47827 26.5219 8.32548 26.5219 9.59998V38.4ZM26.0002 38.4C26.0002 39.2837 25.1048 40 24.0002 40C22.8957 40 22.0002 39.2837 22.0002 38.4V9.59998C22.0002 8.71637 22.8957 8.00001 24.0002 8.00001C25.1047 8.00001 26.0002 8.71628 26.0002 9.59998V38.4Z" fill="white"/>
</svg>
