<svg width="48" height="48" viewBox="0 0 48 48" fill="none" xmlns="http://www.w3.org/2000/svg">
<g clip-path="url(#clip0_10263_283410)">
<path d="M35.5122 46.7133C35.8284 46.7907 36.1484 46.8287 36.4662 46.8287C38.5384 46.8696 40.4206 45.0744 40.4536 42.9896C40.5831 39.5951 39.45 33.0274 38.9761 30.4581C40.856 28.7604 45.4883 24.4599 47.3325 21.6894C47.9952 20.6939 48.1747 19.4657 47.825 18.3198C47.4731 17.1672 46.6322 16.2428 45.5177 15.7835C42.2797 14.4493 36.0328 13.6111 33.5625 13.3191C32.4289 11.0861 29.4644 5.41702 27.2289 2.65455C26.4642 1.70969 25.3288 1.16873 24.1143 1.17041C22.9029 1.17211 21.7728 1.7141 21.0137 2.65745C18.7566 5.46211 15.7699 11.1015 14.6292 13.3179C12.1545 13.6078 5.85207 14.4359 2.57067 15.6864C0.19916 16.5401 -0.769227 19.5954 0.685838 21.6552C2.60658 24.4824 7.33048 28.7496 9.27663 30.4569C8.75433 32.9805 7.5688 39.1923 7.75641 42.7474C7.82072 43.9645 8.42169 45.072 9.40526 45.7858C10.3841 46.4963 11.6163 46.7236 12.7862 46.4093C16.0376 45.5357 21.7912 42.5381 24.0605 41.3198C26.3114 42.633 32.0686 45.8702 35.5122 46.7133Z" fill="#FFD53C"/>
</g>
<defs>
<clipPath id="clip0_10263_283410">
<rect width="48" height="48" fill="white"/>
</clipPath>
</defs>
</svg>
