<svg width="48" height="48" viewBox="0 0 48 48" fill="none" xmlns="http://www.w3.org/2000/svg">
<path d="M24 28.125C25.0355 28.125 25.875 27.2855 25.875 26.25C25.875 25.2145 25.0355 24.375 24 24.375C22.9645 24.375 22.125 25.2145 22.125 26.25C22.125 27.2855 22.9645 28.125 24 28.125Z" fill="white"/>
<path d="M26.6167 18.1052C28.4723 17.1289 29.625 15.2206 29.625 13.125C29.625 10.0234 27.1016 7.5 24 7.5C20.8984 7.5 18.375 10.0234 18.375 13.125C18.375 14.1606 19.2144 15 20.25 15C21.2856 15 22.125 14.1606 22.125 13.125C22.125 12.0911 22.9661 11.25 24 11.25C25.0339 11.25 25.875 12.0911 25.875 13.125C25.875 13.8239 25.4902 14.4606 24.8706 14.7865C23.1771 15.6776 22.125 17.5228 22.125 19.6019C22.125 20.6375 22.9644 21.4769 24 21.4769C25.0356 21.4769 25.875 20.6375 25.875 19.6019C25.875 18.94 26.1731 18.3385 26.6167 18.1052Z" fill="white"/>
<path d="M33.375 35.625C33.375 32.9802 34.402 30.4369 36.2667 28.4635C39.2384 25.3189 40.875 21.2033 40.875 16.875C40.875 7.57013 33.3049 0 24 0C14.6951 0 7.125 7.57013 7.125 16.875C7.125 21.3591 8.87325 25.4371 11.7333 28.4635C13.598 30.4369 14.625 32.9802 14.625 35.625C14.625 38.7266 17.1484 41.25 20.25 41.25H27.75C30.8516 41.25 33.375 38.7266 33.375 35.625ZM27.75 37.5H20.25C19.2161 37.5 18.375 36.6589 18.375 35.625C18.375 32.0183 16.9842 28.5603 14.4588 25.8878C12.2433 23.5433 10.875 20.3801 10.875 16.875C10.875 9.63788 16.7629 3.75 24 3.75C31.2371 3.75 37.125 9.63788 37.125 16.875C37.125 20.2415 35.8523 23.4424 33.5412 25.8878C31.0158 28.5603 29.625 32.0183 29.625 35.625C29.625 36.6589 28.7839 37.5 27.75 37.5Z" fill="white"/>
<path d="M20.25 44.25C19.2144 44.25 18.375 45.0894 18.375 46.125C18.375 47.1606 19.2144 48 20.25 48H27.75C28.7856 48 29.625 47.1606 29.625 46.125C29.625 45.0894 28.7856 44.25 27.75 44.25H20.25Z" fill="white"/>
</svg>
