<svg width="48" height="48" viewBox="0 0 48 48" fill="none" xmlns="http://www.w3.org/2000/svg">
<path d="M46.1341 22.1242H41.1022C40.2118 14.152 33.8544 7.80814 25.8758 6.93928V1.86588C25.7767 -0.622897 22.2224 -0.621022 22.1242 1.86588V6.93928C14.1456 7.80814 7.78816 14.152 6.89783 22.1242H1.86588C-0.622897 22.2233 -0.621022 25.7776 1.86588 25.8758H6.88704C7.73761 33.8921 14.1142 40.2822 22.1242 41.1544V46.134C22.2233 48.6228 25.7776 48.6209 25.8758 46.134V41.1544C33.8857 40.2822 40.2623 33.892 41.113 25.8757H46.1341C48.6229 25.7766 48.6209 22.2223 46.1341 22.1242ZM25.8758 37.3742V32.816C25.7767 30.3273 22.2224 30.3291 22.1242 32.816V37.3742C16.1855 36.5423 11.4774 31.8208 10.6661 25.8757H15.1839C17.6726 25.7766 17.6708 22.2223 15.1839 22.1241H10.6793C11.5271 16.2231 16.2168 11.5469 22.1242 10.7194V15.1838C22.2233 17.6725 25.7776 17.6707 25.8758 15.1838V10.7194C31.7832 11.5469 36.473 16.2231 37.3207 22.1241H32.8161C30.3274 22.2232 30.3292 25.7775 32.8161 25.8757H37.3339C36.5225 31.8208 31.8145 36.5424 25.8758 37.3742ZM24 26.3447C20.8888 26.2208 20.8916 21.778 24 21.6553C27.1111 21.7792 27.1084 26.222 24 26.3447Z" fill="white"/>
</svg>
