<svg width="48" height="48" viewBox="0 0 48 48" fill="none" xmlns="http://www.w3.org/2000/svg">
<g clip-path="url(#clip0_883_3694)">
<path d="M38.625 48H9.375C4.20563 48 0 43.7944 0 38.625V9.375C0 4.20563 4.20563 0 9.375 0H38.625C43.7944 0 48 4.20563 48 9.375V38.625C48 43.7944 43.7944 48 38.625 48ZM9.375 3.75C6.27338 3.75 3.75 6.27338 3.75 9.375V38.625C3.75 41.7266 6.27338 44.25 9.375 44.25H38.625C41.7266 44.25 44.25 41.7266 44.25 38.625V9.375C44.25 6.27338 41.7266 3.75 38.625 3.75H9.375Z" fill="white"/>
<path d="M16.5 14.625H9.375C8.33944 14.625 7.5 13.7856 7.5 12.75C7.5 11.7144 8.33944 10.875 9.375 10.875H16.5C17.5356 10.875 18.375 11.7144 18.375 12.75C18.375 13.7856 17.5356 14.625 16.5 14.625Z" fill="white"/>
<path d="M16.5 22.125H9.375C8.33944 22.125 7.5 21.2856 7.5 20.25C7.5 19.2144 8.33944 18.375 9.375 18.375H16.5C17.5356 18.375 18.375 19.2144 18.375 20.25C18.375 21.2856 17.5356 22.125 16.5 22.125Z" fill="white"/>
<path d="M16.5 29.625H9.375C8.33944 29.625 7.5 28.7856 7.5 27.75C7.5 26.7144 8.33944 25.875 9.375 25.875H16.5C17.5356 25.875 18.375 26.7144 18.375 27.75C18.375 28.7856 17.5356 29.625 16.5 29.625Z" fill="white"/>
<path d="M16.5 37.125H9.375C8.33944 37.125 7.5 36.2856 7.5 35.25C7.5 34.2144 8.33944 33.375 9.375 33.375H16.5C17.5356 33.375 18.375 34.2144 18.375 35.25C18.375 36.2856 17.5356 37.125 16.5 37.125Z" fill="white"/>
<path d="M38.625 14.625H31.5C30.4644 14.625 29.625 13.7856 29.625 12.75C29.625 11.7144 30.4644 10.875 31.5 10.875H38.625C39.6606 10.875 40.5 11.7144 40.5 12.75C40.5 13.7856 39.6606 14.625 38.625 14.625Z" fill="white"/>
<path d="M38.625 22.125H31.5C30.4644 22.125 29.625 21.2856 29.625 20.25C29.625 19.2144 30.4644 18.375 31.5 18.375H38.625C39.6606 18.375 40.5 19.2144 40.5 20.25C40.5 21.2856 39.6606 22.125 38.625 22.125Z" fill="white"/>
<path d="M38.625 29.625H31.5C30.4644 29.625 29.625 28.7856 29.625 27.75C29.625 26.7144 30.4644 25.875 31.5 25.875H38.625C39.6606 25.875 40.5 26.7144 40.5 27.75C40.5 28.7856 39.6606 29.625 38.625 29.625Z" fill="white"/>
<path d="M38.625 37.125H31.5C30.4644 37.125 29.625 36.2856 29.625 35.25C29.625 34.2144 30.4644 33.375 31.5 33.375H38.625C39.6606 33.375 40.5 34.2144 40.5 35.25C40.5 36.2856 39.6606 37.125 38.625 37.125Z" fill="white"/>
<path d="M24 40.875C22.9644 40.875 22.125 40.0356 22.125 39V9C22.125 7.96444 22.9644 7.125 24 7.125C25.0356 7.125 25.875 7.96444 25.875 9V39C25.875 40.0356 25.0356 40.875 24 40.875Z" fill="white"/>
</g>
<defs>
<clipPath id="clip0_883_3694">
<rect width="48" height="48" fill="white"/>
</clipPath>
</defs>
</svg>
