<svg width="48" height="48" viewBox="0 0 48 48" fill="none" xmlns="http://www.w3.org/2000/svg">
<g clip-path="url(#clip0_1770_3964)">
<path d="M35.9999 2.50002H41.9999C42.9278 2.50115 43.8174 2.87026 44.4735 3.52639C45.1297 4.18252 45.4988 5.07211 45.4999 6.00002V28C45.4988 28.9279 45.1297 29.8175 44.4735 30.4737C43.8174 31.1298 42.9278 31.4989 41.9999 31.5H35.9999C35.072 31.4989 34.1824 31.1298 33.5263 30.4737C32.8701 29.8175 32.501 28.9279 32.4999 28V6.00002C32.501 5.07211 32.8701 4.18252 33.5263 3.52639C34.1824 2.87026 35.072 2.50115 35.9999 2.50002ZM41.9999 28.5C42.1324 28.4998 42.2595 28.447 42.3532 28.3533C42.4469 28.2596 42.4996 28.1326 42.4999 28V6.00002C42.4996 5.86749 42.4469 5.74046 42.3532 5.64675C42.2595 5.55303 42.1324 5.50027 41.9999 5.50002H35.9999C35.8674 5.50027 35.7403 5.55303 35.6466 5.64675C35.5529 5.74046 35.5001 5.86749 35.4999 6.00002V28C35.5001 28.1326 35.5529 28.2596 35.6466 28.3533C35.7403 28.447 35.8674 28.4998 35.9999 28.5H41.9999Z" fill="white"/>
<path fill-rule="evenodd" clip-rule="evenodd" d="M42.0003 2.15002C43.0209 2.15126 43.9993 2.55724 44.721 3.27891C45.4427 4.00057 45.8487 4.97901 45.8499 5.9996V5.99981V28.0002V28.0004C45.8487 29.021 45.4427 29.9995 44.721 30.7211C43.9993 31.4428 43.0209 31.8488 42.0003 31.85H42.0001H35.9997H35.9995C34.9789 31.8488 34.0004 31.4428 33.2788 30.7211C32.5571 29.9995 32.1511 29.021 32.1499 28.0004V5.9996C32.1511 4.97901 32.5571 4.00057 33.2788 3.27891C34.0004 2.55724 34.9789 2.15126 35.9995 2.15002H42.0003ZM35.9999 31.5H41.9999C42.9278 31.4989 43.8174 31.1298 44.4735 30.4737C45.1297 29.8175 45.4988 28.9279 45.4999 28V6.00002C45.4988 5.07211 45.1297 4.18252 44.4735 3.52639C43.8174 2.87026 42.9278 2.50115 41.9999 2.50002H35.9999C35.072 2.50115 34.1824 2.87026 33.5263 3.52639C32.8701 4.18252 32.501 5.07211 32.4999 6.00002V28C32.501 28.9279 32.8701 29.8175 33.5263 30.4737C34.1824 31.1298 35.072 31.4989 35.9999 31.5ZM41.9995 28.15C42.0393 28.1499 42.0775 28.134 42.1057 28.1058C42.1339 28.0776 42.1498 28.0394 42.1499 27.9996V6.00045C42.1498 5.9606 42.1339 5.92242 42.1057 5.89424C42.0774 5.866 42.0392 5.8501 41.9992 5.85002H36.0006C35.9606 5.8501 35.9224 5.866 35.8941 5.89424C35.8659 5.92248 35.85 5.96076 35.8499 6.00069V27.9994C35.85 28.0393 35.8659 28.0776 35.8941 28.1058C35.9223 28.134 35.9605 28.1499 36.0003 28.15H41.9995ZM41.9999 28.5C42.1324 28.4998 42.2595 28.447 42.3532 28.3533C42.4469 28.2596 42.4996 28.1326 42.4999 28V6.00002C42.4996 5.86749 42.4469 5.74046 42.3532 5.64675C42.2595 5.55303 42.1324 5.50027 41.9999 5.50002H35.9999C35.8674 5.50027 35.7403 5.55303 35.6466 5.64675C35.5529 5.74046 35.5001 5.86749 35.4999 6.00002V28C35.5001 28.1326 35.5529 28.2596 35.6466 28.3533C35.7403 28.447 35.8674 28.4998 35.9999 28.5H41.9999Z" fill="white"/>
<path d="M13.0556 4.49986H33.9999C34.3977 4.49996 34.7792 4.65803 35.0605 4.93932C35.3418 5.2206 35.4998 5.60206 35.4999 5.99986V27.9999C35.4999 28.2424 35.441 28.4813 35.3285 28.6961C35.2159 28.9109 35.0529 29.0952 34.8535 29.2333C32.6547 30.7488 30.7509 32.6527 29.2353 34.8514C27.8686 36.8345 26.8373 39.0288 26.1825 41.3465C25.7997 42.7259 24.9091 43.9093 23.6896 44.6591C22.4702 45.4088 21.0121 45.6693 19.6085 45.3882C18.2049 45.1071 16.9596 44.3053 16.1228 43.1438C15.286 41.9823 14.9198 40.5472 15.0976 39.1268L16.3007 29.4999H6.61809C6.07988 29.4998 5.54894 29.3755 5.06655 29.1369C4.58415 28.8982 4.16329 28.5515 3.83669 28.1237C3.51008 27.6959 3.28653 27.1986 3.18341 26.6703C3.08028 26.1421 3.10036 25.5972 3.24209 25.078L7.74893 8.5526C8.06815 7.38947 8.7601 6.36318 9.71866 5.63112C10.6772 4.89906 11.8495 4.50165 13.0556 4.49986ZM32.4999 7.49986H13.0556C12.5075 7.50087 11.9748 7.68154 11.5391 8.01419C11.1034 8.34685 10.7888 8.81314 10.6435 9.34166L6.13665 25.868C6.11609 25.9421 6.11297 26.02 6.12752 26.0956C6.14207 26.1711 6.1739 26.2423 6.22053 26.3034C6.26715 26.3646 6.3273 26.4142 6.39627 26.4483C6.46524 26.4824 6.54116 26.5 6.61809 26.4999H17.9999C18.2127 26.4996 18.4231 26.5447 18.6171 26.6322C18.8111 26.7196 18.9843 26.8473 19.1251 27.0069C19.2659 27.1664 19.3711 27.3541 19.4337 27.5575C19.4963 27.7609 19.5149 27.9753 19.4882 28.1864L18.0742 39.4999C18.0274 39.8754 18.061 40.2565 18.1727 40.6181C18.2843 40.9796 18.4716 41.3133 18.7221 41.597C18.9725 41.8807 19.2804 42.1079 19.6253 42.2635C19.9702 42.4192 20.3442 42.4997 20.7226 42.4999C21.3089 42.4995 21.8787 42.306 22.3438 41.9492C22.809 41.5924 23.1436 41.0923 23.2959 40.5262C24.0411 37.8936 25.2132 35.4012 26.7656 33.1482C28.3354 30.8704 30.2733 28.8697 32.5 27.2282L32.4999 7.49986Z" fill="white"/>
<path fill-rule="evenodd" clip-rule="evenodd" d="M34 4.14985C34.4906 4.14998 34.9611 4.34493 35.308 4.69182C35.6549 5.03872 35.8498 5.50918 35.8499 5.99976V27.9999C35.8499 28.299 35.7773 28.5937 35.6385 28.8586C35.4996 29.1235 35.2986 29.3508 35.0526 29.521L35.0524 29.5212L35.0521 29.5214C32.8884 31.0129 31.0149 32.8864 29.5235 35.05C28.1788 37.0013 27.1639 39.1604 26.5196 41.4409C26.113 42.9051 25.1675 44.1613 23.8729 44.9572C22.5782 45.7532 21.0301 46.0298 19.5398 45.7314C18.0495 45.433 16.7273 44.5816 15.8388 43.3484C14.9504 42.1152 14.5615 40.5915 14.7503 39.0834C14.7503 39.0834 14.7503 39.0834 14.7503 39.0833L15.9042 29.8499H6.61803C6.02599 29.8497 5.44197 29.7131 4.91134 29.4506C4.38071 29.188 3.91776 28.8067 3.5585 28.3361C3.19924 27.8655 2.95333 27.3185 2.83989 26.7374C2.72646 26.1564 2.74854 25.557 2.90442 24.9859C2.90443 24.9859 2.90444 24.9858 2.90444 24.9858L7.41126 8.4605L7.41134 8.46023L7.41141 8.45996C7.7509 7.22297 8.48679 6.13151 9.50623 5.35296C10.5257 4.57441 11.7723 4.15177 13.0551 4.14985H34ZM3.24209 25.078C3.10036 25.5972 3.08028 26.1421 3.18341 26.6703C3.28653 27.1986 3.51008 27.6959 3.83669 28.1237C4.16329 28.5515 4.58415 28.8982 5.06655 29.1369C5.54894 29.3755 6.07988 29.4998 6.61809 29.4999H16.3007L15.0976 39.1268C14.9198 40.5472 15.286 41.9823 16.1228 43.1438C16.9596 44.3053 18.2049 45.1071 19.6085 45.3882C21.0121 45.6693 22.4702 45.4088 23.6896 44.6591C24.9091 43.9093 25.7997 42.7259 26.1825 41.3465C26.8373 39.0288 27.8686 36.8345 29.2353 34.8514C30.7509 32.6527 32.6547 30.7488 34.8535 29.2333C35.0529 29.0952 35.2159 28.9109 35.3285 28.6961C35.441 28.4813 35.4999 28.2424 35.4999 27.9999V5.99986C35.4998 5.60206 35.3418 5.2206 35.0605 4.93932C34.7792 4.65803 34.3977 4.49996 33.9999 4.49986H13.0556C11.8495 4.50165 10.6772 4.89906 9.71866 5.63112C8.7601 6.36318 8.06815 7.38947 7.74893 8.5526L3.24209 25.078ZM6.13665 25.868C6.11609 25.9421 6.11297 26.02 6.12752 26.0956C6.14207 26.1711 6.1739 26.2423 6.22053 26.3034C6.26715 26.3646 6.3273 26.4142 6.39627 26.4483C6.46524 26.4824 6.54116 26.5 6.61809 26.4999H17.9999C18.2127 26.4996 18.4231 26.5447 18.6171 26.6322C18.8111 26.7196 18.9843 26.8473 19.1251 27.0069C19.2659 27.1664 19.3711 27.3541 19.4337 27.5575C19.4963 27.7609 19.5149 27.9753 19.4882 28.1864L18.0742 39.4999C18.0274 39.8754 18.061 40.2565 18.1727 40.6181C18.2843 40.9796 18.4716 41.3133 18.7221 41.597C18.9725 41.8807 19.2804 42.1079 19.6253 42.2635C19.9702 42.4192 20.3442 42.4997 20.7226 42.4999C21.3089 42.4995 21.8787 42.306 22.3438 41.9492C22.809 41.5924 23.1436 41.0923 23.2959 40.5262C24.0411 37.8936 25.2132 35.4012 26.7656 33.1482C28.3354 30.8704 30.2733 28.8697 32.5 27.2282L32.4999 7.49986H13.0556C12.5075 7.50087 11.9748 7.68154 11.5391 8.01419C11.1034 8.34685 10.7888 8.81314 10.6435 9.34166L6.13665 25.868ZM13.0562 7.84986C12.5846 7.85072 12.1263 8.00616 11.7515 8.29236C11.3769 8.57842 11.1063 8.97932 10.9812 9.43374C10.9811 9.43397 10.981 9.43423 10.981 9.43446L6.47412 25.9608L6.47392 25.9615C6.46779 25.9836 6.46686 26.0069 6.4712 26.0294C6.47554 26.0519 6.48502 26.0731 6.49892 26.0913C6.51281 26.1096 6.53074 26.1243 6.5513 26.1345C6.57186 26.1446 6.59448 26.1499 6.61741 26.1499H6.61775H17.9996C18.2621 26.1496 18.5216 26.2052 18.7609 26.3131C19.0002 26.4209 19.2138 26.5785 19.3875 26.7753C19.5612 26.9721 19.691 27.2037 19.7682 27.4545C19.8455 27.7054 19.8684 27.9698 19.8354 28.2303L18.4215 39.5431C18.3809 39.8694 18.41 40.2006 18.5071 40.5148C18.6041 40.8289 18.7668 41.1188 18.9844 41.3653C19.202 41.6118 19.4696 41.8092 19.7693 41.9445C20.0689 42.0797 20.3938 42.1497 20.7226 42.1499C21.2318 42.1495 21.7267 41.9814 22.1308 41.6715C22.5349 41.3616 22.8256 40.9271 22.9579 40.4353L22.9585 40.4331L22.9591 40.4309C23.7148 37.7615 24.9033 35.2341 26.4774 32.9496L26.4774 32.9496C28.0357 30.6885 29.9517 28.6967 32.15 27.0522L32.1499 7.84986H13.0562Z" fill="white"/>
</g>
<defs>
<clipPath id="clip0_1770_3964">
<rect width="48" height="48" fill="white"/>
</clipPath>
</defs>
</svg>
