<svg width="48" height="48" viewBox="0 0 48 48" fill="none" xmlns="http://www.w3.org/2000/svg">
<g clip-path="url(#clip0_10263_283363)">
<path d="M37.1828 7.83604C36.6775 6.93211 37.0008 5.78978 37.9046 5.28457L45.2097 1.20153C46.1138 0.696322 47.256 1.01947 47.7612 1.9234C48.2665 2.82732 47.9431 3.96965 47.0393 4.47486L39.7342 8.5579C38.8302 9.06321 37.6879 8.73996 37.1828 7.83604Z" fill="white"/>
<path d="M28.125 18.9634C29.1605 18.9634 30 18.1239 30 17.0884C30 16.0528 29.1605 15.2134 28.125 15.2134C27.0895 15.2134 26.25 16.0528 26.25 17.0884C26.25 18.1239 27.0895 18.9634 28.125 18.9634Z" fill="white"/>
<path d="M45.4241 20.0564L30.643 7.25203C30.2343 6.89532 29.9998 6.37998 29.9998 5.8384V2.15717C30.0742 1.14993 29.3362 0.259504 28.3248 0.15488C22.6017 -0.437143 17.0651 0.685873 12.3139 3.40234C7.6477 6.07014 4.07288 10.0646 1.97609 14.9531C0.665861 18.0038 0.0035263 21.2463 0.00755749 24.5863L0.000245091 32.0862C-0.000786145 33.1217 0.83789 33.962 1.87334 33.963H1.87522C2.90992 33.963 3.74916 33.1248 3.75019 32.0899L3.75751 24.5859C3.75413 21.7551 4.31409 19.012 5.42211 16.4321C8.10688 10.1724 13.7033 5.79002 20.3762 4.30795C19.4915 5.59831 18.9514 7.07616 18.7963 8.63642C11.9666 11.1177 7.48252 17.3836 7.50014 24.6301C7.51008 28.7194 9.4713 32.6277 12.7464 35.0847C14.4095 36.3325 15 37.055 15 38.6261C15 41.7449 12.4624 44.251 9.37512 44.251C8.71784 44.251 8.08701 44.1366 7.50014 43.9285C9.68242 43.1545 11.2501 41.0704 11.2501 38.6261C11.2501 37.5905 10.4107 36.7511 9.37512 36.7511C8.33957 36.7511 7.50014 37.5905 7.50014 38.6261C7.50014 39.6599 6.65903 40.501 5.62517 40.501C4.59131 40.501 3.75019 39.6599 3.75019 38.6261V38.5934C3.75019 37.5578 2.91077 36.7184 1.87522 36.7184C0.839671 36.7184 0.000245091 37.5578 0.000245091 38.5934V38.6261C0.000245091 43.7954 4.20572 48.0009 9.37502 48.0009H28.1249C31.2264 48.0009 33.7498 45.4776 33.7498 42.376C33.7498 41.6577 33.6157 40.9572 33.3514 40.2941C33.3467 40.2823 29.0703 30.1534 29.0703 30.1534C29.3752 30.1913 29.6849 30.2131 29.9998 30.2131L33.7487 30.2121L36.0469 31.7486C37.3436 32.7069 38.8821 33.213 40.4997 33.213C44.6351 33.213 47.9996 29.8486 47.9996 25.7131C47.9996 23.5465 47.0627 21.4864 45.4241 20.0564ZM40.4997 29.4631C39.6814 29.4631 38.9044 29.2046 38.2526 28.7157L35.9503 27.1765C35.307 26.7095 34.5476 26.4631 33.7497 26.4631H29.9997C27.932 26.4631 26.2498 24.7809 26.2498 22.7132C26.2498 21.6776 25.4104 20.8382 24.3748 20.8382C23.3393 20.8382 22.4998 21.6776 22.4998 22.7132C22.4998 23.6685 22.6813 24.5817 23.0084 25.4228C23.0204 25.4565 23.0311 25.4905 23.0453 25.5238L29.8737 41.6974C29.9575 41.9125 29.9998 42.1407 29.9998 42.376C29.9998 43.4099 29.1587 44.251 28.1249 44.251H16.8702C18.0499 42.6831 18.75 40.7349 18.75 38.6261C18.75 35.1885 16.8959 33.5098 14.9969 32.0851C12.6579 30.3303 11.2572 27.54 11.2501 24.621C11.2356 18.6304 15.1954 13.4942 21.1073 11.8295C21.4896 11.7309 21.8385 11.5104 22.0954 11.1923C22.614 10.5508 22.5096 9.81428 22.5096 9.9234C22.5096 9.92284 22.5095 9.92219 22.5095 9.92162C22.5095 9.92125 22.5095 9.92087 22.5094 9.9205C22.5094 9.92003 22.5094 9.91956 22.5094 9.919C22.5093 9.91844 22.5093 9.91797 22.5093 9.9174C22.5093 9.91703 22.5092 9.91656 22.5092 9.91619C22.5092 9.91562 22.5091 9.91497 22.5091 9.9144C22.5091 9.91412 22.5091 9.91365 22.509 9.91337C22.509 9.89734 22.4999 9.78756 22.4999 9.586C22.5002 8.13955 23.0398 6.77832 24.0383 5.72318C24.6647 5.06122 25.4196 4.5727 26.2499 4.28057V5.8384C26.2499 7.46334 26.9524 9.00842 28.1826 10.0819L42.9637 22.8862C43.7809 23.5994 44.2496 24.6298 44.2496 25.7131C44.2496 27.7808 42.5673 29.4631 40.4997 29.4631Z" fill="white"/>
</g>
<defs>
<clipPath id="clip0_10263_283363">
<rect width="48" height="48" fill="white" transform="translate(0 0.000976562)"/>
</clipPath>
</defs>
</svg>
