<svg width="48" height="48" viewBox="0 0 48 48" fill="none" xmlns="http://www.w3.org/2000/svg">
<g clip-path="url(#clip0_1761_3941)">
<path d="M24.0002 33.3772C18.8296 33.3772 14.623 29.1706 14.623 24.0001C14.623 18.8295 18.8296 14.6229 24.0002 14.6229C29.1707 14.6229 33.3773 18.8295 33.3773 24.0001C33.3773 29.1706 29.1707 33.3772 24.0002 33.3772ZM24.0002 18.3738C20.8979 18.3738 18.3739 20.8977 18.3739 24.0001C18.3739 27.1024 20.8979 29.6264 24.0002 29.6264C27.1025 29.6264 29.6265 27.1024 29.6265 24.0001C29.6265 20.8977 27.1025 18.3738 24.0002 18.3738Z" fill="white"/>
<path d="M24 40.8789C12.6259 40.8789 3.03951 29.7408 1.23328 27.5081C-0.411094 25.4754 -0.411094 22.5247 1.23328 20.492C3.03941 18.2594 12.6257 7.12128 24 7.12128C35.3742 7.12128 44.9605 18.2594 46.7667 20.4921C48.4112 22.5248 48.4111 25.4755 46.7667 27.5082C44.9605 29.7408 35.3742 40.8789 24 40.8789ZM24 10.872C16.5008 10.872 8.61966 17.325 4.14948 22.8511C3.61086 23.5168 3.61086 24.4832 4.14948 25.149C8.61966 30.675 16.5008 37.128 24 37.128C31.4993 37.128 39.3804 30.6751 43.8506 25.149C44.3892 24.4832 44.3892 23.5168 43.8506 22.8511C39.3803 17.325 31.4993 10.872 24 10.872Z" fill="white"/>
</g>
<defs>
<clipPath id="clip0_1761_3941">
<rect width="48" height="48" fill="white"/>
</clipPath>
</defs>
</svg>
