<svg width="48" height="48" viewBox="0 0 48 48" fill="none" xmlns="http://www.w3.org/2000/svg">
<path fill-rule="evenodd" clip-rule="evenodd" d="M25.3092 17.2564C25.2146 17.2625 25.1198 17.2656 25.0249 17.2656C22.5956 17.2656 20.6232 15.2513 20.6232 12.7704C20.6232 10.2895 22.5956 8.27519 25.0249 8.27519C27.4542 8.27519 29.4266 10.2895 29.4266 12.7704C29.428 13.8018 29.0804 14.8021 28.4428 15.6019L33.3083 24.736C34.5073 24.2909 35.7733 24.0632 37.0491 24.0632C43.0929 24.0632 47.9997 29.0741 47.9997 35.2464C47.9997 41.4186 43.0929 46.4296 37.0491 46.4296C34.9103 46.4287 32.8182 45.7906 31.0293 44.5935C30.8373 44.4661 30.675 44.2973 30.5538 44.0989C30.4326 43.9006 30.3553 43.6776 30.3275 43.4455C30.2997 43.2134 30.322 42.9779 30.3928 42.7556C30.4636 42.5332 30.5813 42.3294 30.7375 42.1585C30.7407 42.155 30.7441 42.1512 30.7506 42.1506C31.0132 41.8631 31.3661 41.6787 31.7481 41.6295C32.13 41.5803 32.5168 41.6694 32.8411 41.8813C34.0944 42.7102 35.5558 43.1513 37.0491 43.1514C41.3213 43.1514 44.7896 39.6094 44.7896 35.2464C44.7896 30.8834 41.3213 27.3414 37.0491 27.3414C35.5697 27.3414 33.47 28.0023 32.2076 28.8204C32.1427 28.8703 32.068 28.9053 31.9886 28.923C31.9092 28.9408 31.827 28.9409 31.7476 28.9233C31.6681 28.9057 31.5933 28.8709 31.5283 28.8212C31.4632 28.7715 31.4094 28.708 31.3705 28.6352L25.3092 17.2564ZM23.2883 36.6875C23.0662 37.9703 22.6263 39.2037 21.9884 40.3319C18.9665 45.6774 12.2639 47.5117 7.0297 44.4256C1.79554 41.3395 -0.000350277 34.4943 3.02136 29.1487C4.09155 27.2575 5.67873 25.7262 7.5884 24.7425C7.79242 24.6366 8.01669 24.5775 8.24545 24.5695C8.47421 24.5615 8.70191 24.6048 8.91255 24.6963C9.12331 24.7876 9.31191 24.925 9.46511 25.0988C9.61831 25.2726 9.73239 25.4785 9.79934 25.7021C9.80062 25.7069 9.80191 25.7115 9.79934 25.7174C9.91191 26.0935 9.89184 26.4979 9.7426 26.8603C9.59337 27.2228 9.32442 27.5204 8.98255 27.7012C7.65279 28.3952 6.54797 29.4671 5.8013 30.7878C3.6653 34.566 4.93471 39.4048 8.6345 41.5864C12.3343 43.7677 17.0724 42.4712 19.2085 38.6928C19.9482 37.3843 20.4375 35.1968 20.375 33.6713C20.3651 33.5889 20.3726 33.5053 20.3972 33.4262C20.4218 33.347 20.4628 33.2742 20.5175 33.2128C20.5721 33.1513 20.6391 33.1026 20.7139 33.07C20.7886 33.0374 20.8694 33.0216 20.9507 33.0238L33.6306 33.3525C33.6724 33.2661 33.7171 33.1808 33.765 33.0964C34.9796 30.9479 37.6739 30.2104 39.7777 31.4509C41.8819 32.6916 42.6036 35.4431 41.3889 37.5916C40.1743 39.7401 37.48 40.4773 35.376 39.2368C34.5007 38.7223 33.8263 37.9149 33.4667 36.9511L23.2883 36.6875Z" fill="white"/>
<path fill-rule="evenodd" clip-rule="evenodd" d="M17.9736 21.3457C16.9966 20.5077 16.1705 19.5018 15.5325 18.3734C12.5106 13.028 14.3065 6.18284 19.5406 3.09694C24.7748 0.0110392 31.4776 1.84508 34.4993 7.1902C35.568 9.08219 36.073 11.2514 35.9525 13.4322C35.9403 13.6656 35.8783 13.8935 35.7706 14.0999C35.663 14.3063 35.5125 14.4861 35.3296 14.6267C35.1468 14.7673 34.9359 14.8654 34.712 14.9139C34.4881 14.9625 34.2564 14.9605 34.0334 14.9079C34.0287 14.9068 34.0239 14.9055 34.0201 14.9002C33.645 14.8118 33.3121 14.5919 33.0794 14.2787C32.8466 13.9655 32.7288 13.5789 32.7464 13.1861C32.8229 11.663 32.4662 10.1498 31.7194 8.82909C29.5834 5.05093 24.8454 3.75433 21.1456 5.93571C17.4461 8.11731 16.1762 12.9559 18.3124 16.7343C19.0521 18.0427 20.6625 19.5693 21.9873 20.2767C22.0621 20.3092 22.1292 20.3577 22.184 20.4191C22.2388 20.4804 22.28 20.553 22.3048 20.6321C22.3296 20.7111 22.3375 20.7947 22.3278 20.8772C22.3182 20.9596 22.2912 21.0389 22.2488 21.1098L15.63 32.1598C15.6824 32.2399 15.7324 32.3221 15.7803 32.4065C16.9947 34.5552 16.2728 37.3067 14.1688 38.5472C12.065 39.7876 9.37076 39.0504 8.15611 36.9017C6.94145 34.7532 7.66333 32.0017 9.76713 30.7613C10.6411 30.2444 11.6631 30.0517 12.6602 30.2157L17.9736 21.3457Z" fill="white"/>
</svg>
