<svg width="48" height="48" viewBox="0 0 48 48" fill="none" xmlns="http://www.w3.org/2000/svg">
<g clip-path="url(#clip0_739_3564)">
<path d="M6.69123 39.6564C6.14008 39.6564 5.59418 39.4146 5.22397 38.9501C3.56621 36.8707 2.275 34.5513 1.38608 32.0564C0.466307 29.4747 0 26.7643 0 24.0003C0 17.5897 2.49635 11.5629 7.02929 7.02986C11.5622 2.49682 17.5891 0.000565794 23.9997 0.000565794C29.4615 0.000565794 34.8069 1.88473 39.0513 5.306C39.8575 5.95587 39.9842 7.13626 39.3344 7.9425C38.6845 8.74874 37.5041 8.8754 36.6979 8.22553C33.066 5.29794 28.6751 3.75052 23.9998 3.75052C12.834 3.75052 3.75005 12.8345 3.75005 24.0003C3.75005 28.6354 5.27366 32.9967 8.15625 36.6126C8.80171 37.4223 8.66868 38.602 7.85897 39.2475C7.5136 39.5228 7.10101 39.6563 6.69123 39.6564V39.6564ZM40.9701 40.9706C45.503 36.4377 47.9993 30.4108 47.9993 24.0002C47.9993 22.9125 47.9258 21.8185 47.7806 20.7482C47.6414 19.7221 46.6967 19.0026 45.6707 19.1422C44.6446 19.2813 43.9256 20.226 44.0647 21.2521C44.1873 22.1559 44.2494 23.0804 44.2494 24.0002C44.2494 35.166 35.1654 44.25 23.9996 44.25C22.8175 44.25 21.6332 44.1475 20.4794 43.9454C19.4597 43.7666 18.4878 44.4487 18.3091 45.4688C18.1304 46.4888 18.8124 47.4605 19.8325 47.6392C21.1993 47.8786 22.6014 48 23.9997 48C30.4103 48 36.4371 45.5036 40.9701 40.9706V40.9706ZM24.5622 36.1876C24.5622 37.482 23.5129 38.5314 22.2185 38.5314C20.9241 38.5314 19.8748 37.482 19.8748 36.1876C19.8748 34.8932 20.9241 33.8439 22.2185 33.8439C23.5129 33.8439 24.5622 34.8932 24.5622 36.1876ZM28.0309 28.4065C26.7365 28.4065 25.6872 29.4558 25.6872 30.7502C25.6872 32.0446 26.7365 33.0939 28.0309 33.0939C29.3253 33.0939 30.3746 32.0446 30.3746 30.7502C30.3746 29.4558 29.3253 28.4065 28.0309 28.4065ZM41.062 22.3128C41.062 19.2112 38.5387 16.6879 35.4371 16.6879C32.3355 16.6879 29.8121 19.2112 29.8121 22.3128C29.8121 25.4144 32.3355 27.9377 35.4371 27.9377C38.5387 27.9377 41.062 25.4144 41.062 22.3128ZM37.3121 22.3128C37.3121 23.3467 36.4709 24.1878 35.4371 24.1878C34.4032 24.1878 33.5621 23.3467 33.5621 22.3128C33.5621 21.2789 34.4032 20.4378 35.4371 20.4378C36.4709 20.4378 37.3121 21.2789 37.3121 22.3128ZM8.29462 47.2355C10.8167 46.3308 13.9618 44.5799 17.39 42.1721C18.2373 41.5769 18.4418 40.4075 17.8466 39.5602C17.2514 38.7127 16.0821 38.5083 15.2347 39.1035C12.077 41.3213 9.23942 42.9127 7.02854 43.7058C4.85582 44.4853 3.9953 44.2279 3.88374 44.1165C3.76964 44.0024 3.68377 43.5825 3.81727 42.7744C3.98602 41.7528 3.29462 40.7877 2.27294 40.619C1.25089 40.4496 0.286215 41.1416 0.117467 42.1633C-0.210841 44.1508 0.164154 45.7001 1.23214 46.768C2.05235 47.5883 3.15746 47.9986 4.53651 47.9986C5.62147 47.9985 6.87629 47.7443 8.29462 47.2355V47.2355ZM44.2158 14.2967C48.1672 7.88644 49.0257 3.49102 46.7673 1.23252C45.7496 0.214876 44.2837 -0.175495 42.41 0.07219C41.3835 0.207938 40.6612 1.15011 40.7969 2.17676C40.9325 3.2034 41.8745 3.92499 42.9015 3.7899C43.7128 3.68255 44.0532 3.82158 44.1157 3.8843C44.3752 4.1437 44.6403 6.46183 41.0236 12.3291C40.4802 13.2106 40.7543 14.3657 41.6359 14.9091C41.9425 15.0982 42.2823 15.1883 42.618 15.1883C43.247 15.1882 43.8615 14.8716 44.2158 14.2967V14.2967Z" fill="white"/>
</g>
<defs>
<clipPath id="clip0_739_3564">
<rect width="48" height="48" fill="white"/>
</clipPath>
</defs>
</svg>
