<svg width="48" height="48" viewBox="0 0 48 48" fill="none" xmlns="http://www.w3.org/2000/svg">
<path d="M9.375 30.3061H15C16.0356 30.3061 16.875 29.4667 16.875 28.4311C16.875 27.3955 16.0356 26.5561 15 26.5561H9.375C8.33944 26.5561 7.5 27.3955 7.5 28.4311C7.5 29.4667 8.33944 30.3061 9.375 30.3061Z" fill="white"/>
<path d="M9.375 22.8061H15C16.0356 22.8061 16.875 21.9667 16.875 20.9311C16.875 19.8955 16.0356 19.0561 15 19.0561H9.375C8.33944 19.0561 7.5 19.8955 7.5 20.9311C7.5 21.9667 8.33944 22.8061 9.375 22.8061Z" fill="white"/>
<path d="M20.3853 28.4311C20.3853 29.4666 21.2247 30.3061 22.2603 30.3061C26.181 30.3061 29.867 28.7793 32.6394 26.0069L46.3513 12.2937C48.5495 10.0956 48.5499 6.53727 46.3513 4.33874C44.1582 2.14555 40.5896 2.14555 38.3963 4.33874L24.6844 18.0519C21.9122 20.8244 20.3853 24.5104 20.3853 28.4311ZM41.0481 6.99046C41.779 6.25939 42.9687 6.25939 43.6997 6.99046C44.4324 7.72302 44.4327 8.90924 43.6997 9.64208L29.9877 23.3553C28.4203 24.9228 26.4604 25.9554 24.3297 26.3616C24.7359 24.231 25.7687 22.2711 27.336 20.7036L41.0481 6.99046Z" fill="white"/>
<path d="M5.625 45.3061C7.01025 45.3061 8.34169 44.7978 9.37425 43.8745L11.9662 41.5561H31.125C36.2945 41.5561 40.5 37.3505 40.5 32.1811V27.9752C40.5 26.9396 39.6606 26.1002 38.625 26.1002C37.5894 26.1002 36.75 26.9396 36.75 27.9752V32.1811C36.75 35.2827 34.2266 37.8061 31.125 37.8061H11.25C10.7887 37.8061 10.3437 37.9761 9.99994 38.2836L6.8745 41.0793C6.53053 41.3868 6.08681 41.5561 5.625 41.5561C4.59113 41.5561 3.75 40.715 3.75 39.6811V17.1811C3.75 14.0795 6.27338 11.5561 9.375 11.5561H25.1015C26.137 11.5561 26.9765 10.7167 26.9765 9.68109C26.9765 8.64553 26.137 7.80609 25.1015 7.80609H9.375C4.20553 7.80609 0 12.0117 0 17.1811V39.6811C0 42.7827 2.52338 45.3061 5.625 45.3061Z" fill="white"/>
</svg>
