<svg width="48" height="48" viewBox="0 0 48 48" fill="none" xmlns="http://www.w3.org/2000/svg">
<path fill-rule="evenodd" clip-rule="evenodd" d="M14.9709 11.4572C13.8235 12.806 13.0432 14.7759 13.0339 17.453C13.0323 17.8975 12.6837 18.2735 12.2299 18.297C10.2466 18.3999 8.9201 20.1494 8.86982 22.2596C8.82121 24.3 10.0133 26.5203 13.0249 27.2587L12.6465 28.8021C8.86767 27.8756 7.21584 24.9632 7.28116 22.2217C7.33988 19.7569 8.82992 17.2837 11.4613 16.791C11.5888 14.1091 12.4399 11.98 13.7605 10.4276C15.1847 8.75332 17.1129 7.80014 19.1308 7.52982C22.8682 7.02916 26.96 8.86839 28.8656 12.836C29.1439 12.6722 29.4492 12.5357 29.7618 12.4305C30.4804 12.1888 31.3359 12.0786 32.1763 12.2374C33.0312 12.3989 33.8682 12.8406 34.4822 13.6829C34.9955 14.3872 35.3159 15.3202 35.4072 16.4969C36.0931 16.6247 36.8018 16.9118 37.4588 17.3105C38.3514 17.8521 39.2012 18.6311 39.8157 19.6009C40.4333 20.5756 40.8172 21.7513 40.7495 23.0606C40.6817 24.3715 40.1644 25.755 39.0808 27.15C38.1582 28.3377 36.7011 28.8249 35.3392 28.8249V27.2358C36.3612 27.2358 37.2861 26.87 37.8258 26.1751C38.7438 24.9933 39.1141 23.9139 39.1625 22.9785C39.211 22.0416 38.9397 21.1875 38.4733 20.4514C38.0038 19.7104 37.3407 19.0976 36.6344 18.669C35.9205 18.2358 35.2144 18.0215 34.6763 18.0122C34.168 18.0033 33.8472 17.5787 33.8449 17.1684C33.8377 15.898 33.552 15.1046 33.198 14.619C32.8518 14.1441 32.3913 13.8952 31.8813 13.7989C31.3567 13.6998 30.7799 13.7646 30.2685 13.9367C29.7421 14.1138 29.3814 14.3708 29.2306 14.5603C28.7952 15.1073 27.9817 14.9097 27.7675 14.3202C26.3639 10.4567 22.6779 8.65797 19.3418 9.10487C17.681 9.32736 16.1206 10.1057 14.9709 11.4572Z" fill="white"/>
<path fill-rule="evenodd" clip-rule="evenodd" d="M24.036 38.1388C28.7169 38.1388 32.5115 34.3442 32.5115 29.6632C32.5115 24.9823 28.7169 21.1877 24.036 21.1877C19.3551 21.1877 15.5604 24.9823 15.5604 29.6632C15.5604 34.3442 19.3551 38.1388 24.036 38.1388ZM24.036 39.7279C29.5945 39.7279 34.1006 35.2218 34.1006 29.6632C34.1006 24.1047 29.5945 19.5986 24.036 19.5986C18.4774 19.5986 13.9713 24.1047 13.9713 29.6632C13.9713 35.2218 18.4774 39.7279 24.036 39.7279Z" fill="white"/>
<path fill-rule="evenodd" clip-rule="evenodd" d="M29.3004 34.3546H18.797V32.7655H29.3004V34.3546Z" fill="white"/>
<path fill-rule="evenodd" clip-rule="evenodd" d="M21.5271 28.7856V34.205H19.938V28.7856H21.5271Z" fill="white"/>
<path fill-rule="evenodd" clip-rule="evenodd" d="M24.8306 26.8243V34.205H23.2414V26.8243H24.8306Z" fill="white"/>
<path fill-rule="evenodd" clip-rule="evenodd" d="M28.082 24.8113V34.205H26.4929V24.8113H28.082Z" fill="white"/>
</svg>
