<svg width="48" height="48" viewBox="0 0 48 48" fill="none" xmlns="http://www.w3.org/2000/svg">
<g clip-path="url(#clip0_1767_3992)">
<path d="M44.4705 9.40386C44.4705 9.40386 26.0923 1.90254 26.0881 1.90095C24.7909 1.38232 23.2889 1.35045 21.9119 1.90095C21.9077 1.90264 3.5295 9.40386 3.5295 9.40386C1.38516 10.2649 0 12.3136 0 14.6251C0 16.9366 1.38516 18.9852 3.5295 19.8463C7.87725 21.6209 21.9023 27.3455 21.9119 27.3492C23.2091 27.8678 24.7111 27.8997 26.0881 27.3492C26.0975 27.3455 25.6298 27.5363 44.4705 19.8463C46.6148 18.9852 48 16.9366 48 14.6251C48 12.3136 46.6148 10.2649 44.4705 9.40386ZM43.0706 16.3674C43.0666 16.369 24.6912 23.8692 24.6912 23.8692C24.253 24.043 23.747 24.043 23.3088 23.8692C23.3088 23.8692 4.93341 16.3691 4.92938 16.3674C4.21294 16.0807 3.75 15.3969 3.75 14.6251C3.75 13.8532 4.21294 13.1694 4.92938 12.8828C4.93341 12.8812 23.3088 5.38104 23.3088 5.38104C23.747 5.20723 24.253 5.20723 24.6912 5.38104C24.6912 5.38104 43.0666 12.8811 43.0706 12.8828C43.7871 13.1694 44.25 13.8533 44.25 14.6251C44.25 15.3968 43.7871 16.0807 43.0706 16.3674Z" fill="white"/>
<path d="M12.75 27.8669C11.7144 27.8669 10.875 28.7063 10.875 29.7419V30.3762C10.875 32.6897 12.263 34.7397 14.411 35.5988L21.9119 38.5992C23.223 39.1233 24.7245 39.1443 26.0884 38.5991L33.589 35.5988C35.737 34.7397 37.125 32.6897 37.125 30.3762V29.7419C37.125 28.7063 36.2856 27.8669 35.25 27.8669C34.2144 27.8669 33.375 28.7063 33.375 29.7419V30.3762C33.375 31.1474 32.9123 31.8307 32.1964 32.1171L24.6961 35.1172C24.2551 35.2936 23.7447 35.2934 23.3044 35.1173L15.8037 32.117C15.0877 31.8306 14.6251 31.1473 14.6251 30.3761V29.7418C14.625 28.7063 13.7856 27.8669 12.75 27.8669Z" fill="white"/>
<path d="M44.25 40.0984V26.7419C44.25 25.7063 43.4106 24.8669 42.375 24.8669C41.3395 24.8669 40.5 25.7063 40.5 26.7419V40.0984L37.2992 43.2993C36.5669 44.0315 36.5669 45.2187 37.2992 45.9509C38.0315 46.6831 39.2186 46.6832 39.9508 45.9509L42.375 43.5267L44.7992 45.9509C45.5314 46.6831 46.7186 46.6832 47.4508 45.9509C48.1831 45.2186 48.1831 44.0314 47.4508 43.2993L44.25 40.0984Z" fill="white"/>
</g>
<defs>
<clipPath id="clip0_1767_3992">
<rect width="48" height="48" fill="white"/>
</clipPath>
</defs>
</svg>
