<svg width="48" height="48" viewBox="0 0 48 48" fill="none" xmlns="http://www.w3.org/2000/svg">
<path fill-rule="evenodd" clip-rule="evenodd" d="M16.6875 5.625C17.3977 5.625 18.0469 6.02625 18.3646 6.66147L31.3125 32.5574L36.9479 21.2865C37.2656 20.6513 37.9148 20.25 38.625 20.25H45.9375C46.973 20.25 47.8125 21.0895 47.8125 22.125C47.8125 23.1605 46.973 24 45.9375 24H39.7838L32.9896 37.5885C32.6719 38.2237 32.0227 38.625 31.3125 38.625C30.6023 38.625 29.9531 38.2237 29.6354 37.5885L16.6875 11.6926L11.0521 22.9635C10.7344 23.5987 10.0852 24 9.375 24H2.0625C1.02697 24 0.1875 23.1605 0.1875 22.125C0.1875 21.0895 1.02697 20.25 2.0625 20.25H8.21619L15.0104 6.66147C15.3281 6.02625 15.9773 5.625 16.6875 5.625Z" fill="white"/>
</svg>
