<svg width="48" height="48" viewBox="0 0 48 48" fill="none" xmlns="http://www.w3.org/2000/svg">
<path d="M4.64062 48C3.60506 48 2.76562 47.1606 2.76562 46.125C2.76562 36.7167 10.4198 29.0625 19.8281 29.0625H22.6406C24.566 29.0625 26.4565 29.3813 28.2597 30.0098C29.2375 30.3507 29.7539 31.4198 29.4129 32.3976C29.0721 33.3754 28.0029 33.8918 27.0252 33.5508C25.6198 33.0609 24.1447 32.8125 22.6406 32.8125H19.8281C12.4876 32.8125 6.51562 38.7845 6.51562 46.125C6.51562 47.1606 5.67619 48 4.64062 48ZM33.7031 12.6562C33.7031 5.67759 28.0255 0 21.0469 0C14.0682 0 8.39062 5.67759 8.39062 12.6562C8.39062 19.6349 14.0682 25.3125 21.0469 25.3125C28.0255 25.3125 33.7031 19.6349 33.7031 12.6562ZM29.9531 12.6562C29.9531 17.5672 25.9578 21.5625 21.0469 21.5625C16.136 21.5625 12.1406 17.5672 12.1406 12.6562C12.1406 7.74534 16.136 3.75 21.0469 3.75C25.9578 3.75 29.9531 7.74534 29.9531 12.6562ZM43.3594 36.75H37.7344V31.125C37.7344 30.0894 36.8949 29.25 35.8594 29.25C34.8238 29.25 33.9844 30.0894 33.9844 31.125V36.75H28.3594C27.3238 36.75 26.4844 37.5894 26.4844 38.625C26.4844 39.6606 27.3238 40.5 28.3594 40.5H33.9844V46.125C33.9844 47.1606 34.8238 48 35.8594 48C36.8949 48 37.7344 47.1606 37.7344 46.125V40.5H43.3594C44.3949 40.5 45.2344 39.6606 45.2344 38.625C45.2344 37.5894 44.3949 36.75 43.3594 36.75Z" fill="white"/>
</svg>
