<svg width="48" height="48" viewBox="0 0 48 48" fill="none" xmlns="http://www.w3.org/2000/svg">
<path d="M20.25 48H27.75C28.7856 48 29.625 47.1605 29.625 46.125C29.625 45.0894 28.7856 44.25 27.75 44.25H20.25C19.2144 44.25 18.375 45.0894 18.375 46.125C18.375 47.1605 19.2144 48 20.25 48Z" fill="white"/>
<path d="M26.5998 4.00958C26.3605 3.96129 26.1188 3.91954 25.875 3.88451C24.7632 3.88441 24.6655 3.88438 24.5677 3.88438C24.4985 3.88438 24.4293 3.88438 24 3.88438L22.125 3.88446C15.773 4.79702 10.875 10.2744 10.875 16.875V28.4021C10.875 29.0629 10.5773 29.664 10.1345 29.898C8.27812 30.8781 7.125 32.7852 7.125 34.875C7.125 37.9766 9.64838 40.5 12.75 40.5H35.25C38.3516 40.5 40.875 37.9766 40.875 34.875C40.875 32.7852 39.7219 30.8781 37.8655 29.898C37.4226 29.6641 37.125 29.0629 37.125 28.4021V21.9993C37.0834 21.9998 37.0417 22 37 22C35.7366 22 34.5187 21.8047 33.375 21.4427V28.4021C33.375 30.4779 34.4247 32.3217 36.1146 33.214C36.7378 33.5431 37.125 34.1795 37.125 34.875C37.125 35.9088 36.2839 36.75 35.25 36.75H12.75C11.7161 36.75 10.875 35.9088 10.875 34.875C10.875 34.1795 11.2622 33.5431 11.8854 33.214C13.5753 32.3217 14.625 30.4779 14.625 28.4021V16.875C14.625 11.7056 18.8306 7.49998 24 7.49998C24.4216 7.49998 24.8367 7.52795 25.2437 7.58212C25.5048 6.30578 25.9685 5.10324 26.5998 4.00958Z" fill="white"/>
<path d="M43.0001 8.99995H38.0001V3.99995C38.0001 3.44769 37.5523 2.99995 37.0001 2.99995C36.4479 2.99995 36.0001 3.44769 36.0001 3.99995V8.99995H31.0001C30.4478 8.99995 30.0001 9.44772 30.0001 9.99995C30.0001 10.5522 30.4478 11 31.0001 11H36.0001V16C36.0001 16.5522 36.4479 17 37.0001 17C37.5523 17 38.0001 16.5522 38.0001 16V11H43.0001C43.5523 11 44.0001 10.5522 44.0001 9.99995C44.0001 9.44772 43.5523 8.99995 43.0001 8.99995Z" fill="white"/>
<path fill-rule="evenodd" clip-rule="evenodd" d="M38.8001 8.19995H43.0001C43.9941 8.19995 44.8001 9.00589 44.8001 9.99995C44.8001 10.9941 43.9941 11.8 43.0001 11.8H38.8001V16C38.8001 16.994 37.9942 17.8 37.0001 17.8C36.006 17.8 35.2001 16.994 35.2001 16V11.8H31.0001C30.006 11.8 29.2001 10.994 29.2001 9.99995C29.2001 9.00592 30.006 8.19995 31.0001 8.19995H35.2001V3.99995C35.2001 3.00584 36.006 2.19995 37.0001 2.19995C37.9942 2.19995 38.8001 3.00586 38.8001 3.99995V8.19995ZM43.0001 8.99995C43.5523 8.99995 44.0001 9.44772 44.0001 9.99995C44.0001 10.5522 43.5523 11 43.0001 11H38.0001V16C38.0001 16.5522 37.5523 17 37.0001 17C36.4479 17 36.0001 16.5522 36.0001 16V11H31.0001C30.4478 11 30.0001 10.5522 30.0001 9.99995C30.0001 9.44772 30.4478 8.99995 31.0001 8.99995H36.0001V3.99995C36.0001 3.44769 36.4479 2.99995 37.0001 2.99995C37.5523 2.99995 38.0001 3.44769 38.0001 3.99995V8.99995H43.0001Z" fill="white"/>
</svg>
