<svg width="48" height="48" viewBox="0 0 48 48" fill="none" xmlns="http://www.w3.org/2000/svg">
<path d="M20.25 48H27.75C28.7856 48 29.625 47.1606 29.625 46.125C29.625 45.0894 28.7856 44.25 27.75 44.25H20.25C19.2144 44.25 18.375 45.0894 18.375 46.125C18.375 47.1606 19.2144 48 20.25 48Z" fill="white"/>
<path d="M24 0C22.9644 0 22.125 0.839438 22.125 1.875V3.88453C15.773 4.79709 10.875 10.2744 10.875 16.875V28.4021C10.875 29.0629 10.5773 29.664 10.1345 29.898C8.27812 30.8782 7.125 32.7852 7.125 34.875C7.125 37.9766 9.64838 40.5 12.75 40.5H35.25C38.3516 40.5 40.875 37.9766 40.875 34.875C40.875 32.7852 39.7219 30.8782 37.8655 29.898C37.4226 29.6641 37.125 29.063 37.125 28.4021V16.875C37.125 10.2744 32.227 4.79709 25.875 3.88453V1.875C25.875 0.839438 25.0356 0 24 0V0ZM33.375 16.875V28.4021C33.375 30.4779 34.4247 32.3217 36.1146 33.214C36.7378 33.5431 37.125 34.1796 37.125 34.875C37.125 35.9089 36.2839 36.75 35.25 36.75H12.75C11.7161 36.75 10.875 35.9089 10.875 34.875C10.875 34.1796 11.2622 33.5431 11.8854 33.214C13.5753 32.3217 14.625 30.4779 14.625 28.4021V16.875C14.625 11.7056 18.8306 7.5 24 7.5C29.1694 7.5 33.375 11.7056 33.375 16.875Z" fill="white"/>
</svg>
