<svg width="48" height="48" viewBox="0 0 48 48" fill="none" xmlns="http://www.w3.org/2000/svg">
<g clip-path="url(#clip0_1031_3990)">
<path d="M24.0004 0.00219727C10.767 0.00219727 0.00146484 10.7689 0.00146484 24.0012C0.00146484 37.2334 10.767 48.0001 24.0004 48.0001C37.2338 48.0001 47.9994 37.2334 47.9994 24.0012C47.9994 10.7689 37.2338 0.00219727 24.0004 0.00219727Z" fill="#FF6163"/>
<path d="M26.5591 34.238C26.5591 34.7443 26.4089 35.2392 26.1277 35.6602C25.8464 36.0811 25.4466 36.4092 24.9789 36.603C24.5111 36.7967 23.9964 36.8474 23.4999 36.7486C23.0033 36.6499 22.5472 36.4061 22.1892 36.0481C21.8312 35.6901 21.5874 35.2339 21.4886 34.7374C21.3899 34.2408 21.4406 33.7261 21.6343 33.2584C21.8281 32.7907 22.1562 32.3909 22.5771 32.1096C22.9981 31.8283 23.493 31.6782 23.9993 31.6782C24.6782 31.6782 25.3293 31.9479 25.8093 32.4279C26.2894 32.908 26.5591 33.5591 26.5591 34.238ZM26.5591 13.7593V23.9986C26.5591 24.6775 26.2894 25.3286 25.8093 25.8087C25.3293 26.2888 24.6782 26.5584 23.9993 26.5584C23.3204 26.5584 22.6693 26.2888 22.1892 25.8087C21.7091 25.3286 21.4395 24.6775 21.4395 23.9986V13.7593C21.4395 13.0804 21.7091 12.4293 22.1892 11.9492C22.6693 11.4692 23.3204 11.1995 23.9993 11.1995C24.6782 11.1995 25.3293 11.4692 25.8093 11.9492C26.2894 12.4293 26.5591 13.0804 26.5591 13.7593Z" fill="white"/>
</g>
<defs>
<clipPath id="clip0_1031_3990">
<rect width="48" height="48" fill="white"/>
</clipPath>
</defs>
</svg>
