<svg width="48" height="48" viewBox="0 0 48 48" fill="none" xmlns="http://www.w3.org/2000/svg">
<g clip-path="url(#clip0_1075_6096)">
<path fill-rule="evenodd" clip-rule="evenodd" d="M24 32.1563C19.4954 32.1563 15.8437 28.5046 15.8437 24C15.8437 19.4954 19.4954 15.8438 24 15.8438C28.5046 15.8438 32.1562 19.4954 32.1562 24C32.1562 28.5046 28.5046 32.1563 24 32.1563ZM12.0938 24C12.0938 30.5757 17.4243 35.9062 24 35.9062C30.5757 35.9062 35.9062 30.5757 35.9062 24C35.9062 17.4243 30.5757 12.0938 24 12.0938C17.4243 12.0938 12.0938 17.4243 12.0938 24Z" fill="white"/>
<path fill-rule="evenodd" clip-rule="evenodd" d="M24 44.25C12.8163 44.25 3.75 35.1837 3.75 24C3.75 12.8163 12.8163 3.75 24 3.75C35.1837 3.75 44.25 12.8163 44.25 24C44.25 25.0355 45.0895 25.875 46.125 25.875C47.1605 25.875 48 25.0355 48 24C48 10.7452 37.2548 0 24 0C10.7452 0 0 10.7452 0 24C0 37.2548 10.7452 48 24 48C27.9545 48 31.6908 47.0421 34.9842 45.3441C35.9046 44.8696 36.2661 43.7387 35.7915 42.8183C35.317 41.8979 34.1862 41.5365 33.2658 42.011C30.4913 43.4415 27.3428 44.25 24 44.25Z" fill="white"/>
<path fill-rule="evenodd" clip-rule="evenodd" d="M40.0781 32.1563C37.7741 32.1563 35.9062 30.2884 35.9062 27.9844V24C35.9062 22.9645 35.0668 22.125 34.0312 22.125C32.9957 22.125 32.1562 22.9645 32.1562 24V27.9844C32.1562 32.3595 35.703 35.9062 40.0781 35.9062C42.3218 35.9062 44.3501 34.9711 45.7891 33.4745C46.5068 32.728 46.4835 31.541 45.737 30.8233C44.9906 30.1056 43.8036 30.1289 43.0859 30.8754C42.3246 31.6672 41.2601 32.1563 40.0781 32.1563Z" fill="white"/>
</g>
<defs>
<clipPath id="clip0_1075_6096">
<rect width="48" height="48" fill="white"/>
</clipPath>
</defs>
</svg>
