<svg width="48" height="48" viewBox="0 0 48 48" fill="none" xmlns="http://www.w3.org/2000/svg">
<g clip-path="url(#clip0_347_7173)">
<path d="M24 -2.09815e-06C30.4106 -1.53771e-06 36.4375 2.49647 40.9706 7.02938C45.5035 11.5625 48 17.5894 48 24C48 30.4106 45.5035 36.4375 40.9706 40.9706C36.4375 45.5035 30.4106 48 24 48C17.5894 48 11.5625 45.5035 7.02938 40.9706C2.49647 36.4375 1.53771e-06 30.4106 2.09815e-06 24C2.65858e-06 17.5894 2.49647 11.5625 7.02938 7.02937C11.5625 2.49647 17.5894 -2.65858e-06 24 -2.09815e-06V-2.09815e-06ZM24 44.25C35.1659 44.25 44.25 35.1659 44.25 24C44.25 12.8341 35.1659 3.75 24 3.75C12.8341 3.75 3.75 12.8341 3.75 24C3.75 35.1659 12.8341 44.25 24 44.25Z" fill="white"/>
<path d="M26.7657 13.1952C27.2404 13.1952 27.7151 13.3742 28.0802 13.7332L34.3885 19.9363C34.3916 19.9393 34.3946 19.9423 34.3977 19.9454C35.4611 21.0056 36.0469 22.4156 36.0469 23.9157C36.0469 25.4158 35.4612 26.8259 34.3978 27.8862C34.3924 27.8917 34.3869 27.8969 34.3815 27.9023L28.0732 34.0393C27.3309 34.7613 26.1438 34.7451 25.4217 34.0027C24.6997 33.2604 24.716 32.0734 25.4582 31.3513L31.7571 25.2237C32.1053 24.873 32.297 24.4089 32.297 23.9158C32.297 23.4213 32.1041 22.9559 31.7539 22.6049L25.4512 16.4074C24.7128 15.6814 24.7028 14.4942 25.4288 13.7558C25.7957 13.3823 26.2806 13.1952 26.7657 13.1952V13.1952ZM13.2656 22.1952L26.7656 22.1952C27.8012 22.1952 28.6406 23.0347 28.6406 24.0702C28.6406 25.1058 27.8012 25.9452 26.7656 25.9452L13.2656 25.9452C12.2301 25.9452 11.3906 25.1058 11.3906 24.0702C11.3906 23.0347 12.2301 22.1952 13.2656 22.1952Z" fill="white"/>
</g>
<defs>
<clipPath id="clip0_347_7173">
<rect width="48" height="48" fill="white"/>
</clipPath>
</defs>
</svg>
