<svg width="48" height="48" viewBox="0 0 48 48" fill="none" xmlns="http://www.w3.org/2000/svg">
<g clip-path="url(#clip0_347_7171)">
<path d="M48 24C48 30.4106 45.5035 36.4375 40.9706 40.9706C36.4375 45.5035 30.4106 48 24 48C17.5894 48 11.5625 45.5035 7.02938 40.9706C2.49647 36.4375 -7.68856e-07 30.4106 -1.04907e-06 24C-1.32929e-06 17.5894 2.49647 11.5625 7.02937 7.02938C11.5625 2.49647 17.5894 -7.68856e-07 24 -1.04907e-06C30.4106 -1.32929e-06 36.4375 2.49647 40.9706 7.02937C45.5035 11.5625 48 17.5894 48 24V24ZM3.75 24C3.75 35.1659 12.8341 44.25 24 44.25C35.1659 44.25 44.25 35.1659 44.25 24C44.25 12.8341 35.1659 3.75 24 3.75C12.8341 3.75 3.75 12.8341 3.75 24Z" fill="white"/>
<path d="M34.8048 26.7657C34.8048 27.2404 34.6258 27.7151 34.2668 28.0802L28.0637 34.3885C28.0607 34.3916 28.0577 34.3946 28.0546 34.3977C26.9944 35.4611 25.5844 36.0469 24.0843 36.0469C22.5842 36.0469 21.1741 35.4612 20.1138 34.3978C20.1083 34.3924 20.1031 34.3869 20.0977 34.3815L13.9607 28.0732C13.2387 27.3309 13.2549 26.1438 13.9973 25.4217C14.7396 24.6997 15.9266 24.716 16.6487 25.4582L22.7763 31.7571C23.127 32.1052 23.5911 32.297 24.0842 32.297C24.5787 32.297 25.0441 32.1041 25.3951 31.7539L31.5926 25.4512C32.3186 24.7128 33.5058 24.7027 34.2442 25.4288C34.6177 25.7957 34.8048 26.2806 34.8048 26.7657V26.7657ZM25.8048 13.2656L25.8048 26.7656C25.8048 27.8012 24.9653 28.6406 23.9298 28.6406C22.8942 28.6406 22.0548 27.8012 22.0548 26.7656L22.0548 13.2656C22.0548 12.2301 22.8942 11.3906 23.9298 11.3906C24.9653 11.3906 25.8048 12.2301 25.8048 13.2656Z" fill="white"/>
</g>
<defs>
<clipPath id="clip0_347_7171">
<rect width="48" height="48" fill="white"/>
</clipPath>
</defs>
</svg>
