<svg width="48" height="48" viewBox="0 0 48 48" fill="none" xmlns="http://www.w3.org/2000/svg">
<g clip-path="url(#clip0_347_7172)">
<path d="M24 48C17.5894 48 11.5625 45.5035 7.02938 40.9706C2.49647 36.4375 0 30.4106 0 24C0 17.5894 2.49647 11.5625 7.02938 7.02938C11.5625 2.49647 17.5894 0 24 0C30.4106 0 36.4375 2.49647 40.9706 7.02938C45.5035 11.5625 48 17.5894 48 24C48 30.4106 45.5035 36.4375 40.9706 40.9706C36.4375 45.5035 30.4106 48 24 48V48ZM24 3.75C12.8341 3.75 3.75 12.8341 3.75 24C3.75 35.1659 12.8341 44.25 24 44.25C35.1659 44.25 44.25 35.1659 44.25 24C44.25 12.8341 35.1659 3.75 24 3.75Z" fill="white"/>
<path d="M21.2343 34.8048C20.7596 34.8048 20.2849 34.6258 19.9198 34.2668L13.6115 28.0637C13.6084 28.0607 13.6054 28.0577 13.6023 28.0546C12.5389 26.9944 11.9531 25.5844 11.9531 24.0843C11.9531 22.5842 12.5388 21.1741 13.6022 20.1138C13.6076 20.1083 13.6131 20.1031 13.6185 20.0977L19.9268 13.9607C20.6691 13.2387 21.8562 13.2549 22.5783 13.9973C23.3003 14.7396 23.284 15.9266 22.5418 16.6487L16.2429 22.7763C15.8947 23.127 15.703 23.5911 15.703 24.0842C15.703 24.5787 15.8959 25.0441 16.2461 25.3951L22.5488 31.5926C23.2872 32.3186 23.2973 33.5058 22.5712 34.2442C22.2043 34.6177 21.7194 34.8048 21.2343 34.8048V34.8048ZM34.7344 25.8048L21.2344 25.8048C20.1988 25.8048 19.3594 24.9653 19.3594 23.9298C19.3594 22.8942 20.1988 22.0548 21.2344 22.0548L34.7344 22.0548C35.7699 22.0548 36.6094 22.8942 36.6094 23.9298C36.6094 24.9653 35.7699 25.8048 34.7344 25.8048Z" fill="white"/>
</g>
<defs>
<clipPath id="clip0_347_7172">
<rect width="48" height="48" fill="white"/>
</clipPath>
</defs>
</svg>
