<svg width="48" height="48" viewBox="0 0 48 48" fill="none" xmlns="http://www.w3.org/2000/svg">
<path d="M4.00028 24.0007C4.00012 23.738 4.05174 23.4778 4.15219 23.2351C4.25264 22.9924 4.39995 22.7719 4.5857 22.5861C4.77145 22.4004 4.99199 22.2531 5.23471 22.1526C5.47743 22.0522 5.73757 22.0005 6.00025 22.0007L37.1721 22.0007L26.5862 11.4147C26.4005 11.229 26.2531 11.0086 26.1526 10.7659C26.0521 10.5233 26.0004 10.2633 26.0004 10.0006C26.0004 9.73803 26.0521 9.47798 26.1526 9.23535C26.2531 8.99272 26.4005 8.77227 26.5862 8.58657C26.7719 8.40087 26.9923 8.25356 27.2349 8.15306C27.4776 8.05256 27.7376 8.00084 28.0002 8.00084C28.2628 8.00084 28.5229 8.05256 28.7655 8.15306C29.0082 8.25356 29.2286 8.40087 29.4143 8.58657L43.4143 22.5866C43.6 22.7723 43.7474 22.9927 43.848 23.2353C43.9485 23.478 44.0002 23.738 44.0002 24.0007C44.0002 24.2633 43.9485 24.5234 43.848 24.766C43.7474 25.0086 43.6 25.229 43.4143 25.4147L29.4143 39.4148C29.0393 39.7898 28.5306 40.0005 28.0002 40.0005C27.4699 40.0005 26.9612 39.7898 26.5862 39.4148C26.2111 39.0397 26.0004 38.5311 26.0004 38.0007C26.0004 37.4703 26.2111 36.9616 26.5862 36.5866L37.1721 26.0006L6.00025 26.0006C5.73757 26.0008 5.47743 25.9492 5.23471 25.8487C4.99199 25.7483 4.77145 25.601 4.5857 25.4152C4.39996 25.2295 4.25264 25.0089 4.15219 24.7662C4.05174 24.5235 4.00012 24.2633 4.00028 24.0007V24.0007Z" fill="white"/>
</svg>
