<svg width="48" height="48" viewBox="0 0 48 48" fill="none" xmlns="http://www.w3.org/2000/svg">
<path d="M33.9852 12H14.0386C13.5042 12 12.9917 12.2123 12.6139 12.5901C12.236 12.968 12.0238 13.4805 12.0238 14.0148C12.0238 14.5492 12.236 15.0616 12.6139 15.4395C12.9917 15.8173 13.5042 16.0296 14.0386 16.0296H29.1194L12.6151 32.536C12.4227 32.7218 12.2692 32.9441 12.1636 33.19C12.058 33.4358 12.0024 33.7002 12.0001 33.9677C11.9978 34.2352 12.0487 34.5005 12.15 34.7481C12.2513 34.9957 12.4009 35.2207 12.5901 35.4099C12.7793 35.5991 13.0043 35.7487 13.2519 35.85C13.4995 35.9513 13.7648 36.0022 14.0323 35.9999C14.2998 35.9976 14.5642 35.942 14.81 35.8364C15.0559 35.7308 15.2782 35.5773 15.464 35.3849L31.9704 18.8796V33.9614C31.9704 34.4958 32.1827 35.0083 32.5605 35.3861C32.9384 35.764 33.4508 35.9762 33.9852 35.9762C34.5195 35.9762 35.032 35.764 35.4099 35.3861C35.7877 35.0083 36 34.4958 36 33.9614V14.0148C36 13.4805 35.7877 12.968 35.4099 12.5901C35.032 12.2123 34.5195 12 33.9852 12V12Z" fill="white"/>
</svg>
