<svg width="48" height="48" viewBox="0 0 48 48" fill="none" xmlns="http://www.w3.org/2000/svg">
<path d="M41.6558 19.8338L25.6878 35.7998C23.9249 37.6253 21.526 38.7008 18.9902 38.8025C16.4545 38.9042 13.9772 38.0243 12.0738 36.3458C11.1443 35.4707 10.4001 34.4178 9.88531 33.2495C9.37052 32.0813 9.09565 30.8216 9.077 29.5451C9.05834 28.2686 9.29629 27.0014 9.77672 25.8187C10.2571 24.6359 10.9703 23.5617 11.8738 22.6598L25.4738 9.05979C26.546 8.01869 27.9849 7.44126 29.4794 7.45228C30.9739 7.46331 32.404 8.06189 33.4609 9.11869C34.5177 10.1755 35.1162 11.6057 35.1273 13.1002C35.1383 14.5947 34.5609 16.0335 33.5198 17.1058L19.9198 30.7058C19.5689 31.0389 19.1036 31.2246 18.6198 31.2246C18.1359 31.2246 17.6706 31.0389 17.3198 30.7058C16.9778 30.3595 16.786 29.8925 16.786 29.4058C16.786 28.9191 16.9778 28.452 17.3198 28.1058L28.1938 17.2318C28.5693 16.8541 28.7794 16.3427 28.7779 15.8101C28.7764 15.2775 28.5634 14.7673 28.1858 14.3918C27.8081 14.0162 27.2967 13.8061 26.7641 13.8076C26.2315 13.8091 25.7213 14.0221 25.3458 14.3998L14.4718 25.2698C13.3778 26.3671 12.7635 27.8533 12.7635 29.4028C12.7635 30.9522 13.3778 32.4385 14.4718 33.5358C15.5849 34.5985 17.0648 35.1914 18.6038 35.1914C20.1427 35.1914 21.6226 34.5985 22.7358 33.5358L36.3358 19.9358C37.2503 19.039 37.978 17.9697 38.4767 16.7899C38.9754 15.61 39.2353 14.343 39.2412 13.0621C39.2472 11.7812 38.9991 10.5119 38.5114 9.32744C38.0236 8.14303 37.3059 7.06706 36.3997 6.16178C35.4935 5.25651 34.4168 4.53988 33.2319 4.05335C32.047 3.56682 30.7773 3.32005 29.4964 3.3273C28.2156 3.33456 26.9488 3.5957 25.7695 4.09561C24.5902 4.59553 23.5216 5.32431 22.6258 6.23979L9.02575 19.8398C7.74413 21.1208 6.73288 22.6462 6.052 24.3254C5.37113 26.0047 5.03451 27.8036 5.06212 29.6154C5.08972 31.4273 5.481 33.2151 6.21272 34.8728C6.94444 36.5306 8.00169 38.0244 9.32175 39.2658C11.7988 41.5679 15.0643 42.8327 18.4458 42.7998C22.2231 42.7987 25.8453 41.2973 28.5158 38.6258L44.4838 22.6578C44.6748 22.4733 44.8271 22.2526 44.932 22.0086C45.0368 21.7646 45.092 21.5022 45.0943 21.2366C45.0966 20.971 45.046 20.7077 44.9454 20.4619C44.8448 20.2161 44.6963 19.9928 44.5085 19.805C44.3208 19.6172 44.0975 19.4687 43.8517 19.3681C43.6059 19.2676 43.3425 19.217 43.077 19.2193C42.8114 19.2216 42.549 19.2768 42.3049 19.3816C42.0609 19.4864 41.8402 19.6388 41.6558 19.8298V19.8338Z" fill="white"/>
</svg>
