<svg width="48" height="48" viewBox="0 0 48 48" fill="none" xmlns="http://www.w3.org/2000/svg"><path d="M13.5266 20.1249c0 .5907.0638 1.0696.1756 1.4208.1277.3512.2873.7344.5108 1.1494.0798.1277.1118.2555.1118.3672 0 .1597-.0958.3193-.3033.4789l-1.0058.6705c-.1437.0958-.2874.1437-.4151.1437-.1596 0-.3193-.0798-.4789-.2235-.2235-.2394-.4151-.4949-.5747-.7503-.1597-.2714-.3193-.5747-.4949-.9419-1.24522 1.4687-2.80972 2.2031-4.69351 2.2031-1.341 0-2.41061-.3832-3.19286-1.1495-.78225-.7662-1.18135-1.788-1.18135-3.0651 0-1.357.47892-2.4585 1.45275-3.2886.97382-.8302 2.26693-1.2453 3.91125-1.2453.54278 0 1.10153.0479 1.69221.1278.59068.0798 1.19731.2075 1.83591.3512v-1.1654c0-1.2133-.2554-2.0594-.7503-2.5543-.51089-.4949-1.37296-.7344-2.60222-.7344-.55875 0-1.13346.0639-1.72414.2076-.59068.1436-1.16539.3193-1.72414.5428-.25543.1117-.447.1756-.55875.2075-.11175.0319-.19157.0479-.25543.0479-.2235 0-.33525-.1597-.33525-.4949v-.7823c0-.2554.03193-.447.11175-.5587.07982-.1118.2235-.2235.447-.3353.55875-.2873 1.22925-.5268 2.0115-.7184.78225-.20749 1.61239-.30328 2.49043-.30328 1.89975 0 3.28865.43108 4.18265 1.29308.878.8621 1.325 2.1712 1.325 3.9272v5.1725h.032zm-6.48154 2.4266c.52682 0 1.0696-.0958 1.64432-.2874.57471-.1916 1.08557-.5428 1.51662-1.0217.2554-.3033.447-.6386.5428-1.0217.0958-.3832.1596-.8461.1596-1.3889v-.6705c-.4629-.1118-.95784-.2076-1.4687-.2714-.51086-.0639-1.00575-.0958-1.50064-.0958-1.06961 0-1.85186.2075-2.37868.6386-.52682.431-.78225 1.0376-.78225 1.8359 0 .7503.19157 1.309.59068 1.6922.38314.3991.94189.5907 1.67625.5907zm12.81934 1.7241c-.2874 0-.4789-.0479-.6067-.1596-.1277-.0958-.2394-.3193-.3352-.6227l-3.7516-12.3404c-.0958-.3192-.1437-.5268-.1437-.6385 0-.2555.1277-.3991.3831-.3991h1.5645c.3034 0 .5109.0479.6227.1596.1277.0958.2235.3193.3192.6226l2.682 10.5684 2.4905-10.5684c.0798-.3193.1756-.5268.3033-.6226s.3512-.1596.6386-.1596h1.2771c.3033 0 .5109.0479.6386.1596.1277.0958.2394.3193.3033.6226l2.5224 10.6961 2.7618-10.6961c.0958-.3193.2075-.5268.3193-.6226.1277-.0958.3352-.1596.6226-.1596h1.4847c.2554 0 .3991.1277.3991.3991 0 .0798-.016.1596-.032.2554-.0159.0958-.0479.2235-.1117.3991l-3.8474 12.3404c-.0958.3193-.2075.5268-.3353.6226-.1277.0958-.3352.1597-.6066.1597h-1.3729c-.3034 0-.5109-.0479-.6386-.1597-.1277-.1117-.2395-.3193-.3033-.6386l-2.4745-10.2969-2.4585 10.281c-.0798.3193-.1756.5268-.3033.6386-.1277.1117-.3512.1596-.6386.1596h-1.3729zm20.5141.431c-.8301 0-1.6603-.0958-2.4585-.2873-.7982-.1916-1.4208-.3991-1.8359-.6386-.2554-.1437-.431-.3033-.4949-.447-.0638-.1437-.0958-.3033-.0958-.447v-.8142c0-.3352.1277-.4949.3672-.4949.0958 0 .1916.016.2874.0479.0958.032.2394.0958.3991.1597.5428.2394 1.1334.431 1.756.5587.6386.1277 1.2612.1916 1.8998.1916 1.0057 0 1.788-.1756 2.3308-.5268.5428-.3512.8301-.8621.8301-1.5166 0-.447-.1437-.8142-.431-1.1175-.2874-.3034-.8302-.5748-1.6124-.8302l-2.3148-.7184c-1.1654-.3672-2.0275-.9099-2.5543-1.6283-.5268-.7025-.7982-1.4847-.7982-2.3149 0-.6705.1437-1.2611.431-1.772.2874-.5109.6705-.9579 1.1494-1.3091.479-.3671 1.0218-.6385 1.6603-.83011.6386-.19157 1.3091-.27139 2.0115-.27139.3512 0 .7184.01596 1.0696.06385.3672.0479.7025.11175 1.0377.17561.3193.07984.6226.15964.91.25544.2873.0958.5108.1916.6705.2873.2235.1278.3831.2555.4789.3992.0958.1277.1437.3033.1437.5268v.7503c0 .3352-.1277.5109-.3672.5109-.1277 0-.3352-.0639-.6066-.1916-.91-.4151-1.9317-.6226-3.0652-.6226-.9099 0-1.6283.1437-2.1232.447-.4949.3033-.7504.7663-.7504 1.4208 0 .447.1597.8301.479 1.1335.3193.3033.9099.6066 1.756.878l2.267.7184c1.1494.3672 1.9795.878 2.4744 1.5326.4949.6545.7344 1.4048.7344 2.235 0 .6864-.1437 1.309-.4151 1.8518-.2873.5428-.6705 1.0217-1.1654 1.4049-.4949.3991-1.0855.6864-1.772.894-.7184.2235-1.4687.3352-2.2829.3352z" fill="#fff"/><path fill-rule="evenodd" clip-rule="evenodd" d="M43.3961 32.4655c-5.2523 3.8793-12.8832 5.9387-19.4445 5.9387-9.1955 0-17.48095-3.4004-23.738953-9.0517-.494893-.447-.047893-1.0537.542786-.7024C7.52429 32.5773 15.8736 34.956 24.5103 34.956c5.827 0 12.2287-1.2133 18.1195-3.7038.878-.3991 1.6283.5748.7663 1.2133z" fill="#F90"/><path fill-rule="evenodd" clip-rule="evenodd" d="M45.5833 29.9749c-.6705-.8621-4.438-.4151-6.1462-.2075-.5109.0638-.5907-.3832-.1277-.7184 3.0012-2.1073 7.9342-1.5007 8.5089-.7983.5747.7184-.1596 5.6514-2.9693 8.0141-.4311.3672-.8461.1756-.6546-.3033.6386-1.5805 2.0594-5.1405 1.3889-5.9866z" fill="#F90"/></svg>