<svg width="48" height="48" viewBox="0 0 48 48" fill="none" xmlns="http://www.w3.org/2000/svg">
<path fill-rule="evenodd" clip-rule="evenodd" d="M19.5659 31.4843H12.8618V29.8952H19.5659V31.4843Z" fill="white"/>
<path fill-rule="evenodd" clip-rule="evenodd" d="M13.9545 11.8079C12.6866 13.2992 11.8285 15.4736 11.8192 18.4195C11.8177 18.8764 11.4498 19.2569 10.9843 19.2629C9.90395 19.277 8.97956 19.8662 8.30164 20.8573C7.61823 21.8565 7.22728 23.2164 7.25129 24.5926C7.27523 25.9655 7.70981 27.287 8.59178 28.2554C9.45948 29.2082 10.8286 29.8952 12.8856 29.8952V31.4843C10.4444 31.4843 8.62573 30.6528 7.41689 29.3254C6.22231 28.0138 5.6916 26.2936 5.66241 24.6203C5.63328 22.9502 6.10135 21.2594 6.99001 19.9602C7.75582 18.8406 8.8639 17.9781 10.246 17.7396C10.3772 14.7987 11.305 12.4709 12.7438 10.7785C14.2887 8.96144 16.3809 7.92719 18.5713 7.63507C22.6769 7.08755 27.1746 9.14448 29.2048 13.5675C29.489 13.4252 29.8028 13.3032 30.1221 13.2072C30.8692 12.9824 31.7811 12.8579 32.6844 12.9961C33.5995 13.1361 34.5266 13.5514 35.2177 14.4178C35.8046 15.1537 36.17 16.1505 36.2683 17.4325C37.1088 17.5793 37.9889 17.9518 38.7898 18.4795C39.8278 19.1635 40.7954 20.1489 41.4167 21.3709C42.0431 22.603 42.3127 24.0696 41.9447 25.6674C41.5784 27.2575 40.5965 28.9118 38.8358 30.5636L37.7485 29.4047C39.3414 27.9103 40.1176 26.5198 40.3961 25.3107C40.6728 24.1094 40.4737 23.0225 40.0002 22.0911C39.5215 21.1496 38.7578 20.3615 37.9154 19.8064C37.0643 19.2456 36.195 18.9626 35.537 18.9524C35.0252 18.9446 34.708 18.5163 34.7059 18.1103C34.6985 16.7393 34.374 15.9084 33.9754 15.4087C33.5825 14.9162 33.0495 14.6595 32.4441 14.5669C31.8269 14.4725 31.1581 14.555 30.5799 14.7289C29.9739 14.9112 29.595 15.154 29.4851 15.2719C29.0286 15.7615 28.2699 15.5426 28.067 14.9802C26.5258 10.7096 22.4611 8.71951 18.7814 9.21024C16.9487 9.45466 15.2248 10.3138 13.9545 11.8079Z" fill="white"/>
<path fill-rule="evenodd" clip-rule="evenodd" d="M29.0509 33.6197C32.4243 33.6197 35.1591 30.885 35.1591 27.5115C35.1591 24.1381 32.4243 21.4034 29.0509 21.4034C25.6775 21.4034 22.9427 24.1381 22.9427 27.5115C22.9427 30.885 25.6775 33.6197 29.0509 33.6197ZM29.0509 35.2088C33.302 35.2088 36.7482 31.7626 36.7482 27.5115C36.7482 23.2605 33.302 19.8143 29.0509 19.8143C24.7998 19.8143 21.3536 23.2605 21.3536 27.5115C21.3536 31.7626 24.7998 35.2088 29.0509 35.2088Z" fill="white"/>
<path fill-rule="evenodd" clip-rule="evenodd" d="M26.1306 27.3783C26.1306 25.9374 27.2986 24.7694 28.7394 24.7694C29.3473 24.7694 29.9066 24.9773 30.3501 25.3259L31.128 24.2325C30.4647 23.728 29.637 23.4286 28.7394 23.4286C26.5581 23.4286 24.7897 25.1969 24.7897 27.3783C24.7897 28.75 25.489 29.9583 26.5505 30.6664L27.3284 29.573C26.6078 29.1087 26.1306 28.2992 26.1306 27.3783Z" fill="white"/>
<path fill-rule="evenodd" clip-rule="evenodd" d="M29.6711 23.5391C29.3723 23.4669 29.0603 23.4286 28.7394 23.4286C26.5581 23.4286 24.7897 25.1969 24.7897 27.3783C24.7897 28.1663 25.0205 28.9004 25.4182 29.5167C25.6695 29.9063 25.9876 30.2488 26.3561 30.5281C26.4195 30.5761 26.4843 30.6222 26.5505 30.6664L27.3284 29.573C27.3171 29.5657 27.3058 29.5583 27.2946 29.5508C27.2389 29.5137 27.1847 29.4746 27.1322 29.4334C26.5224 28.9559 26.1306 28.2128 26.1306 27.3783C26.1306 25.9374 27.2986 24.7694 28.7394 24.7694C29.2577 24.7694 29.7407 24.9206 30.1468 25.1812C30.2049 25.2185 30.2615 25.2581 30.3164 25.2998C30.3277 25.3084 30.3389 25.3171 30.3501 25.3259L31.128 24.2325C31.0613 24.1817 30.9928 24.133 30.9228 24.0865C30.546 23.836 30.1238 23.6486 29.6711 23.5391Z" fill="white"/>
<path fill-rule="evenodd" clip-rule="evenodd" d="M40.2228 37.0559L35.3591 32.1922L33.9614 33.5899L38.8251 38.4536C39.0904 38.7189 39.5205 38.7189 39.7858 38.4536L40.2228 38.0166C40.4881 37.7513 40.4881 37.3212 40.2228 37.0559ZM35.3591 29.9449L31.7141 33.5899L37.7014 39.5772C38.5873 40.4631 40.0236 40.4631 40.9095 39.5772L41.3464 39.1403C42.2323 38.2544 42.2323 36.8181 41.3464 35.9322L35.3591 29.9449Z" fill="white"/>
</svg>
