<svg width="48" height="48" viewBox="0 0 48 48" fill="none" xmlns="http://www.w3.org/2000/svg">
<path fill-rule="evenodd" clip-rule="evenodd" d="M13.6658 8.69533C13.6658 8.2567 14.0214 7.90112 14.46 7.90112H24.1922C24.4965 7.90112 24.774 8.07494 24.9068 8.34869L36.1775 31.5819H38.7352C39.1738 31.5819 39.5294 31.9374 39.5294 32.3761V39.3158C39.5294 39.7544 39.1738 40.11 38.7352 40.11H30.8554C30.5512 40.11 30.2738 39.9362 30.1409 39.6626L18.8841 16.4707H14.46C14.0214 16.4707 13.6658 16.1151 13.6658 15.6765V8.69533ZM15.2542 9.48954V14.8823H19.3814C19.6856 14.8823 19.9631 15.0561 20.0959 15.3297L31.3528 38.5216H37.941V33.1703H35.68C35.3758 33.1703 35.0983 32.9965 34.9655 32.7227L23.6947 9.48954H15.2542Z" fill="white"/>
<path fill-rule="evenodd" clip-rule="evenodd" d="M17.9824 20.2908C18.2881 20.2892 18.5676 20.4632 18.7011 20.7382L22.8067 29.1956C22.9103 29.4092 22.913 29.6579 22.814 29.8737L18.3566 39.5878C18.2271 39.8699 17.9452 40.0508 17.6347 40.0508H9.40407C9.13198 40.0508 8.87883 39.9115 8.7332 39.6816C8.58757 39.4518 8.56973 39.1634 8.68594 38.9174L17.2685 20.7458C17.3991 20.4694 17.6767 20.2925 17.9824 20.2908ZM17.9965 22.9239L10.6575 38.4624H17.1253L21.214 29.552L17.9965 22.9239Z" fill="white"/>
</svg>
