<svg width="48" height="48" viewBox="0 0 48 48" fill="none" xmlns="http://www.w3.org/2000/svg">
<g clip-path="url(#clip0_215_5452)">
<path d="M24 48C37.2548 48 48 37.2548 48 24C48 10.7452 37.2548 0 24 0C19.9556 0 16.1448 1.00041 12.8017 2.76727C11.512 3.44887 11.356 5.17059 12.3875 6.20206L18.3836 12.1981C19.0551 12.8697 20.0616 13.0454 20.9787 12.7986C21.942 12.5395 22.9548 12.4012 24 12.4012C30.4058 12.4012 35.5988 17.5942 35.5988 24C35.5988 30.4058 30.4058 35.5988 24 35.5988C22.9511 35.5988 21.9348 35.4596 20.9685 35.1986C20.0507 34.9508 19.043 35.1261 18.3708 35.7983L12.3769 41.7923C11.3457 42.8234 11.5012 44.5445 12.7901 45.2266C16.136 46.9973 19.9509 48 24 48Z" fill="#A8E840"/>
<path d="M4.47342 37.9571C5.25658 39.0508 6.82261 39.0934 7.77381 38.1422L13.3688 32.5472C14.1998 31.7162 14.2584 30.4067 13.7141 29.3653C12.8754 27.7608 12.4012 25.9358 12.4012 24C12.4012 22.0608 12.8771 20.2327 13.7185 18.6263C14.2641 17.5845 14.206 16.2738 13.3745 15.4422L7.78062 9.84835C6.82974 8.89746 5.26432 8.93957 4.48084 10.0325C1.66036 13.9671 0 18.7896 0 24C0 29.2058 1.65745 34.0245 4.47342 37.9571Z" fill="#A8E840"/>
<path d="M24 18.2371C27.1828 18.2371 29.7629 20.8172 29.7629 24C29.7629 27.1828 27.1828 29.7629 24 29.7629C20.8172 29.7629 18.2371 27.1828 18.2371 24C18.2371 20.8172 20.8172 18.2371 24 18.2371Z" fill="#A8E840"/>
</g>
<defs>
<clipPath id="clip0_215_5452">
<rect width="48" height="48" fill="white"/>
</clipPath>
</defs>
</svg>
