<svg width="48" height="48" viewBox="0 0 48 48" fill="none" xmlns="http://www.w3.org/2000/svg">
<path d="M42.0611 9.80339L26.9289 0.813559C26.034 0.284746 25.017 0 24.0001 0C22.9831 0 21.9662 0.284746 21.0713 0.813559L5.93907 9.80339C4.14924 10.861 3.01025 12.8542 3.01025 15.0102V32.9898C3.01025 35.1458 4.10856 37.0983 5.93907 38.1966L21.0713 47.1864C21.9662 47.7153 22.9831 48 24.0001 48C25.017 48 26.034 47.7153 26.9289 47.1864L42.0611 38.1966C43.8509 37.139 44.9899 35.1458 44.9899 32.9898V14.9695C44.9899 12.8542 43.8916 10.861 42.0611 9.80339ZM21.6001 46.2102L6.46788 37.2203C5.00347 36.3254 4.06788 34.6983 4.06788 32.9492V14.9695C4.06788 13.2203 5.00347 11.5525 6.46788 10.6983L21.6001 1.70847C22.3323 1.26102 23.1458 1.05763 24.0001 1.05763C24.8543 1.05763 25.6679 1.3017 26.4001 1.70847L41.5323 10.6983C42.7933 11.4305 43.6069 12.7322 43.8509 14.1559C43.3628 13.0983 42.2238 12.7729 40.8814 13.5458L26.6035 22.4136C24.8136 23.4712 23.512 24.6102 23.512 26.7661V44.4203C23.512 45.722 24.0408 46.5356 24.8136 46.7797C24.5696 46.8203 24.2848 46.861 24.0001 46.861C23.1865 46.9017 22.3323 46.6576 21.6001 46.2102Z" fill="white"/>
<path d="M38.1152 34.6984L34.3321 36.9356C34.2508 36.9763 34.1694 37.0577 34.1694 37.1797V38.156C34.1694 38.278 34.2508 38.3187 34.3321 38.278L38.1559 35.9594C38.2372 35.9187 38.2779 35.7967 38.2779 35.6746V34.8204C38.2779 34.6984 38.1966 34.6577 38.1152 34.6984Z" fill="#4DA925"/>
<path d="M30.0612 26.4C30.1832 26.3186 30.2646 26.4 30.3053 26.5627V27.8644C30.8341 27.661 31.3222 27.5796 31.7697 27.7017C31.851 27.7423 31.8917 27.8644 31.851 27.9864L31.5663 29.1254C31.5256 29.2067 31.4849 29.2881 31.4443 29.3695C31.4036 29.4101 31.4036 29.4101 31.3629 29.4101C31.3222 29.4101 31.2815 29.4508 31.2409 29.4101C31.0375 29.3695 30.59 29.2474 29.8578 29.6542C29.0849 30.061 28.8002 30.7118 28.8409 31.2C28.8409 31.8101 29.1663 31.9728 30.1832 31.9728C31.5663 32.0135 32.1765 32.6237 32.2171 34.0067C32.2171 35.3898 31.4849 36.8949 30.346 37.7898L30.3866 39.0915C30.3866 39.2542 30.3053 39.4169 30.1832 39.4983L29.4104 39.9457C29.2883 40.0271 29.207 39.9457 29.1663 39.783V38.522C28.5154 38.8067 27.8646 38.8474 27.4171 38.6847C27.3358 38.644 27.2951 38.522 27.3358 38.4L27.6205 37.2203C27.6612 37.1389 27.7019 37.0169 27.7426 36.9762C27.7832 36.9356 27.7832 36.9356 27.8239 36.9356C27.8646 36.8949 27.9053 36.8949 27.946 36.9356C28.3934 37.0983 29.0036 37.0169 29.5324 36.7322C30.2646 36.3661 30.7121 35.6339 30.7121 34.9017C30.7121 34.2508 30.346 33.9661 29.4917 33.9661C28.3934 33.9661 27.3765 33.7627 27.3358 32.1356C27.3358 30.7932 28.0273 29.4101 29.1256 28.5559V27.2542C29.1256 27.0915 29.207 26.9288 29.329 26.8474L30.0612 26.4Z" fill="#2A3238"/>
</svg>
