<svg width="48" height="48" viewBox="0 0 48 48" fill="none" xmlns="http://www.w3.org/2000/svg">
<g clip-path="url(#clip0_10263_283365)">
<path d="M33.8359 48.001C32.5747 48.001 31.3145 47.6741 30.3706 47.1009C29.488 46.5579 28.3234 46.5593 27.4419 47.1009C26.509 47.6674 25.2604 47.9953 24.0162 48.0008C22.7513 48.0094 21.4779 47.6784 20.5269 47.1009C20.1024 46.8432 19.5542 46.689 19.0607 46.6885C18.5708 46.6881 18.0244 46.8422 17.5982 47.1009C16.6426 47.6811 15.3647 48.0073 14.0816 48.0008C12.8507 47.9929 11.6121 47.6648 10.6833 47.1009C10.2582 46.8428 9.71059 46.6886 9.2184 46.6885C8.71357 46.6884 8.16326 46.841 7.74598 47.0968C6.79415 47.6803 5.5741 48.0014 4.31205 48.0009C3.06819 48.0005 1.85715 47.6809 0.902126 47.101C0.0169493 46.5636 -0.26486 45.4104 0.272603 44.5252C0.809878 43.64 1.96318 43.3581 2.84835 43.8956C3.21444 44.1179 3.76222 44.2508 4.31337 44.251C4.87614 44.2512 5.4271 44.1198 5.78616 43.8997C6.79771 43.2795 8.01711 42.9382 9.21944 42.9386C10.4025 42.9389 11.6136 43.2787 12.6295 43.8956C12.9845 44.1111 13.5503 44.2473 14.106 44.251C14.6843 44.2557 15.2901 44.1152 15.6519 43.8956C16.6702 43.2773 17.8819 42.9375 19.0643 42.9386C20.248 42.9398 21.4585 43.2796 22.473 43.8956C22.8326 44.114 23.4323 44.2516 23.9994 44.251C24.5568 44.2484 25.144 44.1089 25.4955 43.8956C27.5468 42.6297 30.2643 42.6283 32.3166 43.8957C32.679 44.1157 33.2851 44.2542 33.8612 44.2511C34.41 44.2471 34.9901 44.1076 35.3392 43.8957C37.3879 42.6391 40.1088 42.6231 42.1604 43.8957C42.516 44.1117 43.1156 44.2512 43.6865 44.251C44.2377 44.2508 44.7854 44.1179 45.1516 43.8956C46.0368 43.3582 47.19 43.64 47.7274 44.5252C48.2647 45.4103 47.9829 46.5636 47.0977 47.1009C46.1426 47.6809 44.9318 48.0004 43.6879 48.0008C42.4232 48.0013 41.1568 47.6733 40.2141 47.1009C39.3308 46.554 38.1648 46.5651 37.2854 47.1009C36.358 47.664 35.1197 47.992 33.8882 48.0008C33.8709 48.001 33.8534 48.001 33.8359 48.001ZM37.2 10.9344C32.7183 3.76119 24.0962 0.408356 15.7316 2.38618L15.3624 1.282C15.0341 0.299982 13.9721 -0.230261 12.9896 0.0983287C12.0075 0.426637 11.4777 1.48891 11.806 2.47111L12.1723 3.56685C4.25196 6.99534 -0.659355 14.8833 0.0721674 23.3368C0.315258 26.7675 3.77356 29.3037 7.12283 28.5406C10.5348 27.8215 14.6519 26.6815 19.3826 25.1467L23.9494 38.7539C24.2768 39.7449 25.3681 40.2634 26.3235 39.9349C27.3052 39.6054 27.8339 38.5424 27.5044 37.5608L22.3444 22.1859C22.0152 21.205 20.9539 20.6762 19.9723 21.0043C14.6257 22.7918 10.0423 24.0929 6.3495 24.8714C5.74416 24.9989 5.13761 24.8663 4.6413 24.4981C4.15568 24.1377 3.85981 23.6106 3.80815 23.0136C3.17535 15.7009 7.8057 8.89779 15.0683 6.46941C15.0685 6.46932 15.0686 6.46932 15.0688 6.46932C22.3357 4.03991 30.1285 6.69319 34.0199 12.9215C34.338 13.4306 34.4187 14.0309 34.2471 14.6118C34.0725 15.2026 33.6694 15.6718 33.1121 15.9327C31.8515 16.5229 29.7417 17.5107 26.8962 18.5926C25.9282 18.9607 25.4419 20.0437 25.81 21.0116C26.1771 21.9892 27.2862 22.4636 28.2289 22.0977C31.2052 20.9661 33.3943 19.9412 34.7022 19.3288C36.2227 18.6169 37.3676 17.2848 37.8434 15.6741C38.3163 14.0731 38.0817 12.3456 37.2 10.9344ZM24.0953 16.408C23.425 16.408 22.7767 16.0477 22.4392 15.4149C21.3442 13.3615 18.8982 11.9682 18.8738 11.9547C17.9676 11.4535 17.6393 10.3126 18.1405 9.40647C18.6417 8.50029 19.7826 8.17208 20.6887 8.67317C20.828 8.75023 24.1187 10.595 25.7481 13.6503C26.2354 14.564 25.8897 15.6997 24.976 16.187C24.695 16.3369 24.393 16.408 24.0953 16.408ZM12.9465 20.2287C13.9696 20.0685 14.6691 19.1093 14.5088 18.0862C14.1458 15.7689 15.2115 13.237 15.2223 13.2117C15.6308 12.2629 15.195 11.1618 14.2468 10.7502C13.297 10.338 12.1927 10.7736 11.7803 11.7235C11.7184 11.8661 10.27 15.2562 10.8041 18.6664C10.9489 19.5912 11.7466 20.2515 12.6542 20.2515C12.7505 20.2516 12.8482 20.2442 12.9465 20.2287ZM37.2186 40.1261C33.3416 40.1261 30.1874 36.9719 30.1874 33.0949C30.5737 23.7671 43.8649 23.7698 44.2497 33.095C44.2497 36.9719 41.0956 40.1261 37.2186 40.1261ZM37.2186 29.8137C35.4093 29.8137 33.9374 31.2857 33.9374 33.0949C34.1176 37.4479 40.3202 37.4467 40.4998 33.0949C40.4998 31.2857 39.0278 29.8137 37.2186 29.8137Z" fill="white"/>
</g>
<defs>
<clipPath id="clip0_10263_283365">
<rect width="48" height="48" fill="white" transform="translate(0 0.000976562)"/>
</clipPath>
</defs>
</svg>
