<svg width="48" height="48" viewBox="0 0 48 48" fill="none" xmlns="http://www.w3.org/2000/svg">
<g clip-path="url(#clip0_1806_4169)">
<path d="M16.5938 36.7514C17.4889 36.7514 18.2871 37.1786 18.7836 37.9235C19.9699 39.7029 21.9551 40.7653 24.0938 40.7653C26.2325 40.7653 28.2175 39.7029 29.4038 37.9235C29.8901 37.1942 30.671 36.7673 31.5464 36.7519C31.5628 36.7516 31.5791 36.7515 31.5953 36.7515C32.453 36.7515 33.2279 37.1471 33.7272 37.8421C34.3314 38.6831 35.503 38.8751 36.3439 38.2709C37.1849 37.6668 37.3769 36.4952 36.7727 35.6542C35.5537 33.9572 33.5798 32.9635 31.4808 33.0025C29.3879 33.0391 27.4451 34.1011 26.2835 35.8434C25.787 36.5883 24.9888 37.0154 24.0938 37.0154C23.1986 37.0154 22.4004 36.5882 21.9039 35.8434C20.7176 34.064 18.7325 33.0016 16.5938 33.0015C16.5938 33.0015 16.5939 33.0015 16.5937 33.0015C14.4552 33.0015 12.4699 34.064 11.2831 35.8441C10.2609 37.3826 11.4408 38.387 11.6562 38.5417C12.4438 39.1074 13.6469 39.0604 14.4038 37.9235C14.9004 37.1785 15.6986 36.7514 16.5938 36.7514Z" fill="white"/>
<path d="M24 22.5C25.0356 22.5 25.875 21.6606 25.875 20.625V14.6775C28.0573 13.9035 29.625 11.8193 29.625 9.375C29.625 8.60278 29.4043 7.19578 27.4969 3.9075C26.5334 2.24653 25.5828 0.867281 25.5427 0.809344C25.1927 0.302531 24.6159 0 24 0C23.3841 0 22.8073 0.302531 22.4573 0.809344C22.4172 0.867281 21.4667 2.24653 20.5031 3.9075C18.5957 7.19578 18.375 8.60278 18.375 9.375C18.375 11.8193 19.9427 13.9034 22.125 14.6775V20.625C22.125 21.6606 22.9644 22.5 24 22.5ZM24 5.35903C24.4241 6.06966 25.8487 8.55019 25.875 9.3765C25.8742 10.4097 25.0333 11.25 24 11.25C22.9661 11.25 22.125 10.4089 22.125 9.37716C22.147 8.55816 23.5782 6.06581 24 5.35903Z" fill="white"/>
<path d="M46.125 44.25H44.625V34.875C44.625 29.7056 40.4195 25.5 35.25 25.5H12.75C7.58053 25.5 3.375 29.7056 3.375 34.875V44.25H1.875C0.839438 44.25 0 45.0894 0 46.125C0 47.1606 0.839438 48 1.875 48H46.125C47.1606 48 48 47.1606 48 46.125C48 45.0894 47.1606 44.25 46.125 44.25ZM7.125 34.875C7.125 31.7734 9.64838 29.25 12.75 29.25H35.25C38.3516 29.25 40.875 31.7734 40.875 34.875V44.25H7.125V34.875Z" fill="white"/>
</g>
<defs>
<clipPath id="clip0_1806_4169">
<rect width="48" height="48" fill="white"/>
</clipPath>
</defs>
</svg>
