<svg width="48" height="48" viewBox="0 0 48 48" fill="none" xmlns="http://www.w3.org/2000/svg">
<g clip-path="url(#clip0_1761_3940)">
<path d="M18.7866 11.1271C18.5829 10.1118 19.2408 9.12356 20.2561 8.91984C21.5406 8.66203 22.8004 8.53125 24 8.53125C31.8137 8.53125 39.7728 14.0557 44.5283 17.3565C46.7021 18.8654 47.9999 21.349 47.9999 24C47.9999 26.6509 46.7021 29.1346 44.5283 30.6435C43.7397 31.1908 42.8151 31.8301 41.8194 32.4922C41.5002 32.7045 41.1395 32.8061 40.7829 32.8061C40.1761 32.8061 39.5809 32.5122 39.2198 31.9691C38.6464 31.1068 38.8807 29.943 39.7429 29.3696C40.7098 28.7266 41.6162 28.0999 42.3898 27.5629C43.572 26.7424 44.2499 25.4438 44.2499 24C44.2499 22.5561 43.572 21.2576 42.3899 20.4371C37.9953 17.3868 30.6399 12.2812 24 12.2812C23.0475 12.2812 22.0362 12.3873 20.994 12.5964C19.9789 12.8003 18.9905 12.1425 18.7866 11.1271ZM47.4508 47.4508C47.0847 47.8169 46.6048 47.9999 46.1249 47.9999C45.645 47.9999 45.1652 47.8168 44.799 47.4507L34.2201 36.8718C30.4753 38.6182 27.125 39.4687 24 39.4687C16.1862 39.4687 8.22713 33.9442 3.47167 30.6435C1.2979 29.1346 2.34469e-05 26.651 2.34469e-05 24C2.34469e-05 21.3489 1.2979 18.8654 3.47167 17.3565C5.60214 15.8778 7.86076 14.341 10.2948 12.9465L0.54921 3.20092C-0.18307 2.46864 -0.18307 1.28148 0.54921 0.549297C1.28149 -0.182889 2.46874 -0.182983 3.20092 0.549297L47.4508 44.7992C48.1831 45.5314 48.1831 46.7186 47.4508 47.4508ZM31.3777 34.0294L13.0502 15.7019C10.4049 17.146 7.93116 18.826 5.61001 20.4372C4.42801 21.2576 3.75002 22.5562 3.75002 24C3.75002 25.4437 4.42792 26.7423 5.61001 27.5628C10.0047 30.6133 17.3601 35.7187 24 35.7187C26.2293 35.7187 28.6575 35.1642 31.3777 34.0294ZM31.2616 25.0314C30.3223 25.0314 29.5118 24.3271 29.4014 23.3714C29.2595 22.1437 28.7213 21.0316 27.8448 20.1551C27.0403 19.3505 26.0247 18.826 24.9079 18.6382C23.8866 18.4666 23.198 17.4995 23.3697 16.4783C23.5414 15.457 24.5093 14.7684 25.5296 14.9402C27.4198 15.258 29.1373 16.1443 30.4965 17.5034C31.9561 18.963 32.8901 20.894 33.1266 22.9411C33.2455 23.9698 32.5078 24.9001 31.4791 25.0188C31.4062 25.0273 31.3334 25.0314 31.2616 25.0314ZM24.6303 31.5216C24.802 30.5004 24.1133 29.5334 23.0921 29.3617C21.9754 29.1739 20.9598 28.6494 20.1552 27.8448C19.2787 26.9684 18.7405 25.8562 18.5987 24.6286C18.4798 23.5998 17.5491 22.8616 16.5209 22.9811C15.4922 23.0999 14.7546 24.0302 14.8734 25.0589C15.1099 27.1058 16.0439 29.037 17.5036 30.4966C18.8628 31.8556 20.5803 32.742 22.4704 33.0598C22.5756 33.0775 22.6802 33.086 22.7836 33.086C23.6824 33.086 24.4764 32.4375 24.6303 31.5216Z" fill="white"/>
</g>
<defs>
<clipPath id="clip0_1761_3940">
<rect width="48" height="48" fill="white"/>
</clipPath>
</defs>
</svg>
