<svg width="48" height="48" viewBox="0 0 48 48" fill="none" xmlns="http://www.w3.org/2000/svg">
<g clip-path="url(#clip0_10263_283339)">
<path d="M9.375 30.3057H15C16.0356 30.3057 16.875 29.4662 16.875 28.4307C16.875 27.3951 16.0356 26.5557 15 26.5557H9.375C8.33944 26.5557 7.5 27.3951 7.5 28.4307C7.5 29.4662 8.33944 30.3057 9.375 30.3057Z" fill="white"/>
<path d="M9.375 22.8057H15C16.0356 22.8057 16.875 21.9662 16.875 20.9307C16.875 19.8951 16.0356 19.0557 15 19.0557H9.375C8.33944 19.0557 7.5 19.8951 7.5 20.9307C7.5 21.9662 8.33944 22.8057 9.375 22.8057Z" fill="white"/>
<path d="M20.3853 28.4316C20.3853 29.4671 21.2247 30.3066 22.2603 30.3066C26.181 30.3066 29.867 28.7798 32.6394 26.0074L46.3513 12.2942C48.5495 10.096 48.5499 6.53776 46.3513 4.33923C44.1582 2.14604 40.5896 2.14604 38.3963 4.33923L24.6844 18.0524C21.9122 20.8249 20.3853 24.5109 20.3853 28.4316ZM41.0481 6.99095C41.779 6.25988 42.9687 6.25988 43.6997 6.99095C44.4324 7.72351 44.4327 8.90973 43.6997 9.64257L29.9877 23.3558C28.4203 24.9233 26.4604 25.9559 24.3297 26.3621C24.7359 24.2315 25.7687 22.2716 27.336 20.7041L41.0481 6.99095Z" fill="white"/>
<path d="M5.625 45.3057C7.01025 45.3057 8.34169 44.7973 9.37425 43.8741L11.9662 41.5557H31.125C36.2945 41.5557 40.5 37.35 40.5 32.1807V27.9748C40.5 26.9392 39.6606 26.0998 38.625 26.0998C37.5894 26.0998 36.75 26.9392 36.75 27.9748V32.1807C36.75 35.2823 34.2266 37.8057 31.125 37.8057H11.25C10.7887 37.8057 10.3437 37.9756 9.99994 38.2831L6.8745 41.0789C6.53053 41.3864 6.08681 41.5557 5.625 41.5557C4.59113 41.5557 3.75 40.7145 3.75 39.6807V17.1807C3.75 14.079 6.27338 11.5557 9.375 11.5557H25.1015C26.137 11.5557 26.9765 10.7162 26.9765 9.68066C26.9765 8.6451 26.137 7.80566 25.1015 7.80566H9.375C4.20553 7.80566 0 12.0113 0 17.1807V39.6807C0 42.7823 2.52338 45.3057 5.625 45.3057Z" fill="white"/>
</g>
<defs>
<clipPath id="clip0_10263_283339">
<rect width="48" height="48" fill="white"/>
</clipPath>
</defs>
</svg>
