<svg width="48" height="48" viewBox="0 0 48 48" fill="none" xmlns="http://www.w3.org/2000/svg">
<g clip-path="url(#clip0_552_2461)">
<path d="M31.5005 46.5681L25.2489 40.9762C24.5391 40.3413 23.4616 40.3404 22.7508 40.9762L16.4991 46.5681C15.4671 47.4912 14.1357 47.9996 12.75 47.9996C9.64836 47.9996 7.125 45.4763 7.125 42.3747V9.37493C7.125 4.20559 11.3306 0 16.4999 0H31.4998C36.6692 0 40.8747 4.20559 40.8747 9.37493V42.3747C40.8746 47.2163 35.1056 49.7927 31.5005 46.5681V46.5681ZM27.7489 38.1813L34.0006 43.7731C35.1978 44.8442 37.1247 43.9945 37.1247 42.3747V9.37493C37.1247 6.27333 34.6013 3.74997 31.4997 3.74997H16.4998C13.3982 3.74997 10.8749 6.27333 10.8749 9.37493V42.3747C10.8749 43.4085 11.716 44.2497 12.7499 44.2497C14.0007 44.2497 13.9702 43.5958 20.2506 38.1813C22.3828 36.274 25.6136 36.2711 27.7489 38.1813V38.1813Z" fill="white"/>
</g>
<defs>
<clipPath id="clip0_552_2461">
<rect width="48" height="48" fill="white"/>
</clipPath>
</defs>
</svg>
