<svg width="48" height="48" viewBox="0 0 48 48" fill="none" xmlns="http://www.w3.org/2000/svg">
<g clip-path="url(#clip0_10263_283408)">
<path d="M13.4345 42.5255C15.6329 40.3272 15.6329 36.7691 13.4345 34.5707C11.2362 32.3723 7.6781 32.3723 5.4797 34.5707C4.93821 35.1122 4.06222 36.3099 2.07841 40.8026C1.02711 43.1834 0.172032 45.3456 0.136126 45.4365C-0.138276 46.1313 0.0259715 46.9227 0.554245 47.451C1.08242 47.9792 1.87394 48.1435 2.56871 47.8691C2.65965 47.8332 4.82177 46.9781 7.20261 45.9268C11.6953 43.943 12.8931 43.067 13.4345 42.5255ZM8.13128 37.2223C8.86411 36.4895 10.0501 36.4894 10.7829 37.2223C11.5155 37.9549 11.5157 39.1406 10.7832 39.8734C10.2879 40.3536 8.01438 41.4742 5.36654 42.6383C6.5309 39.99 7.65157 37.7167 8.13128 37.2223Z" fill="white"/>
<path d="M40.6646 21.9423C41.5804 22.4258 42.7147 22.0753 43.1981 21.1595C45.5669 16.6722 47.1243 11.5532 47.9241 6.54253C48.2103 4.74959 47.6189 2.91578 46.3419 1.63724C45.0655 0.359349 43.3107 -0.211673 41.5271 0.0707908C33.5252 1.3378 25.3518 4.46741 19.4006 10.0648C15.0875 9.65095 10.7128 10.6063 6.98536 12.7928C5.45894 13.6881 4.45452 15.2086 4.22962 16.9641C4.00594 18.7093 4.58971 20.4223 5.83113 21.6637L26.3414 42.174C27.5834 43.4159 29.2961 43.999 31.0409 43.7755C32.7964 43.5506 34.3168 42.5462 35.2123 41.0198C37.5553 37.0257 38.4849 32.2874 37.8297 27.6777C37.7297 26.9743 37.2407 26.3879 36.5669 26.163C35.893 25.9382 35.1498 26.1134 34.6475 26.6157C31.6666 29.5965 27.8249 31.9916 23.2156 33.745L14.2602 24.7896C16.0135 20.1801 18.4086 16.3384 21.3894 13.3576C24.7867 9.96032 28.9322 7.71355 32.8228 6.22979L41.7816 15.1886C41.2508 16.5822 40.6236 18.0036 39.8817 19.409C39.3984 20.3247 39.7489 21.459 40.6646 21.9423ZM34.2292 31.9533C34.0252 34.4741 33.2607 36.9352 31.9777 39.1224C31.6743 39.6395 31.1592 39.9798 30.5641 40.0559C29.9794 40.1309 29.4068 39.9363 28.9929 39.5224L26.0979 36.6274C29.131 35.3409 31.8493 33.7781 34.2292 31.9533ZM11.3784 21.9078L8.48271 19.0121C8.06862 18.598 7.87419 18.0253 7.94909 17.4407C8.02531 16.8458 8.36562 16.3306 8.88264 16.0274C11.0705 14.744 13.5321 13.9801 16.053 13.776C14.228 16.1559 12.6649 18.8746 11.3784 21.9078ZM36.8187 4.92246C38.8369 4.36429 40.6618 4.00448 42.1136 3.77461C42.912 3.64814 43.4431 4.04151 43.6885 4.28713C44.1258 4.72503 44.3199 5.33158 44.221 5.95135C43.9845 7.4323 43.6262 9.22965 43.0862 11.19L36.8187 4.92246Z" fill="white"/>
<path d="M26.6926 13.3578C24.4994 15.5509 24.4994 19.1194 26.6926 21.3126C28.8857 23.5058 32.4543 23.5058 34.6474 21.3126C36.8457 19.1143 36.8458 15.5561 34.6474 13.3578C32.4544 11.1646 28.8857 11.1646 26.6926 13.3578ZM31.9959 18.6609C31.2649 19.3919 30.0753 19.3921 29.3442 18.6609C28.6131 17.9299 28.6131 16.7404 29.3442 16.0093C30.0752 15.2783 31.2648 15.2783 31.9959 16.0093C32.7286 16.7422 32.7286 17.9281 31.9959 18.6609Z" fill="white"/>
</g>
<defs>
<clipPath id="clip0_10263_283408">
<rect width="48" height="48" fill="white"/>
</clipPath>
</defs>
</svg>
