<svg width="48" height="48" viewBox="0 0 48 48" fill="none" xmlns="http://www.w3.org/2000/svg">
<path d="M43.5 12H4.5C2.84325 12 1.5 10.6568 1.5 9C1.5 7.34325 2.84325 6 4.5 6H43.5C45.1568 6 46.5 7.34325 46.5 9C46.5 10.6568 45.1568 12 43.5 12Z" fill="white"/>
<path d="M43.5 42H4.5C2.84325 42 1.5 40.6568 1.5 39C1.5 37.3432 2.84325 36 4.5 36H43.5C45.1568 36 46.5 37.3432 46.5 39C46.5 40.6568 45.1568 42 43.5 42Z" fill="white"/>
<path d="M43.5 27H4.5C2.84325 27 1.5 25.6568 1.5 24C1.5 22.3432 2.84325 21 4.5 21H43.5C45.1568 21 46.5 22.3432 46.5 24C46.5 25.6568 45.1568 27 43.5 27Z" fill="white"/>
</svg>
