<svg width="48" height="48" viewBox="0 0 48 48" fill="none" xmlns="http://www.w3.org/2000/svg">
<g clip-path="url(#clip0_1052_3997)">
<path fill-rule="evenodd" clip-rule="evenodd" d="M-0.0131836 36.75C-0.0131836 42.9632 5.02356 48 11.2368 48H36.7368C42.9501 48 47.9868 42.9632 47.9868 36.75V11.25C47.9868 5.03675 42.9501 0 36.7368 0H11.2368C5.02356 0 -0.0131836 5.03675 -0.0131836 11.25V36.75ZM11.2368 44.25C7.09463 44.25 3.73682 40.8922 3.73682 36.75V11.25C3.73682 7.10781 7.09463 3.75 11.2368 3.75H36.7368C40.879 3.75 44.2368 7.10781 44.2368 11.25V36.75C44.2368 40.8922 40.879 44.25 36.7368 44.25H11.2368Z" fill="white"/>
<path fill-rule="evenodd" clip-rule="evenodd" d="M11.8975 24.0937C11.8975 25.1293 12.7369 25.9687 13.7725 25.9687H34.3975C35.433 25.9687 36.2725 25.1293 36.2725 24.0937C36.2725 23.0582 35.433 22.2187 34.3975 22.2187H13.7725C12.7369 22.2187 11.8975 23.0582 11.8975 24.0937Z" fill="white"/>
<path d="M26.3335 14.1562C26.3335 15.4507 25.2842 16.5 23.9897 16.5C22.6953 16.5 21.646 15.4507 21.646 14.1562C21.646 12.8618 22.6953 11.8125 23.9897 11.8125C25.2842 11.8125 26.3335 12.8618 26.3335 14.1562Z" fill="white"/>
<path d="M26.3335 34.0312C26.3335 35.3257 25.2842 36.375 23.9897 36.375C22.6953 36.375 21.646 35.3257 21.646 34.0312C21.646 32.7368 22.6953 31.6875 23.9897 31.6875C25.2842 31.6875 26.3335 32.7368 26.3335 34.0312Z" fill="white"/>
</g>
<defs>
<clipPath id="clip0_1052_3997">
<rect width="48" height="48" fill="white"/>
</clipPath>
</defs>
</svg>
