<svg width="48" height="48" viewBox="0 0 48 48" fill="none" xmlns="http://www.w3.org/2000/svg">
<g clip-path="url(#clip0_10263_283340)">
<path d="M35.3664 17.4375C34.8487 16.5407 33.7018 16.2333 32.8052 16.7512L31.013 17.786C29.6901 16.2946 27.9004 15.2263 25.8749 14.8135V12.75C25.8749 11.7144 25.0354 10.875 23.9999 10.875C22.9643 10.875 22.1249 11.7144 22.1249 12.75V14.8135C20.0993 15.2263 18.3096 16.2946 16.9867 17.786L15.1946 16.7512C14.298 16.2336 13.1511 16.5407 12.6334 17.4375C12.1156 18.3343 12.4229 19.481 13.3196 19.9988L15.107 21.0308C14.7946 21.9643 14.6249 22.9627 14.6249 24C14.6249 25.0373 14.7946 26.0357 15.1071 26.9692L13.3197 28.0012C12.423 28.519 12.1156 29.6657 12.6334 30.5625C13.1512 31.4594 14.2979 31.7666 15.1947 31.2488L16.9868 30.214C18.3097 31.7054 20.0994 32.7737 22.125 33.1865V35.25C22.125 36.2856 22.9644 37.125 24 37.125C25.0355 37.125 25.875 36.2856 25.875 35.25V33.1865C27.9005 32.7737 29.6902 31.7054 31.0131 30.214L32.8053 31.2488C33.702 31.7666 34.8488 31.4592 35.3665 30.5625C35.8843 29.6657 35.577 28.519 34.6803 28.0012L32.8928 26.9692C33.2052 26.0357 33.3749 25.0373 33.3749 24C33.3749 22.9627 33.2052 21.9643 32.8926 21.0308L34.6801 19.9988C35.5769 19.481 35.8843 18.3343 35.3664 17.4375ZM23.9999 29.625C20.8983 29.625 18.3749 27.1016 18.3749 24C18.3749 20.8984 20.8983 18.375 23.9999 18.375C27.1015 18.375 29.6249 20.8984 29.6249 24C29.6249 27.1016 27.1015 29.625 23.9999 29.625Z" fill="white"/>
<path d="M24 0C20.2051 0 16.62 0.760312 13.3445 2.25984C11.0179 3.32494 8.93644 4.72388 7.125 6.43219V5.25C7.125 4.21444 6.28556 3.375 5.25 3.375C4.21444 3.375 3.375 4.21444 3.375 5.25V10.875C3.375 11.9106 4.21444 12.75 5.25 12.75H10.875C11.9106 12.75 12.75 11.9106 12.75 10.875C12.75 9.83944 11.9106 9 10.875 9H9.87769C13.5616 5.63578 18.5661 3.75 24 3.75C35.3551 3.75 44.25 12.6448 44.25 24C44.25 25.8074 44.0164 27.6003 43.5555 29.3287C43.2887 30.3293 43.8836 31.3567 44.8842 31.6235C45.8846 31.8903 46.9121 31.2954 47.179 30.2948C47.7238 28.2514 48 26.1335 48 24C48 10.5421 37.458 0 24 0Z" fill="white"/>
<path d="M42.75 35.4375H37.125C36.0894 35.4375 35.25 36.277 35.25 37.3125C35.25 38.3481 36.0894 39.1875 37.125 39.1875H37.912C34.249 42.4336 29.3317 44.25 24 44.25C12.6449 44.25 3.75 35.3552 3.75 24C3.75 22.2524 3.96863 20.5172 4.39969 18.8425C4.65788 17.8396 4.05413 16.8174 3.05128 16.5593C2.04844 16.3008 1.02609 16.9048 0.768094 17.9077C0.258469 19.8875 0 21.9373 0 24C0 37.4579 10.542 48 24 48C27.7949 48 31.38 47.2397 34.6555 45.7402C36.9821 44.6751 39.0636 43.2761 40.875 41.5678V42.75C40.875 43.7856 41.7144 44.625 42.75 44.625C43.7856 44.625 44.625 43.7856 44.625 42.75V37.3125C44.625 36.277 43.7856 35.4375 42.75 35.4375Z" fill="white"/>
</g>
<defs>
<clipPath id="clip0_10263_283340">
<rect width="48" height="48" fill="white"/>
</clipPath>
</defs>
</svg>
