<svg width="48" height="48" viewBox="0 0 48 48" fill="none" xmlns="http://www.w3.org/2000/svg">
<g clip-path="url(#clip0_60_4059)">
<path d="M36.9354 47.996C33.9702 47.996 31.1819 46.8296 29.0841 44.7113C26.9885 42.5956 25.849 39.7994 25.8752 36.8365L25.8747 27.7494C25.8747 26.9911 26.3314 26.3075 27.0319 26.0173C27.7321 25.7269 28.5387 25.8875 29.0751 26.4236L29.2274 26.5759C29.9538 27.3026 31.0467 27.4876 31.9473 27.0365C33.4856 26.2655 35.1484 25.8745 36.8897 25.8745C36.8934 25.8746 36.8971 25.8746 36.9008 25.8745C39.8403 25.8745 42.6109 27.0071 44.7007 29.064C46.7972 31.1275 47.9675 33.8844 47.9956 36.8269C48.1755 42.8326 42.9486 48.1206 36.9354 47.996V47.996ZM29.6243 30.8935L29.6245 36.8449C29.6245 36.8509 29.6245 36.857 29.6244 36.863C29.6056 38.8211 30.3598 40.6713 31.748 42.0729C36.366 46.7257 44.3132 43.4149 44.2463 36.863C44.208 32.8707 40.9122 29.624 36.8987 29.624C36.8964 29.6241 36.8939 29.6241 36.8914 29.624C35.737 29.624 34.6392 29.8812 33.627 30.3885C32.3589 31.0242 30.9484 31.1801 29.6243 30.8935ZM11.0625 47.996C1.20758 47.9955 -3.70656 36.022 3.28858 29.084C5.38055 27.012 8.1385 25.8746 11.0642 25.8746H20.2505C21.9081 25.8691 22.7516 27.9073 21.5763 29.075L21.424 29.2273C20.6973 29.9539 20.5122 31.0469 20.9635 31.9472C21.7351 33.487 22.1261 35.1518 22.1254 36.8952C22.2482 42.8148 17.0988 48.0586 11.173 47.9955C11.136 47.9958 11.0991 47.996 11.0625 47.996V47.996ZM11.0654 29.624C9.13378 29.624 7.31157 30.3765 5.92702 31.7479C3.04852 34.4729 3.05396 39.4167 5.90687 42.1335C7.30164 43.5148 9.15468 44.2673 11.1369 44.2462C15.1304 44.2079 18.3778 40.9102 18.3759 36.8951C18.3764 35.7392 18.1192 34.6401 17.6114 33.6269C16.9758 32.3586 16.8201 30.948 17.1064 29.6242C17.1064 29.6242 11.1429 29.6245 11.1368 29.6244C11.1131 29.6242 11.0891 29.624 11.0654 29.624V29.624ZM20.251 22.1253C19.7632 22.1253 19.2836 21.9348 18.925 21.5762L18.7727 21.4239C18.0462 20.6973 16.9533 20.5122 16.0528 20.9634C14.5145 21.7344 12.8517 22.1253 11.1104 22.1253C11.1069 22.1254 11.1031 22.1254 11.0993 22.1253C8.15978 22.1253 5.38917 20.9927 3.29936 18.9358C1.20289 16.8723 0.0326123 14.1154 0.00449187 11.1729C-0.17501 5.16723 5.05107 -0.120716 11.0647 0.00395141C17.0257 -0.123528 22.3048 5.20313 22.1248 11.1633L22.1253 20.2504C22.1253 21.0088 21.6686 21.6924 20.9681 21.9826C20.7362 22.0786 20.4925 22.1253 20.251 22.1253V22.1253ZM11.1047 18.3758C12.2604 18.3764 13.3597 18.1192 14.373 17.6113C15.6413 16.9758 17.0517 16.82 18.3757 17.1063L18.3754 11.1549C18.3754 11.1489 18.3754 11.1428 18.3755 11.1369C18.3943 9.17879 17.6401 7.32856 16.2519 5.92695C11.6339 1.27415 3.68676 4.58504 3.75369 11.1368C3.79193 15.1303 7.09017 18.3779 11.1047 18.3758ZM27.7495 22.1252C26.9913 22.1252 26.3077 21.6686 26.0174 20.9683C25.7271 20.2678 25.8873 19.4616 26.4233 18.9253L26.5755 18.773C27.3026 18.046 27.4877 16.953 27.0365 16.0527C26.2647 14.5127 25.8738 12.8479 25.8746 11.1047C25.8732 8.16308 27.0059 5.39041 29.0641 3.29929C31.1276 1.20282 33.8845 0.0325405 36.827 0.00442008C46.7359 -0.0925953 51.7427 11.9393 44.7114 18.9158C42.6194 20.9879 39.8615 22.1252 36.9357 22.1252C36.9025 22.1252 27.7495 22.1252 27.7495 22.1252ZM36.9346 18.3758C38.8662 18.3758 40.6884 17.6233 42.073 16.2519C44.9515 13.527 44.946 8.58311 42.0931 5.8663C40.6984 4.48494 38.8438 3.73506 36.8631 3.75362C32.8696 3.79196 29.6221 7.08963 29.6241 11.1047C29.6235 12.2606 29.8807 13.3595 30.3886 14.3729C31.0242 15.6412 31.1799 17.0518 30.8935 18.3757C30.8935 18.3757 36.9109 18.3758 36.9346 18.3758V18.3758ZM38.8101 12.9392H35.0607C32.5733 12.8403 32.5752 9.28799 35.0607 9.18985H38.8101C41.2974 9.28884 41.2955 12.8412 38.8101 12.9392ZM14.814 11.0645C14.814 10.0292 13.9747 9.18985 12.9393 9.18985H9.18992C6.70258 9.28884 6.70446 12.8411 9.18992 12.9392H12.9393C13.9747 12.9392 14.814 12.0999 14.814 11.0645ZM14.814 37.029C14.814 35.9936 13.9747 35.1543 12.9393 35.1543H9.18992C6.70258 35.2533 6.70446 38.8056 9.18992 38.9037H12.9393C13.9747 38.9037 14.814 38.0644 14.814 37.029ZM40.6848 37.029C40.6848 35.9936 39.8455 35.1543 38.8101 35.1543H35.0607C32.5733 35.2533 32.5752 38.8056 35.0607 38.9037H38.8101C39.8455 38.9037 40.6848 38.0644 40.6848 37.029Z" fill="white"/>
</g>
<defs>
<clipPath id="clip0_60_4059">
<rect width="48" height="48" fill="white"/>
</clipPath>
</defs>
</svg>
