<svg width="48" height="48" viewBox="0 0 48 48" fill="none" xmlns="http://www.w3.org/2000/svg">
<g clip-path="url(#clip0_10263_283409)">
<path d="M42.2404 20.2514H33.5064C30.3315 20.2514 27.7485 17.6685 27.7485 14.4936V5.75959C27.7485 3.91337 28.6004 2.22652 30.0856 1.1313C31.5779 0.0310137 33.4515 -0.285188 35.2266 0.264158C38.1612 1.17217 40.8595 2.79949 43.0301 4.97007C45.2005 7.14055 46.8278 9.8389 47.7359 12.7734C48.2851 14.5483 47.9691 16.4221 46.8687 17.9144C45.7736 19.3996 44.0866 20.2514 42.2404 20.2514V20.2514ZM33.5075 3.75307C33.0816 3.75307 32.6654 3.88806 32.3109 4.14942C31.7945 4.53021 31.4983 5.11706 31.4983 5.75959V14.4936C31.4983 15.6008 32.3991 16.5016 33.5064 16.5016H42.2404C42.8829 16.5016 43.4698 16.2054 43.8507 15.689C44.2366 15.1655 44.3471 14.5068 44.1536 13.8819C43.4251 11.5274 42.1197 9.36268 40.3784 7.62155C38.6373 5.88033 36.4725 4.57493 34.118 3.84634C33.9162 3.78391 33.7107 3.75307 33.5075 3.75307V3.75307ZM22.124 48C16.1985 48 10.6383 45.7031 6.46757 41.5324C2.29685 37.3617 -9.37422e-05 31.8015 2.8694e-09 25.8761C2.8694e-09 20.8468 1.73353 15.9235 4.88112 12.0131C7.98089 8.16199 12.3264 5.43054 17.1168 4.32182C18.791 3.93418 20.5244 4.32623 21.8717 5.39745C23.2235 6.47214 23.9987 8.07856 23.9987 9.80497V22.1265C23.9987 23.1604 24.8398 24.0014 25.8736 24.0014H38.1952C39.9215 24.0014 41.528 24.7768 42.6027 26.1285C43.6739 27.4759 44.0659 29.209 43.6784 30.8834C42.5696 35.6738 39.8381 40.0192 35.9869 43.1191C32.0765 46.2665 27.1532 48 22.124 48V48ZM18.3829 7.92669C18.2431 7.92669 18.1021 7.94263 17.9624 7.97497C9.59434 9.91174 3.7499 17.2729 3.7498 25.8761C3.7498 30.7999 5.65667 35.4186 9.11905 38.8809C12.5815 42.3434 17.2001 44.2503 22.124 44.2502C30.7271 44.2502 38.0882 38.4057 40.0251 30.0377C40.1533 29.4836 40.023 28.9092 39.6674 28.4618C39.3082 28.0102 38.7716 27.7511 38.1952 27.7511H25.8736C22.7722 27.7511 20.2489 25.2278 20.2489 22.1263V9.80487C20.2489 9.22844 19.9898 8.69175 19.5382 8.3327C19.2037 8.06675 18.7979 7.92669 18.3829 7.92669V7.92669Z" fill="white"/>
</g>
<defs>
<clipPath id="clip0_10263_283409">
<rect width="48" height="48" fill="white"/>
</clipPath>
</defs>
</svg>
