<svg width="48" height="48" viewBox="0 0 48 48" fill="none" xmlns="http://www.w3.org/2000/svg">
<path d="M35.519 16.9608C34.8846 16.3262 33.9206 16.3262 33.274 16.9607L20.9628 29.2719L14.7279 23.0371C14.0935 22.4026 13.1295 22.4026 12.4829 23.0371C11.8484 23.6715 11.8484 24.6354 12.4829 25.2821L19.8402 32.6394C20.1575 32.9567 20.4746 33.1153 20.9628 33.1153C21.4386 33.1153 21.768 32.9567 22.0853 32.6394L35.519 19.2058C36.1534 18.5714 36.1534 17.6076 35.519 16.9608Z" fill="white"/>
<path fill-rule="evenodd" clip-rule="evenodd" d="M36.0901 16.4006C37.0267 17.3555 37.0345 18.8217 36.0847 19.7715L22.651 33.2051C22.1998 33.6563 21.6725 33.9153 20.9628 33.9153C20.628 33.9153 20.3136 33.8601 20.0148 33.7284C19.7189 33.598 19.4805 33.4111 19.2745 33.2051L11.9118 25.8424C10.9751 24.8875 10.9674 23.4212 11.9172 22.4714L11.9226 22.466C12.8773 21.5292 14.3438 21.5216 15.2936 22.4714C15.2936 22.4714 15.2936 22.4714 15.2936 22.4714L20.9628 28.1406L32.7136 16.3897C33.6684 15.4528 35.135 15.4451 36.0848 16.3952L36.0901 16.4006ZM20.9628 29.2719L14.7279 23.0371C14.0935 22.4026 13.1295 22.4026 12.4829 23.0371C11.8484 23.6715 11.8484 24.6354 12.4829 25.2821L19.8402 32.6394C20.1575 32.9567 20.4746 33.1153 20.9628 33.1153C21.4386 33.1153 21.768 32.9567 22.0853 32.6394L35.519 19.2058C36.1534 18.5714 36.1534 17.6076 35.519 16.9608C34.8846 16.3262 33.9206 16.3262 33.274 16.9607L20.9628 29.2719Z" fill="white"/>
</svg>
