<svg width="48" height="48" viewBox="0 0 48 48" fill="none" xmlns="http://www.w3.org/2000/svg">
<path d="M31.9403 23.9322C31.9418 24.1955 31.8914 24.4564 31.7919 24.7001C31.6923 24.9437 31.5457 25.1654 31.3603 25.3522L19.3603 37.3522C18.9837 37.7289 18.4729 37.9404 17.9403 37.9404C17.4077 37.9404 16.8969 37.7289 16.5203 37.3522C16.1437 36.9756 15.9321 36.4648 15.9321 35.9322C15.9321 35.3996 16.1437 34.8889 16.5203 34.5122L27.1203 23.9322L16.5403 13.3522C16.2127 12.9696 16.0414 12.4775 16.0609 11.9741C16.0803 11.4708 16.289 10.9933 16.6452 10.6371C17.0014 10.2809 17.4789 10.0723 17.9822 10.0528C18.4856 10.0334 18.9777 10.2046 19.3603 10.5322L31.3603 22.5322C31.7298 22.9048 31.9381 23.4076 31.9403 23.9322Z" fill="white"/>
</svg>
