<svg width="48" height="48" viewBox="0 0 48 48" fill="none" xmlns="http://www.w3.org/2000/svg">
<path d="M15.9322 24.0595C15.9307 23.7962 15.9812 23.5353 16.0807 23.2916C16.1802 23.048 16.3269 22.8263 16.5122 22.6395L28.5122 10.6395C28.8889 10.2628 29.3996 10.0513 29.9322 10.0513C30.4648 10.0513 30.9756 10.2628 31.3522 10.6395C31.7289 11.0161 31.9404 11.5268 31.9404 12.0595C31.9404 12.5921 31.7289 13.1028 31.3522 13.4795L20.7522 24.0595L31.3322 34.6395C31.6599 35.0221 31.8311 35.5142 31.8117 36.0176C31.7922 36.5209 31.5836 36.9984 31.2274 37.3546C30.8712 37.7108 30.3937 37.9194 29.8904 37.9389C29.387 37.9583 28.8948 37.7871 28.5122 37.4595L16.5122 25.4595C16.1428 25.0869 15.9345 24.5841 15.9322 24.0595Z" fill="white"/>
</svg>
