<svg width="48" height="48" viewBox="0 0 48 48" fill="none" xmlns="http://www.w3.org/2000/svg">
<path d="M23.9999 31.9999C23.7367 32.0014 23.4757 31.951 23.2321 31.8514C22.9884 31.7519 22.7668 31.6052 22.5799 31.4199L10.5799 19.4199C10.2033 19.0433 9.9917 18.5325 9.9917 17.9999C9.9917 17.4673 10.2033 16.9565 10.5799 16.5799C10.9565 16.2033 11.4673 15.9917 11.9999 15.9917C12.5325 15.9917 13.0433 16.2033 13.4199 16.5799L23.9999 27.1799L34.5799 16.5999C34.9625 16.2722 35.4546 16.101 35.958 16.1205C36.4613 16.1399 36.9388 16.3486 37.295 16.7048C37.6512 17.0609 37.8599 17.5384 37.8793 18.0418C37.8987 18.5451 37.7275 19.0373 37.3999 19.4199L25.3999 31.4199C25.0274 31.7894 24.5246 31.9977 23.9999 31.9999Z" fill="white"/>
</svg>
