<svg width="48" height="48" viewBox="0 0 48 48" fill="none" xmlns="http://www.w3.org/2000/svg">
<path d="M24 4C12.9726 4 4 12.9726 4 24C4 35.0273 12.9726 43.9999 24 43.9999C35.0273 43.9999 43.9999 35.0273 43.9999 24C43.9999 12.9726 35.0273 4 24 4V4ZM24 40C15.1781 40 7.99994 32.8218 7.99994 24C7.99994 15.1781 15.1781 7.99994 24 7.99994C32.8218 7.99994 40 15.1781 40 24C40 32.8218 32.8218 40 24 40ZM31.414 20.5859C31.5998 20.7715 31.7471 20.992 31.8477 21.2346C31.9482 21.4772 32 21.7373 32 22C32 22.2626 31.9482 22.5227 31.8477 22.7653C31.7471 23.0079 31.5998 23.2284 31.414 23.414L25.414 29.414C25.2283 29.5998 25.0079 29.7471 24.7653 29.8477C24.5227 29.9482 24.2626 30 24 30C23.7373 30 23.4773 29.9482 23.2347 29.8477C22.992 29.7471 22.7716 29.5998 22.5859 29.414L16.5859 23.414C16.3995 23.2285 16.2515 23.008 16.1504 22.7652C16.0493 22.5224 15.9971 22.262 15.9967 21.999C15.9964 21.736 16.048 21.4754 16.1485 21.2324C16.249 20.9893 16.3965 20.7685 16.5824 20.5825C16.7684 20.3965 16.9893 20.249 17.2323 20.1485C17.4754 20.048 17.7359 19.9964 17.9989 19.9967C18.262 19.997 18.5223 20.0492 18.7652 20.1503C19.008 20.2514 19.2285 20.3994 19.414 20.5859L24 25.1718L28.5859 20.5859C28.7716 20.4001 28.992 20.2528 29.2347 20.1522C29.4773 20.0517 29.7373 19.9999 30 19.9999C30.2626 19.9999 30.5227 20.0517 30.7653 20.1522C31.0079 20.2528 31.2283 20.4001 31.414 20.5859V20.5859Z" fill="white"/>
</svg>
