<svg width="48" height="48" viewBox="0 0 48 48" fill="none" xmlns="http://www.w3.org/2000/svg">
<g clip-path="url(#clip0_1859_4407)">
<path d="M22.9225 9.63743C12.3458 9.63743 3.74121 18.2422 3.74121 28.8187C3.74121 39.3953 12.3458 48 22.9225 48C33.4992 48 42.1038 39.3953 42.1038 28.8187C42.1038 18.2422 33.4992 9.63743 22.9225 9.63743ZM22.9225 44.2573C14.4097 44.2573 7.4839 37.3316 7.4839 28.8187C7.4839 20.3059 14.4097 13.3801 22.9225 13.3801C31.4353 13.3801 38.3611 20.3059 38.3611 28.8187C38.3611 37.3316 31.4353 44.2573 22.9225 44.2573ZM17.2181 5.61404C17.2181 2.51846 19.7365 0 22.8321 0C25.9277 0 28.4461 2.51331 28.4461 5.60262C28.4461 6.63616 27.6083 7.47396 26.5748 7.47396C25.5413 7.47396 24.7035 6.63616 24.7035 5.60262C24.7035 4.57703 23.864 3.74269 22.8321 3.74269C21.8003 3.74269 20.9608 4.58218 20.9608 5.61404C20.9608 6.64758 20.123 7.48538 19.0894 7.48538C18.0559 7.48538 17.2181 6.64758 17.2181 5.61404ZM43.7109 14.9873C43.3455 15.3526 42.8666 15.5353 42.3877 15.5353C41.9087 15.5353 41.4298 15.3526 41.0644 14.9873L36.3861 10.309C35.6552 9.57811 35.6552 8.39317 36.3861 7.66241C37.1169 6.93174 38.3018 6.93174 39.0325 7.66241L43.7109 12.3408C44.4417 13.0715 44.4417 14.2565 43.7109 14.9873ZM28.5248 20.5698L23.0785 26.0162C23.0268 26.0134 22.9748 26.0117 22.9224 26.0117C21.3722 26.0117 20.1154 27.2684 20.1154 28.8187C20.1154 30.369 21.3722 31.6257 22.9224 31.6257C24.4726 31.6257 25.7294 30.369 25.7294 28.8187C25.7294 28.7663 25.7277 28.7144 25.7249 28.6627L31.1713 23.2163C31.9021 22.4855 31.9021 21.3006 31.1713 20.5698C30.4404 19.8391 29.2556 19.8392 28.5248 20.5698Z" fill="white"/>
</g>
<defs>
<clipPath id="clip0_1859_4407">
<rect width="48" height="48" fill="white"/>
</clipPath>
</defs>
</svg>
