<svg width="48" height="48" viewBox="0 0 48 48" fill="none" xmlns="http://www.w3.org/2000/svg"><g clip-path="url(#clip0_868_4208)"><g clip-path="url(#clip1_868_4208)"><path d="M17.9257 24c0-3.1483 2.5577-5.7034 5.709-5.7034 3.1514 0 5.709 2.5551 5.709 5.7034 0 3.1483-2.5576 5.7034-5.709 5.7034-3.1513.0456-5.709-2.5551-5.709-5.7034zm5.709-24C12.3994 0 2.99103 7.6654.342059 18.0684c0 .0913-.045672.1369-.045672.2282 0 .6388.50239 1.1407 1.141793 1.1407h9.68242c.4567 0 .8678-.2738 1.0505-.6844 2.0095-4.3346 6.3484-7.3461 11.4636-7.3461 6.9421 0 12.6055 5.6578 12.6055 12.5932s-5.6634 12.5932-12.6055 12.5932c-5.0696 0-9.4541-3.0115-11.4636-7.3461-.1827-.4106-.5938-.6844-1.0505-.6844H1.43818c-.639403 0-1.141793.5019-1.141793 1.1407 0 .0913 0 .1369.045672.2282C2.99103 40.3346 12.3994 48 23.6347 48c13.2905 0 24.0691-10.7681 24.0691-24.0456C47.7038 10.7224 36.9252 0 23.6347 0z" fill="#fff"/></g></g><defs><clipPath id="clip0_868_4208"><path fill="#fff" d="M0 0h48v48H0z"/></clipPath><clipPath id="clip1_868_4208"><path fill="#fff" transform="translate(.296387)" d="M0 0h47.4074v48H0z"/></clipPath></defs></svg>