<svg width="48" height="48" viewBox="0 0 48 48" fill="none" xmlns="http://www.w3.org/2000/svg">
<path fill-rule="evenodd" clip-rule="evenodd" d="M7.95225 10.8578C8.70205 10.108 9.91773 10.108 10.6675 10.8578L21.9775 22.1677C22.7273 22.9175 22.7273 24.1332 21.9775 24.883L10.6675 36.1929C9.91773 36.9427 8.70205 36.9427 7.95225 36.1929C7.20244 35.4431 7.20244 34.2274 7.95225 33.4776L17.9045 23.5253L7.95225 13.5731C7.20244 12.8232 7.20244 11.6076 7.95225 10.8578Z" fill="white"/>
<path fill-rule="evenodd" clip-rule="evenodd" d="M23.286 35.3579C23.286 34.2975 24.1456 33.4379 25.206 33.4379H41.2007C42.2611 33.4379 43.1207 34.2975 43.1207 35.3579C43.1207 36.4182 42.2611 37.2779 41.2007 37.2779H25.206C24.1456 37.2779 23.286 36.4182 23.286 35.3579Z" fill="white"/>
</svg>
