<svg width="48" height="48" viewBox="0 0 48 48" fill="none" xmlns="http://www.w3.org/2000/svg">
<g clip-path="url(#clip0_1342_3826)">
<path fill-rule="evenodd" clip-rule="evenodd" d="M24 3.75C12.8162 3.75 3.75 12.8162 3.75 24C3.75 35.1838 12.8162 44.25 24 44.25C35.1838 44.25 44.25 35.1838 44.25 24C44.25 12.8162 35.1838 3.75 24 3.75ZM0 24C0 10.7452 10.7452 0 24 0C37.2548 0 48 10.7452 48 24C48 37.2548 37.2548 48 24 48C10.7452 48 0 37.2548 0 24Z" fill="white"/>
<path fill-rule="evenodd" clip-rule="evenodd" d="M24 14.625C25.0355 14.625 25.875 15.4645 25.875 16.5V24C25.875 24.4973 25.6775 24.9742 25.3258 25.3258L20.0247 30.6269C19.2925 31.3591 18.1053 31.3591 17.3731 30.6269C16.6408 29.8947 16.6408 28.7075 17.3731 27.9753L22.125 23.2233V16.5C22.125 15.4645 22.9645 14.625 24 14.625Z" fill="white"/>
</g>
<defs>
<clipPath id="clip0_1342_3826">
<rect width="48" height="48" fill="white"/>
</clipPath>
</defs>
</svg>
