<svg width="48" height="48" viewBox="0 0 48 48" fill="none" xmlns="http://www.w3.org/2000/svg">
<path d="M27.3937 24.0001L37.6969 13.697C38.6344 12.7595 38.6344 11.2407 37.6969 10.3032C36.7594 9.36572 35.2406 9.36572 34.3031 10.3032L24 20.6063L13.6969 10.3032C12.7594 9.36572 11.2406 9.36572 10.3031 10.3032C9.3656 11.2407 9.3656 12.7595 10.3031 13.697L20.6062 24.0001L10.3031 34.3032C9.3656 35.2407 9.3656 36.7595 10.3031 37.697C10.7719 38.1657 11.3859 38.4001 12 38.4001C12.614 38.4001 13.2281 38.1657 13.6969 37.697L24 27.3938L34.3031 37.697C34.7719 38.1657 35.3859 38.4001 36 38.4001C36.614 38.4001 37.2281 38.1657 37.6969 37.697C38.6344 36.7595 38.6344 35.2407 37.6969 34.3032L27.3937 24.0001Z" fill="white"/>
</svg>
