<svg width="48" height="48" viewBox="0 0 48 48" fill="none" xmlns="http://www.w3.org/2000/svg">
<path d="M23.2972 0.188431C23.7323 -0.0628101 24.2685 -0.0628104 24.7036 0.188431L44.2702 11.4852C44.7054 11.7364 44.9734 12.2008 44.9734 12.7032V35.2968C44.9734 35.7992 44.7054 36.2636 44.2702 36.5148L24.7036 47.8116C24.2685 48.0628 23.7323 48.0628 23.2972 47.8116L3.73058 36.5148C3.29542 36.2636 3.02734 35.7992 3.02734 35.2968V12.7032C3.02734 12.2008 3.29541 11.7364 3.73058 11.4852L23.2972 0.188431Z" fill="#F6821F"/>
<path d="M23.2972 3.61669C23.7323 3.36545 24.2685 3.36545 24.7036 3.61669L41.3012 13.1993C41.7364 13.4506 42.0045 13.9149 42.0045 14.4174V33.5826C42.0045 34.0851 41.7364 34.5494 41.3012 34.8007L24.7036 44.3833C24.2685 44.6346 23.7323 44.6346 23.2972 44.3833L6.69954 34.8007C6.26438 34.5494 5.9963 34.0851 5.9963 33.5826V14.4174C5.9963 13.9149 6.26438 13.4506 6.69954 13.1993L23.2972 3.61669Z" fill="#FBAD40"/>
<path fill-rule="evenodd" clip-rule="evenodd" d="M14.5643 23.0881L19.6931 16.2644L20.6161 17.583L15.7598 23.9847C15.7483 24.0001 15.748 24.0211 15.7592 24.0367L20.6084 30.8174L19.6491 32.0432L14.5436 24.906C14.1534 24.3603 14.1618 23.6248 14.5643 23.0881Z" fill="#0050E5"/>
<path fill-rule="evenodd" clip-rule="evenodd" d="M28.6821 23.0795L22.3742 14.6382H20.4842L27.488 23.9779C27.4997 23.9935 27.4998 24.0148 27.4882 24.0305L20.7623 33.2299H22.8137L28.6903 24.9182C29.0945 24.371 29.0912 23.6232 28.6821 23.0795Z" fill="#0050E5"/>
<path fill-rule="evenodd" clip-rule="evenodd" d="M32.506 23.0795L26.198 14.6382H24.3081L31.3118 23.9779C31.3235 23.9935 31.3236 24.0148 31.312 24.0305L24.5861 33.2299H26.6375L32.5141 24.9182C32.9183 24.371 32.915 23.6232 32.506 23.0795Z" fill="#0050E5"/>
</svg>
