<svg width="48" height="48" viewBox="0 0 48 48" fill="none" xmlns="http://www.w3.org/2000/svg">
<path d="M32.1757 9C29.1562 9 26.3452 9.919 24 11.494C21.6548 9.919 18.8438 9 15.8243 9C7.65008 9 1 15.729 1 24C1 32.271 7.65017 39 15.8243 39C18.8438 39 21.6548 38.081 24 36.506C26.3452 38.0809 29.1562 39 32.1757 39C40.3499 39 47 32.271 47 24C47 15.729 40.3499 9 32.1757 9ZM15.8243 36.2727C9.13628 36.2727 3.69532 30.7672 3.69532 24C3.69532 17.2328 9.13637 11.7273 15.8243 11.7273C17.9888 11.7273 20.0223 12.3046 21.7835 13.3141C19.0496 16.0367 17.3514 19.8212 17.3514 24C17.3514 28.1788 19.0496 31.9633 21.7835 34.6859C20.0224 35.6954 17.9888 36.2727 15.8243 36.2727ZM25.9039 17.1813H22.096C22.6407 16.3596 23.2806 15.6079 23.9999 14.9426C24.7193 15.608 25.3593 16.3596 25.9039 17.1813ZM24 33.0574C23.2807 32.3921 22.6407 31.6404 22.0961 30.8187H25.904C25.3593 31.6404 24.7193 32.3921 24 33.0574ZM27.2593 28.0915H20.7406C20.4361 27.2226 20.2258 26.3093 20.122 25.3636H27.8779C27.7742 26.3092 27.5638 27.2226 27.2593 28.0915ZM27.8779 22.6364H20.1221C20.2258 21.6908 20.4362 20.7774 20.7407 19.9085H27.2594C27.5638 20.7774 27.7742 21.6908 27.8779 22.6364ZM32.1757 36.2727C30.0112 36.2727 27.9776 35.6954 26.2165 34.6859C28.9504 31.9633 30.6486 28.1788 30.6486 24C30.6486 19.8212 28.9504 16.0367 26.2165 13.3141C27.9777 12.3045 30.0112 11.7273 32.1757 11.7273C38.8636 11.7273 44.3047 17.2328 44.3047 24C44.3047 30.7672 38.8637 36.2727 32.1757 36.2727Z" fill="white"/>
<path fill-rule="evenodd" clip-rule="evenodd" d="M24 10.8961C26.3672 9.37976 29.1719 8.5 32.1757 8.5C40.6316 8.5 47.5 15.4584 47.5 24C47.5 32.5416 40.6316 39.5 32.1757 39.5C29.1719 39.5 26.3672 38.6202 24 37.1039C21.6328 38.6202 18.8281 39.5 15.8243 39.5C7.36849 39.5 0.5 32.5416 0.5 24C0.5 15.4584 7.3684 8.5 15.8243 8.5C18.8281 8.5 21.6328 9.37976 24 10.8961ZM24 11.494C26.3452 9.919 29.1562 9 32.1757 9C40.3499 9 47 15.729 47 24C47 32.271 40.3499 39 32.1757 39C29.1562 39 26.3452 38.0809 24 36.506C21.6548 38.081 18.8438 39 15.8243 39C7.65017 39 1 32.271 1 24C1 15.729 7.65008 9 15.8243 9C18.8438 9 21.6548 9.919 24 11.494ZM4.19532 24C4.19532 30.4966 9.41796 35.7727 15.8243 35.7727C17.6696 35.7727 19.4151 35.3351 20.9663 34.5573C18.4151 31.788 16.8514 28.075 16.8514 24C16.8514 19.925 18.4151 16.212 20.9663 13.4427C19.415 12.6649 17.6696 12.2273 15.8243 12.2273C9.41805 12.2273 4.19532 17.5034 4.19532 24ZM21.3262 13.0649C19.6739 12.2102 17.8039 11.7273 15.8243 11.7273C9.13637 11.7273 3.69532 17.2328 3.69532 24C3.69532 30.7672 9.13628 36.2727 15.8243 36.2727C17.8038 36.2727 19.6739 35.7898 21.3262 34.9351C21.4806 34.8553 21.6331 34.7722 21.7835 34.6859C21.6615 34.5644 21.5415 34.4407 21.4237 34.315C18.9014 31.6246 17.3514 27.9923 17.3514 24C17.3514 20.0077 18.9014 16.3754 21.4237 13.685C21.5415 13.5593 21.6615 13.4356 21.7835 13.3141C21.6331 13.2278 21.4806 13.1447 21.3262 13.0649ZM25.9039 17.1813C25.7914 17.0116 25.6748 16.8449 25.5544 16.6813C25.0915 16.0528 24.5707 15.4706 23.9999 14.9426C23.4292 15.4705 22.9084 16.0528 22.4455 16.6813C22.3251 16.8449 22.2085 17.0116 22.096 17.1813H25.9039ZM24.9261 16.6813H23.0738C23.362 16.3146 23.6714 15.9658 23.9999 15.6365C24.3285 15.9658 24.6379 16.3147 24.9261 16.6813ZM24 32.3635C23.6714 32.0342 23.3621 31.6854 23.0739 31.3187H24.9261C24.6379 31.6854 24.3286 32.0342 24 32.3635ZM22.0961 30.8187C22.2086 30.9884 22.3252 31.1551 22.4456 31.3187C22.9085 31.9472 23.4293 32.5295 24 33.0574C24.5707 32.5295 25.0915 31.9472 25.5544 31.3187C25.6749 31.1551 25.7915 30.9884 25.904 30.8187H22.0961ZM27.2593 28.0915C27.5098 27.3767 27.6966 26.6318 27.8127 25.8636C27.8377 25.698 27.8595 25.5313 27.8779 25.3636H20.122C20.1404 25.5313 20.1622 25.698 20.1872 25.8636C20.3034 26.6318 20.4901 27.3767 20.7406 28.0915H27.2593ZM21.1008 27.5915H26.8991C27.0764 27.0325 27.2135 26.4554 27.3068 25.8636H20.6931C20.7865 26.4554 20.9235 27.0325 21.1008 27.5915ZM27.8779 22.6364C27.8595 22.4687 27.8378 22.302 27.8127 22.1364C27.6966 21.3682 27.5098 20.6233 27.2594 19.9085H20.7407C20.4902 20.6233 20.3034 21.3682 20.1873 22.1364C20.1622 22.302 20.1405 22.4687 20.1221 22.6364H27.8779ZM27.3068 22.1364H20.6932C20.7865 21.5446 20.9236 20.9675 21.1009 20.4085H26.8992C27.0764 20.9675 27.2135 21.5446 27.3068 22.1364ZM27.0337 34.5573C28.5849 35.3351 30.3304 35.7727 32.1757 35.7727C38.582 35.7727 43.8047 30.4966 43.8047 24C43.8047 17.5034 38.5819 12.2273 32.1757 12.2273C30.3304 12.2273 28.585 12.6649 27.0337 13.4427C29.5849 16.212 31.1486 19.925 31.1486 24C31.1486 28.075 29.5849 31.788 27.0337 34.5573ZM26.6738 34.9351C28.3261 35.7898 30.1961 36.2727 32.1757 36.2727C38.8637 36.2727 44.3047 30.7672 44.3047 24C44.3047 17.2328 38.8636 11.7273 32.1757 11.7273C30.1961 11.7273 28.3261 12.2101 26.6738 13.0649C26.5194 13.1447 26.3669 13.2278 26.2165 13.3141C26.3385 13.4356 26.4585 13.5593 26.5763 13.685C29.0986 16.3754 30.6486 20.0077 30.6486 24C30.6486 27.9923 29.0986 31.6246 26.5763 34.315C26.4585 34.4407 26.3385 34.5644 26.2165 34.6859C26.3669 34.7722 26.5194 34.8553 26.6738 34.9351Z" fill="white"/>
</svg>
