<svg width="48" height="48" viewBox="0 0 48 48" fill="none" xmlns="http://www.w3.org/2000/svg">
<g clip-path="url(#clip0_739_3563)">
<path d="M10.875 24C10.875 31.2371 16.7629 37.125 24 37.125C31.2371 37.125 37.125 31.2371 37.125 24C37.125 16.7629 31.2371 10.875 24 10.875C16.7629 10.875 10.875 16.7629 10.875 24ZM24 14.625C29.1695 14.625 33.375 18.8306 33.375 24C33.375 29.1694 29.1695 33.375 24 33.375C18.8305 33.375 14.625 29.1694 14.625 24C14.625 18.8306 18.8305 14.625 24 14.625Z" fill="white"/>
<path d="M5.625 11.25C6.49228 11.25 7.31428 11.0524 8.04862 10.7003L9.79734 12.449C10.5295 13.1812 11.7168 13.1813 12.4491 12.449C13.1812 11.7167 13.1812 10.5295 12.4491 9.79734L10.7002 8.04853C11.0524 7.31428 11.25 6.49228 11.25 5.625C11.25 2.52338 8.72662 0 5.625 0C2.52337 0 0 2.52338 0 5.625C0 8.72662 2.52337 11.25 5.625 11.25ZM5.625 3.75C6.65887 3.75 7.5 4.59113 7.5 5.625C7.5 6.65887 6.65887 7.5 5.625 7.5C4.59112 7.5 3.75 6.65887 3.75 5.625C3.75 4.59113 4.59112 3.75 5.625 3.75Z" fill="white"/>
<path d="M42.3752 0C39.2735 0 36.7502 2.52338 36.7502 5.625C36.7502 6.49228 36.9478 7.31428 37.2999 8.04862L35.5511 9.79744C34.8189 10.5297 34.8189 11.7169 35.5511 12.4491C36.2833 13.1812 37.4705 13.1813 38.2028 12.4491L39.9515 10.7003C40.6859 11.0525 41.5078 11.2501 42.3752 11.2501C45.4768 11.2501 48.0002 8.72672 48.0002 5.62509C48.0002 2.52347 45.4768 0 42.3752 0V0ZM42.3752 7.5C41.3413 7.5 40.5002 6.65887 40.5002 5.625C40.5002 4.59113 41.3413 3.75 42.3752 3.75C43.409 3.75 44.2502 4.59113 44.2502 5.625C44.2502 6.65887 43.409 7.5 42.3752 7.5Z" fill="white"/>
<path d="M42.3752 36.7501C41.5079 36.7501 40.6859 36.9478 39.9515 37.2999L38.2028 35.5512C37.4705 34.8189 36.2833 34.8189 35.5511 35.5512C34.8189 36.2834 34.8189 37.4706 35.5511 38.2028L37.2999 39.9516C36.9478 40.6859 36.7502 41.5079 36.7502 42.3751C36.7502 45.4768 39.2735 48.0001 42.3752 48.0001C45.4768 48.0001 48.0002 45.4768 48.0002 42.3751C48.0002 39.2735 45.4768 36.7501 42.3752 36.7501V36.7501ZM42.3752 44.2501C41.3413 44.2501 40.5002 43.409 40.5002 42.3751C40.5002 41.3413 41.3413 40.5001 42.3752 40.5001C43.409 40.5001 44.2502 41.3413 44.2502 42.3751C44.2502 43.409 43.409 44.2501 42.3752 44.2501Z" fill="white"/>
<path d="M5.625 48.0002C8.72662 48.0002 11.25 45.4769 11.25 42.3752C11.25 41.5079 11.0524 40.6859 10.7002 39.9516L12.4491 38.2028C13.1812 37.4705 13.1812 36.2834 12.4491 35.5512C11.7168 34.8189 10.5295 34.8189 9.79734 35.5512L8.04862 37.2999C7.31428 36.9479 6.49228 36.7502 5.625 36.7502C2.52337 36.7502 0 39.2736 0 42.3752C0 45.4769 2.52337 48.0002 5.625 48.0002ZM5.625 40.5002C6.65887 40.5002 7.5 41.3414 7.5 42.3752C7.5 43.4091 6.65887 44.2502 5.625 44.2502C4.59112 44.2502 3.75 43.4091 3.75 42.3752C3.75 41.3414 4.59112 40.5002 5.625 40.5002Z" fill="white"/>
</g>
<defs>
<clipPath id="clip0_739_3563">
<rect width="48" height="48" fill="white"/>
</clipPath>
</defs>
</svg>
