<svg width="48" height="48" viewBox="0 0 48 48" fill="none" xmlns="http://www.w3.org/2000/svg">
<g clip-path="url(#clip0_10263_283370)">
<path d="M24.289 47.9954C11.2231 48.2629 -0.257999 36.7825 0.0104756 23.7162C-0.172319 12.8233 7.8237 2.68249 18.3757 0.164797C21.1836 -0.600786 24.2543 1.40546 24.6858 4.28284C25.014 6.19741 25.9166 7.93846 27.296 9.31777C28.6128 10.6347 30.27 11.5215 32.0881 11.8824C34.1332 12.2883 35.7171 13.8722 36.1231 15.9173C36.4841 17.7355 37.371 19.3927 38.6877 20.7096C38.6878 20.7096 38.6878 20.7096 38.6878 20.7096C40.067 22.0889 41.808 22.9914 43.7227 23.3197C45.1306 23.5611 46.3843 24.3839 47.1624 25.5772C47.9398 26.7693 48.187 28.2464 47.8406 29.6298C45.3225 40.1826 35.1825 48.1776 24.289 47.9954ZM19.63 3.75939C19.5159 3.75939 19.4008 3.77355 19.2863 3.80223C3.97385 7.43245 -1.48348 27.2661 9.76742 38.2381C20.7423 49.4921 40.5752 44.0272 44.2034 28.7193C44.2985 28.3394 44.2339 27.951 44.0217 27.6255C43.8086 27.2987 43.4773 27.0821 43.0892 27.0154C40.4058 26.5554 37.9671 25.2917 36.0365 23.361C34.193 21.5176 32.9512 19.1961 32.4452 16.6475C32.3359 16.0965 31.9091 15.6697 31.3581 15.5604C28.8095 15.0544 26.4879 13.8126 24.6445 11.969C22.7137 10.0384 21.4501 7.59949 20.9901 4.91634C20.9235 4.52807 20.7069 4.19688 20.3801 3.98381C20.1527 3.8356 19.8946 3.75939 19.63 3.75939ZM21.8519 23.7165C21.8519 25.0108 22.9011 26.06 24.1954 26.06C27.3006 25.9451 27.2998 21.4874 24.1954 21.373C22.9011 21.373 21.8519 22.4222 21.8519 23.7165ZM13.8839 15.6548C13.8839 16.949 14.9331 17.9983 16.2274 17.9983C19.3327 17.8834 19.3318 13.4257 16.2274 13.3112C14.9331 13.3112 13.8839 14.3605 13.8839 15.6548ZM13.8839 31.6845C13.8839 32.9788 14.9331 34.028 16.2274 34.028C19.3327 33.9131 19.3318 29.4554 16.2274 29.3409C14.9331 29.3409 13.8839 30.3902 13.8839 31.6845ZM30.7573 31.6845C30.7573 32.9788 31.8065 34.028 33.1008 34.028C36.206 33.9131 36.2052 29.4554 33.1008 29.3409C31.8065 29.3409 30.7573 30.3902 30.7573 31.6845ZM35.913 0C37.2073 0 38.2565 1.04924 38.2565 2.34353C38.1416 5.44879 33.6839 5.44795 33.5695 2.34353C33.5695 1.04924 34.6187 0 35.913 0ZM43.3185 5.15576C43.3185 6.45004 44.3678 7.49928 45.6621 7.49928C48.7673 7.38436 48.7665 2.92669 45.6621 2.81223C44.3678 2.81223 43.3185 3.86147 43.3185 5.15576ZM41.0688 15.4673C41.0688 16.7616 42.118 17.8108 43.4123 17.8108C46.5176 17.6959 46.5167 13.2382 43.4123 13.1237C42.118 13.1237 41.0688 14.173 41.0688 15.4673Z" fill="white"/>
</g>
<defs>
<clipPath id="clip0_10263_283370">
<rect width="48" height="48" fill="white"/>
</clipPath>
</defs>
</svg>
