<svg width="48" height="48" viewBox="0 0 48 48" fill="none" xmlns="http://www.w3.org/2000/svg">
<g clip-path="url(#clip0_60_4004)">
<path d="M16.7827 44.25H11.2515C7.11596 44.25 3.75146 40.8855 3.75146 36.75V11.25C3.75146 7.1145 7.11596 3.75 11.2515 3.75H28.5015C32.637 3.75 36.0015 7.1145 36.0015 11.25V17.4375C36.0015 18.4731 36.8409 19.3125 37.8765 19.3125C38.912 19.3125 39.7515 18.4731 39.7515 17.4375V11.25C39.7515 5.04675 34.7047 0 28.5015 0H11.2515C5.04821 0 0.00146484 5.04675 0.00146484 11.25V36.75C0.00146484 42.9533 5.04821 48 11.2515 48H16.7827C17.8183 48 18.6577 47.1606 18.6577 46.125C18.6577 45.0894 17.8183 44.25 16.7827 44.25Z" fill="white"/>
<path d="M36.1909 31.0931C35.3966 31.7574 35.2911 32.9398 35.9555 33.7343C37.2327 35.2615 36.9478 37.3584 35.2299 39.0763L31.5746 42.7315C29.7482 44.5579 27.493 44.7568 25.9627 43.2264C25.2591 42.5228 24.9059 41.6485 24.9414 40.6979C24.9811 39.6328 25.5054 38.5665 26.4575 37.6144C27.1898 36.8821 27.1898 35.6949 26.4575 34.9627C25.7252 34.2305 24.5381 34.2304 23.8059 34.9627C22.1728 36.5957 21.2697 38.5306 21.194 40.5581C21.1197 42.5492 21.8715 44.4387 23.3111 45.8781C24.6855 47.2526 26.4701 48.0001 28.3618 48.0001C28.4513 48.0001 28.5411 47.9984 28.631 47.9951C30.6584 47.9193 32.5932 47.0162 34.2263 45.3833L37.8815 41.7282C40.975 38.6347 41.3659 34.3582 38.8321 31.3285C38.1677 30.5341 36.9851 30.4286 36.1909 31.0931Z" fill="white"/>
<path d="M45.8763 23.3094C44.4369 21.87 42.5481 21.1189 40.5563 21.1924C38.5288 21.2682 36.594 22.1713 34.961 23.8043L31.3058 27.4595C29.7463 29.019 28.8479 30.8794 28.7077 32.8396C28.5703 34.7612 29.1928 36.6208 30.4606 38.0756C30.8314 38.501 31.3517 38.7187 31.8749 38.7187C32.3119 38.7187 32.7508 38.5668 33.1061 38.2573C33.8867 37.5768 33.9681 36.3925 33.2878 35.6118C31.9423 34.0679 32.2114 31.8572 33.9576 30.1111L37.6128 26.4559C38.5649 25.5039 39.6312 24.9796 40.6963 24.9398C41.6466 24.9046 42.5212 25.2574 43.2248 25.9611C43.9284 26.6647 44.2814 27.5389 44.246 28.4896C44.2063 29.5546 43.682 30.621 42.7299 31.5731C41.9976 32.3054 41.9976 33.4926 42.7299 34.2248C43.4622 34.957 44.6493 34.9571 45.3815 34.2248C47.0145 32.5918 47.9177 30.6569 47.9934 28.6294C48.0676 26.6383 47.3158 24.7489 45.8763 23.3094Z" fill="white"/>
</g>
<defs>
<clipPath id="clip0_60_4004">
<rect width="48" height="48" fill="white"/>
</clipPath>
</defs>
</svg>
