<svg width="48" height="48" viewBox="0 0 48 48" fill="none" xmlns="http://www.w3.org/2000/svg">
<path d="M16.5 44.625H5.625C2.52338 44.625 0 42.1016 0 39V9C0 5.89838 2.52338 3.375 5.625 3.375H16.5C19.6016 3.375 22.125 5.89838 22.125 9V39C22.125 42.1016 19.6016 44.625 16.5 44.625ZM5.625 7.125C4.59113 7.125 3.75 7.96613 3.75 9V39C3.75 40.0339 4.59113 40.875 5.625 40.875H16.5C17.5339 40.875 18.375 40.0339 18.375 39V9C18.375 7.96613 17.5339 7.125 16.5 7.125H5.625Z" fill="white"/>
<path d="M42.375 22.125H31.5C28.3984 22.125 25.875 19.6016 25.875 16.5V9C25.875 5.89838 28.3984 3.375 31.5 3.375H42.375C45.4766 3.375 48 5.89838 48 9V16.5C48 19.6016 45.4766 22.125 42.375 22.125ZM31.5 7.125C30.4661 7.125 29.625 7.96613 29.625 9V16.5C29.625 17.5339 30.4661 18.375 31.5 18.375H42.375C43.4089 18.375 44.25 17.5339 44.25 16.5V9C44.25 7.96613 43.4089 7.125 42.375 7.125H31.5Z" fill="white"/>
<path d="M42.375 44.625H31.5C28.3984 44.625 25.875 42.1016 25.875 39V31.5C25.875 28.3984 28.3984 25.875 31.5 25.875H42.375C45.4766 25.875 48 28.3984 48 31.5V39C48 42.1016 45.4766 44.625 42.375 44.625ZM31.5 29.625C30.4661 29.625 29.625 30.4661 29.625 31.5V39C29.625 40.0339 30.4661 40.875 31.5 40.875H42.375C43.4089 40.875 44.25 40.0339 44.25 39V31.5C44.25 30.4661 43.4089 29.625 42.375 29.625H31.5Z" fill="white"/>
</svg>
