<svg width="48" height="48" viewBox="0 0 48 48" fill="none" xmlns="http://www.w3.org/2000/svg">
<g clip-path="url(#clip0_10263_283343)">
<path d="M44.5447 7.93431L27.6177 0.724759C27.6132 0.722884 27.6087 0.720916 27.6042 0.719041C25.3059 -0.238789 22.6989 -0.240571 20.396 0.719041C20.3915 0.720916 20.3869 0.722884 20.3824 0.724759L3.4555 7.93431C1.35647 8.81246 0.000488281 10.8491 0.000488281 13.1249C0.000488281 15.4007 1.35647 17.4373 3.4555 18.3155L20.3825 25.5257C20.387 25.5276 20.3915 25.5295 20.396 25.5314C22.6943 26.4892 25.3014 26.491 27.6042 25.5314C27.6087 25.5295 27.6133 25.5276 27.6178 25.5257L44.5448 18.3155C46.6438 17.4373 47.9998 15.4007 47.9998 13.1249C47.9998 10.8491 46.6437 8.81246 44.5447 7.93431V7.93431ZM43.0951 14.8571C43.0906 14.859 43.0861 14.8608 43.0815 14.8628L26.1561 22.0724C24.7844 22.6423 23.2188 22.6435 21.8442 22.0724L4.91873 14.8628C4.91423 14.8608 4.90973 14.859 4.90514 14.8571C4.20362 14.5647 3.75034 13.8848 3.75034 13.1249C3.75034 12.365 4.20362 11.6851 4.90514 11.3927C4.90964 11.3908 4.91414 11.389 4.91873 11.387L21.8441 4.17809C23.2158 3.60819 24.7814 3.60697 26.156 4.17809L43.0816 11.387C43.0861 11.389 43.0906 11.3908 43.0952 11.3927C43.7967 11.6851 44.25 12.365 44.25 13.1249C44.25 13.8848 43.7966 14.5647 43.0951 14.8571V14.8571Z" fill="white"/>
<path d="M46.1249 22.125C45.0894 22.125 44.25 22.9644 44.25 24C44.25 24.7599 43.7967 25.4398 43.0952 25.7322C43.0907 25.734 43.0862 25.7359 43.0816 25.7379L26.1562 32.9474C24.7845 33.5173 23.2189 33.5186 21.8443 32.9474L4.91883 25.7379C4.91433 25.7359 4.90983 25.734 4.90523 25.7322C4.20371 25.4398 3.75044 24.7599 3.75044 24C3.75044 22.9644 2.91101 22.125 1.87546 22.125C0.839914 22.125 0.000488281 22.9644 0.000488281 24C0.000488281 26.2758 1.35647 28.3124 3.4556 29.1906L20.3825 36.4008C20.387 36.4026 20.3915 36.4046 20.396 36.4065C22.6943 37.3643 25.3014 37.3661 27.6042 36.4065C27.6087 36.4046 27.6133 36.4026 27.6178 36.4008L44.5447 29.1906C46.6438 28.3124 47.9999 26.2758 47.9999 24C47.9999 22.9644 47.1604 22.125 46.1249 22.125V22.125Z" fill="white"/>
<path d="M46.1249 32.9995C45.0894 32.9995 44.25 33.8389 44.25 34.8745C44.25 35.6344 43.7967 36.3143 43.0952 36.6067C43.0907 36.6086 43.0862 36.6104 43.0816 36.6124L26.1562 43.822C24.7845 44.3919 23.2189 44.3931 21.8443 43.822L4.91883 36.6124C4.91433 36.6104 4.90983 36.6086 4.90523 36.6067C4.20371 36.3143 3.75044 35.6344 3.75044 34.8745C3.75044 33.8389 2.91101 32.9995 1.87546 32.9995C0.839914 32.9995 0.000488281 33.8389 0.000488281 34.8745C0.000488281 37.1503 1.35647 39.1869 3.4556 40.0651L20.3825 47.2753C20.387 47.2772 20.3915 47.2791 20.396 47.281C22.6943 48.2388 25.3014 48.2406 27.6042 47.281C27.6087 47.2791 27.6133 47.2772 27.6178 47.2753L44.5447 40.0651C46.6438 39.1869 47.9999 37.1503 47.9999 34.8745C47.9999 33.8389 47.1604 32.9995 46.1249 32.9995V32.9995Z" fill="white"/>
</g>
<defs>
<clipPath id="clip0_10263_283343">
<rect width="48" height="48" fill="white"/>
</clipPath>
</defs>
</svg>
