<svg width="48" height="48" viewBox="0 0 48 48" fill="none" xmlns="http://www.w3.org/2000/svg">
<g clip-path="url(#clip0_1814_3960)">
<path d="M20.0226 42.9764C20.0181 42.972 20.0137 42.9675 20.0093 42.963L1.64066 24.2195C-0.301232 22.2706 -0.50054 19.2972 0.943085 17.132L8.44292 5.88223C9.48962 4.31214 11.24 3.37485 13.1253 3.37485H34.8748C36.7601 3.37485 38.5104 4.31223 39.5571 5.88223L47.057 17.132C48.5008 19.2976 48.3009 22.271 46.3594 24.2195L27.9907 42.963C27.9863 42.9675 27.9819 42.972 27.9774 42.9764C25.7794 45.1746 22.221 45.175 20.0226 42.9764ZM22.6802 40.3308C23.4111 41.0555 24.5886 41.0559 25.3198 40.3308L43.6871 21.5888C43.6915 21.5843 43.696 21.5798 43.7004 21.5753C44.3577 20.9181 44.4103 19.9221 43.9369 19.2122L36.4371 7.96241C36.0875 7.43789 35.5034 7.12477 34.8748 7.12477H13.1253C12.4967 7.12477 11.9125 7.43789 11.563 7.96241L4.06311 19.2122C3.58978 19.9223 3.64246 20.9182 4.29964 21.5754C4.30404 21.5798 4.30854 21.5844 4.31295 21.5889L22.6802 40.3308Z" fill="white"/>
<path d="M37.4469 18.3745H28.5265L32.8256 14.0754C33.5579 13.3432 33.5579 12.156 32.8256 11.4239C32.0934 10.6917 30.9062 10.6916 30.174 11.4239L24 17.5979L17.8261 11.4239C17.0938 10.6916 15.9066 10.6916 15.1744 11.4239C14.4422 12.1561 14.4421 13.3433 15.1744 14.0754L19.4735 18.3745H10.5532C9.51764 18.3745 8.67822 19.2139 8.67822 20.2495C8.67822 21.285 9.51764 22.1244 10.5532 22.1244H37.4469C38.4825 22.1244 39.3219 21.285 39.3219 20.2495C39.3219 19.2139 38.4824 18.3745 37.4469 18.3745Z" fill="white"/>
</g>
<defs>
<clipPath id="clip0_1814_3960">
<rect width="48" height="48" fill="white"/>
</clipPath>
</defs>
</svg>
