<svg width="48" height="48" viewBox="0 0 48 48" fill="none" xmlns="http://www.w3.org/2000/svg">
<path d="M17.5312 22.0312C18.8257 22.0312 19.875 20.9819 19.875 19.6875C19.875 18.3931 18.8257 17.3438 17.5312 17.3438C16.2368 17.3438 15.1875 18.3931 15.1875 19.6875C15.1875 20.9819 16.2368 22.0312 17.5312 22.0312Z" fill="white"/>
<path d="M32.627 48H15.373C9.17081 48 4.125 42.9542 4.125 36.752V11.248C4.125 5.04581 9.17081 0 15.373 0H32.6269C38.8292 0 43.875 5.04581 43.875 11.248V36.7519C43.875 42.9542 38.8292 48 32.627 48ZM15.373 3.75C11.2387 3.75 7.875 7.11366 7.875 11.248V36.7519C7.875 40.8863 11.2387 44.25 15.373 44.25H32.6269C36.7613 44.25 40.125 40.8863 40.125 36.752V11.248C40.125 7.11366 36.7613 3.75 32.627 3.75H15.373Z" fill="white"/>
<path d="M29.7188 37.0312H16.7812C15.7457 37.0312 14.9062 36.1918 14.9062 35.1562C14.9062 34.1207 15.7457 33.2812 16.7812 33.2812H29.7188C30.7543 33.2812 31.5938 34.1207 31.5938 35.1562C31.5938 36.1918 30.7543 37.0312 29.7188 37.0312Z" fill="white"/>
<path d="M29.7188 29.8125H16.7812C15.7457 29.8125 14.9062 28.9731 14.9062 27.9375C14.9062 26.9019 15.7457 26.0625 16.7812 26.0625H29.7188C30.7543 26.0625 31.5938 26.9019 31.5938 27.9375C31.5938 28.9731 30.7543 29.8125 29.7188 29.8125Z" fill="white"/>
</svg>
