<svg width="48" height="48" viewBox="0 0 48 48" fill="none" xmlns="http://www.w3.org/2000/svg">
<path d="M20 38C20 38.7911 19.7654 39.5645 19.3259 40.2223C18.8864 40.8801 18.2616 41.3928 17.5307 41.6955C16.7998 41.9983 15.9956 42.0775 15.2196 41.9231C14.4437 41.7688 13.731 41.3878 13.1716 40.8284C12.6122 40.269 12.2312 39.5563 12.0769 38.7804C11.9225 38.0044 12.0017 37.2002 12.3045 36.4693C12.6072 35.7384 13.1199 35.1136 13.7777 34.6741C14.4355 34.2346 15.2089 34 16 34C17.0609 34 18.0783 34.4214 18.8284 35.1716C19.5786 35.9217 20 36.9391 20 38ZM16 20C15.2089 20 14.4355 20.2346 13.7777 20.6741C13.1199 21.1136 12.6072 21.7384 12.3045 22.4693C12.0017 23.2002 11.9225 24.0044 12.0769 24.7804C12.2312 25.5563 12.6122 26.269 13.1716 26.8284C13.731 27.3878 14.4437 27.7688 15.2196 27.9231C15.9956 28.0775 16.7998 27.9983 17.5307 27.6955C18.2616 27.3928 18.8864 26.8801 19.3259 26.2223C19.7654 25.5645 20 24.7911 20 24C20 22.9391 19.5786 21.9217 18.8284 21.1716C18.0783 20.4214 17.0609 20 16 20ZM16 6C15.2089 6 14.4355 6.2346 13.7777 6.67412C13.1199 7.11365 12.6072 7.73836 12.3045 8.46927C12.0017 9.20017 11.9225 10.0044 12.0769 10.7804C12.2312 11.5563 12.6122 12.269 13.1716 12.8284C13.731 13.3878 14.4437 13.7688 15.2196 13.9231C15.9956 14.0775 16.7998 13.9983 17.5307 13.6955C18.2616 13.3928 18.8864 12.8801 19.3259 12.2223C19.7654 11.5645 20 10.7911 20 10C20 8.93913 19.5786 7.92172 18.8284 7.17157C18.0783 6.42143 17.0609 6 16 6ZM32 34C31.2089 34 30.4355 34.2346 29.7777 34.6741C29.1199 35.1136 28.6072 35.7384 28.3045 36.4693C28.0017 37.2002 27.9225 38.0044 28.0769 38.7804C28.2312 39.5563 28.6122 40.269 29.1716 40.8284C29.731 41.3878 30.4437 41.7688 31.2196 41.9231C31.9956 42.0775 32.7998 41.9983 33.5307 41.6955C34.2616 41.3928 34.8864 40.8801 35.3259 40.2223C35.7654 39.5645 36 38.7911 36 38C36 36.9391 35.5786 35.9217 34.8284 35.1716C34.0783 34.4214 33.0609 34 32 34V34ZM32 20C31.2089 20 30.4355 20.2346 29.7777 20.6741C29.1199 21.1136 28.6072 21.7384 28.3045 22.4693C28.0017 23.2002 27.9225 24.0044 28.0769 24.7804C28.2312 25.5563 28.6122 26.269 29.1716 26.8284C29.731 27.3878 30.4437 27.7688 31.2196 27.9231C31.9956 28.0775 32.7998 27.9983 33.5307 27.6955C34.2616 27.3928 34.8864 26.8801 35.3259 26.2223C35.7654 25.5645 36 24.7911 36 24C36 22.9391 35.5786 21.9217 34.8284 21.1716C34.0783 20.4214 33.0609 20 32 20V20ZM32 6C31.2089 6 30.4355 6.2346 29.7777 6.67412C29.1199 7.11365 28.6072 7.73836 28.3045 8.46927C28.0017 9.20017 27.9225 10.0044 28.0769 10.7804C28.2312 11.5563 28.6122 12.269 29.1716 12.8284C29.731 13.3878 30.4437 13.7688 31.2196 13.9231C31.9956 14.0775 32.7998 13.9983 33.5307 13.6955C34.2616 13.3928 34.8864 12.8801 35.3259 12.2223C35.7654 11.5645 36 10.7911 36 10C36 8.93913 35.5786 7.92172 34.8284 7.17157C34.0783 6.42143 33.0609 6 32 6V6Z" fill="white"/>
</svg>
