<svg width="48" height="48" viewBox="0 0 48 48" fill="none" xmlns="http://www.w3.org/2000/svg">
<g clip-path="url(#clip0_1112_3806)">
<path d="M16.875 42.75H5.625C2.52338 42.75 0 40.2266 0 37.125C0 36.3575 0.152438 35.6124 0.453188 34.9105L11.7032 8.66044C12.5912 6.58866 14.6212 5.25 16.875 5.25C19.9766 5.25 22.5 7.77338 22.5 10.875V37.125C22.5 40.2266 19.9766 42.75 16.875 42.75V42.75ZM16.875 9C16.1233 9 15.4462 9.44653 15.1501 10.1377L3.90009 36.3877C3.80053 36.6201 3.75 36.8681 3.75 37.125C3.75 38.1589 4.59113 39 5.625 39H16.875C17.9089 39 18.75 38.1589 18.75 37.125V10.875C18.75 9.84113 17.9089 9 16.875 9Z" fill="white"/>
<path d="M42.375 42.75H31.125C28.0234 42.75 25.5 40.2266 25.5 37.125V10.875C25.5 7.77338 28.0234 5.25 31.125 5.25C33.3788 5.25 35.4088 6.58866 36.2967 8.66044L47.5467 34.9104C47.8476 35.6124 48 36.3575 48 37.125C48 40.2266 45.4766 42.75 42.375 42.75ZM31.125 9C30.0911 9 29.25 9.84113 29.25 10.875V37.125C29.25 38.1589 30.0911 39 31.125 39H42.375C43.4089 39 44.25 38.1589 44.25 37.125C44.25 36.8681 44.1995 36.6201 44.0999 36.3876L32.8499 10.1377C32.5537 9.44653 31.8767 9 31.125 9V9Z" fill="white"/>
</g>
<defs>
<clipPath id="clip0_1112_3806">
<rect width="48" height="48" fill="white"/>
</clipPath>
</defs>
</svg>
