<svg width="48" height="48" viewBox="0 0 48 48" fill="none" xmlns="http://www.w3.org/2000/svg">
<g clip-path="url(#clip0_1342_3806)">
<path d="M39 44.25H35.25C34.2161 44.25 33.375 43.4089 33.375 42.375V38.625C33.375 37.5894 32.5356 36.75 31.5 36.75C30.4644 36.75 29.625 37.5894 29.625 38.625V42.375C29.625 45.4766 32.1484 48 35.25 48H39C40.0356 48 40.875 47.1606 40.875 46.125C40.875 45.0894 40.0355 44.25 39 44.25Z" fill="white"/>
<path d="M40.7788 11.8671C40.1631 7.29047 36.237 3.75 31.5007 3.75C30.871 3.75 30.2296 3.82228 29.5835 3.96572C27.1125 1.43128 23.7752 0 20.2507 0C13.3801 0 7.71595 5.22244 7.07967 11.8757C2.12602 13.6191 -0.786421 18.7729 0.186516 24.4692C1.11736 29.9182 5.7112 33.75 11.239 33.75H36.7211C42.272 33.75 46.8922 29.8976 47.8196 24.4692C48.3306 21.4772 47.747 18.5049 46.1761 16.0999C44.874 14.1061 42.9908 12.6383 40.7788 11.8671ZM44.123 23.8378C43.5033 27.466 40.4595 30 36.7211 30H11.239C7.5277 30 4.50277 27.466 3.88298 23.8378C3.1672 19.6475 5.48883 15.9126 9.28336 15.1503C10.1715 14.9719 10.8049 14.1841 10.7887 13.2785C10.7869 13.1805 10.779 13.0953 10.7708 13.0294C10.8227 7.90378 15.0554 3.75 20.2507 3.75C23.0558 3.75 25.7016 5.03381 27.5098 7.27237C28.0119 7.89403 28.8527 8.12916 29.6046 7.85794C30.2723 7.61709 30.8925 7.5 31.5007 7.5C34.5646 7.5 37.063 9.9735 37.112 13.0329C37.1047 13.0928 37.097 13.1724 37.0946 13.2634C37.071 14.1745 37.706 14.9707 38.5996 15.1502C42.4619 15.9262 44.8365 19.6611 44.123 23.8378Z" fill="white"/>
<path d="M16.5 36.75C15.4644 36.75 14.625 37.5894 14.625 38.625V42.375C14.625 43.4089 13.7839 44.25 12.75 44.25H9C7.96444 44.25 7.125 45.0894 7.125 46.125C7.125 47.1606 7.96444 48 9 48H12.75C15.8516 48 18.375 45.4766 18.375 42.375V38.625C18.375 37.5894 17.5355 36.75 16.5 36.75Z" fill="white"/>
<path d="M24 36.75C22.9644 36.75 22.125 37.5894 22.125 38.625V46.125C22.125 47.1606 22.9644 48 24 48C25.0356 48 25.875 47.1606 25.875 46.125V38.625C25.875 37.5894 25.0355 36.75 24 36.75Z" fill="white"/>
</g>
<defs>
<clipPath id="clip0_1342_3806">
<rect width="48" height="48" fill="white"/>
</clipPath>
</defs>
</svg>
