<svg width="48" height="48" viewBox="0 0 48 48" fill="none" xmlns="http://www.w3.org/2000/svg">
<path d="M24.0005 2C19.6493 2 15.3958 3.29028 11.778 5.70767C8.16007 8.12506 5.34028 11.561 3.67515 15.581C2.01002 19.6009 1.57435 24.0244 2.42322 28.292C3.2721 32.5596 5.36739 36.4796 8.44415 39.5564C11.5209 42.6331 15.4409 44.7284 19.7085 45.5773C23.9761 46.4261 28.3996 45.9905 32.4195 44.3253C36.4395 42.6602 39.8754 39.8404 42.2928 36.2225C44.7102 32.6047 46.0005 28.3512 46.0005 24C46.0005 18.1652 43.6826 12.5695 39.5568 8.44365C35.431 4.31785 29.8353 2 24.0005 2V2ZM24.0005 42C20.4404 42 16.9603 40.9443 14.0002 38.9665C11.0401 36.9886 8.73304 34.1774 7.37067 30.8883C6.00829 27.5992 5.65183 23.98 6.34636 20.4884C7.0409 16.9967 8.75523 13.7894 11.2726 11.2721C13.7899 8.75473 16.9972 7.0404 20.4889 6.34586C23.9805 5.65133 27.5997 6.00779 30.8888 7.37017C34.1779 8.73255 36.9891 11.0397 38.967 13.9997C40.9448 16.9598 42.0005 20.4399 42.0005 24C42.0005 28.7739 40.1041 33.3523 36.7284 36.7279C33.3528 40.1036 28.7744 42 24.0005 42V42Z" fill="white"/>
<path d="M31.4213 16.5801C31.2354 16.3927 31.0142 16.2439 30.7705 16.1423C30.5268 16.0408 30.2654 15.9885 30.0013 15.9885C29.7373 15.9885 29.4759 16.0408 29.2322 16.1423C28.9885 16.2439 28.7673 16.3927 28.5813 16.5801L24.0013 21.1801L19.4213 16.5801C19.0447 16.2035 18.5339 15.9919 18.0013 15.9919C17.4687 15.9919 16.958 16.2035 16.5813 16.5801C16.2047 16.9567 15.9932 17.4675 15.9932 18.0001C15.9932 18.5327 16.2047 19.0435 16.5813 19.4201L21.1813 24.0001L16.5813 28.5801C16.3939 28.766 16.2451 28.9872 16.1436 29.231C16.042 29.4747 15.9897 29.7361 15.9897 30.0001C15.9897 30.2641 16.042 30.5256 16.1436 30.7693C16.2451 31.013 16.3939 31.2342 16.5813 31.4201C16.7673 31.6076 16.9885 31.7564 17.2322 31.8579C17.4759 31.9594 17.7373 32.0117 18.0013 32.0117C18.2654 32.0117 18.5268 31.9594 18.7705 31.8579C19.0142 31.7564 19.2354 31.6076 19.4213 31.4201L24.0013 26.8201L28.5813 31.4201C28.7673 31.6076 28.9885 31.7564 29.2322 31.8579C29.4759 31.9594 29.7373 32.0117 30.0013 32.0117C30.2654 32.0117 30.5268 31.9594 30.7705 31.8579C31.0142 31.7564 31.2354 31.6076 31.4213 31.4201C31.6088 31.2342 31.7576 31.013 31.8591 30.7693C31.9607 30.5256 32.0129 30.2641 32.0129 30.0001C32.0129 29.7361 31.9607 29.4747 31.8591 29.231C31.7576 28.9872 31.6088 28.766 31.4213 28.5801L26.8213 24.0001L31.4213 19.4201C31.6088 19.2342 31.7576 19.013 31.8591 18.7693C31.9607 18.5256 32.0129 18.2641 32.0129 18.0001C32.0129 17.7361 31.9607 17.4747 31.8591 17.231C31.7576 16.9872 31.6088 16.766 31.4213 16.5801V16.5801Z" fill="white"/>
</svg>
