<svg width="48" height="48" viewBox="0 0 48 48" fill="none" xmlns="http://www.w3.org/2000/svg">
<path d="M38.8425 44.7379L44.6719 38.9567C46.787 36.8591 48 33.9476 48 30.9689V11.25C48 5.04675 42.9533 0 36.75 0H17.0793C14.092 0 11.2786 1.15847 9.15745 3.26215L3.32805 9.04327C1.21305 11.1408 0 14.0523 0 17.0311V36.75C0 42.9533 5.04675 48 11.25 48H30.9207C33.9082 48 36.7214 46.8415 38.8425 44.7379ZM36.75 3.74999C40.8855 3.74999 44.25 7.11446 44.25 11.25V30.9689C44.25 32.9548 43.4413 34.8958 42.0313 36.2943L36.202 42.0753C34.7879 43.4777 32.9123 44.25 30.9207 44.25H11.25C7.11446 44.25 3.74999 40.8855 3.74999 36.75V17.0311C3.74999 15.0452 4.55872 13.1042 5.96867 11.7057L11.798 5.9247C13.2121 4.52231 15.0877 3.74999 17.0793 3.74999H36.75Z" fill="white"/>
<path fill-rule="evenodd" clip-rule="evenodd" d="M23.0935 33.9493C23.3067 34.0374 23.5258 34.0799 23.7407 34.0799C24.2565 34.0799 24.7472 33.8345 25.0697 33.3848C25.0798 33.3707 25.0894 33.3563 25.0986 33.3416L30.5331 24.5971C31.074 23.8262 31.1443 22.876 30.7201 22.0499C30.2893 21.2107 29.4226 20.6894 28.4585 20.6894H25.4115L26.2178 15.8393C26.3425 15.0676 25.9402 14.3486 25.2167 14.0502C24.4917 13.7512 23.6978 13.9781 23.2412 14.615C23.2315 14.6284 23.2223 14.6421 23.2135 14.6562L17.7379 23.4075C17.202 24.1716 17.1313 25.1544 17.5547 25.9791C17.9876 26.8223 18.8525 27.3461 19.8119 27.3461H22.8856L22.0933 32.1591C21.9679 32.9311 22.3698 33.6505 23.0935 33.9493Z" fill="white"/>
</svg>
