<svg width="48" height="48" viewBox="0 0 48 48" fill="none" xmlns="http://www.w3.org/2000/svg">
<path d="M29.25 25.7865C29.25 24.6553 29.7949 23.5788 30.7078 22.9067C32.143 21.8498 33 20.1558 33 18.375C33 15.2734 30.4766 12.75 27.375 12.75C24.2734 12.75 21.75 15.2734 21.75 18.375C21.75 19.4106 22.5894 20.25 23.625 20.25C24.6606 20.25 25.5 19.4106 25.5 18.375C25.5 17.3411 26.3411 16.5 27.375 16.5C28.4089 16.5 29.25 17.3411 29.25 18.375C29.25 18.9776 28.9709 19.5287 28.4844 19.8868C26.6156 21.2627 25.5 23.4682 25.5 25.7865V25.875C25.5 26.9106 26.3394 27.75 27.375 27.75C28.4106 27.75 29.25 26.9106 29.25 25.875V25.7865Z" fill="white"/>
<path d="M27.375 35.25C28.4105 35.25 29.25 34.4105 29.25 33.375C29.25 32.3395 28.4105 31.5 27.375 31.5C26.3395 31.5 25.5 32.3395 25.5 33.375C25.5 34.4105 26.3395 35.25 27.375 35.25Z" fill="white"/>
<path d="M27.375 3.375C16.0292 3.375 6.75 12.6542 6.75 24V35.25C6.75 37.9592 5.2245 40.875 1.875 40.875C0.839438 40.875 0 41.7144 0 42.75C0 43.7856 0.839438 44.625 1.875 44.625H27.375C38.7328 44.625 48 35.3578 48 24C48 12.6542 38.7208 3.375 27.375 3.375ZM27.375 40.875H8.89303C9.93544 39.2917 10.5 37.334 10.5 35.25V24C10.5 14.7268 18.1018 7.125 27.375 7.125C36.6481 7.125 44.25 14.7269 44.25 24C44.25 33.3049 36.6799 40.875 27.375 40.875Z" fill="white"/>
</svg>
