<svg width="48" height="48" viewBox="0 0 48 48" fill="none" xmlns="http://www.w3.org/2000/svg">
<g clip-path="url(#clip0_1077_3874)">
<path fill-rule="evenodd" clip-rule="evenodd" d="M25.326 4.29916C24.5937 3.56694 23.4065 3.56695 22.6743 4.29918L17.8259 9.14755C17.0937 9.87979 15.9065 9.87978 15.1742 9.14755C14.442 8.41532 14.442 7.22813 15.1742 6.4959L20.0226 1.64753C22.2193 -0.549176 25.7809 -0.549176 27.9776 1.64753L32.8259 6.49591C33.5581 7.22815 33.5581 8.41534 32.8259 9.14757C32.0936 9.87979 30.9065 9.87978 30.1742 9.14754L25.326 4.29916C25.3259 4.29916 25.326 4.29917 25.326 4.29916ZM24.0001 14.6251C18.8224 14.6251 14.6251 18.8224 14.6251 24.0001C14.6251 29.1777 18.8224 33.3751 24.0001 33.3751C29.1777 33.3751 33.3751 29.1777 33.3751 24.0001C33.3751 18.8224 29.1777 14.6251 24.0001 14.6251ZM10.8751 24.0001C10.8751 16.7513 16.7513 10.8751 24.0001 10.8751C31.2488 10.8751 37.1251 16.7513 37.1251 24.0001C37.1251 31.2488 31.2488 37.1251 24.0001 37.1251C16.7513 37.1251 10.8751 31.2488 10.8751 24.0001ZM9.14757 15.1743C9.87979 15.9065 9.87978 17.0937 9.14754 17.8259L4.29918 22.6742C4.29917 22.6742 4.29918 22.6742 4.29918 22.6742C3.56695 23.4064 3.56695 24.5936 4.29918 25.3259L9.14755 30.1742C9.87979 30.9065 9.87978 32.0937 9.14755 32.8259C8.41532 33.5581 7.22813 33.5581 6.4959 32.8259L1.64753 27.9775C-0.549176 25.7808 -0.549176 22.2192 1.64753 20.0225L6.49591 15.1742C7.22815 14.442 8.41534 14.442 9.14757 15.1743ZM38.8526 15.1743C39.5848 14.442 40.772 14.442 41.5042 15.1742L46.3526 20.0225C48.5493 22.2192 48.5493 25.7808 46.3526 27.9775L41.5042 32.8259C40.772 33.5581 39.5848 33.5581 38.8526 32.8259C38.1204 32.0937 38.1204 30.9065 38.8526 30.1742L43.701 25.3259C44.4332 24.5936 44.4332 23.4064 43.701 22.6742L38.8526 17.8259C38.1204 17.0937 38.1203 15.9065 38.8526 15.1743ZM15.1742 38.8526C15.9065 38.1204 17.0937 38.1204 17.8259 38.8526L22.6743 43.701C23.4065 44.4332 24.5937 44.4332 25.326 43.701L30.1742 38.8526C30.9065 38.1204 32.0936 38.1203 32.8259 38.8526C33.5581 39.5848 33.5581 40.772 32.8259 41.5042L27.9776 46.3526C25.7809 48.5493 22.2193 48.5493 20.0226 46.3526L15.1742 41.5042C14.442 40.772 14.442 39.5848 15.1742 38.8526Z" fill="white"/>
</g>
<defs>
<clipPath id="clip0_1077_3874">
<rect width="48" height="48" fill="white"/>
</clipPath>
</defs>
</svg>
