<svg width="48" height="48" viewBox="0 0 48 48" fill="none" xmlns="http://www.w3.org/2000/svg">
<path fill-rule="evenodd" clip-rule="evenodd" d="M5.86643 16.8217H25.359C26.2062 20.2914 29.3354 22.8666 33.0661 22.8666C36.7968 22.8666 39.9261 20.2914 40.7733 16.8217H42.1328C43.176 16.8217 44.0217 15.976 44.0217 14.9328C44.0217 13.8896 43.176 13.0439 42.1328 13.0439H40.773C39.9255 9.57466 36.7965 7 33.0661 7C29.3358 7 26.2068 9.57466 25.3592 13.0439H5.86643C4.82323 13.0439 3.97754 13.8896 3.97754 14.9328C3.97754 15.976 4.82323 16.8217 5.86643 16.8217ZM33.0661 10.7778C30.7711 10.7778 28.9106 12.6383 28.9106 14.9333C28.9106 17.2283 30.7711 19.0888 33.0661 19.0888C35.3611 19.0888 37.2216 17.2283 37.2216 14.9333C37.2216 12.6383 35.3611 10.7778 33.0661 10.7778Z" fill="white"/>
<path fill-rule="evenodd" clip-rule="evenodd" d="M22.6401 34.9553L42.1328 34.9553C43.176 34.9553 44.0217 34.1096 44.0217 33.0664C44.0217 32.0232 43.176 31.1775 42.1328 31.1775L22.6401 31.1775C21.7927 27.7079 18.6636 25.1329 14.933 25.1329C11.2025 25.1329 8.07331 27.7079 7.22595 31.1775H5.86643C4.82323 31.1775 3.97754 32.0232 3.97754 33.0664C3.97754 34.1096 4.82323 34.9553 5.86643 34.9553H7.22599C8.07339 38.4248 11.2025 40.9997 14.933 40.9997C18.6636 40.9997 21.7927 38.4248 22.6401 34.9553ZM19.0788 32.7796C18.9315 30.6184 17.1317 28.9109 14.933 28.9109C12.638 28.9109 10.7775 30.7714 10.7775 33.0664C10.7775 33.3174 10.7998 33.5631 10.8424 33.8018C11.1897 35.746 12.889 37.2217 14.933 37.2217C17.228 37.2217 19.0885 35.3613 19.0885 33.0662C19.0885 32.9699 19.0852 32.8743 19.0788 32.7796Z" fill="white"/>
</svg>
