<svg width="48" height="48" viewBox="0 0 48 48" fill="none" xmlns="http://www.w3.org/2000/svg">
<path d="M38.625 44.625H9.375C4.20553 44.625 0 40.4194 0 35.25V12.75C0 7.58063 4.20553 3.375 9.375 3.375H16.875C21.4023 3.375 25.1904 6.60112 26.0617 10.875H38.625C43.7945 10.875 48 15.0806 48 20.25V35.25C48 40.4194 43.7945 44.625 38.625 44.625ZM9.375 7.125C6.27338 7.125 3.75 9.64838 3.75 12.75V35.25C3.75 38.3516 6.27338 40.875 9.375 40.875H38.625C41.7266 40.875 44.25 38.3516 44.25 35.25V20.25C44.25 17.1484 41.7266 14.625 38.625 14.625H24.375C23.3394 14.625 22.5 13.7856 22.5 12.75C22.5 9.64838 19.9766 7.125 16.875 7.125H9.375Z" fill="white"/>
<path d="M16.875 14.625H9.375C8.33944 14.625 7.5 13.7856 7.5 12.75C7.5 11.7144 8.33944 10.875 9.375 10.875H16.875C17.9106 10.875 18.75 11.7144 18.75 12.75C18.75 13.7856 17.9106 14.625 16.875 14.625Z" fill="white"/>
</svg>
