<svg width="48" height="48" viewBox="0 0 48 48" fill="none" xmlns="http://www.w3.org/2000/svg">
<g clip-path="url(#clip0_2239_5177)">
<path d="M45.8182 13.0916H39.1896L41.3781 4.92933C41.6901 3.76637 41.0006 2.56866 39.8356 2.25665C38.6707 1.94464 37.4726 2.63618 37.163 3.79913L34.6737 13.0916H19.1781L21.3666 4.92933C21.6786 3.76637 20.9891 2.56866 19.8241 2.25665C18.6588 1.94704 17.4635 2.63618 17.1535 3.79913L14.6618 13.0916H6.54545C5.34095 13.0916 4.36377 14.0668 4.36377 15.2733C4.36377 16.4802 5.34095 17.4553 6.54545 17.4553H13.49L9.97958 30.5462H2.18169C0.977584 30.5462 0 31.5214 0 32.7279C0 33.9344 0.977584 34.9096 2.18169 34.9096H8.81024L6.62176 43.0719C6.30975 44.2348 6.99929 45.4325 8.16424 45.7445C8.35201 45.7949 8.54177 45.8188 8.72714 45.8188C9.68954 45.8188 10.5732 45.1772 10.8329 44.2021L13.3266 34.9096H28.8217L26.6333 43.0719C26.3216 44.2348 27.0108 45.4325 28.1761 45.7445C28.3635 45.7949 28.5533 45.8188 28.741 45.8188C29.7034 45.8188 30.5867 45.1772 30.8464 44.2021L33.3381 34.9096H41.4544C42.6589 34.9096 43.6365 33.9344 43.6365 32.7279C43.6365 31.5214 42.6589 30.5462 41.4544 30.5462H34.5099L38.0203 17.4553H45.8182C47.0227 17.4553 47.9999 16.4802 47.9999 15.2733C47.9999 14.0668 47.0227 13.0916 45.8182 13.0916ZM29.9911 30.5462H14.496L18.0064 17.4553H33.5019L29.9911 30.5462Z" fill="white"/>
</g>
<defs>
<clipPath id="clip0_2239_5177">
<rect width="48" height="48" fill="white"/>
</clipPath>
</defs>
</svg>
