<svg width="48" height="48" viewBox="0 0 48 48" fill="none" xmlns="http://www.w3.org/2000/svg">
<g clip-path="url(#clip0_959_4019)">
<path d="M25.1737 23.1483L29.9279 27.9024C30.6601 28.6347 30.6601 29.8218 29.9279 30.5541C29.1956 31.2863 28.0085 31.2863 27.2762 30.5541L21.9729 25.2508C21.6213 24.8991 21.4237 24.4222 21.4238 23.9249L21.4238 18.6216C21.4238 18.1039 21.6336 17.6352 21.9729 17.2958C22.3123 16.9565 22.781 16.7467 23.2987 16.7467C24.3343 16.7467 25.1738 17.5861 25.1737 18.6216L25.1737 23.1483Z" fill="white"/>
<path d="M48 24C48 37.4579 37.4579 48 24 48C10.5421 48 1.25713e-07 37.4579 2.86197e-07 24C3.21515e-07 21.0383 0.525751 18.1433 1.56272 15.3955C1.92834 14.4267 3.01012 13.9377 3.97894 14.3033C4.94775 14.669 5.43694 15.7508 5.07113 16.7196C4.19456 19.0427 3.75 21.4922 3.75 24C3.75 35.3552 12.6448 44.25 24 44.25C35.3552 44.25 44.25 35.3552 44.25 24C44.25 12.6448 35.3552 3.75 24 3.75C18.7708 3.75 13.7948 5.72175 10.0031 9.22837L13.3291 9.22838C14.3647 9.22838 15.2041 10.0678 15.2041 11.1034C15.2041 12.1389 14.3647 12.9784 13.3291 12.9784L9.57909 12.9784C6.468 12.9784 3.95409 10.4395 3.95409 7.35337L3.95409 3.60337C3.95409 2.56781 4.79353 1.72837 5.82909 1.72837C6.86466 1.72837 7.70409 2.56781 7.70409 3.60337L7.70409 6.24712C12.1527 2.24419 17.9326 -3.5855e-07 24 -2.86197e-07C37.4579 -1.25713e-07 48 10.5421 48 24Z" fill="white"/>
</g>
<defs>
<clipPath id="clip0_959_4019">
<rect width="48" height="48" fill="white"/>
</clipPath>
</defs>
</svg>
