<svg width="48" height="48" viewBox="0 0 48 48" fill="none" xmlns="http://www.w3.org/2000/svg">
<g clip-path="url(#clip0_2239_5176)">
<path d="M40.9649 7.02953C36.432 2.49644 30.4051 0 23.9945 0C17.5839 0 11.5569 2.49644 7.024 7.02953C-2.33352 16.3872 -2.33352 31.6129 7.024 40.9706C11.5569 45.5036 17.5839 48 23.9946 48C30.4052 48 36.432 45.5036 40.9649 40.9705C45.498 36.4375 47.9945 30.4106 47.9945 24C47.9945 17.5894 45.498 11.5625 40.9649 7.02953ZM37.8794 37.8851C34.1706 41.5937 29.2396 43.6364 23.9946 43.6364C18.7495 43.6364 13.8185 41.5937 10.1095 37.8851C2.45339 30.2288 2.45339 17.7713 10.1095 10.1151C13.8183 6.40611 18.7494 4.36364 23.9945 4.36364C29.2396 4.36364 34.1706 6.40611 37.8794 10.1149C41.5882 13.8239 43.6308 18.7549 43.6308 24C43.6308 29.2451 41.5882 34.1761 37.8794 37.8851Z" fill="white"/>
<path d="M37.0852 21.8182H10.9035C9.69855 21.8182 8.72168 22.795 8.72168 24C8.72168 25.2049 9.69855 26.1818 10.9035 26.1818H37.0852C38.2901 26.1818 39.267 25.2049 39.267 24C39.267 22.795 38.2901 21.8182 37.0852 21.8182Z" fill="white"/>
</g>
<defs>
<clipPath id="clip0_2239_5176">
<rect width="48" height="48" fill="white"/>
</clipPath>
</defs>
</svg>
