<svg width="48" height="48" viewBox="0 0 48 48" fill="none" xmlns="http://www.w3.org/2000/svg">
<g clip-path="url(#clip0_1009_3993)">
<path fill-rule="evenodd" clip-rule="evenodd" d="M24 48C37.2548 48 48 37.2548 48 24C48 10.7452 37.2548 0 24 0C10.7452 0 0 10.7452 0 24C0 37.2548 10.7452 48 24 48ZM17.4375 35.8125C17.4375 36.8481 18.2769 37.6875 19.3125 37.6875H28.6875C29.7231 37.6875 30.5625 36.8481 30.5625 35.8125C30.5625 34.7769 29.7231 33.9375 28.6875 33.9375H25.875V23.3438C25.875 20.2421 23.3516 17.7188 20.25 17.7188H19.3125C18.2769 17.7188 17.4375 18.5582 17.4375 19.5938C17.4375 20.6293 18.2769 21.4688 19.3125 21.4688H20.25C21.2839 21.4688 22.125 22.3099 22.125 23.3438V33.9375H19.3125C18.2769 33.9375 17.4375 34.7769 17.4375 35.8125ZM22.125 12.6563C22.125 11.6207 22.9644 10.7812 24 10.7812C25.0356 10.7812 25.875 11.6207 25.875 12.6563C25.875 13.6918 25.0356 14.5313 24 14.5313C22.9644 14.5313 22.125 13.6918 22.125 12.6563Z" fill="white"/>
</g>
<defs>
<clipPath id="clip0_1009_3993">
<rect width="48" height="48" fill="white"/>
</clipPath>
</defs>
</svg>
