<svg width="48" height="48" viewBox="0 0 48 48" fill="none" xmlns="http://www.w3.org/2000/svg">
<g clip-path="url(#clip0_899_3885)">
<path d="M46.6212 22.6204L25.998 1.99726L23.9992 0L1.37881 22.6204C0.639355 23.3619 0.639355 24.5623 1.37881 25.3022L15.562 39.4849L23.9992 47.9242L46.6212 25.3022C47.3611 24.5623 47.3611 23.3619 46.6212 22.6204ZM23.9992 31.0456L16.9155 23.9624L23.9992 16.8765L31.0845 23.9624L23.9992 31.0456Z" fill="#2684FF"/>
<path d="M23.9991 16.8764C19.3614 12.2367 19.3377 4.72226 23.9497 0.0552979L8.44482 15.5542L16.8841 23.9935L23.9991 16.8764Z" fill="url(#paint0_linear_899_3885)"/>
<path d="M31.104 23.9423L23.999 31.0457C26.2381 33.2827 27.4974 36.3191 27.4974 39.485C27.4974 42.6508 26.2381 45.6852 23.999 47.9242L39.5412 32.3815L31.104 23.9423Z" fill="url(#paint1_linear_899_3885)"/>
</g>
<defs>
<linearGradient id="paint0_linear_899_3885" x1="20.9541" y1="11.4906" x2="12.8411" y2="19.6016" gradientUnits="userSpaceOnUse">
<stop stop-color="#0052CC"/>
<stop offset="1" stop-color="#2684FF"/>
</linearGradient>
<linearGradient id="paint1_linear_899_3885" x1="27.1316" y1="36.3546" x2="35.2284" y2="28.2578" gradientUnits="userSpaceOnUse">
<stop stop-color="#0052CC"/>
<stop offset="1" stop-color="#2684FF"/>
</linearGradient>
<clipPath id="clip0_899_3885">
<rect width="48" height="48" fill="white"/>
</clipPath>
</defs>
</svg>
