<svg width="48" height="48" viewBox="0 0 48 48" fill="none" xmlns="http://www.w3.org/2000/svg">
<g clip-path="url(#clip0_1882_4407)">
<path d="M44.1645 7.83137L40.1784 3.84527C35.0515 -1.28173 26.7092 -1.28182 21.5821 3.84527L20.2866 5.14078C16.373 9.02468 15.1982 14.8779 17.5154 19.8147L3.93385 33.4518C1.45591 35.9297 0.0256632 39.3663 0.00981749 42.8803C0.00372296 44.2464 0.534978 45.5334 1.50579 46.5041C2.47097 47.4694 3.71557 48 5.07305 48C7.2307 47.9902 9.43626 47.453 11.3443 46.446C13.0378 45.5523 14.4162 44.0338 15.2257 42.1704C15.3037 41.9909 15.4203 41.823 15.5725 41.6714C15.8452 41.3996 16.247 41.2496 16.704 41.249C18.1237 41.2474 19.5219 40.6538 20.5402 39.6207C21.5539 38.5922 22.1361 37.2132 22.1378 35.8371C22.1385 35.3038 22.2663 34.8451 22.4713 34.64C22.6739 34.4374 23.1314 34.3113 23.6655 34.3107C25.0803 34.309 26.4868 33.6989 27.5242 32.6366C27.978 32.172 28.3887 31.559 28.7531 30.8043C30.3099 31.43 31.9383 31.7694 33.4887 31.779C33.5123 31.7791 33.5354 31.7792 33.559 31.7792C36.8989 31.779 40.2888 30.3033 42.869 27.7231L44.1645 26.4276C49.2658 21.5332 49.2657 12.7259 44.1645 7.83137ZM41.5125 23.7759L40.2171 25.0713C38.3213 26.9653 35.8856 28.042 33.5121 28.0287C31.964 28.0191 30.2046 27.4989 28.6853 26.6016C28.188 26.3079 27.5831 26.2597 27.0454 26.471C26.5079 26.6824 26.0978 27.1296 25.9337 27.6835C25.4545 29.3006 24.9763 29.8779 24.8411 30.0163C24.5187 30.3463 24.0556 30.5598 23.661 30.5603C22.1024 30.5622 20.738 31.0692 19.8193 31.9881C18.8977 32.9096 18.3891 34.2749 18.3872 35.8326C18.3982 36.6533 17.5446 37.5223 16.6995 37.4987C15.2447 37.5004 13.9042 38.039 12.925 39.0151C12.4365 39.502 12.0532 40.0608 11.7858 40.6762C11.3148 41.7606 10.5363 42.6318 9.59397 43.1292C8.2182 43.8553 6.66869 44.2427 5.1129 44.2497C4.75708 44.248 4.41569 44.1102 4.15784 43.8523C3.9 43.5944 3.75879 43.2552 3.76039 42.8972C3.77183 40.3642 4.80161 37.8882 6.58862 36.1012L21.1399 21.4902C21.7427 20.885 21.8603 19.9489 21.4259 19.2133C19.1687 15.4995 19.8263 10.8768 22.9385 7.79274L24.234 6.49723C27.8987 2.83236 33.8617 2.83273 37.5265 6.49723L41.5126 10.4833C45.159 13.9821 45.1588 20.2772 41.5125 23.7759ZM37.046 18.3712C36.566 18.3712 36.0861 18.1881 35.72 17.822L30.0943 12.1963C28.402 10.3736 30.9256 7.85275 32.7462 9.54431L38.3719 15.17C39.5561 16.3361 38.6857 18.3891 37.046 18.3712Z" fill="white"/>
</g>
<defs>
<clipPath id="clip0_1882_4407">
<rect width="48" height="48" fill="white"/>
</clipPath>
</defs>
</svg>
