<svg width="48" height="48" viewBox="0 0 48 48" fill="none" xmlns="http://www.w3.org/2000/svg">
<path d="M42.375 42.75H5.625C2.52338 42.75 0 40.2266 0 37.125V22.125C0 19.0234 2.52338 16.5 5.625 16.5H16.5C17.5356 16.5 18.375 17.3394 18.375 18.375C18.375 19.4106 17.5356 20.25 16.5 20.25H5.625C4.59113 20.25 3.75 21.0911 3.75 22.125V37.125C3.75 38.1589 4.59113 39 5.625 39H42.375C43.4089 39 44.25 38.1589 44.25 37.125V22.125C44.25 21.0911 43.4089 20.25 42.375 20.25H31.5C30.4644 20.25 29.625 19.4106 29.625 18.375C29.625 17.3394 30.4644 16.5 31.5 16.5H42.375C45.4766 16.5 48 19.0234 48 22.125V37.125C48 40.2266 45.4766 42.75 42.375 42.75Z" fill="white"/>
<path d="M9 27.75C10.0355 27.75 10.875 26.9105 10.875 25.875C10.875 24.8395 10.0355 24 9 24C7.96447 24 7.125 24.8395 7.125 25.875C7.125 26.9105 7.96447 27.75 9 27.75Z" fill="white"/>
<path d="M16.5 27.75C17.5355 27.75 18.375 26.9105 18.375 25.875C18.375 24.8395 17.5355 24 16.5 24C15.4645 24 14.625 24.8395 14.625 25.875C14.625 26.9105 15.4645 27.75 16.5 27.75Z" fill="white"/>
<path d="M24 27.75C25.0355 27.75 25.875 26.9105 25.875 25.875C25.875 24.8395 25.0355 24 24 24C22.9645 24 22.125 24.8395 22.125 25.875C22.125 26.9105 22.9645 27.75 24 27.75Z" fill="white"/>
<path d="M31.5 27.75C32.5355 27.75 33.375 26.9105 33.375 25.875C33.375 24.8395 32.5355 24 31.5 24C30.4645 24 29.625 24.8395 29.625 25.875C29.625 26.9105 30.4645 27.75 31.5 27.75Z" fill="white"/>
<path d="M39 27.75C40.0355 27.75 40.875 26.9105 40.875 25.875C40.875 24.8395 40.0355 24 39 24C37.9645 24 37.125 24.8395 37.125 25.875C37.125 26.9105 37.9645 27.75 39 27.75Z" fill="white"/>
<path d="M39 35.25C40.0355 35.25 40.875 34.4105 40.875 33.375C40.875 32.3395 40.0355 31.5 39 31.5C37.9645 31.5 37.125 32.3395 37.125 33.375C37.125 34.4105 37.9645 35.25 39 35.25Z" fill="white"/>
<path d="M9 35.25C10.0355 35.25 10.875 34.4105 10.875 33.375C10.875 32.3395 10.0355 31.5 9 31.5C7.96447 31.5 7.125 32.3395 7.125 33.375C7.125 34.4105 7.96447 35.25 9 35.25Z" fill="white"/>
<path d="M31.5 35.25H16.5C15.4644 35.25 14.625 34.4106 14.625 33.375C14.625 32.3394 15.4644 31.5 16.5 31.5H31.5C32.5356 31.5 33.375 32.3394 33.375 33.375C33.375 34.4106 32.5356 35.25 31.5 35.25Z" fill="white"/>
<path d="M24 20.25C22.9644 20.25 22.125 19.4106 22.125 18.375V14.625C22.125 13.5911 21.2839 12.75 20.25 12.75H9C5.89838 12.75 3.375 10.2266 3.375 7.125C3.375 6.08944 4.21444 5.25 5.25 5.25C6.28556 5.25 7.125 6.08944 7.125 7.125C7.125 8.15887 7.96613 9 9 9H20.25C23.3516 9 25.875 11.5234 25.875 14.625V18.375C25.875 19.4106 25.0356 20.25 24 20.25Z" fill="white"/>
</svg>
