<svg width="48" height="48" viewBox="0 0 48 48" fill="none" xmlns="http://www.w3.org/2000/svg">
<g clip-path="url(#clip0_1806_4172)">
<path d="M30.6246 20.3483L26.4226 24.5503C25.6882 24.1982 24.8661 24.0005 23.9988 24.0005C20.897 24.0005 18.3735 26.524 18.3735 29.6258C18.3735 32.7276 20.897 35.2511 23.9988 35.2511C27.1006 35.2511 29.6241 32.7276 29.6241 29.6258C29.6241 28.7585 29.4265 27.9365 29.0743 27.2021L33.2763 23.0001C34.0086 22.2678 34.0086 21.0806 33.2763 20.3483C32.5441 19.616 31.3569 19.616 30.6246 20.3483ZM23.9988 31.5009C22.9649 31.5009 22.1237 30.6598 22.1237 29.6258C22.1237 28.5919 22.9649 27.7507 23.9988 27.7507C25.0327 27.7507 25.8739 28.5919 25.8739 29.6258C25.8739 30.6598 25.0327 31.5009 23.9988 31.5009Z" fill="white"/>
<path d="M31.3133 6.38459C28.0161 5.32854 24.5509 5.00649 21.0142 5.42773C10.3108 6.70223 2.04264 15.1402 0.337894 25.497C-0.437926 30.21 0.128165 34.9685 1.97504 39.2578C2.88877 41.3802 4.93947 42.7515 7.19943 42.7515H40.8216C43.0299 42.7515 45.0117 41.5159 45.8706 39.6037C47.2836 36.4577 48.0001 33.1006 48.0001 29.6258C48 18.9863 41.288 9.57947 31.3133 6.38459ZM40.8215 39.0013H7.19934C6.43889 39.0013 5.74023 38.5199 5.4195 37.7748C4.56136 35.7818 4.03127 33.6663 3.83607 31.5009H5.62285C6.65847 31.5009 7.49795 30.6615 7.49795 29.6258C7.49795 28.5902 6.65847 27.7507 5.62285 27.7507H3.83213C3.87986 27.2027 3.94802 26.6541 4.03821 26.1061C4.62783 22.5239 6.13269 19.2581 8.28942 16.5624L9.4157 17.6887C10.1479 18.421 11.3352 18.4209 12.0675 17.6887C12.7998 16.9565 12.7998 15.7692 12.0675 15.0369L10.8891 13.8586C13.8258 11.3179 17.475 9.62588 21.4576 9.15167C21.682 9.12495 21.906 9.10217 22.1295 9.08257V10.8692C22.1295 11.9048 22.969 12.7443 24.0046 12.7443C25.0402 12.7443 25.8797 11.9048 25.8797 10.8692V9.08417C30.0367 9.46125 33.9175 11.0952 37.1188 13.8598L35.9418 15.0369C35.2095 15.7693 35.2095 16.9565 35.9418 17.6887C36.6741 18.421 37.8614 18.421 38.5936 17.6887L39.7184 16.5639C42.2467 19.7347 43.8019 23.6277 44.1656 27.7507H42.3865C41.3509 27.7507 40.5114 28.5902 40.5114 29.6258C40.5114 30.6615 41.3509 31.5009 42.3865 31.5009H44.165C43.9617 33.7754 43.3883 35.9772 42.4496 38.0671C42.1986 38.6259 41.5443 39.0013 40.8215 39.0013Z" fill="white"/>
</g>
<defs>
<clipPath id="clip0_1806_4172">
<rect width="48" height="48" fill="white"/>
</clipPath>
</defs>
</svg>
