<svg width="48" height="48" viewBox="0 0 48 48" fill="none" xmlns="http://www.w3.org/2000/svg">
<g clip-path="url(#clip0_1767_3990)">
<path d="M6.46382 2.07335L2.71389 0.198381C1.78765 -0.264643 0.66136 0.110726 0.198336 1.03687C-0.264687 1.96301 0.110588 3.0893 1.03682 3.55242L4.78676 5.42738C5.7129 5.8905 6.83928 5.51504 7.30231 4.5889C7.76542 3.66266 7.39005 2.53646 6.46382 2.07335Z" fill="white"/>
<path d="M47.8019 1.03703C47.3388 0.110889 46.2128 -0.264573 45.2863 0.198544L41.5364 2.07351C40.6101 2.53663 40.2348 3.66283 40.6979 4.58906C41.161 5.5152 42.2872 5.89057 43.2134 5.42755L46.9634 3.55258C47.8896 3.08946 48.265 1.96326 47.8019 1.03703Z" fill="white"/>
<path d="M0.198378 32.3386C0.661494 33.2647 1.78769 33.6401 2.71393 33.1771L6.46386 31.3021C7.39009 30.839 7.76546 29.7128 7.30235 28.7865C6.83932 27.8604 5.71322 27.4849 4.7868 27.9481L1.03686 29.823C0.110629 30.2861 -0.264739 31.4123 0.198378 32.3386Z" fill="white"/>
<path d="M46.9633 29.823L43.2134 27.9481C42.2872 27.485 41.1609 27.8603 40.6978 28.7865C40.2348 29.7128 40.6101 30.839 41.5363 31.3021L45.2863 33.1771C46.2124 33.6402 47.3388 33.2647 47.8018 32.3386C48.2649 31.4123 47.8896 30.2861 46.9633 29.823Z" fill="white"/>
<path d="M27.75 48H20.25C19.2144 48 18.375 47.1606 18.375 46.125C18.375 45.0894 19.2144 44.25 20.25 44.25H27.75C28.7856 44.25 29.625 45.0894 29.625 46.125C29.625 47.1606 28.7856 48 27.75 48Z" fill="white"/>
<path d="M27.75 40.5H20.25C17.1484 40.5 14.625 37.9766 14.625 34.875V31.875C14.625 31.2986 14.3713 30.7717 13.9252 30.4136C11.8652 28.8784 10.1572 26.8627 8.98491 24.5833C7.76812 22.2174 7.125 19.5519 7.125 16.875C7.125 7.57013 14.6951 0 24 0C33.3049 0 40.875 7.57013 40.875 16.875C40.875 19.5519 40.2319 22.2174 39.0151 24.5833C37.8428 26.8627 36.1347 28.8784 34.0748 30.4136C33.6287 30.7717 33.375 31.2986 33.375 31.875V34.875C33.375 37.9766 30.8516 40.5 27.75 40.5ZM18.375 31.875V34.875C18.375 35.9089 19.2161 36.75 20.25 36.75H27.75C28.7839 36.75 29.625 35.9089 29.625 34.875V31.875C29.625 30.1069 30.4692 28.393 31.9508 27.3188C35.2415 24.8117 37.125 21.0149 37.125 16.875C37.125 9.63788 31.2371 3.75 24 3.75C16.7629 3.75 10.875 9.63788 10.875 16.875C10.875 21.0149 12.7585 24.8117 16.0493 27.3188C17.5343 28.3956 18.375 30.1103 18.375 31.875Z" fill="white"/>
</g>
<defs>
<clipPath id="clip0_1767_3990">
<rect width="48" height="48" fill="white"/>
</clipPath>
</defs>
</svg>
