<svg width="48" height="48" viewBox="0 0 48 48" fill="none" xmlns="http://www.w3.org/2000/svg">
<path d="M14.625 21.75C15.6605 21.75 16.5 20.9105 16.5 19.875C16.5 18.8395 15.6605 18 14.625 18C13.5895 18 12.75 18.8395 12.75 19.875C12.75 20.9105 13.5895 21.75 14.625 21.75Z" fill="white"/>
<path d="M14.625 29.25C15.6605 29.25 16.5 28.4105 16.5 27.375C16.5 26.3395 15.6605 25.5 14.625 25.5C13.5895 25.5 12.75 26.3395 12.75 27.375C12.75 28.4105 13.5895 29.25 14.625 29.25Z" fill="white"/>
<path d="M14.625 36.75C15.6605 36.75 16.5 35.9105 16.5 34.875C16.5 33.8395 15.6605 33 14.625 33C13.5895 33 12.75 33.8395 12.75 34.875C12.75 35.9105 13.5895 36.75 14.625 36.75Z" fill="white"/>
<path d="M20.25 19.875C20.25 20.9106 21.0894 21.75 22.125 21.75H33.375C34.4106 21.75 35.25 20.9106 35.25 19.875C35.25 18.8394 34.4106 18 33.375 18H22.125C21.0894 18 20.25 18.8394 20.25 19.875Z" fill="white"/>
<path d="M33.375 25.5H22.125C21.0894 25.5 20.25 26.3394 20.25 27.375C20.25 28.4106 21.0894 29.25 22.125 29.25H33.375C34.4106 29.25 35.25 28.4106 35.25 27.375C35.25 26.3394 34.4106 25.5 33.375 25.5Z" fill="white"/>
<path d="M33.375 33H22.125C21.0894 33 20.25 33.8394 20.25 34.875C20.25 35.9106 21.0894 36.75 22.125 36.75H33.375C34.4106 36.75 35.25 35.9106 35.25 34.875C35.25 33.8394 34.4106 33 33.375 33Z" fill="white"/>
<path d="M37.125 3.75C36.0894 3.75 35.25 4.58944 35.25 5.625C35.25 6.66056 36.0894 7.5 37.125 7.5C38.1589 7.5 39 8.34113 39 9.375V42.375C39 43.4089 38.1589 44.25 37.125 44.25H10.875C9.84113 44.25 9 43.4089 9 42.375V9.375C9 8.34113 9.84113 7.5 10.875 7.5H16.8225C17.5965 9.68231 19.6807 11.25 22.125 11.25H25.875C28.9766 11.25 31.5 8.72662 31.5 5.625C31.5 2.52338 28.9766 0 25.875 0H22.125C19.6807 0 17.5966 1.56769 16.8225 3.75H10.875C7.77338 3.75 5.25 6.27338 5.25 9.375V42.375C5.25 45.4766 7.77338 48 10.875 48H37.125C40.2266 48 42.75 45.4766 42.75 42.375V9.375C42.75 6.27338 40.2266 3.75 37.125 3.75ZM22.125 3.75H25.875C26.9089 3.75 27.75 4.59113 27.75 5.625C27.75 6.65887 26.9089 7.5 25.875 7.5H22.125C21.0911 7.5 20.25 6.65887 20.25 5.625C20.25 4.59113 21.0911 3.75 22.125 3.75Z" fill="white"/>
</svg>
