<svg width="48" height="48" viewBox="0 0 48 48" fill="none" xmlns="http://www.w3.org/2000/svg">
<g clip-path="url(#clip0_1818_3955)">
<path d="M39.7501 23.9998V11.2499C39.7501 5.0467 34.7034 0 28.5002 0H11.2504C5.04719 0 0.000488281 5.0467 0.000488281 11.2499V36.7496C0.000488281 42.9528 5.04719 47.9995 11.2504 47.9995H12.4691C13.5047 47.9995 14.3441 47.1601 14.3441 46.1245C14.3441 45.089 13.5047 44.2496 12.4691 44.2496H11.2504C7.11492 44.2496 3.75045 40.8851 3.75045 36.7496V11.2499C3.75045 7.11443 7.11492 3.74996 11.2504 3.74996H28.5002C32.6357 3.74996 36.0001 7.11443 36.0001 11.2499V23.9998C36.0001 25.0353 36.8396 25.8747 37.8751 25.8747C38.9107 25.8747 39.7501 25.0353 39.7501 23.9998Z" fill="white"/>
<path d="M32.1566 17.2498C32.1566 16.2143 31.3172 15.3749 30.2816 15.3749H27.0942C25.5434 15.3749 24.2817 14.1132 24.2817 12.5624V9.37492C24.2817 8.33937 23.4423 7.49994 22.4067 7.49994C21.3712 7.49994 20.5317 8.33937 20.5317 9.37492V12.5624C20.5317 16.1809 23.4756 19.1248 27.0942 19.1248H30.2816C31.3172 19.1248 32.1566 18.2854 32.1566 17.2498Z" fill="white"/>
<path d="M46.3512 34.6878L41.4492 29.7973C40.7164 29.066 39.5292 29.0673 38.7976 29.8004C38.0663 30.5335 38.0677 31.7206 38.8008 32.452L43.7033 37.343C44.0558 37.6944 44.25 38.1613 44.25 38.6575C44.25 39.1521 44.057 39.6175 43.7069 39.9686L38.8098 44.788C38.0718 45.5144 38.0622 46.7016 38.7886 47.4396C39.1556 47.8125 39.6402 47.9993 40.1251 47.9993C40.5998 47.9993 41.0751 47.8201 41.4402 47.4606L46.3422 42.6362C46.3451 42.6334 46.348 42.6305 46.3509 42.6277C47.4143 41.5675 47.9999 40.1574 47.9999 38.6573C47.9999 37.1572 47.4143 35.7475 46.3512 34.6878Z" fill="white"/>
<path d="M24.0121 32.4521C24.7452 31.7207 24.7466 30.5336 24.0153 29.8005C23.2837 29.0674 22.0965 29.066 21.3637 29.7974L16.462 34.6874C15.3986 35.7476 14.813 37.1576 14.813 38.6577C14.813 40.1578 15.3986 41.5679 16.462 42.6281C16.4649 42.6309 16.4678 42.6338 16.4707 42.6366L21.3727 47.461C21.738 47.8205 22.213 47.9997 22.6878 47.9997C23.1727 47.9997 23.6574 47.8128 24.0243 47.4399C24.7507 46.7018 24.7411 45.5147 24.0031 44.7884L19.106 39.969C18.7559 39.6179 18.563 39.1525 18.563 38.6579C18.563 38.1617 18.7571 37.6948 19.1101 37.3429L24.0121 32.4521Z" fill="white"/>
<path d="M34.0805 29.3227C33.0855 29.0363 32.0467 29.6114 31.7604 30.6066L27.448 45.6065C27.1619 46.6017 27.7367 47.6405 28.7319 47.9266C28.905 47.9764 29.0793 48.0001 29.2509 48.0001C30.0656 48.0001 30.8155 47.4648 31.052 46.6427L35.3644 31.6428C35.6506 30.6476 35.0757 29.6089 34.0805 29.3227Z" fill="white"/>
</g>
<defs>
<clipPath id="clip0_1818_3955">
<rect width="48" height="48" fill="white"/>
</clipPath>
</defs>
</svg>
