<svg width="48" height="48" viewBox="0 0 48 48" fill="none" xmlns="http://www.w3.org/2000/svg">
<path d="M38.625 42.75H9.375C4.20563 42.75 0 38.5444 0 33.375V14.625C0 9.45563 4.20563 5.25 9.375 5.25H38.625C43.7944 5.25 48 9.45563 48 14.625V33.375C48 38.5444 43.7944 42.75 38.625 42.75ZM9.375 9C6.27338 9 3.75 11.5234 3.75 14.625V33.375C3.75 36.4766 6.27338 39 9.375 39H38.625C41.7266 39 44.25 36.4766 44.25 33.375V14.625C44.25 11.5234 41.7266 9 38.625 9H9.375Z" fill="white"/>
<path d="M32.1855 23.96L39.9711 15.9305C40.692 15.187 40.6737 14 39.9302 13.2791C39.1868 12.5583 37.9998 12.5766 37.2789 13.32L25.3173 25.6562C24.5884 26.376 23.4117 26.376 22.6827 25.6562L10.7211 13.32C10.0004 12.5766 8.8133 12.5583 8.06977 13.2791C7.32633 14 7.30805 15.187 8.02889 15.9305L15.8145 23.96L8.02242 32.0768C7.30533 32.8238 7.32952 34.0107 8.07652 34.7278C8.82333 35.4447 10.0103 35.4209 10.7276 34.6737L18.4266 26.6539L20.0022 28.2789C20.0088 28.2858 20.0157 28.2926 20.0224 28.2995C21.119 29.3961 22.5595 29.9443 23.9999 29.9443C25.4402 29.9443 26.8807 29.3961 27.9773 28.2995C27.9841 28.2926 27.9909 28.2858 27.9975 28.2789L29.5731 26.6539L37.2721 34.6737C37.989 35.4205 39.176 35.4453 39.9232 34.7278C40.6702 34.0107 40.6945 32.8238 39.9773 32.0768L32.1855 23.96Z" fill="white"/>
</svg>
