<svg width="48" height="48" viewBox="0 0 48 48" fill="none" xmlns="http://www.w3.org/2000/svg">
<path d="M18.9766 34.291H7.18805L5.16253 40.0435H0.341797L10.4289 11.8483H15.7762L25.8633 40.0435H21.0021L18.9766 34.291ZM17.6802 30.5235L13.1026 17.4387L8.48438 30.5235H17.6802Z" fill="white"/>
<path d="M24.8613 28.7816C24.8613 26.54 25.3204 24.555 26.2387 22.8266C27.1839 21.0981 28.4533 19.7613 30.0467 18.816C31.6671 17.8438 33.4495 17.3577 35.394 17.3577C37.1495 17.3577 38.6754 17.7088 39.9717 18.4109C41.295 19.0861 42.3483 19.9368 43.1315 20.9631V17.7223H47.7902V40.0435H43.1315V36.7216C42.3483 37.7749 41.2815 38.6526 39.9312 39.3548C38.5808 40.057 37.0414 40.4081 35.313 40.4081C33.3955 40.4081 31.6401 39.922 30.0467 38.9497C28.4533 37.9504 27.1839 36.5731 26.2387 34.8176C25.3204 33.0352 24.8613 31.0232 24.8613 28.7816ZM43.1315 28.8626C43.1315 27.3232 42.8074 25.9864 42.1593 24.8521C41.5381 23.7178 40.7144 22.8536 39.6881 22.2594C38.6619 21.6653 37.5546 21.3682 36.3663 21.3682C35.178 21.3682 34.0707 21.6653 33.0444 22.2594C32.0182 22.8266 31.1809 23.6773 30.5328 24.8116C29.9116 25.9189 29.601 27.2422 29.601 28.7816C29.601 30.321 29.9116 31.6713 30.5328 32.8326C31.1809 33.9939 32.0182 34.8852 33.0444 35.5063C34.0977 36.1005 35.205 36.3975 36.3663 36.3975C37.5546 36.3975 38.6619 36.1005 39.6881 35.5063C40.7144 34.9122 41.5381 34.0479 42.1593 32.9137C42.8074 31.7524 43.1315 30.402 43.1315 28.8626Z" fill="white"/>
</svg>
