<svg width="48" height="48" viewBox="0 0 48 48" fill="none" xmlns="http://www.w3.org/2000/svg">
<path fill-rule="evenodd" clip-rule="evenodd" d="M5 38.5C5 42.0898 7.91014 45 11.5 45C15.0899 45 18 42.0898 18 38.5C18 35.423 15.8619 32.8452 12.9903 32.1716C12.9967 32.1154 13 32.058 13 32V22.986C15.4749 26.0446 19.2591 28 23.5 28H30.174C30.851 30.8668 33.4264 33 36.5 33C40.0898 33 43 30.0898 43 26.5C43 22.9102 40.0898 20 36.5 20C33.4264 20 30.851 22.1332 30.174 25H23.5C18.1434 25 13.7237 20.989 13.0805 15.8065C15.9065 15.1005 18 12.5447 18 9.5C18 5.91014 15.0899 3 11.5 3C7.91014 3 5 5.91014 5 9.5C5 12.5771 7.13812 15.1547 10.0097 15.8284C10.0033 15.8847 10 15.942 10 16V32C10 32.058 10.0033 32.1154 10.0097 32.1716C7.13812 32.8452 5 35.423 5 38.5ZM11.5 42C9.567 42 8 40.433 8 38.5C8 36.567 9.567 35 11.5 35C13.433 35 15 36.567 15 38.5C15 40.433 13.433 42 11.5 42ZM11.5 13C9.567 13 8 11.433 8 9.5C8 7.567 9.567 6 11.5 6C13.433 6 15 7.567 15 9.5C15 11.433 13.433 13 11.5 13ZM33 26.5C33 28.433 34.567 30 36.5 30C38.433 30 40 28.433 40 26.5C40 24.567 38.433 23 36.5 23C34.567 23 33 24.567 33 26.5Z" fill="white"/>
</svg>
