<svg width="48" height="48" viewBox="0 0 48 48" fill="none" xmlns="http://www.w3.org/2000/svg">
<g clip-path="url(#clip0_958_4044)">
<path d="M47.329 0.671006C46.4353 -0.222692 44.9907 -0.222692 44.097 0.671006L31.9991 12.769V4.5726C31.9991 3.31094 30.9774 2.28694 29.7134 2.28694C28.4494 2.28694 27.4277 3.31094 27.4277 4.5726V18.2747C27.4277 18.2871 27.4282 18.2993 27.4284 18.3116C27.429 18.3677 27.4318 18.4233 27.4364 18.4783C27.4374 18.4911 27.438 18.5039 27.4393 18.5166C27.4455 18.579 27.4548 18.6404 27.466 18.7011C27.468 18.712 27.4697 18.723 27.4718 18.7339C27.4843 18.7968 27.4997 18.8586 27.5172 18.9196C27.5198 18.9288 27.5222 18.938 27.525 18.9471C27.5438 19.0097 27.5655 19.071 27.5895 19.1312C27.5926 19.1393 27.5957 19.1474 27.599 19.1555C27.6244 19.2173 27.6526 19.2777 27.6832 19.3366C27.6866 19.3431 27.6899 19.3498 27.6933 19.3563C27.7261 19.4183 27.7619 19.4784 27.8001 19.5368C27.8024 19.5403 27.8045 19.5438 27.8069 19.5473C27.977 19.8043 28.1978 20.0247 28.4549 20.1946C28.4557 20.1951 28.4563 20.1956 28.4571 20.196C28.5188 20.2367 28.5826 20.2744 28.6483 20.3091C28.6501 20.31 28.6519 20.3109 28.6537 20.3118C28.7178 20.3455 28.7838 20.3761 28.8513 20.4037C28.8529 20.4044 28.8545 20.4049 28.8561 20.4056C28.9229 20.4326 28.9913 20.4567 29.061 20.4774C29.0623 20.4778 29.0636 20.4781 29.065 20.4785C29.1336 20.4988 29.2035 20.516 29.2747 20.5298C29.2766 20.5302 29.2786 20.5304 29.2806 20.5308C29.3499 20.544 29.4201 20.5544 29.4914 20.5613C29.4946 20.5616 29.4978 20.5618 29.5009 20.562C29.5708 20.5685 29.6416 20.5723 29.7133 20.5723H43.4273C44.6913 20.5723 45.713 19.5483 45.713 18.2866C45.713 17.0249 44.6913 16.0009 43.4273 16.0009H35.2309L47.329 3.90287C48.2227 3.00917 48.2227 1.5647 47.329 0.671006Z" fill="white"/>
<path d="M20.5709 29.6894C20.5702 29.6334 20.5675 29.578 20.5629 29.5231C20.5619 29.5102 20.5613 29.4974 20.56 29.4846C20.5537 29.422 20.5444 29.3603 20.5332 29.2994C20.5312 29.2889 20.5296 29.2784 20.5276 29.2679C20.515 29.2044 20.4994 29.142 20.4817 29.0806C20.4793 29.072 20.477 29.0635 20.4744 29.055C20.4554 28.9916 20.4334 28.9295 20.4092 28.8686C20.4062 28.8614 20.4035 28.8541 20.4006 28.8469C20.3748 28.7841 20.3462 28.7229 20.3152 28.6631C20.3122 28.6574 20.3094 28.6517 20.3064 28.646C20.2732 28.5832 20.237 28.5224 20.1984 28.4633C20.1965 28.4604 20.1948 28.4575 20.1929 28.4547C20.0231 28.1982 19.803 27.9781 19.5466 27.8083C19.5431 27.806 19.5395 27.8039 19.5361 27.8016C19.4777 27.7633 19.4175 27.7276 19.3556 27.6948C19.3491 27.6913 19.3424 27.688 19.3358 27.6847C19.2769 27.6541 19.2166 27.6259 19.1548 27.6005C19.1467 27.5972 19.1386 27.5941 19.1304 27.5909C19.0702 27.567 19.009 27.5453 18.9464 27.5264C18.9372 27.5237 18.928 27.5213 18.9188 27.5186C18.8579 27.5011 18.796 27.4857 18.7331 27.4733C18.7223 27.4711 18.7113 27.4694 18.7004 27.4675C18.6397 27.4563 18.5783 27.447 18.5159 27.4407C18.5032 27.4394 18.4904 27.4389 18.4776 27.4378C18.4225 27.4332 18.367 27.4304 18.3109 27.4299C18.2985 27.4298 18.2862 27.4291 18.274 27.4292H4.57187C3.31021 27.4292 2.2862 28.4509 2.2862 29.7149C2.2862 30.9789 3.31021 32.0005 4.57187 32.0005H12.7682L0.670273 44.0984C-0.223424 44.9921 -0.223424 46.4367 0.670273 47.3304C1.11595 47.776 1.70112 48.0001 2.2862 48.0001C2.87138 48.0001 3.45646 47.7761 3.90213 47.3304L16.0001 35.2324V43.4288C16.0001 44.6928 17.0241 45.7144 18.2858 45.7144C19.5474 45.7144 20.5714 44.6928 20.5714 43.4288V29.7267C20.5715 29.7142 20.571 29.7018 20.5709 29.6894Z" fill="white"/>
</g>
<defs>
<clipPath id="clip0_958_4044">
<rect width="48" height="48" fill="white"/>
</clipPath>
</defs>
</svg>
