<svg width="48" height="48" viewBox="0 0 48 48" fill="none" xmlns="http://www.w3.org/2000/svg"><g clip-path="url(#clip0_868_4209)"><path d="M33.4805 18.4445h12.3986c1.1713 0 2.1209.9451 2.1209 2.1111v11.2411c0 4.2851-3.4899 7.7589-7.795 7.7589h-.0368c-4.3051.0006-7.7955-3.4727-7.7961-7.7578v-12.25c0-.6094.4963-1.1033 1.1084-1.1033zM41.8602 16.2223c2.7742 0 5.0232-2.2386 5.0232-5 0-2.76143-2.249-5.00001-5.0232-5.00001-2.7743 0-5.0233 2.23858-5.0233 5.00001 0 2.7614 2.249 5 5.0233 5z" fill="#5059C9"/><path d="M26.2329 16.2223c4.0073 0 7.2558-3.2335 7.2558-7.22224 0-3.98873-3.2485-7.22223-7.2558-7.22223s-7.2558 3.2335-7.2558 7.22223c0 3.98874 3.2485 7.22224 7.2558 7.22224zM35.9071 18.4445H15.4412c-1.1574.0285-2.073.9845-2.0461 2.1366v12.8212c-.1616 6.9135 5.3335 12.6508 12.2791 12.82 6.9455-.1692 12.4406-5.9065 12.279-12.82V20.5811c.0268-1.1521-.8887-2.1081-2.0461-2.1366z" fill="#7B83EB"/><path opacity=".1" d="M26.7905 18.4445v17.9666c-.0056.8239-.5072 1.5641-1.2726 1.8778-.2437.1026-.5056.1555-.7702.1556H14.3774c-.1451-.3667-.279-.7334-.3907-1.1111-.3907-1.275-.5901-2.6004-.5916-3.9334V20.5778c-.0268-1.1503.8872-2.1048 2.0428-2.1333h11.3526z" fill="#000"/><path opacity=".2" d="M25.6742 18.4445v19.0777c0 .2634-.0532.5241-.1563.7667-.3151.7619-1.0587 1.2612-1.8865 1.2667h-8.7293c-.1898-.3667-.3684-.7334-.5247-1.1111-.1562-.3778-.279-.7334-.3907-1.1111-.3907-1.275-.5901-2.6004-.5916-3.9334V20.5778c-.0268-1.1503.8872-2.1048 2.0428-2.1333h10.2363z" fill="#000"/><path opacity=".2" d="M25.6742 18.4445V35.3c-.0085 1.1195-.9181 2.0249-2.0428 2.0334h-9.6447c-.3907-1.275-.5901-2.6004-.5916-3.9334V20.5778c-.0268-1.1503.8872-2.1048 2.0428-2.1333h10.2363z" fill="#000"/><path opacity=".2" d="M24.5579 18.4445V35.3c-.0085 1.1195-.9181 2.0249-2.0428 2.0334h-8.5284c-.3907-1.275-.5901-2.6004-.5916-3.9334V20.5778c-.0268-1.1503.8872-2.1048 2.0428-2.1333h9.12z" fill="#000"/><path opacity=".1" d="M26.7908 12.7001v3.5c-.1898.0111-.3684.0222-.5582.0222-.1897 0-.3683-.0111-.5581-.0222-.3768-.0249-.7505-.0844-1.1163-.1778-2.2605-.5328-4.128-2.1108-5.0232-4.2444a6.15321 6.15321 0 01-.3573-1.1112h5.5703c1.1264.0043 2.0385.9121 2.0428 2.0334z" fill="#000"/><path opacity=".2" d="M25.6747 13.8111V16.2c-.3768-.0248-.7505-.0844-1.1163-.1777-2.2605-.5329-4.128-2.1108-5.0232-4.2445h4.0967c1.1264.0043 2.0385.9121 2.0428 2.0333z" fill="#000"/><path opacity=".2" d="M25.6747 13.8111V16.2c-.3768-.0248-.7505-.0844-1.1163-.1777-2.2605-.5329-4.128-2.1108-5.0232-4.2445h4.0967c1.1264.0043 2.0385.9121 2.0428 2.0333z" fill="#000"/><path opacity=".2" d="M24.5584 13.8112v2.2111c-2.2605-.5329-4.128-2.1108-5.0232-4.2445h2.9804c1.1265.0043 2.0385.9122 2.0428 2.0334z" fill="#000"/><path d="M2.04613 11.7778H22.512c1.13 0 2.0461.9119 2.0461 2.0367v20.3711c0 1.1248-.9161 2.0367-2.0461 2.0367H2.04613C.916074 36.2223 0 35.3104 0 34.1856V13.8145c0-1.1248.916096-2.0367 2.04613-2.0367z" fill="url(#paint0_linear_868_4209)"/><path d="M17.6639 19.5312h-4.0912v11.0889h-2.6065V19.5312H6.89404v-2.1511H17.6639v2.1511z" fill="#fff"/></g><defs><linearGradient id="paint0_linear_868_4209" x1="4.26625" y1="10.1864" x2="20.1806" y2="37.8776" gradientUnits="userSpaceOnUse"><stop stop-color="#5A62C3"/><stop offset=".5" stop-color="#4D55BD"/><stop offset="1" stop-color="#3940AB"/></linearGradient><clipPath id="clip0_868_4209"><path fill="#fff" transform="translate(0 1.77783)" d="M0 0h48v44.4444H0z"/></clipPath></defs></svg>