<svg width="48" height="48" viewBox="0 0 48 48" fill="none" xmlns="http://www.w3.org/2000/svg">
<path fill-rule="evenodd" clip-rule="evenodd" d="M9.375 7.125C6.26838 7.125 3.75 9.64338 3.75 12.75V35.25C3.75 38.3566 6.26838 40.875 9.375 40.875H38.625C41.7316 40.875 44.25 38.3566 44.25 35.25V12.75C44.25 9.64338 41.7316 7.125 38.625 7.125H9.375ZM0 12.75C0 7.57231 4.19731 3.375 9.375 3.375H38.625C43.8027 3.375 48 7.57231 48 12.75V35.25C48 40.4277 43.8027 44.625 38.625 44.625H9.375C4.19731 44.625 0 40.4277 0 35.25V12.75Z" fill="white"/>
<path fill-rule="evenodd" clip-rule="evenodd" d="M35.25 14.625C34.2145 14.625 33.375 15.4645 33.375 16.5C33.375 17.5355 34.2145 18.375 35.25 18.375C36.2855 18.375 37.125 17.5355 37.125 16.5C37.125 15.4645 36.2855 14.625 35.25 14.625ZM29.625 16.5C29.625 13.3934 32.1434 10.875 35.25 10.875C38.3566 10.875 40.875 13.3934 40.875 16.5C40.875 19.6066 38.3566 22.125 35.25 22.125C32.1434 22.125 29.625 19.6066 29.625 16.5Z" fill="white"/>
<path fill-rule="evenodd" clip-rule="evenodd" d="M18.8636 22.7375L18.8635 22.7377L10.3856 32.0368C9.68793 32.802 8.50201 32.8568 7.73677 32.1591C6.97153 31.4615 6.91674 30.2755 7.6144 29.5103L16.0924 20.2111L16.0925 20.2109C17.1187 19.0855 18.6026 18.375 20.25 18.375C21.7033 18.375 23.0314 18.9286 24.0285 19.8329L24.0287 19.8331L40.2598 34.5575C41.0268 35.2532 41.0845 36.439 40.3887 37.206C39.6929 37.973 38.5072 38.0307 37.7402 37.3349L21.5093 22.6107L21.5091 22.6105C21.1746 22.3072 20.7357 22.125 20.25 22.125C19.7011 22.125 19.2093 22.3585 18.8636 22.7375Z" fill="white"/>
</svg>
