<svg width="48" height="48" viewBox="0 0 48 48" fill="none" xmlns="http://www.w3.org/2000/svg">
<path d="M38.4 21.6012H26.4V9.60117C26.4 8.27573 25.3254 7.20117 24 7.20117C22.6746 7.20117 21.6 8.27573 21.6 9.60117V21.6012H9.59995C8.27451 21.6012 7.19995 22.6758 7.19995 24.0012C7.19995 25.3266 8.27451 26.4012 9.59995 26.4012H21.6V38.4012C21.6 39.7265 22.6746 40.8012 24 40.8012C25.3254 40.8012 26.4 39.7265 26.4 38.4012V26.4012H38.4C39.7253 26.4012 40.8 25.3266 40.8 24.0012C40.8 22.6758 39.7253 21.6012 38.4 21.6012Z" fill="white"/>
</svg>
