<svg width="48" height="48" viewBox="0 0 48 48" fill="none" xmlns="http://www.w3.org/2000/svg">
<g clip-path="url(#clip0_10263_283392)">
<path d="M24 33C25.0356 33 25.875 32.1606 25.875 31.125V29.3025C28.0573 28.5285 29.625 26.4443 29.625 24C29.625 20.8984 27.1016 18.375 24 18.375C22.9661 18.375 22.125 17.5339 22.125 16.5C22.125 15.4661 22.9661 14.625 24 14.625C24.6675 14.625 25.2904 14.9847 25.6253 15.5639C26.1439 16.4602 27.291 16.7665 28.1873 16.248C29.0837 15.7295 29.3899 14.5824 28.8713 13.6861C28.1927 12.513 27.1186 11.6411 25.875 11.1995V9.375C25.875 8.33944 25.0356 7.5 24 7.5C22.9644 7.5 22.125 8.33944 22.125 9.375V11.1975C19.9427 11.9715 18.375 14.0557 18.375 16.5C18.375 19.6016 20.8984 22.125 24 22.125C25.0339 22.125 25.875 22.9661 25.875 24C25.875 25.0339 25.0339 25.875 24 25.875C23.3325 25.875 22.7096 25.5153 22.3747 24.9361C21.8561 24.0397 20.7091 23.7335 19.8127 24.252C18.9163 24.7705 18.6101 25.9176 19.1287 26.8139C19.8073 27.987 20.8814 28.8589 22.125 29.3005V31.125C22.125 32.1606 22.9644 33 24 33Z" fill="white"/>
<path d="M47.4508 41.0492C46.7185 40.3169 45.5314 40.3169 44.7992 41.0492L44.25 41.5984V20.25C44.25 9.08409 35.1659 0 24 0C12.8341 0 3.74999 9.08409 3.74999 20.25V41.5984L3.2008 41.0492C2.46852 40.3169 1.28136 40.3169 0.549176 41.0492C-0.183012 41.7815 -0.183105 42.9686 0.549176 43.7008L4.29918 47.4508C4.66527 47.8169 5.14508 48 5.62499 48C6.10489 48 6.58471 47.8169 6.9508 47.4508L10.7008 43.7008C11.4331 42.9685 11.4331 41.7814 10.7008 41.0492C9.96852 40.317 8.78136 40.3169 8.04918 41.0492L7.49999 41.5984V31.977C11.1744 37.132 17.2012 40.5 24 40.5C28.3451 40.5 32.4902 39.1385 35.9871 36.5626C36.8208 35.9484 36.9988 34.7747 36.3846 33.941C35.7706 33.1072 34.5968 32.9292 33.763 33.5434C30.9151 35.6411 27.5391 36.75 24 36.75C14.9018 36.75 7.49999 29.3482 7.49999 20.25C7.49999 11.1518 14.9018 3.75 24 3.75C33.0981 3.75 40.5 11.1518 40.5 20.25V41.5984L39.9508 41.0492C39.2185 40.3169 38.0314 40.3169 37.2992 41.0492C36.567 41.7815 36.5669 42.9686 37.2992 43.7008L41.0492 47.4508C41.4153 47.8169 41.8951 48 42.375 48C42.8549 48 43.3347 47.8169 43.7008 47.4508L47.4508 43.7008C48.1831 42.9686 48.1831 41.7814 47.4508 41.0492Z" fill="white"/>
</g>
<defs>
<clipPath id="clip0_10263_283392">
<rect width="48" height="48" fill="white"/>
</clipPath>
</defs>
</svg>
