<svg width="48" height="48" viewBox="0 0 48 48" fill="none" xmlns="http://www.w3.org/2000/svg">
<g clip-path="url(#clip0_10263_283366)">
<path d="M39.8403 48.001C38.8044 48.001 37.9647 47.1613 37.9647 46.1254V42.6142C37.9647 40.278 38.6 37.9456 39.802 35.8693C41.2421 33.3819 42.0033 30.4424 42.0033 27.3689V18.9027C39.7607 19.7288 37.0092 18.8619 35.6312 17.0413C33.3691 18.6311 29.9747 18.1418 28.2307 16.0596C26.4735 17.4262 23.6462 17.4997 21.8107 16.2314C21.1154 17.1476 20.1443 17.8463 19.0037 18.202C18.7201 18.9366 18.2826 19.6114 17.7079 20.186L13.0439 24.8501C11.2208 26.5428 8.69947 24.0185 10.3914 22.1975L15.0554 17.5335C15.8112 16.7778 15.8191 15.556 15.073 14.81C14.3147 14.0512 13.0783 14.0551 12.3241 14.8177C12.3241 14.8177 8.94602 18.155 8.9192 18.1786C7.9674 19.0236 5.99685 21.2628 5.99685 22.7768C5.99685 24.4363 7.20495 28.3539 15.2962 35.9456C17.246 37.7749 18.3641 40.3602 18.3641 43.0388V46.1254C18.2719 48.6114 14.7042 48.6095 14.6128 46.1254V43.0388C14.6128 41.3926 13.9263 39.8043 12.7294 38.6812C7.83057 33.8936 2.51461 28.5858 2.24536 22.7769C2.24555 19.2644 5.80469 15.9317 6.3957 15.4026L9.68296 12.1536C10.2031 11.6345 10.7993 11.2372 11.4362 10.9615V8.26738C11.3929 4.13186 16.1165 1.1689 19.8162 3.12698C21.6448 -0.61869 26.9914 -1.11883 29.4488 2.28256C31.5667 0.870763 34.7441 1.17134 36.5225 3.04314C37.006 3.52865 37.3903 4.089 37.6652 4.69924C41.4251 2.89337 45.7809 5.635 45.7545 9.83149V27.3688C45.7545 31.1014 44.8187 34.6907 43.0484 37.7487C42.1767 39.2546 41.7159 40.937 41.7159 42.6141V46.1253C41.7159 47.1613 40.8762 48.001 39.8403 48.001ZM40.1468 7.89328C39.0536 7.89328 38.1642 8.7468 38.1642 9.79576V13.5607C38.261 16.0273 41.946 16.146 42.0033 13.5249V9.83149C42.0033 8.74464 41.1878 7.89328 40.1468 7.89328ZM30.5613 12.3022C30.6591 14.8582 34.317 14.8811 34.4128 12.3022V7.0469C34.3431 4.48711 30.6525 4.56148 30.5677 7.0469C30.5678 7.0469 30.5613 12.2065 30.5613 12.3022ZM15.1875 10.6893C16.1178 10.9392 16.9968 11.4287 17.7255 12.1573C18.2235 12.6555 18.6171 13.2289 18.8956 13.8521C19.0987 13.5426 19.2154 13.1702 19.2154 12.7714C19.2154 12.6079 19.2363 12.4492 19.2756 12.2982C19.2348 12.0238 19.2082 8.31606 19.2082 8.26738C19.2082 7.18345 18.3176 6.26785 17.2634 6.26785C16.1769 6.26785 15.1875 7.22086 15.1875 8.26738V10.6893ZM24.9032 3.73572C23.8344 3.73572 22.965 4.60518 22.965 5.67402V11.4577C23.0628 14.0137 26.7207 14.0366 26.8165 11.4577V5.67402C26.8165 4.60518 25.9582 3.73572 24.9032 3.73572ZM28.9258 36.4765C28.0092 36.9121 26.8722 36.5213 26.4316 35.5736C24.2684 30.9561 20.3201 29.6834 16.9319 28.5914C14.5941 27.7404 15.6909 24.3461 18.0831 25.0211C21.7894 26.2157 26.9729 27.8865 29.8286 33.9823C30.268 34.9203 29.8639 36.0369 28.9258 36.4765Z" fill="white"/>
</g>
<defs>
<clipPath id="clip0_10263_283366">
<rect width="48" height="48" fill="white" transform="translate(0 0.000976562)"/>
</clipPath>
</defs>
</svg>
