<svg width="48" height="48" viewBox="0 0 48 48" fill="none" xmlns="http://www.w3.org/2000/svg">
<g clip-path="url(#clip0_10263_283360)">
<path fill-rule="evenodd" clip-rule="evenodd" d="M39.48 9.36098C39.48 9.40996 39.4728 9.75808 38.8405 10.4059C38.1915 11.0708 37.0706 11.8399 35.3944 12.5662C32.0542 14.0136 27.1798 15.001 21.6 15.001C16.0202 15.001 11.1458 14.0136 7.80559 12.5662C6.12944 11.8399 5.0085 11.0708 4.35953 10.4059C3.7272 9.75808 3.72 9.40996 3.72 9.36098C3.72 9.31199 3.7272 8.96387 4.35953 8.31604C5.0085 7.65115 6.12944 6.8821 7.80559 6.15576C11.1458 4.70832 16.0202 3.72098 21.6 3.72098C27.1798 3.72098 32.0542 4.70832 35.3944 6.15576C37.0706 6.8821 38.1915 7.65115 38.8405 8.31604C39.4728 8.96387 39.48 9.31199 39.48 9.36098ZM21.6 0.000976562C33.1579 0.000976562 42.5955 3.93465 43.1721 8.88098H43.2V25.097C41.5 24.3908 39.6355 24.001 37.6799 24.001C33.573 24.001 29.8678 25.7202 27.2444 28.4782C25.4452 28.6887 23.5528 28.801 21.6 28.801C14.164 28.801 7.60562 27.1727 3.72 24.6941V28.801C3.72 28.85 3.7272 29.1981 4.35953 29.8459C5.0085 30.5108 6.12944 31.2799 7.80559 32.0062C11.1458 33.4536 16.0202 34.441 21.6 34.441C22.3628 34.441 23.1124 34.4225 23.8468 34.387C23.5014 35.5792 23.306 36.8351 23.2823 38.133C22.7272 38.1515 22.1661 38.161 21.6 38.161C14.164 38.161 7.60562 36.5327 3.72 34.0541V38.401H3.77745C3.8483 38.5759 4.00648 38.8442 4.35954 39.2059C5.00851 39.8708 6.12945 40.6399 7.8056 41.3662C11.1458 42.8136 16.0202 43.801 21.6 43.801C22.5188 43.801 23.4185 43.7742 24.2953 43.723C24.8098 45.0159 25.5063 46.2166 26.353 47.2936C24.8237 47.4424 23.233 47.521 21.6 47.521C9.85583 47.521 0.300772 43.4594 0.00697266 38.401H0V8.88098H0.0279115C0.604505 3.93465 10.0421 0.000976562 21.6 0.000976562ZM3.72 19.441C3.72 19.49 3.7272 19.8381 4.35953 20.4859C5.0085 21.1508 6.12944 21.9199 7.80559 22.6462C11.1458 24.0936 16.0202 25.081 21.6 25.081C27.1798 25.081 32.0542 24.0936 35.3944 22.6462C37.0706 21.9199 38.1915 21.1508 38.8405 20.4859C39.4728 19.8381 39.48 19.49 39.48 19.441V14.6141C35.5944 17.0927 29.036 18.721 21.6 18.721C14.164 18.721 7.60562 17.0927 3.72 14.6141V19.441Z" fill="white"/>
<path d="M36.8865 43.8016C33.0741 43.8016 29.9726 40.7001 29.9726 36.8877C29.9726 33.0754 33.0741 29.9738 36.8865 29.9738C40.6989 29.9738 43.8004 33.0754 43.8004 36.8877C43.8004 40.7001 40.6989 43.8016 36.8865 43.8016ZM36.8865 31.2845C33.7969 31.2845 31.2833 33.7981 31.2833 36.8877C31.2833 39.9774 33.7969 42.4909 36.8865 42.4909C39.9761 42.4909 42.4897 39.9774 42.4897 36.8877C42.4897 33.7981 39.9761 31.2845 36.8865 31.2845ZM46.5576 46.5716C46.8135 46.3157 46.8135 45.9007 46.5576 45.6448L43.6249 42.7121C43.3689 42.4561 42.954 42.4561 42.6981 42.7121C42.4421 42.968 42.4421 43.383 42.6981 43.6389L45.6307 46.5716C45.7587 46.6996 45.9264 46.7635 46.0942 46.7635C46.2619 46.7635 46.4296 46.6996 46.5576 46.5716Z" fill="white"/>
<path fill-rule="evenodd" clip-rule="evenodd" d="M36.8865 44.7344C32.559 44.7344 29.0398 41.2152 29.0398 36.8877C29.0398 32.5602 32.559 29.041 36.8865 29.041C41.214 29.041 44.7332 32.5602 44.7332 36.8877C44.7332 38.6491 44.1502 40.2766 43.1669 41.5874C43.5716 41.5888 43.9757 41.7438 44.2845 42.0525L47.2171 44.9852C47.8373 45.6054 47.8373 46.6109 47.2172 47.2311L46.5576 46.5716C46.8135 46.3157 46.8135 45.9007 46.5576 45.6448L43.6249 42.7121C43.3689 42.4561 42.954 42.4561 42.6981 42.7121C42.4421 42.968 42.4421 43.383 42.6981 43.6389L45.6307 46.5716C45.7587 46.6996 45.9264 46.7635 46.0942 46.7635C46.2619 46.7635 46.4296 46.6996 46.5576 46.5716L47.2172 47.2311C46.9073 47.541 46.4992 47.6963 46.0942 47.6963C45.6893 47.6963 45.2812 47.5412 44.9712 47.2312L42.0385 44.2985C41.729 43.9889 41.5739 43.5834 41.5734 43.1777C40.2648 44.1552 38.6422 44.7344 36.8865 44.7344ZM36.8865 32.2173C34.312 32.2173 32.216 34.3132 32.216 36.8877C32.216 39.4622 34.312 41.5582 36.8865 41.5582C39.461 41.5582 41.557 39.4622 41.557 36.8877C41.557 34.3132 39.461 32.2173 36.8865 32.2173ZM29.9726 36.8877C29.9726 40.7001 33.0741 43.8016 36.8865 43.8016C40.6989 43.8016 43.8004 40.7001 43.8004 36.8877C43.8004 33.0754 40.6989 29.9738 36.8865 29.9738C33.0741 29.9738 29.9726 33.0754 29.9726 36.8877ZM31.2833 36.8877C31.2833 33.7981 33.7969 31.2845 36.8865 31.2845C39.9761 31.2845 42.4897 33.7981 42.4897 36.8877C42.4897 39.9774 39.9761 42.4909 36.8865 42.4909C33.7969 42.4909 31.2833 39.9774 31.2833 36.8877Z" fill="white"/>
<path fill-rule="evenodd" clip-rule="evenodd" d="M47.1291 47.3128C46.8321 47.5682 46.4619 47.6963 46.0942 47.6963C45.6893 47.6963 45.2812 47.5412 44.9712 47.2312L42.0385 44.2985C41.8003 44.0603 41.6536 43.7652 41.5984 43.457C41.5818 43.3647 41.5735 43.2712 41.5734 43.1777C41.497 43.2348 41.4196 43.2904 41.3412 43.3447C40.075 44.2208 38.5397 44.7344 36.8865 44.7344C32.559 44.7344 29.0398 41.2152 29.0398 36.8877C29.0398 32.5602 32.559 29.041 36.8865 29.041C41.214 29.041 44.7332 32.5602 44.7332 36.8877C44.7332 38.5467 44.216 40.0869 43.3344 41.3555C43.2799 41.4339 43.2241 41.5112 43.1669 41.5874C43.2604 41.5877 43.3539 41.5962 43.4461 41.6129C43.7532 41.6686 44.0471 41.8151 44.2845 42.0525L47.2171 44.9852C47.8088 45.5769 47.836 46.5192 47.2989 47.1431C47.2729 47.1732 47.2457 47.2026 47.2172 47.2311C47.1886 47.2597 47.1593 47.2869 47.1291 47.3128ZM43.5952 41.3993C43.9099 41.4759 44.2084 41.6371 44.4542 41.8828L47.3868 44.8155C48.1008 45.5294 48.1007 46.6869 47.3869 47.4008C47.0301 47.7575 46.5602 47.9363 46.0942 47.9363C45.6284 47.9363 45.1584 47.7578 44.8015 47.4009L41.8688 44.4682C41.6221 44.2215 41.4607 43.9217 41.3845 43.6056C40.0978 44.4697 38.5499 44.9744 36.8865 44.9744C32.4264 44.9744 28.7998 41.3478 28.7998 36.8877C28.7998 32.4277 32.4264 28.801 36.8865 28.801C41.3466 28.801 44.9732 32.4277 44.9732 36.8877C44.9732 38.557 44.4649 40.11 43.5952 41.3993ZM36.8865 32.4573C34.4446 32.4573 32.456 34.4458 32.456 36.8877C32.456 39.3297 34.4446 41.3182 36.8865 41.3182C39.3284 41.3182 41.317 39.3297 41.317 36.8877C41.317 34.4458 39.3284 32.4573 36.8865 32.4573ZM32.216 36.8877C32.216 34.3132 34.312 32.2173 36.8865 32.2173C39.461 32.2173 41.557 34.3132 41.557 36.8877C41.557 39.4622 39.461 41.5582 36.8865 41.5582C34.312 41.5582 32.216 39.4622 32.216 36.8877Z" fill="white"/>
</g>
<defs>
<clipPath id="clip0_10263_283360">
<rect width="48" height="48" fill="white" transform="translate(0 0.000976562)"/>
</clipPath>
</defs>
</svg>
