<svg width="48" height="48" viewBox="0 0 48 48" fill="none" xmlns="http://www.w3.org/2000/svg">
<path d="M42.375 10.875H40.875V5.25C40.875 4.21444 40.0356 3.375 39 3.375C37.9644 3.375 37.125 4.21444 37.125 5.25V10.875H33.375V5.25C33.375 4.21444 32.5356 3.375 31.5 3.375C30.4644 3.375 29.625 4.21444 29.625 5.25V10.875H25.875V5.25C25.875 4.21444 25.0356 3.375 24 3.375C22.9644 3.375 22.125 4.21444 22.125 5.25V12.75C22.125 13.7856 22.9644 14.625 24 14.625H42.375C43.4089 14.625 44.25 15.4661 44.25 16.5V31.5C44.25 32.5339 43.4089 33.375 42.375 33.375H5.625C4.59113 33.375 3.75 32.5339 3.75 31.5V16.5C3.75 15.4661 4.59113 14.625 5.625 14.625H16.5C17.5356 14.625 18.375 13.7856 18.375 12.75V5.25C18.375 4.21444 17.5356 3.375 16.5 3.375C15.4644 3.375 14.625 4.21444 14.625 5.25V10.875H10.875V5.25C10.875 4.21444 10.0356 3.375 9 3.375C7.96444 3.375 7.125 4.21444 7.125 5.25V10.875H5.625C2.52338 10.875 0 13.3984 0 16.5V31.5C0 34.6016 2.52338 37.125 5.625 37.125H7.125V42.75C7.125 43.7856 7.96444 44.625 9 44.625C10.0356 44.625 10.875 43.7856 10.875 42.75V37.125H14.625V42.75C14.625 43.7856 15.4644 44.625 16.5 44.625C17.5356 44.625 18.375 43.7856 18.375 42.75V37.125H22.125V42.75C22.125 43.7856 22.9644 44.625 24 44.625C25.0356 44.625 25.875 43.7856 25.875 42.75V37.125H29.625V42.75C29.625 43.7856 30.4644 44.625 31.5 44.625C32.5356 44.625 33.375 43.7856 33.375 42.75V37.125H37.125V42.75C37.125 43.7856 37.9644 44.625 39 44.625C40.0356 44.625 40.875 43.7856 40.875 42.75V37.125H42.375C45.4766 37.125 48 34.6016 48 31.5V16.5C48 13.3984 45.4766 10.875 42.375 10.875Z" fill="white"/>
<path d="M23.625 29.625H9.375C8.33944 29.625 7.5 28.7856 7.5 27.75V20.25C7.5 19.2144 8.33944 18.375 9.375 18.375H23.625C24.6606 18.375 25.5 19.2144 25.5 20.25V27.75C25.5 28.7856 24.6606 29.625 23.625 29.625ZM11.25 25.875H21.75V22.125H11.25V25.875Z" fill="white"/>
<path d="M31.125 29.625C30.0894 29.625 29.25 28.7856 29.25 27.75V20.25C29.25 19.2144 30.0894 18.375 31.125 18.375C32.1606 18.375 33 19.2144 33 20.25V27.75C33 28.7856 32.1606 29.625 31.125 29.625Z" fill="white"/>
<path d="M38.625 29.625C37.5894 29.625 36.75 28.7856 36.75 27.75V20.25C36.75 19.2144 37.5894 18.375 38.625 18.375C39.6606 18.375 40.5 19.2144 40.5 20.25V27.75C40.5 28.7856 39.6606 29.625 38.625 29.625Z" fill="white"/>
</svg>
