<svg width="48" height="48" viewBox="0 0 48 48" fill="none" xmlns="http://www.w3.org/2000/svg">
<g clip-path="url(#clip0_1129_3817)">
<path d="M0 32.0004C0 30.6615 1.08537 29.5761 2.42424 29.5761H16C17.3389 29.5761 18.4242 30.6615 18.4242 32.0004V45.5761C18.4242 46.915 17.3389 48.0004 16 48.0004H2.42424C1.08537 48.0004 0 46.915 0 45.5761V32.0004Z" fill="white"/>
<path fill-rule="evenodd" clip-rule="evenodd" d="M34.5352 0.242188C35.6063 0.242188 36.4746 1.11048 36.4746 2.18158V28.121C36.4746 29.1921 35.6063 30.0604 34.5352 30.0604C33.4641 30.0604 32.5958 29.1921 32.5958 28.121V2.18158C32.5958 1.11048 33.4641 0.242188 34.5352 0.242188Z" fill="white"/>
<path fill-rule="evenodd" clip-rule="evenodd" d="M21.5939 7.69724C22.1294 6.76964 23.3155 6.45182 24.2431 6.98737L46.7073 19.9571C47.6349 20.4926 47.9527 21.6787 47.4172 22.6063C46.8816 23.5339 45.6955 23.8517 44.7679 23.3162L22.3037 10.3465C21.3761 9.81095 21.0583 8.62483 21.5939 7.69724Z" fill="white"/>
<path fill-rule="evenodd" clip-rule="evenodd" d="M47.4159 7.60251C46.8803 6.67491 45.6942 6.35709 44.7666 6.89264L22.3025 19.8623C21.3749 20.3979 21.057 21.584 21.5926 22.5116C22.1281 23.4392 23.3143 23.757 24.2418 23.2215L46.706 10.2518C47.6336 9.71622 47.9514 8.53011 47.4159 7.60251Z" fill="white"/>
</g>
<defs>
<clipPath id="clip0_1129_3817">
<rect width="48" height="48" fill="white"/>
</clipPath>
</defs>
</svg>
