<svg width="48" height="48" viewBox="0 0 48 48" fill="none" xmlns="http://www.w3.org/2000/svg">
<g clip-path="url(#clip0_1080_3811)">
<path fill-rule="evenodd" clip-rule="evenodd" d="M0 9.375C0 4.19731 4.19731 0 9.375 0H34.875C36.4278 0 37.8367 0.631604 38.8526 1.64769L46.3522 9.14738V9.14738C47.3683 10.1633 48 11.5723 48 13.125V38.625C48 43.8027 43.8027 48 38.625 48H9.375C4.19731 48 0 43.8027 0 38.625V9.375ZM33 3.75H15V9.375C15 10.4105 15.8395 11.25 16.875 11.25H31.125C32.1605 11.25 33 10.4105 33 9.375V3.75ZM11.25 3.75V9.375C11.25 12.4815 13.7685 15 16.875 15H31.125C34.2315 15 36.75 12.4815 36.75 9.375V4.84842L43.7008 11.7992C44.042 12.1403 44.25 12.6066 44.25 13.125V38.625C44.25 41.7317 41.7317 44.25 38.625 44.25H9.375C6.26837 44.25 3.75 41.7317 3.75 38.625V9.375C3.75 6.26837 6.26837 3.75 9.375 3.75H11.25ZM16.875 25.5C15.8395 25.5 15 26.3395 15 27.375V38.625C15 39.6605 14.1605 40.5 13.125 40.5C12.0895 40.5 11.25 39.6605 11.25 38.625V27.375C11.25 24.2685 13.7685 21.75 16.875 21.75H31.125C34.2315 21.75 36.75 24.2685 36.75 27.375V38.625C36.75 39.6605 35.9105 40.5 34.875 40.5C33.8395 40.5 33 39.6605 33 38.625V27.375C33 26.3395 32.1605 25.5 31.125 25.5H16.875Z" fill="white"/>
</g>
<defs>
<clipPath id="clip0_1080_3811">
<rect width="48" height="48" fill="white"/>
</clipPath>
</defs>
</svg>
