<svg width="48" height="48" viewBox="0 0 48 48" fill="none" xmlns="http://www.w3.org/2000/svg">
<g clip-path="url(#clip0_10263_283335)">
<path d="M19.7852 39.5322C8.88607 39.5322 0.019043 30.6652 0.019043 19.7661C0.019043 8.86702 8.88607 0 19.7852 0C30.6843 0 39.5513 8.86702 39.5513 19.7661C39.5513 30.6652 30.6843 39.5322 19.7852 39.5322V39.5322ZM19.7852 3.74713C10.9522 3.74713 3.76617 10.9332 3.76617 19.7661C3.76617 28.599 10.9522 35.7851 19.7852 35.7851C28.6181 35.7851 35.8041 28.599 35.8041 19.7661C35.8041 10.9332 28.6181 3.74713 19.7852 3.74713V3.74713ZM47.4336 47.4512C48.1653 46.7195 48.1653 45.5332 47.4336 44.8015L39.0494 36.4173C38.3177 35.6856 37.1314 35.6856 36.3998 36.4173C35.6681 37.1491 35.6681 38.3354 36.3998 39.067L44.784 47.4512C45.1498 47.817 45.6293 47.9999 46.1088 47.9999C46.5884 47.9999 47.0677 47.817 47.4336 47.4512V47.4512Z" fill="white"/>
</g>
<defs>
<clipPath id="clip0_10263_283335">
<rect width="48" height="48" fill="white"/>
</clipPath>
</defs>
</svg>
