<svg width="48" height="48" viewBox="0 0 48 48" fill="none" xmlns="http://www.w3.org/2000/svg">
<path d="M23.9995 7.99988C24.5299 7.99988 25.0387 8.2106 25.4137 8.58566L33.4137 16.5857C34.1947 17.3667 34.1947 18.633 33.4137 19.4141C32.6327 20.1951 31.3663 20.1951 30.5853 19.4141L23.9995 12.8283L17.4137 19.4141C16.6327 20.1951 15.3664 20.1951 14.5853 19.4141C13.8043 18.633 13.8043 17.3667 14.5853 16.5857L22.5853 8.58566C22.9603 8.2106 23.4691 7.99988 23.9995 7.99988V7.99988ZM14.5853 28.5857C15.3664 27.8047 16.6327 27.8047 17.4137 28.5857L23.9995 35.1715L30.5853 28.5857C31.3663 27.8047 32.6327 27.8047 33.4137 28.5857C34.1947 29.3667 34.1947 30.6331 33.4137 31.4141L25.4137 39.4141C24.6327 40.1951 23.3663 40.1951 22.5853 39.4141L14.5853 31.4141C13.8043 30.6331 13.8043 29.3667 14.5853 28.5857V28.5857Z" fill="white"/>
</svg>
