<svg width="48" height="48" viewBox="0 0 48 48" fill="none" xmlns="http://www.w3.org/2000/svg">
<g clip-path="url(#clip0_1091_3849)">
<g clip-path="url(#clip1_1091_3849)">
<path d="M25.1395 22.8607C25.8717 23.5929 27.0589 23.593 27.7912 22.8607L35.7461 14.9058C36.4784 14.1736 36.4784 12.9863 35.7461 12.2541C35.0139 11.5219 33.8267 11.5219 33.0945 12.2541L25.1395 20.2091C24.4073 20.9413 24.4073 22.1284 25.1395 22.8607V22.8607Z" fill="white"/>
<path d="M3.92614 14.9057C1.73295 17.0989 1.73295 20.6675 3.92614 22.8606C4.62411 23.5586 5.49505 24.062 6.44464 24.3162L18.9992 27.679C19.6416 27.851 20.149 28.3584 20.321 29.001L23.6837 41.555C23.9379 42.5048 24.4414 43.3758 25.1393 44.0738C27.3375 46.2719 30.8957 46.2725 33.0942 44.0739C33.6555 43.5127 34.0837 42.8545 34.367 42.1179L47.6252 7.64636C48.4229 5.5728 47.9233 3.21818 46.3525 1.6474C44.7817 0.0766144 42.4269 -0.422979 40.3535 0.374739L5.88205 13.633C5.14536 13.9164 4.48723 14.3445 3.92614 14.9057V14.9057ZM6.57777 17.5573C6.76545 17.3696 6.98436 17.2269 7.2282 17.1331L41.6999 3.8748C42.4014 3.6049 43.1845 3.78274 43.7009 4.29911C44.2248 4.82299 44.3913 5.60843 44.1252 6.30011V6.30021L30.8668 40.7719C30.773 41.0156 30.6304 41.2344 30.4426 41.4221C29.7099 42.1549 28.524 42.155 27.791 41.4221C27.5546 41.1858 27.3915 40.9044 27.3061 40.5851L23.9434 28.0309C23.4257 26.0972 21.9057 24.5752 19.9692 24.0566L7.41467 20.6939C7.09564 20.6085 6.81411 20.4454 6.57777 20.209C5.8467 19.4779 5.8467 18.2884 6.57777 17.5573V17.5573Z" fill="white"/>
</g>
</g>
<defs>
<clipPath id="clip0_1091_3849">
<rect width="48" height="48" fill="white"/>
</clipPath>
<clipPath id="clip1_1091_3849">
<rect width="48" height="48" fill="white"/>
</clipPath>
</defs>
</svg>
