<svg width="48" height="48" viewBox="0 0 48 48" fill="none" xmlns="http://www.w3.org/2000/svg">
<g clip-path="url(#clip0_10263_283362)">
<path d="M38.5769 14.7116C37.8446 13.9793 36.6574 13.9793 35.9252 14.7116L34.5993 16.0374L31.9476 13.3856L33.2735 12.0598C34.0058 11.3275 34.0058 10.1403 33.2735 9.40808C32.5412 8.67587 31.354 8.67578 30.6218 9.40808L25.3183 14.7116C24.586 15.4439 24.586 16.6311 25.3183 17.3633C26.0505 18.0955 27.2377 18.0956 27.97 17.3633L29.2959 16.0373L31.9476 18.6891L30.6218 20.015C29.8895 20.7473 29.8895 21.9345 30.6218 22.6667C31.354 23.3989 32.5412 23.399 33.2735 22.6667L38.5769 17.3633C39.3091 16.6311 39.3091 15.4438 38.5769 14.7116Z" fill="white"/>
<path d="M20.0148 30.6217L18.6889 31.9476L16.0372 29.2959L17.3631 27.9699C18.0954 27.2376 18.0954 26.0504 17.3631 25.3182C16.6308 24.586 15.4436 24.5859 14.7114 25.3182L9.40787 30.6217C8.67557 31.354 8.67557 32.5412 9.40787 33.2735C10.1401 34.0057 11.3273 34.0058 12.0596 33.2735L13.3854 31.9476L16.0371 34.5993L14.7113 35.9252C13.979 36.6575 13.979 37.8447 14.7113 38.5769C15.4435 39.3091 16.6307 39.3092 17.363 38.5769L22.6664 33.2735C23.3987 32.5411 23.3987 31.354 22.6664 30.6217C21.9341 29.8895 20.747 29.8895 20.0148 30.6217Z" fill="white"/>
<path d="M3.8382 44.162C-1.2794 39.0444 -1.2794 30.7175 3.8382 25.5999L25.5997 3.83963C30.7171 -1.27788 39.044 -1.27797 44.1617 3.83963C49.2793 8.95722 49.2793 17.2842 44.1617 22.4018L22.4002 44.162C17.2836 49.2788 8.95655 49.2804 3.8382 44.162ZM28.2514 6.49134L6.48981 28.2517C2.83448 31.907 2.83448 37.8549 6.48981 41.5102C10.1452 45.1656 16.093 45.1656 19.7484 41.5102L41.51 19.7499C45.1653 16.0945 45.1653 10.1467 41.51 6.49134C37.8548 2.8361 31.9069 2.83582 28.2514 6.49134Z" fill="white"/>
</g>
<defs>
<clipPath id="clip0_10263_283362">
<rect width="48" height="48" fill="white" transform="translate(0 0.000976562)"/>
</clipPath>
</defs>
</svg>
