<svg width="48" height="48" viewBox="0 0 48 48" fill="none" xmlns="http://www.w3.org/2000/svg"><g clip-path="url(#clip0_868_4201)"><path d="M10.2802 30.2363c0 2.759-2.22992 4.989-4.98898 4.989-2.75905 0-4.988974-2.23-4.988974-4.989 0-2.7591 2.229924-4.989 4.988974-4.989h4.98898v4.989zm2.4945 0c0-2.7591 2.2299-4.989 4.989-4.989 2.759 0 4.9889 2.2299 4.9889 4.989v12.4724c0 2.7591-2.2299 4.989-4.9889 4.989-2.7591 0-4.989-2.2299-4.989-4.989V30.2363z" fill="#E01E5A"/><path d="M17.7639 10.2048c-2.7591 0-4.989-2.22996-4.989-4.98902 0-2.75905 2.2299-4.988973 4.989-4.988973 2.759 0 4.9889 2.229923 4.9889 4.988973v4.98902h-4.9889zm0 2.5322c2.759 0 4.9889 2.23 4.9889 4.989 0 2.7591-2.2299 4.989-4.9889 4.989H5.25362c-2.75905 0-4.988972-2.2299-4.988972-4.989 0-2.759 2.229922-4.989 4.988972-4.989H17.7639z" fill="#36C5F0"/><path d="M37.7576 17.726c0-2.759 2.2299-4.989 4.989-4.989 2.759 0 4.989 2.23 4.989 4.989 0 2.7591-2.23 4.989-4.989 4.989h-4.989v-4.989zm-2.4945 0c0 2.7591-2.2299 4.989-4.989 4.989-2.759 0-4.9889-2.2299-4.9889-4.989V5.21578c0-2.75905 2.2299-4.988973 4.9889-4.988973 2.7591 0 4.989 2.229923 4.989 4.988973V17.726z" fill="#2EB67D"/><path d="M30.2741 37.7198c2.7591 0 4.989 2.2299 4.989 4.9889 0 2.7591-2.2299 4.989-4.989 4.989-2.759 0-4.9889-2.2299-4.9889-4.989v-4.9889h4.9889zm0-2.4945c-2.759 0-4.9889-2.23-4.9889-4.989 0-2.7591 2.2299-4.989 4.9889-4.989h12.5103c2.759 0 4.9889 2.2299 4.9889 4.989 0 2.759-2.2299 4.989-4.9889 4.989H30.2741z" fill="#ECB22E"/></g><defs><clipPath id="clip0_868_4201"><path fill="#fff" d="M0 0h48v48H0z"/></clipPath></defs></svg>