<svg width="48" height="48" viewBox="0 0 48 48" fill="none" xmlns="http://www.w3.org/2000/svg">
<g clip-path="url(#clip0_10263_283397)">
<path d="M46.5938 33.1569C43.7402 33.1569 41.0603 32.056 39.0469 30.0569C37.0342 28.0588 35.926 25.3976 35.926 22.5635C35.926 21.7867 35.2961 21.1572 34.5198 21.1572C33.743 21.1572 33.1135 21.7867 33.1135 22.5635C33.1135 25.3976 32.005 28.0588 29.9923 30.0569C27.9789 32.056 25.299 33.1569 22.4454 33.1569C21.6687 33.1569 21.0392 33.7864 21.0392 34.5631C21.0392 35.3398 21.6687 35.9694 22.4454 35.9694C28.3275 35.9694 33.1135 40.7356 33.1135 46.5939C33.1135 47.3706 33.743 48.0001 34.5198 48.0001C35.2961 48.0001 35.926 47.3706 35.926 46.5939C35.926 40.7356 40.7117 35.9694 46.5938 35.9694C47.3705 35.9694 48 35.3398 48 34.5631C48 33.7864 47.3705 33.1569 46.5938 33.1569Z" fill="white"/>
<path d="M19.2407 22.1611C15.0992 22.1611 11.7297 18.8165 11.7297 14.7051C11.7297 13.9287 11.1002 13.2988 10.3235 13.2988C9.54675 13.2988 8.91724 13.9287 8.91724 14.7051C8.91724 18.8165 5.54773 22.1611 1.40625 22.1611C0.629517 22.1611 0 22.791 0 23.5674C0 24.3441 0.629517 24.9736 1.40625 24.9736C5.54773 24.9736 8.91724 28.3289 8.91724 32.4528C8.91724 33.2291 9.54675 33.859 10.3235 33.859C11.1002 33.859 11.7297 33.2291 11.7297 32.4528C11.7297 28.3289 15.0992 24.9736 19.2407 24.9736C20.0175 24.9736 20.647 24.3441 20.647 23.5674C20.647 22.791 20.0175 22.1611 19.2407 22.1611Z" fill="white"/>
<path d="M21.5284 9.71777C24.5742 9.71777 27.0524 12.1769 27.0524 15.1992C27.0524 15.9756 27.6819 16.6055 28.4586 16.6055C29.2354 16.6055 29.8649 15.9756 29.8649 15.1992C29.8649 12.167 32.343 9.7002 35.3888 9.7002C36.1655 9.7002 36.795 9.07031 36.795 8.29395C36.795 7.51721 36.1655 6.8877 35.3888 6.8877C32.343 6.8877 29.8649 4.42859 29.8649 1.40625C29.8649 0.629517 29.2354 0 28.4586 0C27.6819 0 27.0524 0.629517 27.0524 1.40625C27.0524 4.43848 24.5742 6.90527 21.5284 6.90527C20.7517 6.90527 20.1222 7.53479 20.1222 8.31152C20.1222 9.08826 20.7517 9.71777 21.5284 9.71777Z" fill="white"/>
</g>
<defs>
<clipPath id="clip0_10263_283397">
<rect width="48" height="48" fill="white"/>
</clipPath>
</defs>
</svg>
