<svg width="48" height="48" viewBox="0 0 48 48" fill="none" xmlns="http://www.w3.org/2000/svg">
<path d="M23.9999 44.6251C23.2896 44.6251 22.6405 44.2239 22.3228 43.5886L19.6093 38.1615C19.2896 37.5222 18.647 37.125 17.9323 37.125H7.82061C6.12766 37.125 4.44522 36.5872 3.0833 35.6105C1.64404 34.5784 0.627786 33.0984 0.221753 31.4432C-0.0471237 30.3473 -0.0715926 29.2332 0.148909 28.1318C0.148909 28.1318 3.90024 9.37532 3.9009 9.37195C4.61612 5.89699 7.7068 3.37482 11.2498 3.37482H36.75C40.2931 3.37482 43.3838 5.89699 44.099 9.37195C44.0996 9.37532 47.851 28.1323 47.851 28.1323C48.0716 29.2337 48.047 30.3474 47.7781 31.4432C47.3721 33.0983 46.3558 34.5783 44.9167 35.6104C43.5548 36.5871 41.8722 37.1249 40.1793 37.1249H30.0676C29.3528 37.1249 28.7102 37.522 28.3905 38.1613L25.677 43.5885C25.3594 44.2239 24.7101 44.6251 23.9999 44.6251ZM7.57489 10.1234L3.82599 28.8677C3.71255 29.4341 3.72493 29.9841 3.86368 30.5496C4.26531 32.1867 5.92947 33.375 7.82061 33.375H17.9323C20.0767 33.375 22.0045 34.5665 22.9635 36.4844L24 38.5573L25.0365 36.4843C25.9955 34.5664 27.9233 33.3749 30.0677 33.3749H40.1793C42.0704 33.3749 43.7346 32.1867 44.1362 30.5496C44.2749 29.984 44.2872 29.434 44.174 28.868C44.1739 28.8679 44.1739 28.8678 44.1739 28.8677L40.4252 10.1241C40.0656 8.38597 38.5206 7.12493 36.7501 7.12493H11.2499C9.47953 7.12484 7.9347 8.38569 7.57489 10.1234Z" fill="white"/>
<path d="M31.5001 18.3749H16.5C15.4644 18.3749 14.625 17.5355 14.625 16.4999C14.625 15.4644 15.4644 14.6249 16.5 14.6249H31.5001C32.5357 14.6249 33.3751 15.4644 33.3751 16.4999C33.3751 17.5355 32.5357 18.3749 31.5001 18.3749Z" fill="white"/>
<path d="M31.5001 25.8751H16.5C15.4644 25.8751 14.625 25.0356 14.625 24C14.625 22.9645 15.4644 22.125 16.5 22.125H31.5001C32.5357 22.125 33.3751 22.9645 33.3751 24C33.3751 25.0355 32.5357 25.8751 31.5001 25.8751Z" fill="white"/>
</svg>
