<svg width="48" height="48" viewBox="0 0 48 48" fill="none" xmlns="http://www.w3.org/2000/svg">
<g clip-path="url(#clip0_403_1986)">
<path d="M36.4662 46.829C36.1484 46.829 35.8284 46.7909 35.5122 46.7136C32.0686 45.8704 26.3114 42.6333 24.0605 41.3201C21.7912 42.5384 16.0376 45.5359 12.7862 46.4095C11.6163 46.7239 10.3841 46.4965 9.40526 45.786C8.42169 45.0723 7.82072 43.9648 7.75641 42.7477C7.5688 39.1926 8.75433 32.9807 9.27663 30.4571C7.33048 28.7499 2.60658 24.4826 0.685838 21.6555C-0.769227 19.5956 0.19916 16.5403 2.57067 15.6866C5.85207 14.4361 12.1545 13.608 14.6292 13.3181C15.7699 11.1018 18.7566 5.46235 21.0137 2.65769C21.7729 1.71434 22.9029 1.17235 24.1143 1.17066C25.3288 1.16897 26.4642 1.70993 27.2289 2.65479C29.4644 5.41726 32.429 11.0864 33.5625 13.3193C36.0328 13.6114 42.2797 14.4495 45.5177 15.7838C46.6322 16.2431 47.4731 17.1675 47.825 18.32C48.1747 19.466 47.9952 20.6941 47.3325 21.6896C45.4883 24.4601 40.856 28.7606 38.9761 30.4583C39.45 33.0277 40.5831 39.5954 40.4536 42.9898C40.4206 45.0746 38.5384 46.8698 36.4662 46.829ZM24.1002 37.2893C24.4371 37.2893 24.7734 37.3798 25.0714 37.5603C27.1822 38.8381 33.3327 42.3189 36.404 43.0708C36.478 43.0889 36.5475 43.0744 36.6099 43.0273C36.6708 42.9814 36.7031 42.9205 36.7059 42.8466C36.849 39.0948 35.1141 30.2164 35.0966 30.1271C34.9677 29.4716 35.1974 28.7969 35.6996 28.3562C37.4996 26.776 42.5377 22.1244 44.2106 19.6112C44.2254 19.5889 44.2706 19.5212 44.238 19.4145C44.2216 19.3611 44.1825 19.2894 44.0886 19.2507C40.5863 17.8074 32.2364 16.9434 32.1525 16.9348C31.5096 16.8692 30.9456 16.4772 30.6602 15.8974C30.6219 15.8198 26.8104 8.09881 24.3136 5.01355C24.2635 4.95177 24.1982 4.92045 24.1194 4.92055C24.044 4.92064 23.9821 4.95027 23.9352 5.00849C21.3993 8.15975 17.5579 15.8301 17.5193 15.9071C17.2325 16.4815 16.6717 16.8692 16.033 16.9348C15.9481 16.9435 7.49793 17.8219 3.90592 19.1907C3.83251 19.2186 3.7832 19.2711 3.75948 19.3469C3.73669 19.4192 3.74616 19.4868 3.7877 19.5478C5.89932 22.656 12.4905 28.2811 12.5568 28.3375C13.0866 28.7885 13.3233 29.4961 13.1714 30.1751C13.1526 30.2591 11.294 38.6221 11.5013 42.5498C11.5059 42.6351 11.5417 42.7027 11.6078 42.7508C11.7006 42.818 11.7853 42.7953 11.8132 42.7878C15.3984 41.8245 23.1148 37.5667 23.1924 37.5239C23.4751 37.3673 23.7879 37.2893 24.1002 37.2893Z" fill="white"/>
</g>
<defs>
<clipPath id="clip0_403_1986">
<rect width="48" height="48" fill="white"/>
</clipPath>
</defs>
</svg>
