<svg width="48" height="48" viewBox="0 0 48 48" fill="none" xmlns="http://www.w3.org/2000/svg">
<path d="M33.375 12.75C33.375 13.7856 34.2144 14.625 35.25 14.625H39C42.1016 14.625 44.625 12.1016 44.625 9V5.625C44.625 2.52338 42.1016 0 39 0H9C5.89838 0 3.375 2.52338 3.375 5.625V42.375C3.375 45.4766 5.89838 48 9 48H39C42.1016 48 44.625 45.4766 44.625 42.375V39C44.625 35.8984 42.1016 33.375 39 33.375H37.125V20.25C37.125 19.2144 36.2856 18.375 35.25 18.375C34.2144 18.375 33.375 19.2144 33.375 20.25V42.375C33.375 43.0323 33.4894 43.6631 33.6975 44.25H9C7.96613 44.25 7.125 43.4089 7.125 42.375V5.625C7.125 4.59113 7.96613 3.75 9 3.75H33.6975C33.4894 4.33688 33.375 4.96772 33.375 5.625V12.75ZM37.125 42.375V37.125H39C40.0339 37.125 40.875 37.9661 40.875 39V42.375C40.875 43.4089 40.0339 44.25 39 44.25C37.9661 44.25 37.125 43.4089 37.125 42.375ZM40.875 5.625V9C40.875 10.0339 40.0339 10.875 39 10.875H37.125V5.625C37.125 4.59113 37.9661 3.75 39 3.75C40.0339 3.75 40.875 4.59113 40.875 5.625Z" fill="white"/>
<path d="M27.75 14.625H12.75C11.7144 14.625 10.875 13.7856 10.875 12.75C10.875 11.7144 11.7144 10.875 12.75 10.875H27.75C28.7856 10.875 29.625 11.7144 29.625 12.75C29.625 13.7856 28.7856 14.625 27.75 14.625Z" fill="white"/>
<path d="M27.75 22.125H12.75C11.7144 22.125 10.875 21.2856 10.875 20.25C10.875 19.2144 11.7144 18.375 12.75 18.375H27.75C28.7856 18.375 29.625 19.2144 29.625 20.25C29.625 21.2856 28.7856 22.125 27.75 22.125Z" fill="white"/>
<path d="M27.75 29.625H12.75C11.7144 29.625 10.875 28.7856 10.875 27.75C10.875 26.7144 11.7144 25.875 12.75 25.875H27.75C28.7856 25.875 29.625 26.7144 29.625 27.75C29.625 28.7856 28.7856 29.625 27.75 29.625Z" fill="white"/>
<path d="M27.75 37.125H12.75C11.7144 37.125 10.875 36.2856 10.875 35.25C10.875 34.2144 11.7144 33.375 12.75 33.375H27.75C28.7856 33.375 29.625 34.2144 29.625 35.25C29.625 36.2856 28.7856 37.125 27.75 37.125Z" fill="white"/>
</svg>
