<svg width="48" height="48" viewBox="0 0 48 48" fill="none" xmlns="http://www.w3.org/2000/svg">
<path fill-rule="evenodd" clip-rule="evenodd" d="M33 9.8H15C12.1281 9.8 9.8 12.1281 9.8 15V33C9.8 35.8719 12.1281 38.2 15 38.2H33C35.8719 38.2 38.2 35.8719 38.2 33V15C38.2 12.1281 35.8719 9.8 33 9.8ZM15 6C10.0294 6 6 10.0294 6 15V33C6 37.9706 10.0294 42 15 42H33C37.9706 42 42 37.9706 42 33V15C42 10.0294 37.9706 6 33 6H15Z" fill="white"/>
<path fill-rule="evenodd" clip-rule="evenodd" d="M26.225 42V6.375H30.025V42H26.225Z" fill="white"/>
</svg>
