<svg width="48" height="48" viewBox="0 0 48 48" fill="none" xmlns="http://www.w3.org/2000/svg">
<g clip-path="url(#clip0_10263_283324)">
<path d="M24 19.3687C28.5046 19.3687 32.1562 15.717 32.1562 11.2124C32.1562 6.70783 28.5046 3.05615 24 3.05615C19.4954 3.05615 15.8438 6.70783 15.8438 11.2124C15.8438 15.717 19.4954 19.3687 24 19.3687Z" fill="white"/>
<path d="M40.5 19.3687C43.3477 19.3687 45.6562 17.0601 45.6562 14.2124C45.6562 11.3647 43.3477 9.05615 40.5 9.05615C37.6523 9.05615 35.3438 11.3647 35.3438 14.2124C35.3438 17.0601 37.6523 19.3687 40.5 19.3687Z" fill="white"/>
<path d="M7.5 19.3687C10.3477 19.3687 12.6562 17.0601 12.6562 14.2124C12.6562 11.3647 10.3477 9.05615 7.5 9.05615C4.65228 9.05615 2.34375 11.3647 2.34375 14.2124C2.34375 17.0601 4.65228 19.3687 7.5 19.3687Z" fill="white"/>
<path d="M12.5803 24.0003C10.5506 22.3374 8.71247 22.5575 6.36563 22.5575C2.85563 22.5575 0 25.3962 0 28.8847V39.1231C0 40.6381 1.23656 41.87 2.75719 41.87C9.32213 41.87 8.53125 41.9888 8.53125 41.5869C8.53125 34.3319 7.67194 29.0115 12.5803 24.0003V24.0003Z" fill="white"/>
<path d="M26.2317 22.5965C22.1326 22.2546 18.5696 22.6004 15.4964 25.1371C10.3536 29.2565 11.3433 34.803 11.3433 41.5883C11.3433 43.3836 12.8039 44.8715 14.6264 44.8715C34.4154 44.8715 35.2029 45.5098 36.3764 42.9112C36.7613 42.0323 36.6558 42.3116 36.6558 33.9046C36.6558 27.2272 30.8739 22.5965 26.2317 22.5965V22.5965Z" fill="white"/>
<path d="M41.6339 22.5573C39.2742 22.5573 37.4462 22.3394 35.4192 24.0001C40.2909 28.9741 39.4683 33.9315 39.4683 41.5866C39.4683 41.9911 38.8117 41.8698 45.1439 41.8698C46.7189 41.8698 47.9995 40.5938 47.9995 39.0254V28.8845C47.9995 25.396 45.1439 22.5573 41.6339 22.5573Z" fill="white"/>
</g>
<defs>
<clipPath id="clip0_10263_283324">
<rect width="48" height="48" fill="white" transform="translate(0 0.000976562)"/>
</clipPath>
</defs>
</svg>
