<svg width="48" height="48" viewBox="0 0 48 48" fill="none" xmlns="http://www.w3.org/2000/svg">
<g clip-path="url(#clip0_1770_3965)">
<path d="M11.9999 45.5L5.99989 45.5C5.07198 45.4989 4.1824 45.1298 3.52627 44.4736C2.87013 43.8175 2.50102 42.9279 2.4999 42L2.4999 20C2.50103 19.0721 2.87014 18.1825 3.52627 17.5264C4.1824 16.8702 5.07199 16.5011 5.9999 16.5L11.9999 16.5C12.9278 16.5011 13.8174 16.8703 14.4735 17.5264C15.1297 18.1825 15.4988 19.0721 15.4999 20L15.4999 42C15.4988 42.9279 15.1297 43.8175 14.4735 44.4736C13.8174 45.1298 12.9278 45.4989 11.9999 45.5ZM5.9999 19.5C5.86737 19.5003 5.74034 19.553 5.64663 19.6467C5.55291 19.7405 5.50015 19.8675 5.4999 20L5.4999 42C5.50015 42.1325 5.55291 42.2596 5.64662 42.3533C5.74034 42.447 5.86736 42.4998 5.9999 42.5L11.9999 42.5C12.1324 42.4998 12.2595 42.447 12.3532 42.3533C12.4469 42.2596 12.4996 42.1325 12.4999 42L12.4999 20C12.4996 19.8675 12.4469 19.7405 12.3532 19.6467C12.2595 19.553 12.1324 19.5003 11.9999 19.5L5.9999 19.5Z" fill="white"/>
<path fill-rule="evenodd" clip-rule="evenodd" d="M5.99947 45.85C4.97888 45.8488 4.00045 45.4428 3.27878 44.7211C2.55711 43.9995 2.15114 43.021 2.1499 42.0004L2.1499 42.0002L2.1499 19.9998L2.1499 19.9996C2.15114 18.979 2.55712 18.0006 3.27878 17.2789C4.00045 16.5572 4.97888 16.1513 5.99947 16.15L5.99969 16.15L12.0001 16.15L12.0003 16.15C13.0209 16.1513 13.9993 16.5572 14.721 17.2789C15.4427 18.0006 15.8487 18.979 15.8499 19.9996L15.8499 19.9998L15.8499 42.0002L15.8499 42.0004C15.8487 43.021 15.4427 43.9995 14.721 44.7211C13.9993 45.4428 13.0209 45.8488 12.0003 45.85L5.99947 45.85ZM15.4999 42C15.4988 42.9279 15.1297 43.8175 14.4735 44.4736C13.8174 45.1298 12.9278 45.4989 11.9999 45.5L5.99989 45.5C5.07198 45.4989 4.1824 45.1298 3.52627 44.4736C2.87013 43.8175 2.50102 42.9279 2.4999 42L2.4999 20C2.50103 19.0721 2.87014 18.1825 3.52627 17.5264C4.1824 16.8702 5.07199 16.5011 5.9999 16.5L11.9999 16.5C12.9278 16.5011 13.8174 16.8703 14.4735 17.5264C15.1297 18.1825 15.4988 19.0721 15.4999 20L15.4999 42ZM6.00033 19.85C5.96048 19.8502 5.9223 19.866 5.89411 19.8942C5.86593 19.9224 5.85004 19.9606 5.8499 20.0004L5.8499 41.9996C5.85003 42.0394 5.86592 42.0776 5.89411 42.1058C5.92224 42.1339 5.96032 42.1498 6.00008 42.15C6.00024 42.15 6.0004 42.15 6.00057 42.15L11.9992 42.15C11.9994 42.15 11.9995 42.15 11.9997 42.15C12.0395 42.1498 12.0776 42.1339 12.1057 42.1058C12.1339 42.0776 12.1497 42.0395 12.1499 41.9996C12.1499 41.9995 12.1499 41.9994 12.1499 41.9993L12.1499 20.0007C12.1499 20.0006 12.1499 20.0005 12.1499 20.0004C12.1497 19.9606 12.1339 19.9224 12.1057 19.8942C12.0775 19.866 12.0393 19.8502 11.9995 19.85L6.00033 19.85ZM5.9999 19.5C5.86737 19.5003 5.74034 19.553 5.64663 19.6467C5.55291 19.7405 5.50015 19.8675 5.4999 20L5.4999 42C5.50015 42.1325 5.55291 42.2596 5.64662 42.3533C5.74034 42.447 5.86736 42.4998 5.9999 42.5L11.9999 42.5C12.1324 42.4998 12.2595 42.447 12.3532 42.3533C12.4469 42.2596 12.4996 42.1325 12.4999 42L12.4999 20C12.4996 19.8675 12.4469 19.7405 12.3532 19.6467C12.2595 19.553 12.1324 19.5003 11.9999 19.5L5.9999 19.5Z" fill="white"/>
<path d="M34.9442 43.5002L13.9999 43.5002C13.6021 43.5001 13.2206 43.342 12.9393 43.0607C12.658 42.7794 12.5 42.398 12.4999 42.0002L12.4999 20.0002C12.4999 19.7576 12.5587 19.5187 12.6713 19.3039C12.7839 19.0891 12.9469 18.9048 13.1463 18.7668C15.345 17.2512 17.2489 15.3473 18.7645 13.1486C20.1312 11.1655 21.1625 8.97121 21.8172 6.6535C22.2001 5.27412 23.0907 4.0907 24.3102 3.34098C25.5296 2.59125 26.9876 2.33076 28.3913 2.61184C29.7949 2.89291 31.0402 3.69473 31.877 4.85621C32.7138 6.0177 33.08 7.4528 32.9022 8.87322L31.6991 18.5002L41.3817 18.5002C41.9199 18.5003 42.4509 18.6245 42.9332 18.8632C43.4156 19.1018 43.8365 19.4486 44.1631 19.8763C44.4897 20.3041 44.7133 20.8015 44.8164 21.3297C44.9195 21.8579 44.8994 22.4029 44.7577 22.9221L40.2509 39.4474C39.9316 40.6106 39.2397 41.6369 38.2811 42.3689C37.3226 43.101 36.1503 43.4984 34.9442 43.5002ZM15.4999 40.5002L34.9442 40.5002C35.4923 40.4992 36.025 40.3185 36.4607 39.9858C36.8963 39.6532 37.2109 39.1869 37.3563 38.6584L41.8631 22.132C41.8837 22.0579 41.8868 21.98 41.8723 21.9045C41.8577 21.8289 41.8259 21.7578 41.7793 21.6966C41.7326 21.6354 41.6725 21.5858 41.6035 21.5518C41.5345 21.5177 41.4586 21.5 41.3817 21.5002L29.9999 21.5002C29.7871 21.5004 29.5767 21.4553 29.3827 21.3679C29.1887 21.2804 29.0155 21.1527 28.8747 20.9932C28.7339 20.8336 28.6287 20.6459 28.5661 20.4425C28.5035 20.2392 28.4849 20.0248 28.5116 19.8137L29.9256 8.50018C29.9724 8.12468 29.9388 7.74352 29.8271 7.38197C29.7154 7.02042 29.5282 6.68674 29.2777 6.40306C29.0273 6.11939 28.7194 5.89218 28.3745 5.73652C28.0296 5.58086 27.6556 5.5003 27.2771 5.50018C26.6909 5.50052 26.1211 5.69405 25.656 6.05082C25.1908 6.40759 24.8562 6.90772 24.7039 7.47382C23.9587 10.1064 22.7865 12.5988 21.2342 14.8518C19.6644 17.1296 17.7265 19.1303 15.4998 20.7718L15.4999 40.5002Z" fill="white"/>
<path fill-rule="evenodd" clip-rule="evenodd" d="M13.9998 43.8502C13.5092 43.85 13.0387 43.6551 12.6918 43.3082C12.3449 42.9613 12.15 42.4909 12.1499 42.0003L12.1499 20.0001C12.1499 19.701 12.2225 19.4064 12.3613 19.1414C12.5002 18.8765 12.7012 18.6492 12.9471 18.479L12.9477 18.4786C15.1114 16.9872 16.9849 15.1137 18.4763 12.95C19.8211 10.9987 20.8359 8.83958 21.4802 6.55905C21.8868 5.09485 22.8323 3.83869 24.1268 3.04282C25.4216 2.24679 26.9697 1.97022 28.46 2.26865C29.9503 2.56708 31.2725 3.41842 32.161 4.65162C33.0494 5.88483 33.4383 7.40856 33.2495 8.9167L32.0955 18.1502L41.3818 18.1502C41.9738 18.1503 42.5578 18.2869 43.0885 18.5495C43.6191 18.812 44.082 19.1934 44.4413 19.6639C44.8006 20.1345 45.0465 20.6816 45.1599 21.2626C45.2733 21.8437 45.2512 22.443 45.0954 23.0142C45.0954 23.0142 45.0954 23.0142 45.0953 23.0142L40.5885 39.5395L40.5885 39.5398L40.5884 39.5401C40.2489 40.7771 39.513 41.8685 38.4936 42.6471C37.4741 43.4256 36.2274 43.8483 34.9447 43.8502L13.9998 43.8502ZM44.7577 22.9221C44.8994 22.4029 44.9195 21.8579 44.8164 21.3297C44.7133 20.8015 44.4897 20.3041 44.1631 19.8763C43.8365 19.4486 43.4156 19.1018 42.9332 18.8632C42.4509 18.6245 41.9199 18.5003 41.3817 18.5002L31.6991 18.5002L32.9022 8.87322C33.08 7.4528 32.7138 6.0177 31.877 4.85621C31.0402 3.69473 29.7949 2.89291 28.3913 2.61184C26.9876 2.33076 25.5296 2.59125 24.3102 3.34098C23.0907 4.0907 22.2001 5.27412 21.8172 6.6535C21.1625 8.97121 20.1312 11.1655 18.7645 13.1486C17.2489 15.3473 15.345 17.2512 13.1463 18.7668C12.9469 18.9048 12.7839 19.0891 12.6713 19.3039C12.5587 19.5187 12.4999 19.7576 12.4999 20.0002L12.4999 42.0002C12.5 42.398 12.658 42.7794 12.9393 43.0607C13.2206 43.342 13.6021 43.5001 13.9999 43.5002L34.9442 43.5002C36.1503 43.4984 37.3226 43.101 38.2811 42.3689C39.2397 41.6369 39.9316 40.6106 40.2509 39.4474L44.7577 22.9221ZM41.3817 21.5002L29.9999 21.5002C29.7871 21.5004 29.5767 21.4553 29.3827 21.3679C29.1887 21.2804 29.0155 21.1527 28.8747 20.9932C28.7339 20.8336 28.6287 20.6459 28.5661 20.4425C28.5035 20.2392 28.4849 20.0248 28.5116 19.8137L29.9256 8.50018C29.9724 8.12468 29.9388 7.74352 29.8271 7.38197C29.7154 7.02042 29.5282 6.68674 29.2777 6.40306C29.0273 6.11939 28.7194 5.89218 28.3745 5.73652C28.0296 5.58086 27.6556 5.5003 27.2771 5.50018C26.6909 5.50052 26.1211 5.69405 25.656 6.05082C25.1908 6.40759 24.8562 6.90772 24.7039 7.47382C23.9587 10.1064 22.7865 12.5988 21.2342 14.8518C19.6644 17.1296 17.7265 19.1303 15.4998 20.7718L15.4999 40.5002L34.9442 40.5002C35.4923 40.4992 36.025 40.3185 36.4607 39.9858C36.8963 39.6532 37.2109 39.1869 37.3563 38.6584L41.8631 22.132C41.8837 22.0579 41.8868 21.98 41.8723 21.9045C41.8577 21.8289 41.8259 21.7578 41.7793 21.6966C41.7326 21.6354 41.6725 21.5858 41.6035 21.5518C41.5345 21.5177 41.4586 21.5 41.3817 21.5002ZM37.0188 38.5658C36.8937 39.0204 36.623 39.4215 36.2483 39.7077C35.8735 39.9939 35.4151 40.1493 34.9436 40.1502L15.8499 40.1502L15.8498 20.9479C18.0481 19.3034 19.9641 17.3116 21.5224 15.0504L21.5224 15.0504C23.0965 12.7659 24.285 10.2386 25.0407 7.56915L25.0413 7.56695L25.0419 7.56475C25.1742 7.07296 25.4649 6.63848 25.869 6.32854C26.2731 6.01863 26.768 5.8505 27.2772 5.85018C27.606 5.85031 27.9309 5.92031 28.2305 6.05554C28.5302 6.19079 28.7978 6.38821 29.0154 6.6347C29.233 6.88119 29.3957 7.17112 29.4927 7.48527C29.5898 7.79943 29.6189 8.13062 29.5783 8.45689L28.1643 19.7698C28.1643 19.7699 28.1643 19.77 28.1643 19.7701C28.1314 20.0304 28.1544 20.2947 28.2316 20.5455C28.3088 20.7964 28.4386 21.0279 28.6123 21.2247C28.7859 21.4216 28.9996 21.5791 29.2389 21.687C29.4782 21.7948 29.7377 21.8504 30.0002 21.8502L41.3824 21.8502C41.4053 21.8501 41.4279 21.8554 41.4485 21.8656C41.4691 21.8757 41.487 21.8905 41.5009 21.9087C41.5148 21.927 41.5243 21.9482 41.5286 21.9707C41.5329 21.9932 41.532 22.0164 41.5259 22.0385L37.0188 38.5656C37.0188 38.5657 37.0188 38.5658 37.0188 38.5658Z" fill="white"/>
</g>
<defs>
<clipPath id="clip0_1770_3965">
<rect width="48" height="48" fill="white"/>
</clipPath>
</defs>
</svg>
