<svg width="48" height="48" viewBox="0 0 48 48" fill="none" xmlns="http://www.w3.org/2000/svg">
<path fill-rule="evenodd" clip-rule="evenodd" d="M7.38997 5.85989C6.54507 5.85989 5.86014 6.54482 5.86014 7.38972C5.86014 8.23463 6.54507 8.91955 7.38997 8.91955C8.23487 8.91955 8.9198 8.23463 8.9198 7.38972C8.9198 6.54482 8.23487 5.85989 7.38997 5.85989ZM2.14014 7.38972C2.14014 4.49032 4.49057 2.13989 7.38997 2.13989C10.2894 2.13989 12.6398 4.49032 12.6398 7.38972C12.6398 10.2891 10.2894 12.6396 7.38997 12.6396C4.49057 12.6396 2.14014 10.2891 2.14014 7.38972Z" fill="white"/>
<path fill-rule="evenodd" clip-rule="evenodd" d="M7.38997 22.4701C6.54507 22.4701 5.86014 23.155 5.86014 23.9999C5.86014 24.8448 6.54507 25.5297 7.38997 25.5297C8.23487 25.5297 8.9198 24.8448 8.9198 23.9999C8.9198 23.155 8.23487 22.4701 7.38997 22.4701ZM2.14014 23.9999C2.14014 21.1005 4.49057 18.7501 7.38997 18.7501C10.2894 18.7501 12.6398 21.1005 12.6398 23.9999C12.6398 26.8993 10.2894 29.2497 7.38997 29.2497C4.49057 29.2497 2.14014 26.8993 2.14014 23.9999Z" fill="white"/>
<path fill-rule="evenodd" clip-rule="evenodd" d="M7.38997 39.0802C6.54507 39.0802 5.86014 39.7652 5.86014 40.6101C5.86014 41.455 6.54507 42.1399 7.38997 42.1399C8.23487 42.1399 8.9198 41.455 8.9198 40.6101C8.9198 39.7652 8.23487 39.0802 7.38997 39.0802ZM2.14014 40.6101C2.14014 37.7107 4.49057 35.3602 7.38997 35.3602C10.2894 35.3602 12.6398 37.7107 12.6398 40.6101C12.6398 43.5095 10.2894 45.8599 7.38997 45.8599C4.49057 45.8599 2.14014 43.5095 2.14014 40.6101Z" fill="white"/>
<path fill-rule="evenodd" clip-rule="evenodd" d="M20.9493 5.85989C20.1044 5.85989 19.4195 6.54485 19.4195 7.38972C19.4195 8.23459 20.1044 8.91955 20.9493 8.91955H40.6103C41.4552 8.91955 42.1401 8.23459 42.1401 7.38972C42.1401 6.54485 41.4552 5.85989 40.6103 5.85989H20.9493ZM15.6995 7.38972C15.6995 4.49036 18.0499 2.13989 20.9493 2.13989H40.6103C43.5097 2.13989 45.8601 4.49036 45.8601 7.38972C45.8601 10.2891 43.5097 12.6396 40.6103 12.6396H20.9493C18.0499 12.6396 15.6995 10.2891 15.6995 7.38972Z" fill="white"/>
<path fill-rule="evenodd" clip-rule="evenodd" d="M20.9493 22.4701C20.1044 22.4701 19.4195 23.155 19.4195 23.9999C19.4195 24.8448 20.1044 25.5297 20.9493 25.5297H40.6103C41.4552 25.5297 42.1401 24.8448 42.1401 23.9999C42.1401 23.155 41.4552 22.4701 40.6103 22.4701H20.9493ZM15.6995 23.9999C15.6995 21.1005 18.0499 18.7501 20.9493 18.7501H40.6103C43.5097 18.7501 45.8601 21.1005 45.8601 23.9999C45.8601 26.8993 43.5097 29.2497 40.6103 29.2497H20.9493C18.0499 29.2497 15.6995 26.8993 15.6995 23.9999Z" fill="white"/>
<path fill-rule="evenodd" clip-rule="evenodd" d="M20.9493 39.0802C20.1044 39.0802 19.4195 39.7652 19.4195 40.6101C19.4195 41.4549 20.1044 42.1399 20.9493 42.1399H40.6103C41.4552 42.1399 42.1401 41.4549 42.1401 40.6101C42.1401 39.7652 41.4552 39.0802 40.6103 39.0802H20.9493ZM15.6995 40.6101C15.6995 37.7107 18.0499 35.3602 20.9493 35.3602H40.6103C43.5097 35.3602 45.8601 37.7107 45.8601 40.6101C45.8601 43.5094 43.5097 45.8599 40.6103 45.8599H20.9493C18.0499 45.8599 15.6995 43.5094 15.6995 40.6101Z" fill="white"/>
</svg>
