<svg width="48" height="48" viewBox="0 0 48 48" fill="none" xmlns="http://www.w3.org/2000/svg">
<g clip-path="url(#clip0_1112_3811)">
<path d="M20 18H10C8.8 18 8 17.2 8 16V6C8 4.8 8.8 4 10 4C11.2 4 12 4.8 12 6V14H20C21.2 14 22 14.8 22 16C22 17.2 21.2 18 20 18Z" fill="white"/>
<path d="M23.9999 42C21.7999 42 19.5999 41.6 17.5999 40.8C13.9999 39.4 10.9999 37 8.7999 33.8C8.1999 32.8 8.3999 31.6 9.3999 31C10.3999 30.4 11.5999 30.6 12.1999 31.6C13.7999 34 16.1999 36 18.9999 37C21.7999 38 24.7999 38.2 27.7999 37.4C30.5999 36.6 33.1999 34.8 34.9999 32.4C36.7999 30 37.7999 27.2 37.9999 24.2C37.9999 21.2 37.1999 18.2 35.3999 15.8C33.5999 13.4 31.1999 11.6 28.3999 10.6C25.5999 9.60002 22.5999 9.60002 19.5999 10.6C16.7999 11.6 14.3999 13.4 12.5999 15.8C11.9999 16.8 10.7999 17 9.7999 16.4C8.7999 15.8 8.5999 14.4 9.3999 13.6C11.5999 10.4 14.7999 8.00002 18.3999 6.80002C21.9999 5.60002 25.9999 5.60002 29.5999 6.80002C33.1999 8.00002 36.3999 10.4 38.5999 13.6C40.7999 16.8 41.9999 20.4 41.7999 24.4C41.7999 28.2 40.3999 32 37.9999 35C35.5999 38 32.3999 40.2 28.5999 41.4C27.3999 41.8 25.5999 42 23.9999 42Z" fill="white"/>
</g>
<defs>
<clipPath id="clip0_1112_3811">
<rect width="48" height="48" fill="white"/>
</clipPath>
</defs>
</svg>
