<svg width="48" height="48" viewBox="0 0 48 48" fill="none" xmlns="http://www.w3.org/2000/svg">
<path d="M23.9998 48L3.54346 36V12L23.9998 0L44.4562 12V36L23.9998 48ZM6.40252 34.3087L23.9596 44.6175L41.5166 34.3087V13.6913L23.9998 3.38255L6.40252 13.6913V34.3087Z" fill="url(#paint0_linear_2298_5928)"/>
<path d="M32.819 17.4768L25.6512 30.0808L27.9868 34.1882L37.4901 17.4768H32.819ZM24.8056 17.4768L17.6378 30.0808L19.9733 34.1882L29.4767 17.4768H24.8056ZM10.5103 17.4768L20.0136 34.1882L22.3492 30.0808L15.1814 17.4768H10.5103ZM10.5103 17.4768L20.0136 34.1882L22.3492 30.0808L15.1814 17.4768H10.5103ZM24.8056 17.4768L17.6378 30.0808L19.9733 34.1882L29.4767 17.4768H24.8056Z" fill="url(#paint1_linear_2298_5928)"/>
<defs>
<linearGradient id="paint0_linear_2298_5928" x1="3.45809" y1="35.8458" x2="44.5061" y2="12.1466" gradientUnits="userSpaceOnUse">
<stop stop-color="#10E7FF"/>
<stop offset="0.103" stop-color="#33D5FF"/>
<stop offset="0.255" stop-color="#60BDFF"/>
<stop offset="0.408" stop-color="#86AAFF"/>
<stop offset="0.56" stop-color="#A39AFF"/>
<stop offset="0.71" stop-color="#B790FF"/>
<stop offset="0.858" stop-color="#C489FF"/>
<stop offset="1" stop-color="#C887FF"/>
</linearGradient>
<linearGradient id="paint1_linear_2298_5928" x1="16.1776" y1="27.589" x2="36.5366" y2="15.8347" gradientUnits="userSpaceOnUse">
<stop stop-color="#10E7FF"/>
<stop offset="0.103" stop-color="#33D5FF"/>
<stop offset="0.255" stop-color="#60BDFF"/>
<stop offset="0.408" stop-color="#86AAFF"/>
<stop offset="0.56" stop-color="#A39AFF"/>
<stop offset="0.71" stop-color="#B790FF"/>
<stop offset="0.858" stop-color="#C489FF"/>
<stop offset="1" stop-color="#C887FF"/>
</linearGradient>
</defs>
</svg>
