<svg width="48" height="48" viewBox="0 0 48 48" fill="none" xmlns="http://www.w3.org/2000/svg">
<path d="M24 24.375C25.0355 24.375 25.875 23.5355 25.875 22.5C25.875 21.4645 25.0355 20.625 24 20.625C22.9645 20.625 22.125 21.4645 22.125 22.5C22.125 23.5355 22.9645 24.375 24 24.375Z" fill="white"/>
<path d="M41.8729 23.2328L28.7479 2.60784C27.7088 0.974906 25.9339 0 24 0C22.0661 0 20.2913 0.974906 19.2521 2.60784L6.12713 23.2327C5.55328 24.1344 5.25 25.1778 5.25 26.25C5.25 29.3516 7.77338 31.875 10.875 31.875H22.125V44.25H16.5C15.4644 44.25 14.625 45.0894 14.625 46.125C14.625 47.1606 15.4644 48 16.5 48H31.5C32.5356 48 33.375 47.1606 33.375 46.125C33.375 45.0894 32.5356 44.25 31.5 44.25H25.875V30C25.875 28.9644 25.0356 28.125 24 28.125H10.875C9.84113 28.125 9 27.2839 9 26.25C9 25.8923 9.10059 25.5451 9.29081 25.2461L22.4158 4.62113C22.763 4.07569 23.3552 3.75 24 3.75C24.6448 3.75 25.237 4.07569 25.5842 4.62113L38.7092 25.2462C38.8994 25.5451 39 25.8923 39 26.25C39 27.2839 38.1589 28.125 37.125 28.125H31.5C30.4644 28.125 29.625 28.9644 29.625 30C29.625 31.0356 30.4644 31.875 31.5 31.875H37.125C40.2266 31.875 42.75 29.3516 42.75 26.25C42.75 25.1778 42.4467 24.1344 41.8729 23.2328Z" fill="white"/>
<path d="M24 16.875C22.9644 16.875 22.125 16.0356 22.125 15V11.25C22.125 10.2144 22.9644 9.375 24 9.375C25.0356 9.375 25.875 10.2144 25.875 11.25V15C25.875 16.0356 25.0356 16.875 24 16.875Z" fill="white"/>
</svg>
