<svg width="49" height="48" viewBox="0 0 49 48" fill="none" xmlns="http://www.w3.org/2000/svg"><path fill-rule="evenodd" clip-rule="evenodd" d="M25.8368 17.2564c-.0966.0062-.1934.0092-.2902.0092-2.4799 0-4.4934-2.0143-4.4934-4.4952 0-2.4809 2.0135-4.49518 4.4934-4.49518S30.04 10.2895 30.04 12.7704c.0014 1.0314-.3534 2.0317-1.0043 2.8316l4.9668 9.134c1.2241-.4451 2.5164-.6728 3.8188-.6728C43.991 24.0632 49 29.0742 49 35.2464c0 6.1723-5.009 11.1832-11.1787 11.1832-2.1834-.0008-4.319-.6389-6.1452-1.836-.196-.1275-.3617-.2963-.4854-.4946-.1238-.1984-.2026-.4214-.231-.6535-.0284-.2321-.0057-.4676.0666-.6899.0723-.2223.1924-.4261.3519-.5971.0033-.0035.0068-.0072.0133-.0079.2681-.2875.6284-.4719 1.0183-.521.3899-.0492.7847.0398 1.1158.2517 1.2795.829 2.7713 1.2701 4.2957 1.2701 4.3612 0 7.9018-3.542 7.9018-7.905s-3.5406-7.905-7.9018-7.905c-1.5103 0-3.6537.661-4.9423 1.4791-.0664.0498-.1426.0848-.2237.1026a.578063.578063 0 01-.246.0002c-.0811-.0175-.1574-.0524-.2238-.1021-.0665-.0497-.1214-.1132-.1612-.186l-6.1875-11.3788zm-2.063 19.4311a11.182726 11.182726 0 01-1.327 3.6444c-3.0849 5.3456-9.9271 7.1798-15.27031 4.0937-5.3432-3.0861-7.176512-9.9313-4.09185-15.2769 1.09249-1.8912 2.71273-3.4224 4.66218-4.4061.20828-.106.43722-.165.67075-.173.23352-.008.46597.0352.681.1267.21514.0914.40767.2288.56407.4025.15639.1738.27285.3797.34116.6033.0013.0048.0027.0095 0 .0154.1149.376.0945.7804-.05789 1.1429-.15235.3624-.4269.66-.77589.8409-1.35747.6939-2.4853 1.7658-3.24752 3.0865-2.1805 3.7782-.88465 8.617 2.89222 10.7986 3.77688 2.1814 8.61378.8848 10.79428-2.8936.7551-1.3084 1.2546-3.4959 1.1908-5.0215-.0101-.0824-.0024-.166.0227-.2451s.067-.1519.1228-.2134.1241-.1102.2004-.1428c.0764-.0326.1588-.0484.2418-.0462l12.944.3287c.0428-.0864.0884-.1717.1373-.2561 1.2399-2.1485 3.9903-2.8859 6.1379-1.6455 2.1481 1.2407 2.8848 3.9922 1.6448 6.1407-1.2399 2.1485-3.9903 2.8857-6.1382 1.6452-.8935-.5145-1.582-1.3219-1.949-2.2857l-10.3905-.2636z" fill="#848484"/><path fill-rule="evenodd" clip-rule="evenodd" d="M18.3484 21.3457c-.9974-.838-1.8407-1.8439-2.492-2.9723-3.0849-5.3453-1.2516-12.19053 4.0917-15.27643 5.3432-3.0859 12.1856-1.25186 15.2703 4.09326 1.0909 1.89199 1.6065 4.06127 1.4835 6.24197-.0125.2335-.0758.4614-.1857.6677-.1098.2064-.2635.3862-.4502.5268-.1867.1406-.4019.2387-.6305.2873-.2286.0486-.465.0465-.6928-.0061-.0048-.0011-.0096-.0024-.0135-.0076-.383-.0885-.7228-.3084-.9603-.6216-.2376-.3132-.3579-.6998-.34-1.0925.0781-1.5232-.286-3.0364-1.0484-4.35708-2.1805-3.77816-7.0171-5.07476-10.794-2.89338-3.7767 2.1816-5.0729 7.02016-2.8922 10.79856.7551 1.3084 2.399 2.8351 3.7514 3.5424.0764.0325.1449.0811.2008.1424.0559.0613.098.134.1233.213a.57665.57665 0 01.0235.2451c-.0098.0824-.0373.1617-.0806.2326l-6.7568 11.0501c.0535.08.1046.1622.1535.2466 1.2397 2.1488.5028 4.9003-1.6451 6.1407-2.1476 1.2405-4.89798.5033-6.13794-1.6455-1.23996-2.1484-.50304-4.8999 1.64459-6.1404.89225-.5169 1.93545-.7096 2.95335-.5456l5.4241-8.87z" fill="#C73A63"/></svg>