<svg width="48" height="48" viewBox="0 0 48 48" fill="none" xmlns="http://www.w3.org/2000/svg">
<g clip-path="url(#clip0_1624_3911)">
<path d="M38.625 48H9.375C4.20563 48 0 43.7944 0 38.625V9.375C0 4.20563 4.20563 0 9.375 0H38.625C43.7944 0 48 4.20563 48 9.375V38.625C48 43.7944 43.7944 48 38.625 48ZM9.375 3.75C6.27338 3.75 3.75 6.27338 3.75 9.375V38.625C3.75 41.7266 6.27338 44.25 9.375 44.25H38.625C41.7266 44.25 44.25 41.7266 44.25 38.625V9.375C44.25 6.27338 41.7266 3.75 38.625 3.75H9.375Z" fill="white"/>
<path d="M13.125 18.75C10.0234 18.75 7.5 16.2266 7.5 13.125C7.5 10.0234 10.0234 7.5 13.125 7.5C16.2266 7.5 18.75 10.0234 18.75 13.125C18.75 16.2266 16.2266 18.75 13.125 18.75ZM13.125 11.25C12.0911 11.25 11.25 12.0911 11.25 13.125C11.25 14.1589 12.0911 15 13.125 15C14.1589 15 15 14.1589 15 13.125C15 12.0911 14.1589 11.25 13.125 11.25Z" fill="white"/>
<path d="M34.875 18.75C31.7734 18.75 29.25 16.2266 29.25 13.125C29.25 10.0234 31.7734 7.5 34.875 7.5C37.9766 7.5 40.5 10.0234 40.5 13.125C40.5 16.2266 37.9766 18.75 34.875 18.75ZM34.875 11.25C33.8411 11.25 33 12.0911 33 13.125C33 14.1589 33.8411 15 34.875 15C35.9089 15 36.75 14.1589 36.75 13.125C36.75 12.0911 35.9089 11.25 34.875 11.25Z" fill="white"/>
<path d="M13.125 40.5C10.0234 40.5 7.5 37.9766 7.5 34.875C7.5 31.7734 10.0234 29.25 13.125 29.25C16.2266 29.25 18.75 31.7734 18.75 34.875C18.75 37.9766 16.2266 40.5 13.125 40.5ZM13.125 33C12.0911 33 11.25 33.8411 11.25 34.875C11.25 35.9089 12.0911 36.75 13.125 36.75C14.1589 36.75 15 35.9089 15 34.875C15 33.8411 14.1589 33 13.125 33Z" fill="white"/>
<path d="M34.875 40.5C31.7734 40.5 29.25 37.9766 29.25 34.875C29.25 31.7734 31.7734 29.25 34.875 29.25C37.9766 29.25 40.5 31.7734 40.5 34.875C40.5 37.9766 37.9766 40.5 34.875 40.5ZM34.875 33C33.8411 33 33 33.8411 33 34.875C33 35.9089 33.8411 36.75 34.875 36.75C35.9089 36.75 36.75 35.9089 36.75 34.875C36.75 33.8411 35.9089 33 34.875 33Z" fill="white"/>
</g>
<defs>
<clipPath id="clip0_1624_3911">
<rect width="48" height="48" fill="white"/>
</clipPath>
</defs>
</svg>
