<svg width="48" height="48" viewBox="0 0 48 48" fill="none" xmlns="http://www.w3.org/2000/svg">
<g clip-path="url(#clip0_10263_283368)">
<path d="M24.7539 7.1647C23.4035 6.8902 22.0143 6.75098 20.625 6.75098C9.22612 6.75098 0 15.9756 0 27.376C0 38.7749 9.22462 48.001 20.625 48.001C31.8166 48.001 40.9345 39.097 41.242 27.9549C41.2706 26.9197 40.4547 26.0574 39.4195 26.0289C38.3853 26.0017 37.5222 26.8163 37.4935 27.8514C37.2397 37.0474 29.8301 44.251 20.625 44.251C11.3201 44.251 3.75 36.6809 3.75 27.376C3.75 18.0711 11.3201 10.501 20.625 10.501C21.7639 10.501 22.9018 10.6149 24.0069 10.8396C25.0217 11.0461 26.0116 10.3904 26.2178 9.3757C26.4241 8.36095 25.7688 7.37104 24.7539 7.1647Z" fill="white"/>
<path d="M26.7651 38.348C27.7776 38.5746 28.7785 37.9364 29.0044 36.9278C29.5333 34.5641 29.8598 31.9414 29.9638 29.2511H31.875C32.9106 29.2511 33.75 28.4116 33.75 27.3761C33.75 26.3405 32.9106 25.5011 31.875 25.5011H29.9638C29.8598 22.8106 29.5333 20.188 29.0044 17.8243C28.7782 16.8138 27.7759 16.1779 26.7651 16.4041C25.7545 16.6303 25.1186 17.6328 25.3448 18.6433C25.8158 20.7473 26.1094 23.0881 26.2102 25.5011H15.0397C15.1405 23.0881 15.4342 20.7473 15.9051 18.6433C16.1313 17.6328 15.4954 16.6302 14.4848 16.4041C13.4748 16.1778 12.4718 16.8138 12.2456 17.8243C11.7166 20.1881 11.3902 22.8107 11.2862 25.5011H9.375C8.33944 25.5011 7.5 26.3405 7.5 27.3761C7.5 28.4116 8.33944 29.2511 9.375 29.2511H11.2862C11.3902 31.9414 11.7166 34.5641 12.2456 36.9278C12.4718 37.9385 13.4745 38.5741 14.4848 38.348C15.4954 38.1218 16.1313 37.1193 15.9051 36.1088C15.4342 34.0047 15.1405 31.664 15.0397 29.2511H26.2102C26.1094 31.664 25.8157 34.0047 25.3448 36.1088C25.1187 37.1193 25.7545 38.1219 26.7651 38.348Z" fill="white"/>
<path d="M38.625 0.000976562C33.4555 0.000976562 29.25 4.2066 29.25 9.37598C29.25 10.1905 29.25 12.6691 33.7853 20.2746C34.8137 21.9992 36.623 23.0289 38.625 23.0289C40.627 23.0289 42.4363 21.9992 43.4647 20.2746C48 12.6691 48 10.1905 48 9.37598C48 4.2066 43.7945 0.000976562 38.625 0.000976562ZM40.244 18.3539C39.7462 19.1887 38.9459 19.2789 38.625 19.2789C38.3041 19.2789 37.5038 19.1888 37.006 18.354C33.2888 12.1204 33 9.90613 33 9.37598C33 6.27435 35.5234 3.75098 38.625 3.75098C41.7266 3.75098 44.25 6.27435 44.25 9.37598C44.25 9.90613 43.9612 12.1204 40.244 18.3539Z" fill="white"/>
<path d="M38.625 11.251C39.6605 11.251 40.5 10.4115 40.5 9.37598C40.5 8.34044 39.6605 7.50098 38.625 7.50098C37.5895 7.50098 36.75 8.34044 36.75 9.37598C36.75 10.4115 37.5895 11.251 38.625 11.251Z" fill="white"/>
</g>
<defs>
<clipPath id="clip0_10263_283368">
<rect width="48" height="48" fill="white" transform="translate(0 0.000976562)"/>
</clipPath>
</defs>
</svg>
