<svg width="119" height="119" viewBox="0 0 119 119" fill="none" xmlns="http://www.w3.org/2000/svg">
<rect width="118.713" height="118.713" rx="21.1045" fill="#A8E840"/>
<g clip-path="url(#clip0_233_51293)">
<path d="M55.0024 52.4763C55.0024 56.0179 52.1314 58.8889 48.5898 58.8889C45.0482 58.8889 42.1772 56.0179 42.1772 52.4763C42.1772 48.9347 45.0482 46.0637 48.5898 46.0637C52.1314 46.0637 55.0024 48.9347 55.0024 52.4763Z" fill="#212C12"/>
<path d="M69.5965 58.8889C73.1381 58.8889 76.0091 56.0179 76.0091 52.4763C76.0091 48.9347 73.1381 46.0637 69.5965 46.0637C66.0549 46.0637 63.1839 48.9347 63.1839 52.4763C63.1839 56.0179 66.0549 58.8889 69.5965 58.8889Z" fill="#212C12"/>
<path fill-rule="evenodd" clip-rule="evenodd" d="M38.8291 29.7638C30.0936 30.2492 22.9829 37.1097 22.5162 45.8462C22.177 52.1955 22.1695 57.9616 22.5145 64.3394C22.9766 72.8824 29.8395 79.6362 38.3717 80.2676C47.4385 80.9385 55.4298 81.2128 63.6517 81.0765C67.5243 85.2849 70.6504 87.5632 74.9436 89.4632C75.9008 89.8868 76.7909 88.7421 76.297 87.8193C74.9347 85.2741 74.6702 83.1032 75.5167 80.6115C77.1082 80.5158 78.7279 80.4062 80.3834 80.2826C88.8569 79.65 95.6755 72.9572 96.1701 64.4747C96.5475 58.003 96.547 52.1527 96.1808 45.7089C95.6877 37.032 88.6027 30.2499 79.9253 29.7649C65.2871 28.9468 53.4517 28.9512 38.8291 29.7638ZM48.6863 34.897C45.6053 34.9968 42.445 35.1386 39.138 35.3224C33.124 35.6566 28.3846 40.3563 28.0755 46.1432C27.7467 52.2988 27.7396 57.8652 28.0736 64.0387C28.3788 69.6801 32.9362 74.2829 38.7826 74.7156C53.4921 75.8041 65.2582 75.829 79.969 74.7308C85.7638 74.2982 90.2862 69.7457 90.6124 64.1506C90.9772 57.8945 90.9768 52.2578 90.6226 46.0248C90.2974 40.3029 85.5926 35.6576 79.6147 35.3235C76.167 35.1308 72.8793 34.9843 69.6753 34.884C69.4348 37.2225 67.6968 39.1821 65.3276 39.4984C61.0138 40.0742 57.4697 40.0311 53.0394 39.4498C50.6857 39.141 48.9353 37.2154 48.6863 34.897Z" fill="#212C12"/>
</g>
<defs>
<clipPath id="clip0_233_51293">
<rect width="74.1955" height="74.1955" fill="white" transform="translate(22.2588 22.2588)"/>
</clipPath>
</defs>
</svg>
