<svg width="1493" height="420" viewBox="0 0 1493 420" fill="none" xmlns="http://www.w3.org/2000/svg">
<path d="M1234.23 354.325V353.891L1339.1 226.494L1234.23 103.429V102.996H1281.03L1362.5 198.327L1444.4 102.996H1490.76V103.429L1385.9 226.494L1491.19 353.891V354.325H1444.4L1362.5 253.793L1281.03 354.325H1234.23Z" fill="#1B1C1F"/>
<path fill-rule="evenodd" clip-rule="evenodd" d="M1232.42 356.133V353.243L1336.74 226.514L1232.42 104.095V101.187H1281.86L1362.5 195.547L1443.56 101.187H1492.57V104.095L1388.26 226.511L1493 353.24V356.133H1443.54L1362.5 256.662L1281.89 356.133H1232.42ZM1362.5 253.793L1444.4 354.325H1491.19V353.891L1385.9 226.494L1490.76 103.429V102.996H1444.4L1362.5 198.327L1281.03 102.996H1234.23V103.429L1339.1 226.494L1234.23 353.891V354.325H1281.03L1362.5 253.793Z" fill="#1B1C1F"/>
<path d="M1005.13 354.392C995.598 354.392 986.787 352.081 978.699 347.459C970.899 342.547 964.543 336.192 959.632 328.392C955.01 320.303 952.699 311.492 952.699 301.959V103.063H988.232V301.959C988.232 306.581 989.821 310.626 992.998 314.092C996.465 317.27 1000.51 318.859 1005.13 318.859H1155.93C1160.55 318.859 1164.6 317.27 1168.06 314.092C1171.53 310.626 1173.26 306.581 1173.26 301.959V103.063H1208.79V301.959C1208.79 311.492 1206.34 320.303 1201.43 328.392C1196.81 336.192 1190.45 342.547 1182.36 347.459C1174.56 352.081 1165.75 354.392 1155.93 354.392H1005.13Z" fill="#1B1C1F"/>
<path fill-rule="evenodd" clip-rule="evenodd" d="M977.768 349.01L977.735 348.989C969.706 343.934 963.157 337.385 958.102 329.356L958.081 329.323L958.062 329.29C953.28 320.921 950.89 311.8 950.89 301.959V101.254H990.041V301.959C990.041 306.095 991.437 309.686 994.279 312.812C997.405 315.654 1001 317.05 1005.13 317.05H1155.93C1160.08 317.05 1163.68 315.645 1166.81 312.785C1169.94 309.642 1171.45 306.058 1171.45 301.959V101.254H1210.6V301.959C1210.6 311.818 1208.06 320.951 1202.98 329.322C1198.2 337.385 1191.63 343.948 1183.3 349.005L1183.29 349.01L1183.28 349.015C1175.18 353.816 1166.05 356.201 1155.93 356.201H1005.13C995.291 356.201 986.17 353.811 977.801 349.029L977.768 349.01ZM1201.43 328.392C1206.34 320.303 1208.79 311.492 1208.79 301.959V103.063H1173.26V301.959C1173.26 306.581 1171.53 310.626 1168.06 314.092C1164.6 317.27 1160.55 318.859 1155.93 318.859H1005.13C1000.51 318.859 996.465 317.27 992.998 314.092C989.821 310.626 988.232 306.581 988.232 301.959V103.063H952.699V301.959C952.699 311.492 955.01 320.303 959.632 328.392C964.543 336.192 970.899 342.547 978.699 347.459C986.787 352.081 995.598 354.392 1005.13 354.392H1155.93C1165.75 354.392 1174.56 352.081 1182.36 347.459C1190.45 342.547 1196.81 336.192 1201.43 328.392Z" fill="#1B1C1F"/>
<path d="M775.711 354.392V77.4971H637.047V42.3978H949.042V77.4971H810.811V354.392H775.711Z" fill="#1B1C1F"/>
<path fill-rule="evenodd" clip-rule="evenodd" d="M773.902 356.201V79.306H635.238V40.5889H950.851V79.306H812.62V356.201H773.902ZM810.811 77.4971H949.042V42.3978H637.047V77.4971H775.711V354.392H810.811V77.4971Z" fill="#1B1C1F"/>
<path fill-rule="evenodd" clip-rule="evenodd" d="M183.564 39.8993C162.164 40.5921 140.213 41.5774 117.243 42.8538C75.47 45.1751 42.55 77.8191 40.4027 118.015C38.1187 160.771 38.07 199.436 40.3896 242.317C42.5092 281.502 74.1655 313.473 114.774 316.478C216.947 324.04 298.674 324.212 400.855 316.584C441.105 313.579 472.518 281.958 474.784 243.094C477.318 199.639 477.315 160.487 474.854 117.192C472.596 77.4484 439.917 45.182 398.394 42.8611C374.446 41.5227 351.61 40.5057 329.355 39.8089C327.687 56.0548 315.614 69.6698 299.156 71.8667C269.192 75.8663 244.574 75.5672 213.802 71.5297C197.451 69.3844 185.291 56.0052 183.564 39.8993ZM115.097 4.24366C54.4205 7.61542 5.02977 55.268 1.78807 115.952C-0.567858 160.054 -0.620049 200.105 1.7763 244.406C4.98617 303.745 52.6558 350.657 111.92 355.043C174.898 359.703 230.406 361.608 287.515 360.661C314.414 389.894 336.128 405.72 365.949 418.917C372.598 421.859 378.781 413.909 375.35 407.499C365.888 389.819 364.05 374.739 369.931 357.432C380.985 356.767 392.234 356.005 403.734 355.147C462.59 350.753 509.952 304.265 513.388 245.345C516.009 200.393 516.005 159.757 513.462 114.998C510.037 54.7287 460.824 7.62049 400.552 4.25167C298.875 -1.43133 216.666 -1.40044 115.097 4.24366ZM227.438 162.013C227.438 186.612 207.496 206.555 182.896 206.555C158.296 206.555 138.354 186.612 138.354 162.013C138.354 137.413 158.296 117.471 182.896 117.471C207.496 117.471 227.438 137.413 227.438 162.013ZM328.809 206.555C353.408 206.555 373.351 186.612 373.351 162.013C373.351 137.413 353.408 117.471 328.809 117.471C304.209 117.471 284.267 137.413 284.267 162.013C284.267 186.612 304.209 206.555 328.809 206.555Z" fill="#1B1C1F"/>
</svg>
