<svg width="67" height="66" viewBox="0 0 67 66" fill="none" xmlns="http://www.w3.org/2000/svg">
<g clip-path="url(#clip0_233_51283)">
<path d="M3.21579 43.2534H15.5738V45.8279C15.5738 46.7547 15.6442 47.6652 15.7799 48.5546C9.65855 49.3344 4.4113 53.1277 1.45671 59.0367L0.913084 60.124C0.277162 61.3957 0.792593 62.9422 2.06431 63.5781C3.33602 64.2141 4.88257 63.6986 5.51849 62.4269L6.06225 61.3397C8.40563 56.653 12.4805 53.8606 17.3271 53.5773C20.2299 59.647 26.4312 63.85 33.596 63.85C40.7608 63.85 46.9619 59.647 49.8648 53.5773C54.7113 53.8606 58.7862 56.6529 61.1296 61.3395L61.6732 62.4268C62.309 63.6985 63.8556 64.2141 65.1274 63.5783C66.3992 62.9425 66.9147 61.3959 66.2789 60.1241L65.7353 59.0368C62.7807 53.1277 57.5333 49.3344 51.412 48.5546C51.5475 47.6652 51.618 46.7547 51.618 45.8279V43.2534H63.976C65.398 43.2534 66.5506 42.1007 66.5506 40.6788C66.5506 39.2568 65.3979 38.1042 63.976 38.1042L49.0435 38.1043C47.6215 38.1043 46.4689 39.257 46.4689 40.6789V45.8279C46.4689 52.9261 40.6942 58.7009 33.596 58.7009C26.4977 58.7009 20.7231 52.9261 20.7231 45.8279V27.8059C20.7231 24.9666 23.033 22.6567 25.8722 22.6567H41.3197C44.159 22.6567 46.4689 24.9666 46.4689 27.8059V30.3805C46.4689 31.8023 47.6217 32.955 49.0435 32.955C56.1658 32.955 62.4057 28.9796 65.7353 22.3207L66.2789 21.2335C66.9147 19.9616 66.3992 18.4152 65.1274 17.7793C63.8557 17.1435 62.3091 17.6591 61.6732 18.9308L61.1296 20.0179C59.0742 24.1286 55.6869 26.7834 51.6152 27.5649C51.5294 23.8378 49.4519 20.5961 46.4095 18.8587C46.0196 14.7915 43.6981 11.0487 40.0166 8.92209C40.8389 7.69466 41.3196 6.21981 41.3196 4.63464C41.3196 3.2127 40.167 2.06006 38.745 2.06006C37.3231 2.06006 36.1704 3.2127 36.1704 4.63464C36.1704 6.05426 35.0155 7.20922 33.5958 7.20922C32.1762 7.20922 31.0213 6.05426 31.0213 4.63464C31.0213 3.2127 29.8686 2.06006 28.4467 2.06006C27.0247 2.06006 25.8721 3.2127 25.8721 4.63464C25.8721 6.19471 26.3385 7.64716 27.137 8.86288C23.5796 10.8631 21.1816 14.6048 20.7837 18.858C17.7412 20.595 15.6666 23.8369 15.5798 27.5636C11.5068 26.7827 8.11792 24.1296 6.06212 20.018L5.51849 18.9308C4.88257 17.6591 3.33615 17.1435 2.06431 17.7794C0.792593 18.4153 0.277033 19.9619 0.913084 21.2336L1.45671 22.3207C4.37808 28.1636 9.54063 31.9396 15.5739 32.7775V38.1042H3.21592C1.79398 38.1042 0.641337 39.2568 0.641337 40.6788C0.641337 42.1007 1.79398 43.2534 3.21579 43.2534ZM40.8732 17.5075H26.2937C28.0332 12.3047 33.1041 12.3554 33.7252 12.366C37.9237 12.4369 40.1582 15.4915 40.8732 17.5075Z" fill="white"/>
<path d="M33.5961 27.8059C32.1741 27.8059 31.0215 28.9585 31.0215 30.3805V50.9771C31.0215 52.3991 32.1741 53.5517 33.5961 53.5517C35.018 53.5517 36.1706 52.3991 36.1706 50.9771V30.3805C36.1706 28.9587 35.018 27.8059 33.5961 27.8059Z" fill="white"/>
</g>
<defs>
<clipPath id="clip0_233_51283">
<rect width="65.9104" height="65.9104" fill="white" transform="translate(0.640625)"/>
</clipPath>
</defs>
</svg>
