<svg width="67" height="66" viewBox="0 0 67 66" fill="none" xmlns="http://www.w3.org/2000/svg">
<path d="M54.0665 61.4311L62.0711 53.4928C64.9752 50.6125 66.6409 46.6146 66.6409 42.5245V15.4477C66.6409 6.92986 59.7111 0 51.1932 0H24.1826C20.0807 0 16.2175 1.59074 13.3049 4.47937L5.30033 12.4176C2.39614 15.2979 0.730469 19.2958 0.730469 23.386V50.4627C0.730469 58.9806 7.66033 65.9104 16.1782 65.9104H43.1888C47.291 65.9104 51.1539 64.3197 54.0665 61.4311ZM51.1932 5.14925C56.8718 5.14925 61.4917 9.76911 61.4917 15.4477V42.5245C61.4917 45.2514 60.3812 47.9167 58.4451 49.8369L50.4407 57.775C48.499 59.7007 45.9234 60.7612 43.1888 60.7612H16.1782C10.4996 60.7612 5.87971 56.1413 5.87971 50.4627V23.386C5.87971 20.6591 6.99021 17.9938 8.92625 16.0735L16.9307 8.13541C18.8724 6.20974 21.4479 5.14925 24.1826 5.14925H51.1932Z" fill="white"/>
<path fill-rule="evenodd" clip-rule="evenodd" d="M32.4409 46.617C32.7337 46.7379 33.0346 46.7963 33.3296 46.7963C34.0379 46.7962 34.7117 46.4594 35.1546 45.8419C35.1684 45.8225 35.1816 45.8027 35.1942 45.7825L42.6566 33.7751C43.3992 32.7165 43.4957 31.4119 42.9133 30.2775C42.3217 29.1251 41.1317 28.4093 39.8078 28.4093H35.6239L36.731 21.7495C36.9022 20.6898 36.3498 19.7025 35.3563 19.2928C34.3609 18.8822 33.2707 19.1939 32.6437 20.0683C32.6305 20.0868 32.6178 20.1056 32.6058 20.1249L25.0869 32.1416C24.3511 33.1909 24.254 34.5404 24.8355 35.6727C25.4299 36.8306 26.6175 37.5498 27.9348 37.5498H32.1555L31.0676 44.1587C30.8953 45.2188 31.4472 46.2066 32.4409 46.617Z" fill="white"/>
</svg>
