<svg width="66" height="66" viewBox="0 0 66 66" fill="none" xmlns="http://www.w3.org/2000/svg">
<g clip-path="url(#clip0_233_51265)">
<path d="M54.5816 32.9549V15.4476C54.5816 6.9298 47.6518 0 39.1339 0H15.4476C6.9298 0 0 6.9298 0 15.4476V50.4622C0 58.98 6.9298 65.9098 15.4476 65.9098H17.1211C18.5431 65.9098 19.6957 64.7572 19.6957 63.3352C19.6957 61.9133 18.5431 60.7606 17.1211 60.7606H15.4476C9.76907 60.7606 5.1492 56.1407 5.1492 50.4622V15.4476C5.1492 9.76907 9.76907 5.1492 15.4476 5.1492H39.1339C44.8125 5.1492 49.4324 9.76907 49.4324 15.4476V32.9549C49.4324 34.3769 50.585 35.5295 52.007 35.5295C53.4289 35.5295 54.5816 34.3769 54.5816 32.9549Z" fill="white"/>
<path d="M63.6466 47.6311L56.9154 40.9158C55.9091 39.9116 54.279 39.9134 53.2744 40.92C52.2702 41.9267 52.2721 43.5568 53.2788 44.561L60.0106 51.277C60.4946 51.7596 60.7612 52.4007 60.7612 53.0821C60.7612 53.7612 60.4963 54.4003 60.0155 54.8823L53.2911 61.5001C52.2778 62.4975 52.2646 64.1276 53.262 65.141C53.766 65.6531 54.4314 65.9096 55.0972 65.9096C55.7491 65.9096 56.4016 65.6635 56.903 65.1699L63.6342 58.5454C63.6381 58.5415 63.6421 58.5375 63.646 58.5337C65.1062 57.0778 65.9104 55.1416 65.9104 53.0818C65.9104 51.022 65.1062 49.0863 63.6466 47.6311Z" fill="white"/>
<path d="M32.9715 44.561C33.9781 43.5568 33.9801 41.9267 32.9759 40.92C31.9712 39.9134 30.3411 39.9116 29.3349 40.9158L22.6042 47.6305C21.144 49.0863 20.3398 51.0224 20.3398 53.0822C20.3398 55.142 21.144 57.0782 22.6042 58.534C22.6082 58.5379 22.6122 58.5419 22.616 58.5458L29.3472 65.1703C29.8487 65.6639 30.501 65.91 31.153 65.91C31.8188 65.91 32.4844 65.6533 32.9882 65.1414C33.9856 64.1279 33.9725 62.4978 32.9591 61.5005L26.2348 54.8827C25.754 54.4006 25.489 53.7616 25.489 53.0824C25.489 52.4011 25.7556 51.76 26.2403 51.2768L32.9715 44.561Z" fill="white"/>
<path d="M46.7962 40.2641C45.4298 39.8709 44.0034 40.6605 43.6104 42.0271L37.6888 62.6239C37.2959 63.9905 38.0853 65.4168 39.4517 65.8097C39.6895 65.8781 39.9288 65.9106 40.1644 65.9106C41.2831 65.9106 42.3129 65.1756 42.6376 64.0468L48.5591 43.4499C48.952 42.0833 48.1626 40.657 46.7962 40.2641Z" fill="white"/>
</g>
<defs>
<clipPath id="clip0_233_51265">
<rect width="65.9104" height="65.9104" fill="white"/>
</clipPath>
</defs>
</svg>
