<svg width="60" height="60" viewBox="0 0 60 60" fill="none" xmlns="http://www.w3.org/2000/svg">
<g clip-path="url(#clip0_233_51289)">
<path fill-rule="evenodd" clip-rule="evenodd" d="M48.8207 11.5745C48.8207 11.6351 48.8118 12.0656 48.0298 12.8667C47.2273 13.6889 45.8412 14.6399 43.7684 15.538C39.6379 17.3279 33.6104 18.5489 26.7104 18.5489C19.8104 18.5489 13.7829 17.3279 9.65233 15.538C7.57962 14.6399 6.19347 13.6889 5.39096 12.8667C4.60902 12.0656 4.60012 11.6351 4.60012 11.5745C4.60012 11.5139 4.60902 11.0834 5.39096 10.2823C6.19347 9.46015 7.57962 8.50914 9.65233 7.61096C13.7829 5.82107 19.8104 4.60012 26.7104 4.60012C33.6104 4.60012 39.6379 5.82107 43.7684 7.61096C45.8412 8.50914 47.2273 9.46015 48.0298 10.2823C48.8118 11.0834 48.8207 11.5139 48.8207 11.5745ZM26.7104 0C41.0027 0 52.6732 4.86435 53.3863 10.9809H53.4208V31.0335C51.3185 30.1603 49.0129 29.6782 46.5946 29.6782C41.5162 29.6782 36.9342 31.8042 33.6903 35.2147C31.4653 35.475 29.1253 35.6138 26.7104 35.6138C17.5151 35.6138 9.40505 33.6004 4.60012 30.5353V35.6138C4.60012 35.6744 4.60902 36.1049 5.39096 36.906C6.19347 37.7282 7.57962 38.6792 9.65233 39.5774C13.7829 41.3673 19.8104 42.5882 26.7104 42.5882C27.6537 42.5882 28.5807 42.5654 29.4887 42.5214C29.0617 43.9957 28.82 45.5488 28.7907 47.1538C28.1042 47.1767 27.4105 47.1883 26.7104 47.1883C17.5151 47.1883 9.40505 45.1749 4.60012 42.1098V47.4851H4.67117C4.75878 47.7015 4.95438 48.0332 5.39097 48.4805C6.19348 49.3027 7.57962 50.2537 9.65234 51.1519C13.7829 52.9418 19.8104 54.1627 26.7104 54.1627C27.8466 54.1627 28.9591 54.1296 30.0434 54.0663C30.6797 55.6651 31.5409 57.1499 32.5879 58.4817C30.6967 58.6657 28.7297 58.7628 26.7104 58.7628C12.1876 58.7628 0.371933 53.7404 0.00862233 47.4851H0V10.9809H0.0345151C0.747526 4.86435 12.418 0 26.7104 0ZM4.60012 24.0393C4.60012 24.0999 4.60902 24.5304 5.39096 25.3315C6.19347 26.1537 7.57962 27.1047 9.65233 28.0029C13.7829 29.7928 19.8104 31.0137 26.7104 31.0137C33.6104 31.0137 39.6379 29.7928 43.7684 28.0029C45.8412 27.1047 47.2273 26.1537 48.0298 25.3315C48.8118 24.5304 48.8207 24.0999 48.8207 24.0393V18.0705C44.0157 21.1355 35.9057 23.149 26.7104 23.149C17.5151 23.149 9.40505 21.1355 4.60012 18.0705V24.0393Z" fill="white"/>
<path d="M45.6135 54.1636C40.8992 54.1636 37.0638 50.3282 37.0638 45.6138C37.0638 40.8995 40.8992 37.0641 45.6135 37.0641C50.3279 37.0641 54.1632 40.8995 54.1632 45.6138C54.1632 50.3282 50.3279 54.1636 45.6135 54.1636ZM45.6135 38.6849C41.7929 38.6849 38.6846 41.7932 38.6846 45.6138C38.6846 49.4345 41.7929 52.5428 45.6135 52.5428C49.4342 52.5428 52.5425 49.4345 52.5425 45.6138C52.5425 41.7932 49.4342 38.6849 45.6135 38.6849ZM57.5727 57.5889C57.8892 57.2724 57.8892 56.7592 57.5727 56.4428L53.9462 52.8162C53.6297 52.4997 53.1165 52.4997 52.8001 52.8162C52.4836 53.1327 52.4836 53.6459 52.8001 53.9623L56.4266 57.5889C56.5848 57.7471 56.7923 57.8262 56.9997 57.8262C57.2071 57.8262 57.4144 57.7471 57.5727 57.5889Z" fill="white"/>
<path fill-rule="evenodd" clip-rule="evenodd" d="M45.6135 55.317C40.2622 55.317 35.9104 50.9652 35.9104 45.6138C35.9104 40.2625 40.2622 35.9107 45.6135 35.9107C50.9649 35.9107 55.3167 40.2625 55.3167 45.6138C55.3167 47.792 54.5957 49.8045 53.3799 51.4254C53.8802 51.4271 54.3801 51.6189 54.7618 52.0006L58.3883 55.6271C59.1553 56.3941 59.1552 57.6375 58.3884 58.4044L57.5727 57.5889C57.8892 57.2724 57.8892 56.7592 57.5727 56.4428L53.9462 52.8162C53.6297 52.4997 53.1165 52.4997 52.8001 52.8162C52.4836 53.1327 52.4836 53.6459 52.8001 53.9623L56.4266 57.5889C56.5848 57.7471 56.7923 57.8262 56.9997 57.8262C57.2071 57.8262 57.4144 57.7471 57.5727 57.5889L58.3884 58.4044C58.0051 58.7876 57.5005 58.9796 56.9997 58.9796C56.499 58.9796 55.9943 58.7878 55.611 58.4045L51.9845 54.7779C51.6017 54.3952 51.41 53.8937 51.4093 53.392C49.7911 54.6007 47.7846 55.317 45.6135 55.317ZM45.6135 39.8384C42.43 39.8384 39.8381 42.4303 39.8381 45.6138C39.8381 48.7974 42.43 51.3893 45.6135 51.3893C48.7971 51.3893 51.389 48.7974 51.389 45.6138C51.389 42.4303 48.7971 39.8384 45.6135 39.8384ZM37.0638 45.6138C37.0638 50.3282 40.8992 54.1636 45.6135 54.1636C50.3279 54.1636 54.1632 50.3282 54.1632 45.6138C54.1632 40.8995 50.3279 37.0641 45.6135 37.0641C40.8992 37.0641 37.0638 40.8995 37.0638 45.6138ZM38.6846 45.6138C38.6846 41.7932 41.7929 38.6849 45.6135 38.6849C49.4342 38.6849 52.5425 41.7932 52.5425 45.6138C52.5425 49.4345 49.4342 52.5428 45.6135 52.5428C41.7929 52.5428 38.6846 49.4345 38.6846 45.6138Z" fill="white"/>
<path fill-rule="evenodd" clip-rule="evenodd" d="M58.2795 58.5054C57.9122 58.8213 57.4544 58.9796 56.9997 58.9796C56.499 58.9796 55.9943 58.7878 55.611 58.4045L51.9845 54.7779C51.6899 54.4834 51.5085 54.1185 51.4402 53.7373C51.4198 53.6232 51.4095 53.5076 51.4093 53.392C51.3149 53.4625 51.2192 53.5314 51.1222 53.5985C49.5564 54.6819 47.6579 55.317 45.6135 55.317C40.2622 55.317 35.9104 50.9652 35.9104 45.6138C35.9104 40.2625 40.2622 35.9107 45.6135 35.9107C50.9649 35.9107 55.3167 40.2625 55.3167 45.6138C55.3167 47.6653 54.6772 49.5699 53.5869 51.1387C53.5196 51.2356 53.4506 51.3312 53.3799 51.4254C53.4955 51.4258 53.611 51.4363 53.7251 51.457C54.1049 51.5259 54.4682 51.7071 54.7618 52.0006L58.3883 55.6271C59.12 56.3588 59.1536 57.5241 58.4894 58.2956C58.4573 58.3328 58.4237 58.3691 58.3884 58.4044C58.3531 58.4397 58.3168 58.4734 58.2795 58.5054ZM53.9095 51.1929C54.2987 51.2876 54.6678 51.4869 54.9716 51.7908L58.5982 55.4173C59.481 56.3001 59.4809 57.7315 58.5983 58.6143C58.1571 59.0553 57.5759 59.2764 56.9997 59.2764C56.4237 59.2764 55.8425 59.0557 55.4011 58.6143L51.7746 54.9878C51.4696 54.6828 51.2699 54.312 51.1757 53.9212C49.5846 54.9897 47.6705 55.6138 45.6135 55.6138C40.0983 55.6138 35.6136 51.1291 35.6136 45.6138C35.6136 40.0986 40.0983 35.6139 45.6135 35.6139C51.1288 35.6139 55.6135 40.0986 55.6135 45.6138C55.6135 47.6781 54.985 49.5984 53.9095 51.1929ZM45.6135 40.1352C42.5939 40.1352 40.1349 42.5942 40.1349 45.6138C40.1349 48.6335 42.5939 51.0925 45.6135 51.0925C48.6332 51.0925 51.0922 48.6335 51.0922 45.6138C51.0922 42.5942 48.6332 40.1352 45.6135 40.1352ZM39.8381 45.6138C39.8381 42.4303 42.43 39.8384 45.6135 39.8384C48.7971 39.8384 51.389 42.4303 51.389 45.6138C51.389 48.7974 48.7971 51.3893 45.6135 51.3893C42.43 51.3893 39.8381 48.7974 39.8381 45.6138Z" fill="white"/>
</g>
<defs>
<clipPath id="clip0_233_51289">
<rect width="59.3564" height="59.3564" fill="white"/>
</clipPath>
</defs>
</svg>
