<svg width="59" height="59" viewBox="0 0 59 59" fill="none" xmlns="http://www.w3.org/2000/svg">
<path d="M53.4665 25.5502L6.6604 2.71786C6.25785 2.5215 5.81583 2.41943 5.36793 2.41943C3.7398 2.41943 2.41992 3.73931 2.41992 5.36744V5.45252C2.41992 5.84809 2.46843 6.24219 2.56437 6.62597L7.05421 24.5852C7.17683 25.0758 7.59159 25.4382 8.09409 25.4941L27.8283 27.6868C28.5127 27.7628 29.0304 28.3412 29.0304 29.0299C29.0304 29.7186 28.5127 30.297 27.8283 30.373L8.09409 32.5657C7.59159 32.6216 7.17683 32.984 7.05421 33.4746L2.56437 51.4337C2.46843 51.8176 2.41992 52.2117 2.41992 52.6072V52.6924C2.41992 54.3205 3.7398 55.6403 5.36793 55.6403C5.81583 55.6403 6.25785 55.5383 6.6604 55.3418L53.4665 32.5096C54.7968 31.8608 55.6408 30.5102 55.6408 29.0299C55.6408 27.5496 54.7968 26.199 53.4665 25.5502Z" fill="white"/>
</svg>
