<svg width="67" height="66" viewBox="0 0 67 66" fill="none" xmlns="http://www.w3.org/2000/svg">
<g clip-path="url(#clip0_233_51275)">
<path fill-rule="evenodd" clip-rule="evenodd" d="M0.820312 50.4627C0.820312 58.9943 7.73644 65.9104 16.2681 65.9104H51.283C59.8146 65.9104 66.7308 58.9943 66.7308 50.4627V15.4478C66.7308 6.91613 59.8146 0 51.283 0H16.2681C7.73644 0 0.820312 6.91613 0.820312 15.4478V50.4627ZM16.2681 60.7612C10.5803 60.7612 5.96957 56.1505 5.96957 50.4627V15.4478C5.96957 9.75998 10.5803 5.14925 16.2681 5.14925H51.283C56.9708 5.14925 61.5815 9.75998 61.5815 15.4478V50.4627C61.5815 56.1505 56.9708 60.7612 51.283 60.7612H16.2681Z" fill="white"/>
<rect x="14.5703" y="16.7673" width="22.0113" height="5.20905" rx="2.60453" fill="white"/>
<rect x="22.7744" y="30.209" width="22.0113" height="5.20905" rx="2.60453" fill="white"/>
<rect x="31.0479" y="43.6667" width="22.0113" height="5.20905" rx="2.60453" fill="white"/>
</g>
<defs>
<clipPath id="clip0_233_51275">
<rect width="65.9104" height="65.9104" fill="white" transform="translate(0.820312)"/>
</clipPath>
</defs>
</svg>
