<svg width="208" height="40" viewBox="0 0 208 40" fill="none" xmlns="http://www.w3.org/2000/svg"><path d="M20.1959 40c11.1539 0 20.1959-8.9543 20.1959-20 0-11.04569-9.042-20-20.1959-20-3.4033 0-6.61.833657-9.4233 2.30601-1.08528.56802-1.21652 2.00285-.3485 2.86245l5.0455 4.99664c.5652.5596 1.4122.7061 2.1839.5004.8106-.216 1.6629-.3312 2.5424-.3312 5.3905 0 9.7603 4.3275 9.7603 9.6657s-4.3698 9.6657-9.7603 9.6657c-.8826 0-1.7378-.1161-2.551-.3335-.7723-.2066-1.6203-.0604-2.186.4998l-5.0438 4.9948c-.8677.8593-.73688 2.2937.3478 2.8621C13.5784 39.1644 16.7886 40 20.1959 40z" fill="#fff"/><path d="M3.76431 31.6309c.65905.9114 1.97692.9469 2.77738.1542l4.70801-4.6624c.6993-.6925.7487-1.7838.2906-2.6517-.7057-1.337-1.1047-2.8579-1.1047-4.471 0-1.616.4004-3.1393 1.1084-4.4781.4592-.8682.4103-1.9605-.2895-2.6535L6.54742 8.20702c-.8002-.79244-2.11755-.75735-2.77686.15348C1.39716 11.6393 0 15.6581 0 20c0 4.3381 1.39471 8.3537 3.76431 11.6309zM20.1959 15.1976c2.6783 0 4.8495 2.1501 4.8495 4.8024 0 2.6523-2.1712 4.8024-4.8495 4.8024S15.3464 22.6523 15.3464 20c0-2.6523 2.1712-4.8024 4.8495-4.8024zM64.7 33.3072c-1.4501 0-2.7431-.3231-3.8791-.9694-1.1359-.6462-2.0302-1.5318-2.6828-2.6567v3.2671h-4.2416V6.73975h4.858V17.4385c.6767-1.1249 1.5589-2.0105 2.6465-2.6567 1.1117-.6463 2.4048-.9694 3.8791-.9694 1.2326 0 2.3565.2633 3.3716.7899 1.0151.5026 1.8852 1.2087 2.6102 2.1182.7493.9095 1.3173 1.9507 1.704 3.1234.4108 1.1728.6163 2.4294.6163 3.7697 0 1.3404-.2296 2.597-.6889 3.7698-.435 1.1727-1.0513 2.2139-1.8489 3.1234-.7976.8856-1.7402 1.5797-2.8278 2.0823-1.0634.4787-2.2356.7181-3.5166.7181zm-1.3413-4.0928c.7734 0 1.4743-.1437 2.1027-.4309.6525-.3111 1.2084-.718 1.6676-1.2206.4834-.5027.8459-1.0891 1.0876-1.7592.2659-.6941.3988-1.4122.3988-2.1541 0-1.0292-.2175-1.9747-.6525-2.8363-.4109-.8856-.991-1.5917-1.7402-2.1182-.7251-.5266-1.5831-.7899-2.574-.7899-.7009 0-1.3776.1676-2.0302.5027-.6284.3111-1.1964.7419-1.7039 1.2924-.4834.5505-.8701 1.1728-1.1601 1.8669v4.4878c.145.4787.3746.9095.6888 1.2924.3383.383.7251.7181 1.1601 1.0053.435.2633.8822.4787 1.3414.6462.4834.1436.9547.2155 1.4139.2155zM75.2059 27.3834c0-1.2207.3384-2.2858 1.0151-3.1953.7009-.9335 1.6677-1.6515 2.9003-2.1541 1.2326-.5027 2.6465-.754 4.2417-.754.7976 0 1.6072.0599 2.429.1795.8217.1197 1.5347.3112 2.1389.5745v-1.0053c0-1.1967-.3625-2.1182-1.0876-2.7644-.7009-.6463-1.7522-.9694-3.154-.9694-1.0393 0-2.0302.1795-2.9728.5385-.9426.3591-1.9336.8856-2.9728 1.5797l-1.5589-3.1593c1.2568-.8138 2.5377-1.4242 3.8429-1.831 1.3292-.4069 2.719-.6104 4.1691-.6104 2.7069 0 4.8096.6702 6.3081 2.0105 1.5227 1.3404 2.284 3.2551 2.284 5.7443v5.9957c0 .5026.0846.8616.2538 1.077.1933.2154.4954.3471.9063.3949v3.9134c-.435.0718-.8338.1316-1.1964.1795-.3383.0478-.6283.0718-.87.0718-.9668 0-1.704-.2154-2.2115-.6463-.4834-.4308-.7855-.9574-.9063-1.5797l-.1088-.9693c-.8218 1.0531-1.8489 1.8669-3.0816 2.4413-1.2326.5745-2.4894.8617-3.7703.8617-1.2568 0-2.3928-.2513-3.4079-.754-.9909-.5265-1.7764-1.2326-2.3564-2.1182-.5559-.9095-.8339-1.9267-.8339-3.0516zm11.8187.9693c.2658-.2872.4834-.5744.6526-.8616.1691-.2873.2537-.5505.2537-.7899v-1.9028c-.58-.2393-1.2084-.4188-1.8852-.5385-.6767-.1436-1.3172-.2154-1.9214-.2154-1.2568 0-2.2961.2752-3.1178.8257-.7976.5266-1.1964 1.2326-1.1964 2.1182 0 .4787.133.9335.3988 1.3643.2659.4308.6526.7779 1.1601 1.0412.5076.2632 1.1118.3949 1.8127.3949.7251 0 1.4381-.1317 2.139-.3949.7009-.2873 1.2688-.6343 1.7039-1.0412zM103.963 33.3072c-1.619 0-3.166-.2633-4.6405-.7899-1.4743-.5265-2.7432-1.3044-3.8067-2.3336l1.7402-3.1235c1.136.9096 2.2477 1.5797 3.335 2.0105 1.112.4309 2.176.6463 3.191.6463.942 0 1.691-.1676 2.247-.5026.58-.3351.87-.8378.87-1.5079 0-.4548-.157-.8018-.471-1.0412-.314-.2633-.773-.4906-1.377-.6821-.581-.1915-1.294-.4069-2.139-.6463-1.402-.4547-2.574-.8975-3.517-1.3283-.9426-.4309-1.6556-.9694-2.139-1.6156-.4592-.6702-.6888-1.5199-.6888-2.5491 0-1.2446.3142-2.3096.9426-3.1952.6526-.9095 1.5468-1.6156 2.6832-2.1182 1.16-.5027 2.513-.754 4.06-.754 1.353 0 2.634.2154 3.843.6463 1.208.4068 2.308 1.077 3.299 2.0105l-1.958 3.0516c-.967-.7419-1.885-1.2805-2.755-1.6156-.87-.359-1.752-.5385-2.647-.5385-.507 0-.99.0598-1.45.1795-.435.1197-.797.3231-1.087.6104-.266.2632-.399.6462-.399 1.1488 0 .4548.121.8138.362 1.0771.266.2393.653.4547 1.161.6462.531.1915 1.172.4069 1.921.6462 1.523.4309 2.804.8737 3.843 1.3284 1.063.4548 1.861 1.0172 2.393 1.6874.531.6462.797 1.5438.797 2.6926 0 1.8669-.689 3.327-2.066 4.3801-1.378 1.0531-3.227 1.5797-5.547 1.5797zM123.327 33.3072c-1.522 0-2.9-.2513-4.132-.754-1.233-.5265-2.284-1.2326-3.155-2.1182-.87-.9095-1.546-1.9387-2.03-3.0876-.459-1.1727-.689-2.4054-.689-3.6978 0-1.7951.399-3.4347 1.197-4.9186.822-1.484 1.982-2.6687 3.48-3.5543 1.523-.9095 3.311-1.3643 5.366-1.3643 2.078 0 3.855.4548 5.329 1.3643 1.474.8856 2.598 2.0703 3.372 3.5543.797 1.46 1.196 3.0397 1.196 4.739 0 .2873-.012.5864-.036.8976-.025.2872-.049.5266-.073.718h-14.683c.097.9574.375 1.7951.834 2.5132.484.718 1.088 1.2685 1.813 1.6515.749.359 1.547.5385 2.393.5385.966 0 1.873-.2274 2.719-.6822.87-.4786 1.462-1.1009 1.776-1.8669l4.169 1.1489c-.459.9574-1.124 1.8071-1.994 2.549-.846.742-1.849 1.3284-3.009 1.7592-1.16.4069-2.441.6104-3.843.6104zm-4.966-11.2732h9.933c-.097-.9574-.374-1.7832-.834-2.4773-.435-.718-1.015-1.2685-1.74-1.6515-.725-.4068-1.535-.6103-2.429-.6103-.87 0-1.667.2035-2.393.6103-.7.383-1.281.9335-1.74 1.6515-.435.6941-.701 1.5199-.797 2.4773zM135.822 6.73975h4.858V26.9166c0 .8617.145 1.4481.435 1.7592.29.2872.688.4308 1.196.4308.387 0 .785-.0478 1.196-.1436.411-.0957.774-.2154 1.088-.359l.653 3.662c-.653.3112-1.414.5505-2.284.7181-.871.1675-1.656.2513-2.357.2513-1.523 0-2.707-.395-3.553-1.1848-.822-.8138-1.232-1.9626-1.232-3.4466V6.73975zM147.002 32.9482V14.1355h4.858v18.8127h-4.858zm0-21.4335V6.73975h4.858v4.77495h-4.858zM185.39 32.9482h-4.858V22.393c0-1.484-.266-2.573-.798-3.2671-.507-.718-1.22-1.077-2.139-1.077-.942 0-1.849.3709-2.719 1.1129-.846.7181-1.45 1.6635-1.812 2.8363v10.9501h-4.858V22.393c0-1.5079-.266-2.6089-.798-3.303-.507-.6941-1.22-1.0411-2.139-1.0411-.942 0-1.849.359-2.719 1.077-.846.718-1.45 1.6635-1.813 2.8363v10.986h-4.858V14.1355h4.387v3.4825c.725-1.2206 1.692-2.1541 2.9-2.8003 1.209-.6702 2.599-1.0053 4.17-1.0053 1.571 0 2.791.383 3.661 1.1489.894.7659 1.462 1.7113 1.704 2.8362.773-1.2924 1.752-2.2738 2.937-2.9439 1.208-.6941 2.562-1.0412 4.06-1.0412 1.184 0 2.139.2154 2.864.6463.749.4068 1.329.9693 1.74 1.6874.411.6941.689 1.4839.834 2.3695.169.8856.254 1.7831.254 2.6926v11.74zM198.066 33.3072c-1.522 0-2.9-.2513-4.133-.754-1.232-.5265-2.284-1.2326-3.154-2.1182-.87-.9095-1.546-1.9387-2.03-3.0876-.459-1.1727-.689-2.4054-.689-3.6978 0-1.7951.399-3.4347 1.197-4.9186.822-1.484 1.982-2.6687 3.48-3.5543 1.523-.9095 3.311-1.3643 5.366-1.3643 2.078 0 3.855.4548 5.329 1.3643 1.474.8856 2.598 2.0703 3.371 3.5543.798 1.46 1.197 3.0397 1.197 4.739 0 .2873-.012.5864-.036.8976-.025.2872-.049.5266-.073.718h-14.683c.097.9574.375 1.7951.834 2.5132.484.718 1.088 1.2685 1.813 1.6515.749.359 1.547.5385 2.393.5385.966 0 1.873-.2274 2.719-.6822.87-.4786 1.462-1.1009 1.776-1.8669l4.169 1.1489c-.459.9574-1.124 1.8071-1.994 2.549-.846.742-1.849 1.3284-3.009 1.7592-1.16.4069-2.441.6104-3.843.6104zM193.1 22.034h9.933c-.097-.9574-.374-1.7832-.834-2.4773-.435-.718-1.015-1.2685-1.74-1.6515-.725-.4068-1.535-.6103-2.429-.6103-.87 0-1.668.2035-2.393.6103-.701.383-1.281.9335-1.74 1.6515-.435.6941-.701 1.5199-.797 2.4773z" fill="#fff"/></svg>