<svg width="637" height="784" viewBox="0 0 637 784" fill="none" xmlns="http://www.w3.org/2000/svg">
<path d="M445.006 782.609V782.287L522.754 687.833L445.006 596.591V596.269H479.704L540.103 666.95L600.824 596.269H635.201V596.591L557.452 687.833L635.522 782.287V782.609H600.824L540.103 708.073L479.704 782.609H445.006Z" fill="white"/>
<path fill-rule="evenodd" clip-rule="evenodd" d="M443.665 783.95V781.806L521.005 687.848L443.665 597.085V594.928H480.322L540.106 664.889L600.208 594.928H636.542V597.085L559.203 687.846L636.863 781.805V783.95H600.187L540.106 710.2L480.343 783.95H443.665ZM540.103 708.073L600.824 782.609H635.522V782.287L557.452 687.833L635.201 596.591V596.269H600.824L540.103 666.95L479.704 596.269H445.006V596.591L522.754 687.833L445.006 782.287V782.609H479.704L540.103 708.073Z" fill="white"/>
<path d="M275.147 782.658C268.079 782.658 261.547 780.945 255.549 777.518C249.766 773.877 245.054 769.165 241.413 763.382C237.986 757.385 236.273 750.852 236.273 743.784V596.319H262.617V743.784C262.617 747.211 263.795 750.21 266.151 752.78C268.722 755.136 271.72 756.314 275.147 756.314H386.951C390.378 756.314 393.376 755.136 395.946 752.78C398.517 750.21 399.802 747.211 399.802 743.784V596.319H426.146V743.784C426.146 750.852 424.326 757.385 420.685 763.382C417.258 769.165 412.546 773.877 406.548 777.518C400.766 780.945 394.233 782.658 386.951 782.658H275.147Z" fill="white"/>
<path fill-rule="evenodd" clip-rule="evenodd" d="M254.859 778.668L254.835 778.653C248.882 774.905 244.026 770.049 240.278 764.097L240.263 764.072L240.249 764.047C236.703 757.843 234.932 751.08 234.932 743.784V594.978H263.959V743.784C263.959 746.85 264.994 749.513 267.101 751.831C269.418 753.938 272.081 754.973 275.147 754.973H386.951C390.026 754.973 392.696 753.931 395.019 751.811C397.34 749.48 398.461 746.823 398.461 743.784V594.978H427.487V743.784C427.487 751.093 425.602 757.865 421.835 764.072C418.291 770.05 413.419 774.915 407.244 778.664L407.238 778.668L407.232 778.672C401.225 782.232 394.453 784 386.951 784H275.147C267.851 784 261.089 782.228 254.884 778.683L254.859 778.668ZM420.685 763.382C424.326 757.385 426.146 750.852 426.146 743.784V596.319H399.802V743.784C399.802 747.211 398.517 750.21 395.946 752.78C393.376 755.136 390.378 756.314 386.951 756.314H275.147C271.72 756.314 268.722 755.136 266.151 752.78C263.795 750.21 262.617 747.211 262.617 743.784V596.319H236.273V743.784C236.273 750.852 237.986 757.385 241.413 763.382C245.054 769.165 249.766 773.877 255.549 777.518C261.547 780.945 268.079 782.658 275.147 782.658H386.951C394.233 782.658 400.766 780.945 406.548 777.518C412.546 773.877 417.258 769.165 420.685 763.382Z" fill="white"/>
<path d="M105.051 782.659V577.364H2.24349V551.341H233.561V577.364H131.075V782.659H105.051Z" fill="white"/>
<path fill-rule="evenodd" clip-rule="evenodd" d="M103.71 784V578.706H0.902344V550H234.902V578.706H132.416V784H103.71ZM131.075 577.364H233.561V551.341H2.24349V577.364H105.051V782.659H131.075V577.364Z" fill="white"/>
<path fill-rule="evenodd" clip-rule="evenodd" d="M244.553 39.8993C223.152 40.5921 201.201 41.5774 178.231 42.8538C136.458 45.1751 103.538 77.8191 101.391 118.015C99.107 160.771 99.0583 199.436 101.378 242.317C103.498 281.502 135.154 313.473 175.762 316.478C277.935 324.04 359.662 324.212 461.843 316.584C502.094 313.579 533.506 281.958 535.772 243.094C538.306 199.639 538.303 160.487 535.843 117.192C533.584 77.4484 500.905 45.182 459.382 42.8611C435.435 41.5227 412.598 40.5057 390.343 39.8089C388.676 56.0548 376.602 69.6698 360.144 71.8667C330.18 75.8663 305.563 75.5672 274.79 71.5297C258.439 69.3844 246.279 56.0052 244.553 39.8993ZM176.086 4.24366C115.409 7.61542 66.0181 55.268 62.7764 115.952C60.4204 160.054 60.3682 200.105 62.7646 244.406C65.9744 303.745 113.644 350.657 172.908 355.043C235.886 359.703 291.394 361.608 348.503 360.661C375.403 389.894 397.116 405.72 426.938 418.917C433.586 421.859 439.769 413.909 436.339 407.499C426.876 389.819 425.039 374.739 430.919 357.432C441.973 356.767 453.223 356.005 464.722 355.147C523.578 350.753 570.941 304.265 574.376 245.345C576.997 200.393 576.994 159.757 574.45 114.998C571.025 54.7287 521.813 7.62049 461.54 4.25167C359.863 -1.43133 277.654 -1.40044 176.086 4.24366ZM288.426 162.013C288.426 186.612 268.484 206.555 243.884 206.555C219.285 206.555 199.342 186.612 199.342 162.013C199.342 137.413 219.285 117.471 243.884 117.471C268.484 117.471 288.426 137.413 288.426 162.013ZM389.797 206.555C414.397 206.555 434.339 186.612 434.339 162.013C434.339 137.413 414.397 117.471 389.797 117.471C365.197 117.471 345.255 137.413 345.255 162.013C345.255 186.612 365.197 206.555 389.797 206.555Z" fill="#A8E840"/>
</svg>
