<svg width="636" height="784" viewBox="0 0 636 784" fill="none" xmlns="http://www.w3.org/2000/svg">
<path d="M444.104 782.609V782.287L521.852 687.833L444.104 596.591V596.269H478.801L539.201 666.95L599.922 596.269H634.298V596.591L556.55 687.833L634.619 782.287V782.609H599.922L539.201 708.073L478.801 782.609H444.104Z" fill="#1B1C1F"/>
<path fill-rule="evenodd" clip-rule="evenodd" d="M442.763 783.95V781.806L520.103 687.848L442.763 597.085V594.928H479.419L539.204 664.889L599.306 594.928H635.639V597.085L558.301 687.846L635.961 781.805V783.95H599.285L539.204 710.2L479.441 783.95H442.763ZM539.201 708.073L599.922 782.609H634.619V782.287L556.55 687.833L634.298 596.591V596.269H599.922L539.201 666.95L478.801 596.269H444.104V596.591L521.852 687.833L444.104 782.287V782.609H478.801L539.201 708.073Z" fill="#1B1C1F"/>
<path d="M274.245 782.658C267.177 782.658 260.644 780.945 254.647 777.518C248.864 773.877 244.152 769.165 240.511 763.382C237.084 757.385 235.371 750.852 235.371 743.784V596.319H261.715V743.784C261.715 747.211 262.893 750.21 265.249 752.78C267.819 755.136 270.818 756.314 274.245 756.314H386.048C389.475 756.314 392.474 755.136 395.044 752.78C397.614 750.21 398.899 747.211 398.899 743.784V596.319H425.244V743.784C425.244 750.852 423.423 757.385 419.782 763.382C416.355 769.165 411.643 773.877 405.646 777.518C399.863 780.945 393.331 782.658 386.048 782.658H274.245Z" fill="#1B1C1F"/>
<path fill-rule="evenodd" clip-rule="evenodd" d="M253.957 778.668L253.933 778.653C247.98 774.905 243.124 770.049 239.376 764.097L239.361 764.072L239.347 764.047C235.801 757.843 234.029 751.08 234.029 743.784V594.978H263.056V743.784C263.056 746.85 264.091 749.513 266.198 751.831C268.516 753.938 271.179 754.973 274.245 754.973H386.048C389.124 754.973 391.794 753.931 394.116 751.811C396.438 749.48 397.558 746.823 397.558 743.784V594.978H426.585V743.784C426.585 751.093 424.699 757.865 420.933 764.072C417.389 770.05 412.517 774.915 406.342 778.664L406.336 778.668L406.33 778.672C400.323 782.232 393.55 784 386.048 784H274.245C266.949 784 260.186 782.228 253.982 778.683L253.957 778.668ZM419.782 763.382C423.423 757.385 425.244 750.852 425.244 743.784V596.319H398.899V743.784C398.899 747.211 397.614 750.21 395.044 752.78C392.474 755.136 389.475 756.314 386.048 756.314H274.245C270.818 756.314 267.819 755.136 265.249 752.78C262.893 750.21 261.715 747.211 261.715 743.784V596.319H235.371V743.784C235.371 750.852 237.084 757.385 240.511 763.382C244.152 769.165 248.864 773.877 254.647 777.518C260.644 780.945 267.177 782.658 274.245 782.658H386.048C393.331 782.658 399.863 780.945 405.646 777.518C411.643 773.877 416.355 769.165 419.782 763.382Z" fill="#1B1C1F"/>
<path d="M104.149 782.659V577.364H1.34114V551.341H232.659V577.364H130.172V782.659H104.149Z" fill="#1B1C1F"/>
<path fill-rule="evenodd" clip-rule="evenodd" d="M102.808 784V578.706H0V550H234V578.706H131.513V784H102.808ZM130.172 577.364H232.659V551.341H1.34114V577.364H104.149V782.659H130.172V577.364Z" fill="#1B1C1F"/>
<path fill-rule="evenodd" clip-rule="evenodd" d="M243.65 39.8993C222.25 40.5921 200.299 41.5774 177.329 42.8538C135.556 45.1751 102.636 77.8191 100.489 118.015C98.2046 160.771 98.1559 199.436 100.476 242.317C102.595 281.502 134.251 313.473 174.86 316.478C277.033 324.04 358.76 324.212 460.941 316.584C501.191 313.579 532.604 281.958 534.87 243.094C537.403 199.639 537.401 160.487 534.94 117.192C532.682 77.4484 500.002 45.182 458.48 42.8611C434.532 41.5227 411.696 40.5057 389.441 39.8089C387.773 56.0548 375.7 69.6698 359.242 71.8667C329.278 75.8663 304.66 75.5672 273.888 71.5297C257.537 69.3844 245.377 56.0052 243.65 39.8993ZM175.183 4.24366C114.506 7.61542 65.1157 55.268 61.874 115.952C59.5181 160.054 59.4659 200.105 61.8622 244.406C65.0721 303.745 112.742 350.657 172.006 355.043C234.984 359.703 290.491 361.608 347.601 360.661C374.5 389.894 396.214 405.72 426.035 418.917C432.684 421.859 438.867 413.909 435.436 407.499C425.973 389.819 424.136 374.739 430.017 357.432C441.071 356.767 452.32 356.005 463.819 355.147C522.676 350.753 570.038 304.265 573.474 245.345C576.095 200.393 576.091 159.757 573.548 114.998C570.123 54.7287 520.91 7.62049 460.638 4.25167C358.96 -1.43133 276.752 -1.40044 175.183 4.24366ZM287.524 162.013C287.524 186.612 267.582 206.555 242.982 206.555C218.382 206.555 198.44 186.612 198.44 162.013C198.44 137.413 218.382 117.471 242.982 117.471C267.582 117.471 287.524 137.413 287.524 162.013ZM388.895 206.555C413.494 206.555 433.436 186.612 433.436 162.013C433.436 137.413 413.494 117.471 388.895 117.471C364.295 117.471 344.353 137.413 344.353 162.013C344.353 186.612 364.295 206.555 388.895 206.555Z" fill="#1B1C1F"/>
</svg>
