<svg width="759" height="728" viewBox="0 0 759 728" fill="none" xmlns="http://www.w3.org/2000/svg">
<rect x="3" y="3" width="753" height="722" rx="35.6385" fill="#1B1C1F"/>
<rect x="3" y="3" width="753" height="722" rx="35.6385" stroke="white" stroke-width="6"/>
<rect x="40" y="570" width="679" height="111.584" rx="25.76" fill="#A8E840"/>
<g clip-path="url(#clip0_322_53790)">
<path d="M268.281 653.555H276.957C278.155 653.555 279.126 652.584 279.126 651.386C279.126 650.188 278.155 649.217 276.957 649.217H268.281C267.083 649.217 266.112 650.188 266.112 651.386C266.112 652.584 267.083 653.555 268.281 653.555Z" fill="#212C12"/>
<path d="M272.619 598.03C271.421 598.03 270.45 599.001 270.45 600.199V602.523C263.102 603.579 257.437 609.915 257.437 617.55V630.885C257.437 631.649 257.092 632.344 256.58 632.615C254.433 633.749 253.099 635.955 253.099 638.372C253.099 641.96 256.018 644.879 259.605 644.879H285.633C289.221 644.879 292.14 641.96 292.14 638.372C292.14 635.955 290.806 633.749 288.658 632.615C288.146 632.344 287.802 631.649 287.802 630.885V617.55C287.802 609.915 282.136 603.579 274.788 602.523V600.199C274.788 599.001 273.817 598.03 272.619 598.03V598.03ZM283.464 617.55V630.885C283.464 633.286 284.678 635.419 286.633 636.451C287.354 636.832 287.802 637.568 287.802 638.372C287.802 639.568 286.829 640.541 285.633 640.541H259.605C258.41 640.541 257.437 639.568 257.437 638.372C257.437 637.568 257.884 636.832 258.605 636.451C260.56 635.419 261.774 633.286 261.774 630.885V617.55C261.774 611.571 266.639 606.706 272.619 606.706C278.599 606.706 283.464 611.571 283.464 617.55Z" fill="#212C12"/>
</g>
<path d="M341.453 638.584C339.426 638.584 337.594 638.237 335.956 637.543C334.345 636.849 333.068 635.849 332.124 634.544C331.18 633.239 330.695 631.699 330.667 629.922H336.913C336.997 631.116 337.413 632.06 338.163 632.754C338.94 633.448 339.995 633.795 341.328 633.795C342.688 633.795 343.757 633.475 344.534 632.837C345.312 632.171 345.7 631.31 345.7 630.255C345.7 629.394 345.437 628.686 344.909 628.131C344.382 627.576 343.715 627.146 342.91 626.84C342.133 626.507 341.05 626.146 339.662 625.757C337.774 625.202 336.233 624.661 335.039 624.133C333.873 623.578 332.86 622.759 331.999 621.676C331.167 620.566 330.75 619.094 330.75 617.262C330.75 615.541 331.18 614.042 332.041 612.765C332.902 611.488 334.109 610.516 335.664 609.85C337.219 609.155 338.996 608.808 340.995 608.808C343.993 608.808 346.422 609.544 348.282 611.016C350.17 612.459 351.211 614.486 351.405 617.096H344.992C344.937 616.096 344.506 615.277 343.701 614.639C342.924 613.972 341.883 613.639 340.578 613.639C339.44 613.639 338.524 613.931 337.83 614.514C337.163 615.097 336.83 615.943 336.83 617.054C336.83 617.831 337.08 618.484 337.58 619.011C338.107 619.511 338.746 619.927 339.495 620.26C340.273 620.566 341.355 620.927 342.744 621.343C344.631 621.898 346.172 622.454 347.366 623.009C348.56 623.564 349.587 624.397 350.448 625.508C351.308 626.618 351.739 628.076 351.739 629.88C351.739 631.435 351.336 632.879 350.531 634.211C349.726 635.544 348.546 636.613 346.991 637.418C345.437 638.195 343.59 638.584 341.453 638.584ZM378.24 626.257C378.24 627.09 378.184 627.84 378.073 628.506H361.207C361.346 630.172 361.929 631.477 362.956 632.42C363.984 633.364 365.247 633.836 366.746 633.836C368.911 633.836 370.452 632.906 371.368 631.046H377.657C376.99 633.267 375.713 635.1 373.825 636.543C371.938 637.959 369.619 638.667 366.871 638.667C364.65 638.667 362.651 638.181 360.874 637.209C359.125 636.21 357.751 634.808 356.751 633.003C355.78 631.199 355.294 629.117 355.294 626.757C355.294 624.369 355.78 622.273 356.751 620.469C357.723 618.664 359.084 617.276 360.833 616.304C362.582 615.333 364.594 614.847 366.871 614.847C369.064 614.847 371.021 615.319 372.743 616.263C374.492 617.207 375.838 618.553 376.782 620.302C377.754 622.023 378.24 624.008 378.24 626.257ZM372.201 624.591C372.174 623.092 371.632 621.898 370.577 621.01C369.522 620.094 368.231 619.636 366.704 619.636C365.261 619.636 364.039 620.08 363.04 620.968C362.068 621.829 361.471 623.037 361.249 624.591H372.201ZM403.942 626.257C403.942 627.09 403.886 627.84 403.775 628.506H386.909C387.048 630.172 387.631 631.477 388.658 632.42C389.686 633.364 390.949 633.836 392.448 633.836C394.614 633.836 396.154 632.906 397.071 631.046H403.359C402.692 633.267 401.415 635.1 399.527 636.543C397.64 637.959 395.321 638.667 392.573 638.667C390.352 638.667 388.353 638.181 386.576 637.209C384.827 636.21 383.453 634.808 382.454 633.003C381.482 631.199 380.996 629.117 380.996 626.757C380.996 624.369 381.482 622.273 382.454 620.469C383.425 618.664 384.786 617.276 386.535 616.304C388.284 615.333 390.296 614.847 392.573 614.847C394.766 614.847 396.723 615.319 398.445 616.263C400.194 617.207 401.54 618.553 402.484 620.302C403.456 622.023 403.942 624.008 403.942 626.257ZM397.903 624.591C397.876 623.092 397.334 621.898 396.279 621.01C395.224 620.094 393.933 619.636 392.406 619.636C390.963 619.636 389.741 620.08 388.742 620.968C387.77 621.829 387.173 623.037 386.951 624.591H397.903ZM416.621 626.674C416.621 624.342 417.079 622.273 417.995 620.469C418.939 618.664 420.202 617.276 421.785 616.304C423.395 615.333 425.186 614.847 427.157 614.847C428.878 614.847 430.377 615.194 431.654 615.888C432.959 616.582 434 617.456 434.778 618.511V615.222H440.649V638.292H434.778V634.919C434.028 636.002 432.987 636.904 431.654 637.626C430.35 638.32 428.836 638.667 427.115 638.667C425.172 638.667 423.395 638.167 421.785 637.168C420.202 636.168 418.939 634.766 417.995 632.962C417.079 631.13 416.621 629.033 416.621 626.674ZM434.778 626.757C434.778 625.341 434.5 624.133 433.945 623.134C433.39 622.107 432.64 621.329 431.696 620.802C430.752 620.247 429.739 619.969 428.656 619.969C427.573 619.969 426.574 620.233 425.658 620.76C424.742 621.288 423.992 622.065 423.409 623.092C422.854 624.092 422.576 625.285 422.576 626.674C422.576 628.062 422.854 629.283 423.409 630.338C423.992 631.365 424.742 632.157 425.658 632.712C426.602 633.267 427.601 633.545 428.656 633.545C429.739 633.545 430.752 633.281 431.696 632.754C432.64 632.198 433.39 631.421 433.945 630.422C434.5 629.394 434.778 628.173 434.778 626.757ZM452.174 607.476V638.292H446.344V607.476H452.174ZM479.38 626.257C479.38 627.09 479.325 627.84 479.214 628.506H462.348C462.487 630.172 463.07 631.477 464.097 632.42C465.124 633.364 466.388 633.836 467.887 633.836C470.052 633.836 471.593 632.906 472.509 631.046H478.797C478.131 633.267 476.854 635.1 474.966 636.543C473.078 637.959 470.76 638.667 468.012 638.667C465.791 638.667 463.792 638.181 462.015 637.209C460.266 636.21 458.892 634.808 457.892 633.003C456.921 631.199 456.435 629.117 456.435 626.757C456.435 624.369 456.921 622.273 457.892 620.469C458.864 618.664 460.224 617.276 461.973 616.304C463.722 615.333 465.735 614.847 468.012 614.847C470.205 614.847 472.162 615.319 473.883 616.263C475.633 617.207 476.979 618.553 477.923 620.302C478.895 622.023 479.38 624.008 479.38 626.257ZM473.342 624.591C473.314 623.092 472.773 621.898 471.718 621.01C470.663 620.094 469.372 619.636 467.845 619.636C466.401 619.636 465.18 620.08 464.18 620.968C463.209 621.829 462.612 623.037 462.39 624.591H473.342ZM489.466 618.803C490.216 617.581 491.187 616.624 492.381 615.93C493.603 615.235 494.991 614.888 496.546 614.888V621.01H495.005C493.172 621.01 491.784 621.44 490.84 622.301C489.924 623.162 489.466 624.661 489.466 626.799V638.292H483.636V615.222H489.466V618.803ZM507.26 620.011V631.171C507.26 631.948 507.441 632.518 507.802 632.879C508.19 633.212 508.829 633.378 509.717 633.378H512.424V638.292H508.76C503.846 638.292 501.389 635.905 501.389 631.13V620.011H498.64V615.222H501.389V609.516H507.26V615.222H512.424V620.011H507.26Z" fill="#212C12"/>
<rect x="389" y="382" width="329" height="64" rx="13.76" fill="#24252A"/>
<rect x="40" y="382" width="329" height="64" rx="13.76" fill="#24252A"/>
<rect x="40" y="298" width="678" height="64" rx="13.76" fill="#24252A"/>
<rect x="389" y="466" width="329" height="64" rx="13.76" fill="#24252A"/>
<rect x="40" y="466" width="329" height="64" rx="13.76" fill="#24252A"/>
<path d="M379.857 252C400.213 252 416.715 235.658 416.715 215.5C416.715 195.342 400.213 179 379.857 179C373.646 179 367.794 180.521 362.66 183.208C360.679 184.245 360.44 186.864 362.024 188.432L371.232 197.551C372.263 198.573 373.809 198.84 375.218 198.465C376.697 198.07 378.252 197.86 379.857 197.86C389.695 197.86 397.67 205.758 397.67 215.5C397.67 225.242 389.695 233.14 379.857 233.14C378.247 233.14 376.686 232.928 375.202 232.531C373.792 232.154 372.245 232.421 371.212 233.443L362.008 242.559C360.424 244.127 360.663 246.745 362.642 247.782C367.781 250.475 373.639 252 379.857 252Z" fill="#A8E840"/>
<path d="M349.87 236.726C351.073 238.39 353.478 238.454 354.939 237.008L363.531 228.499C364.807 227.235 364.897 225.244 364.061 223.66C362.773 221.22 362.045 218.444 362.045 215.5C362.045 212.551 362.776 209.771 364.068 207.328C364.906 205.743 364.817 203.75 363.539 202.485L354.949 193.978C353.489 192.532 351.085 192.596 349.881 194.258C345.55 200.242 343 207.576 343 215.5C343 223.417 345.545 230.745 349.87 236.726Z" fill="#A8E840"/>
<path d="M379.857 206.736C384.745 206.736 388.708 210.66 388.708 215.5C388.708 220.34 384.745 224.264 379.857 224.264C374.97 224.264 371.007 220.34 371.007 215.5C371.007 210.66 374.97 206.736 379.857 206.736Z" fill="#A8E840"/>
<defs>
<clipPath id="clip0_322_53790">
<rect width="55.5251" height="55.5251" fill="white" transform="translate(244.856 598.03)"/>
</clipPath>
</defs>
</svg>
