<svg width="499" height="96" viewBox="0 0 499 96" fill="none" xmlns="http://www.w3.org/2000/svg">
<path d="M48.4009 95.8629C75.132 95.8629 96.8018 74.4033 96.8018 47.9314C96.8018 21.4596 75.132 0 48.4009 0C40.2446 0 32.5595 1.99792 25.8174 5.52652C23.2164 6.88782 22.9018 10.3265 24.9821 12.3866L37.0741 24.3613C38.4285 25.7025 40.4583 26.0535 42.3079 25.5607C44.2506 25.0431 46.2932 24.767 48.4009 24.767C61.3196 24.767 71.7922 35.1381 71.7922 47.9314C71.7922 60.7248 61.3196 71.0959 48.4009 71.0959C46.2857 71.0959 44.2361 70.8179 42.2873 70.2967C40.4364 69.8017 38.4041 70.152 37.0484 71.4945L24.9606 83.465C22.881 85.5244 23.1946 88.9619 25.794 90.3241C32.5417 93.8604 40.2352 95.8629 48.4009 95.8629Z" fill="#A8E840"/>
<path d="M9.02145 75.8057C10.6009 77.9901 13.7593 78.075 15.6776 76.1752L26.9608 65.0015C28.6367 63.3419 28.7549 60.7266 27.6571 58.6465C25.9659 55.4423 25.0096 51.7975 25.0096 47.9314C25.0096 44.0586 25.9693 40.4078 27.666 37.1995C28.7664 35.1187 28.6493 32.501 26.9722 30.8401L15.6914 19.6687C13.7736 17.7696 10.6165 17.8537 9.03641 20.0365C3.3484 27.8944 0 37.5257 0 47.9314C0 58.3281 3.34253 67.9516 9.02145 75.8057Z" fill="#A8E840"/>
<path d="M48.4009 36.4221C54.8196 36.4221 60.023 41.575 60.023 47.9314C60.023 54.2879 54.8196 59.4408 48.4009 59.4408C41.9822 59.4408 36.7788 54.2879 36.7788 47.9314C36.7788 41.575 41.9822 36.4221 48.4009 36.4221Z" fill="#A8E840"/>
<path d="M155.059 79.8231C151.583 79.8231 148.484 79.0487 145.762 77.5C143.04 75.9512 140.896 73.8289 139.332 71.1329V78.9627H129.167V16.1523H140.809V41.7927C142.431 39.0968 144.546 36.9744 147.152 35.4256C149.816 33.8769 152.915 33.1025 156.449 33.1025C159.403 33.1025 162.096 33.7335 164.529 34.9954C166.962 36.2 169.047 37.8922 170.785 40.0719C172.58 42.2516 173.941 44.7468 174.868 47.5575C175.853 50.3682 176.345 53.3797 176.345 56.5919C176.345 59.8041 175.795 62.8155 174.694 65.6262C173.652 68.4369 172.175 70.9321 170.263 73.1119C168.352 75.2342 166.093 76.8977 163.486 78.1023C160.938 79.2495 158.128 79.8231 155.059 79.8231ZM151.844 70.0144C153.697 70.0144 155.377 69.6702 156.883 68.9819C158.447 68.2362 159.779 67.261 160.88 66.0564C162.038 64.8519 162.907 63.4465 163.486 61.8404C164.123 60.1769 164.442 58.4561 164.442 56.6779C164.442 54.2114 163.921 51.9456 162.878 49.8806C161.893 47.7583 160.503 46.0661 158.708 44.8042C156.97 43.5422 154.914 42.9113 152.539 42.9113C150.859 42.9113 149.237 43.3128 147.673 44.1158C146.167 44.8615 144.806 45.894 143.59 47.2133C142.431 48.5327 141.505 50.024 140.809 51.6875V62.4427C141.157 63.5899 141.707 64.6224 142.46 65.5402C143.271 66.458 144.198 67.261 145.241 67.9494C146.283 68.5803 147.355 69.0966 148.455 69.4981C149.614 69.8423 150.743 70.0144 151.844 70.0144Z" fill="white"/>
<path d="M180.237 65.6262C180.237 62.7008 181.048 60.1483 182.669 57.9685C184.349 55.7315 186.666 54.0106 189.62 52.806C192.574 51.6015 195.963 50.9992 199.786 50.9992C201.697 50.9992 203.637 51.1426 205.607 51.4294C207.576 51.7162 209.285 52.1751 210.733 52.806V50.3969C210.733 47.5288 209.864 45.3204 208.126 43.7717C206.447 42.2229 203.927 41.4486 200.568 41.4486C198.077 41.4486 195.702 41.8788 193.443 42.7392C191.184 43.5996 188.809 44.8615 186.319 46.525L182.582 38.9534C185.594 37.0031 188.664 35.5404 191.792 34.5652C194.978 33.5901 198.309 33.1025 201.784 33.1025C208.271 33.1025 213.311 34.7086 216.902 37.9209C220.551 41.1331 222.375 45.722 222.375 51.6875V66.0564C222.375 67.261 222.578 68.1214 222.984 68.6377C223.447 69.1539 224.171 69.4694 225.156 69.5842V78.9627C224.113 79.1348 223.157 79.2782 222.289 79.3929C221.478 79.5076 220.783 79.565 220.203 79.565C217.886 79.565 216.12 79.0487 214.903 78.0162C213.745 76.9837 213.021 75.7218 212.731 74.2304L212.471 71.9073C210.501 74.4312 208.04 76.3814 205.086 77.7581C202.131 79.1348 199.119 79.8231 196.05 79.8231C193.038 79.8231 190.315 79.2208 187.882 78.0162C185.508 76.7543 183.625 75.0621 182.235 72.9398C180.903 70.7601 180.237 68.3222 180.237 65.6262ZM208.561 67.9494C209.198 67.261 209.719 66.5727 210.125 65.8844C210.53 65.196 210.733 64.5651 210.733 63.9915V59.4313C209.343 58.8576 207.837 58.4274 206.215 58.1406C204.593 57.7965 203.058 57.6244 201.61 57.6244C198.598 57.6244 196.107 58.284 194.138 59.6033C192.227 60.8653 191.271 62.5574 191.271 64.6798C191.271 65.827 191.589 66.9169 192.227 67.9494C192.864 68.9819 193.791 69.8136 195.007 70.4446C196.223 71.0755 197.671 71.391 199.351 71.391C201.089 71.391 202.798 71.0755 204.477 70.4446C206.157 69.7562 207.518 68.9245 208.561 67.9494Z" fill="white"/>
<path d="M249.155 79.8231C245.274 79.8231 241.567 79.1921 238.034 77.9302C234.5 76.6682 231.459 74.804 228.911 72.3375L233.081 64.8519C235.804 67.0316 238.468 68.6377 241.075 69.6702C243.739 70.7027 246.288 71.2189 248.72 71.2189C250.979 71.2189 252.775 70.8174 254.107 70.0144C255.497 69.2113 256.192 68.0067 256.192 66.4006C256.192 65.3108 255.816 64.479 255.063 63.9054C254.31 63.2744 253.209 62.7295 251.761 62.2706C250.371 61.8117 248.662 61.2955 246.635 60.7219C243.276 59.632 240.466 58.5708 238.207 57.5383C235.948 56.5058 234.24 55.2152 233.081 53.6665C231.981 52.0604 231.43 50.024 231.43 47.5575C231.43 44.5747 232.183 42.0222 233.689 39.8998C235.253 37.7201 237.397 36.0279 240.119 34.8234C242.899 33.6188 246.143 33.0165 249.85 33.0165C253.094 33.0165 256.164 33.5327 259.06 34.5652C261.956 35.5404 264.591 37.1465 266.966 39.3836L262.274 46.6971C259.957 44.9189 257.756 43.6283 255.671 42.8252C253.586 41.9648 251.472 41.5346 249.329 41.5346C248.112 41.5346 246.954 41.678 245.853 41.9648C244.811 42.2516 243.942 42.7392 243.247 43.4275C242.61 44.0585 242.291 44.9763 242.291 46.1808C242.291 47.2707 242.581 48.1311 243.16 48.7621C243.797 49.3357 244.724 49.852 245.94 50.3108C247.214 50.7697 248.749 51.286 250.545 51.8596C254.194 52.8921 257.264 53.9533 259.755 55.0431C262.303 56.133 264.215 57.481 265.489 59.0871C266.763 60.6358 267.401 62.7869 267.401 65.5402C267.401 70.0144 265.75 73.5134 262.448 76.0373C259.147 78.5612 254.715 79.8231 249.155 79.8231Z" fill="white"/>
<path d="M295.563 79.8231C291.914 79.8231 288.613 79.2208 285.658 78.0162C282.704 76.7543 280.185 75.0621 278.1 72.9398C276.014 70.7601 274.392 68.2935 273.234 65.5402C272.133 62.7295 271.583 59.7754 271.583 56.6779C271.583 52.3758 272.539 48.4466 274.45 44.8902C276.42 41.3338 279.2 38.4945 282.791 36.3721C286.44 34.1924 290.727 33.1025 295.65 33.1025C300.632 33.1025 304.889 34.1924 308.422 36.3721C311.955 38.4945 314.649 41.3338 316.502 44.8902C318.414 48.3892 319.37 52.1751 319.37 56.2477C319.37 56.936 319.341 57.6531 319.283 58.3988C319.225 59.0871 319.167 59.6607 319.109 60.1196H283.921C284.152 62.414 284.819 64.4217 285.919 66.1425C287.078 67.8633 288.526 69.1826 290.263 70.1004C292.059 70.9608 293.97 71.391 295.998 71.391C298.315 71.391 300.487 70.8461 302.514 69.7562C304.599 68.609 306.018 67.1176 306.771 65.2821L316.763 68.0354C315.662 70.3298 314.07 72.3662 311.984 74.1444C309.957 75.9225 307.553 77.3279 304.773 78.3604C301.993 79.3355 298.923 79.8231 295.563 79.8231ZM283.66 52.806H307.466C307.235 50.5116 306.569 48.5326 305.468 46.8692C304.425 45.1483 303.035 43.829 301.298 42.9113C299.56 41.9361 297.62 41.4486 295.476 41.4486C293.391 41.4486 291.48 41.9361 289.742 42.9113C288.062 43.829 286.672 45.1483 285.572 46.8692C284.529 48.5326 283.892 50.5116 283.66 52.806Z" fill="white"/>
<path d="M325.506 16.1523H337.149V64.5077C337.149 66.5727 337.496 67.978 338.192 68.7237C338.887 69.4121 339.842 69.7562 341.059 69.7562C341.985 69.7562 342.941 69.6415 343.926 69.4121C344.911 69.1826 345.779 68.8958 346.532 68.5517L348.096 77.3279C346.532 78.0736 344.708 78.6472 342.623 79.0487C340.537 79.4503 338.655 79.651 336.975 79.651C333.326 79.651 330.488 78.7046 328.46 76.8116C326.491 74.8614 325.506 72.108 325.506 68.5517V16.1523Z" fill="white"/>
<path d="M352.3 78.9627V33.8769H363.943V78.9627H352.3ZM352.3 27.5959V16.1523H363.943V27.5959H352.3Z" fill="white"/>
<path d="M444.3 78.9627H432.658V53.6665C432.658 50.1101 432.021 47.5002 430.746 45.8367C429.53 44.1158 427.821 43.2554 425.62 43.2554C423.361 43.2554 421.189 44.1445 419.104 45.9227C417.077 47.6436 415.629 49.9093 414.76 52.72V78.9627H403.117V53.6665C403.117 50.0527 402.48 47.4141 401.206 45.7506C399.989 44.0872 398.281 43.2554 396.08 43.2554C393.821 43.2554 391.648 44.1158 389.563 45.8367C387.536 47.5575 386.088 49.8233 385.219 52.634V78.9627H373.577V33.8769H384.09V42.2229C385.827 39.2975 388.144 37.0604 391.04 35.5117C393.936 33.9056 397.267 33.1025 401.032 33.1025C404.797 33.1025 407.722 34.0203 409.807 35.8559C411.95 37.6914 413.312 39.9572 413.891 42.6531C415.744 39.5556 418.09 37.2038 420.928 35.5977C423.825 33.9343 427.068 33.1025 430.659 33.1025C433.498 33.1025 435.786 33.6188 437.523 34.6513C439.319 35.6264 440.709 36.9744 441.694 38.6952C442.678 40.3587 443.345 42.2516 443.692 44.374C444.098 46.4963 444.3 48.6474 444.3 50.8271V78.9627Z" fill="white"/>
<path d="M474.681 79.8231C471.031 79.8231 467.73 79.2208 464.776 78.0162C461.822 76.7543 459.302 75.0621 457.217 72.9398C455.132 70.7601 453.51 68.2935 452.351 65.5402C451.251 62.7295 450.701 59.7754 450.701 56.6779C450.701 52.3758 451.656 48.4466 453.568 44.8902C455.537 41.3338 458.317 38.4945 461.909 36.3721C465.558 34.1924 469.844 33.1025 474.767 33.1025C479.749 33.1025 484.006 34.1924 487.539 36.3721C491.073 38.4945 493.766 41.3338 495.62 44.8902C497.531 48.3892 498.487 52.1751 498.487 56.2477C498.487 56.936 498.458 57.6531 498.4 58.3988C498.342 59.0871 498.284 59.6607 498.226 60.1196H463.038C463.27 62.414 463.936 64.4217 465.036 66.1425C466.195 67.8633 467.643 69.1826 469.381 70.1004C471.176 70.9608 473.088 71.391 475.115 71.391C477.432 71.391 479.604 70.8461 481.631 69.7562C483.717 68.609 485.136 67.1176 485.889 65.2821L495.88 68.0354C494.78 70.3298 493.187 72.3662 491.102 74.1444C489.074 75.9225 486.671 77.3279 483.89 78.3604C481.11 79.3355 478.04 79.8231 474.681 79.8231ZM462.777 52.806H486.584C486.352 50.5116 485.686 48.5326 484.585 46.8692C483.543 45.1483 482.153 43.829 480.415 42.9113C478.677 41.9361 476.737 41.4486 474.594 41.4486C472.508 41.4486 470.597 41.9361 468.859 42.9113C467.18 43.829 465.789 45.1483 464.689 46.8692C463.646 48.5326 463.009 50.5116 462.777 52.806Z" fill="white"/>
</svg>
