<svg width="518" height="421" viewBox="0 0 518 421" fill="none" xmlns="http://www.w3.org/2000/svg">
<path fill-rule="evenodd" clip-rule="evenodd" d="M184.84 40.0386C163.393 40.733 141.393 41.7204 118.372 42.9996C76.5089 45.3259 43.5174 78.0408 41.3655 118.324C39.0765 161.173 39.0277 199.922 41.3523 242.896C43.4765 282.166 75.2015 314.207 115.898 317.218C218.293 324.796 300.197 324.969 402.6 317.325C442.938 314.313 474.419 282.623 476.69 243.675C479.229 200.126 479.226 160.888 476.761 117.5C474.497 77.6694 441.747 45.3328 400.134 43.0069C376.135 41.6656 353.249 40.6464 330.946 39.9481C329.273 56.227 317.174 69.869 300.682 72.0704C270.653 76.0787 245.982 75.7789 215.142 71.7326C198.758 69.5829 186.573 56.1772 184.84 40.0386ZM116.222 4.30561C55.4137 7.68469 5.91569 55.4408 2.66695 116.256C0.305908 160.455 0.253605 200.593 2.65515 244.989C5.872 304.458 53.6451 351.471 113.038 355.866C176.153 360.537 231.781 362.446 289.014 361.497C315.972 390.794 337.733 406.653 367.619 419.879C374.282 422.828 380.478 414.86 377.04 408.436C367.557 390.718 365.716 375.606 371.609 358.261C382.687 357.594 393.961 356.831 405.485 355.971C464.469 351.567 511.935 304.979 515.378 245.931C518.005 200.881 518.001 160.156 515.452 115.301C512.02 54.9003 462.7 7.68977 402.296 4.31364C300.399 -1.3817 218.011 -1.35074 116.222 4.30561ZM228.806 162.411C228.806 187.064 208.821 207.05 184.167 207.05C159.514 207.05 139.529 187.064 139.529 162.411C139.529 137.758 159.514 117.772 184.167 117.772C208.821 117.772 228.806 137.758 228.806 162.411ZM330.397 207.05C355.051 207.05 375.036 187.064 375.036 162.411C375.036 137.758 355.051 117.772 330.397 117.772C305.744 117.772 285.759 137.758 285.759 162.411C285.759 187.064 305.744 207.05 330.397 207.05Z" fill="#A8E840"/>
</svg>
